/* XPM */
static char *collect_281_29[] = {
/* columns rows colors chars-per-pixel */
"64 64 193 2 ",
"   c #BA0E01",
".  c #BD1607",
"X  c #B6170A",
"o  c #BC1B0D",
"O  c #BD1F11",
"+  c #BD2114",
"@  c #BB2A1A",
"#  c #CC1607",
"$  c #C21608",
"%  c #C51C0D",
"&  c #CB1C0E",
"*  c #D5180A",
"=  c #D31F0F",
"-  c #E3190B",
";  c #C42213",
":  c #CC2516",
">  c #C3271A",
",  c #C8271A",
"<  c #C42B1D",
"1  c #CD2B1D",
"2  c #D42213",
"3  c #D42619",
"4  c #D3291A",
"5  c #DB2C1E",
"6  c #E42515",
"7  c #E32816",
"8  c #E32C1C",
"9  c #C62E22",
"0  c #DD2E21",
"q  c #CF3024",
"w  c #C9372C",
"e  c #D53325",
"r  c #DC3224",
"t  c #D5362A",
"y  c #D93529",
"u  c #D33E2C",
"i  c #DD392D",
"p  c #E42F22",
"a  c #E92F20",
"s  c #E53324",
"d  c #EA3425",
"f  c #EA3827",
"g  c #E33728",
"h  c #E53B2D",
"j  c #EA3A2C",
"k  c #F03F34",
"l  c #D3402A",
"z  c #C2473F",
"x  c #D54E3F",
"c  c #CE5238",
"v  c #EC4334",
"b  c #EE493B",
"n  c #F14738",
"m  c #B54C46",
"M  c #BE534B",
"N  c #A85751",
"B  c #BC6D64",
"V  c #BA716D",
"C  c #B37C78",
"Z  c #CB584F",
"A  c #DA5145",
"S  c #E7564A",
"D  c #C86847",
"F  c #D46348",
"G  c #D16251",
"H  c #E7655D",
"J  c #C16861",
"K  c #D66760",
"L  c #E7746C",
"P  c #C88867",
"I  c #D5846B",
"U  c #DB8E7C",
"Y  c #D69574",
"T  c #E6847C",
"R  c #9D8D8B",
"E  c #8B9E9F",
"W  c #9C9998",
"Q  c #A98683",
"!  c #BFB887",
"~  c #B2A29D",
"^  c #85A1A3",
"/  c #8BA5A6",
"(  c #8BA5A8",
")  c #8CA8A9",
"_  c #96A1A1",
"`  c #93ABAB",
"'  c #9AADAA",
"]  c #9EB0A9",
"[  c #9BB5B6",
"{  c #95B7B9",
"}  c #9BB7B8",
"|  c #9DB9BA",
" . c #A1B4B5",
".. c #BAB8B6",
"X. c #DD8B82",
"o. c #EB938C",
"O. c #E09F99",
"+. c #D6AE87",
"@. c #C0B785",
"#. c #C4BB8D",
"$. c #D1B382",
"%. c #DEA098",
"&. c #DABE97",
"*. c #E1A49F",
"=. c #E5ABA6",
"-. c #E3B3AB",
";. c #F0B6B2",
":. c #BAC3B8",
">. c #CCC494",
",. c #CCC79B",
"<. c #D1C99E",
"1. c #CDC8A3",
"2. c #D3CEA3",
"3. c #DBC2A9",
"4. c #D2CEAC",
"5. c #DBD5AB",
"6. c #C2C6B4",
"7. c #CED0B8",
"8. c #DEDAB3",
"9. c #D5D3B8",
"0. c #DBD9BB",
"q. c #E0D5A1",
"w. c #E2DAAE",
"e. c #E5C9BB",
"r. c #E2DDB7",
"t. c #E6E3BD",
"y. c #EBE5BF",
"u. c #A5BFC0",
"i. c #A6C2C3",
"p. c #AAC5C6",
"a. c #ADC7C8",
"s. c #AEC9CA",
"d. c #B2CCCD",
"f. c #BBCFCF",
"g. c #B5CFD0",
"h. c #B6D0D1",
"j. c #BAD4D5",
"k. c #BED7D8",
"l. c #BED9DA",
"z. c #DCDDC8",
"x. c #C7D8D8",
"c. c #C4DCDD",
"v. c #E9C4C3",
"b. c #E3DFC3",
"n. c #F3D0CD",
"m. c #E6D9D0",
"M. c #F2DBD9",
"N. c #DEE2CB",
"B. c #DDE2D4",
"V. c #D1E1DF",
"C. c #E5E3C3",
"Z. c #EBE7C3",
"A. c #E7E9C0",
"S. c #ECECC3",
"D. c #E4E4CC",
"F. c #EBE5CD",
"G. c #ECE9CD",
"H. c #EAF2CC",
"J. c #E9E5D2",
"K. c #EBEBD4",
"L. c #F1EFDB",
"P. c #EFF7D7",
"I. c #F4F2DB",
"U. c #F0FCDE",
"Y. c #C7DFE0",
"T. c #C7E0E1",
"R. c #CCE3E4",
"E. c #D0E7E8",
"W. c #D4EBEC",
"Q. c #DAEDEC",
"!. c #D9EFF0",
"~. c #DDF2F3",
"^. c #EBECE6",
"/. c #EDEEE4",
"(. c #F3ECE3",
"). c #F1EFE9",
"_. c #EAF2E7",
"`. c #ECF3E9",
"'. c #F4F4E4",
"]. c #F4FAE4",
"[. c #F4F6EC",
"{. c #F7FAEA",
"}. c #F8F9EB",
"|. c #E1F6F7",
" X c #EBF4F1",
".X c #EEF9F7",
"XX c #E2F7F8",
"oX c #E6FAFB",
"OX c #EAFEFF",
"+X c #F4F7F4",
"@X c #F3FAF3",
"#X c #F3FCFB",
"$X c #F1FEFE",
/* pixels */
"OXOXOXOXOXOXOXOXOXOXOXOXOXOXOXOXOXOXOXOXOXOXOXOXOXOXOXOXOXOXOXOXOXOXOXOXOXOXOXOXOXOXOXOXOXOXOXOXOXOXOXOXOXOXOXOXOXOXOXOXOXOXOXOX",
"OXOXOXOXOXOXOXOXOXOXOXOXOXOXOXOXOXOXOXOXOXOXOXOXOXOXOXOXOXOXOXOXOXOXOXOXOXOXOXOXOXOXOXOXOXOXOXOXOXOXOXOXOXOXOXOXOXOXOXOXOXOXOXOX",
"OXOXOXOXOXOXOXOXOXOXOXOXOXOXOXOXOXOXOXOXOXOXOXOXOXOXOXOXOXOXOXOXOXOXOXOXOXOXOXOXOXOXOXOXOXOXOXOXOXOXOXOXOXOXOXOXOXOXOXOXOXOXOXOX",
"OXOXOXOXOXOXOXOXOXOXOXOXOXOXOXOXOXOXOXOXOXOXOXOXOXOXOXOXOXOXOXOXOXOXOXOXOXOXOXOXOXOXOXOXOXOXOXOXOXOXOXOXOXOXOXOXOXOXOXOXOXOXOXOX",
"OXOXOXOXOXOXOXOXOXOXOXOXOXOXOXOXOXOXOXOXOXOXOXOXOXOXOXOXOXOXOXOXOXOXOXOXOXOXOXOXOXOXOXOXOXOXOXOXOXOXOXOXOXOXOXOXOXOXOXOXOXOXOXOX",
"OXOXOXOXOXOXOXOXOXOXOXOXOXOXOXOXOXOXOXOXOXOXOXOXOXOXOXOXOXOXOXOXOXOXOXOXOXOXOXOXOXOXOXOXOXOXOXOXOXOXOXOXOXOXOXOXOXOXOXOXOXOXOXOX",
"OXOXOXOXOXOXOXOXOXOXOXOXOXOXOXOXOXOXOXOXOXOXOXOXOXOXOXOXOXOXOXOXOXOXOXOXOXOXOXOXOXOXOXOXOXOXOXOXOXOXOXOXOXOXOXOXOXOXOXOXOXOXOXOX",
"OXOXOXOXOXOXOXOXOXOXOXOXOXOXOXOXOXOXOXOXOXOXOXOXOXOXOXOXOXOXOXOXOXOXOXOXOXOXOXOXOXOXOXOXOXOXOXOXOXOXOXOXOXOXOXOXOXOXOXOXOXOXOXOX",
"OXOXOXOXOXOXOXOXOXOXOXOXOXOXOXOXOXOXOXOXOXOXOXOXOXOXOXOXOXOXOXOXOXOXOXOXOXOXOXOXOXOXOXOXOXOXOXOXOXOXOXOXOXOXOXOXOXOXOXOXOXOXOXOX",
"OXOXOXOXOXOXOXOXOXOXOXOXOXOXOXOXOXOXOXOXOXOXOXOXOXOXOXOXOXOXOX$Xn.=.OXOXOXOXOXOXOXOXOXOXOXOXOXOXOXOXOXOXOXOXOXOXOXOXOXOXOXOXOXOX",
"OXOXOXOXOXOXOXOXOXOXOXOXOXOXOXOXOXOXOXOXOXOXOXOXOXOXOXOXOXOXOX$Xn.=.OXOXOXOXOXOXOXOXOXOXOXOXOXOXOXOXOXOXOXOXOXOXOXOXOXOXOXOXOXOX",
"OXOXOXOXOXOXOXOXOXOXOXOXOXOXOXOXOXOXOXOXOXOXOXOXOXOX$XOXOX$XOX$XM.-.OXOXOXOXOXOXOXOXOXOXOXOXOXOXOXOXOXOXOXOXOXOXOXOXOXOXOXOXOXOX",
"OXOXOXOXOXOXOXOXOXOXOXOXOXOXOXOXOXOXOXOXOXOXOXOXOXOXOXOXOXOXOX$XM.*.OXOXOXOXOXOXOXOXOXOXOXOXOXOXOXOXOXOXOXOXOXOXOXOXOXOXOXOXOXOX",
"OXOXOXOXOXOXOXOXOXOXOXOXOXOXOXOXOXOXOXOXOXOXOXOXOXOX$XOX$X$XOX$XM.X.#XOXOXOXOXOXOXOXOXOXOXOXOXOXOXOXOXOXOXOXOXOXOXOXOXOXOXOXOXOX",
"OXOXOXOXOXOXOXOXOXOXOXOXOXOXOXOXOXOXOXOXOXOXOXOXOXOXOXOX$XOXOX$XM.K .XOXOXOXOXOXOXOXOXOXOXOXOXOXOXOXOXOXOXOXOXOXOXOXOXOXOXOXOXOX",
"OXOXOXOXOXOXOXOXOXOXOXOXOXOXOXOXOXOXOXOXOXOXOXOXOXOXOXOXOXOX.X/.3.P J.OXOXOXOXOXOXOXOXOXOXOXOXOXOXOXOXOXOXOXOXOXOXOXOXOXOXOXOXOX",
"OXOXOXOXOXOXOXOXOXOXOXOXOXOXOXOXOXOXOXOXOXOXOXOXOXOXOX#X_.z.4.1.5.0.t.@XOXOXOXOXOXOXOXOXOXOXOXOXOXOXOXOXOXOXOXOXOXOXOXOXOXOXOXOX",
"OXOXOXOXOXOXOXOXOXOXOXOXOXOXOXOXOXOXOXOXOXOXOXOX#X_.z.4.>.,.0.K.@X].Z._.OXOXOXOXOXOXOXOXOXOXOXOXOXOXOXOXOXOXOXOXOXOXOXOXOXOXOXOX",
"OXOXOXOXOXOXOXOXOXOXOXOXOXOXOXOXOXOXOXOXOXOX XB.2.@.#.2.b.L.[.+X+X[.G.G.XXOXOXOXOXOXOXOXOXOXOXOXOXOXOXOXOXOXOXOXOXOXOXOXOXOXOXOX",
"OXOXOXOXOXOXOXOXOXOXOXOXOXOXOXOXOXOXOXOX X9.! ! <.r.G.'.}.+X[.+X+X#XL.Z._.oXOXOXOXOXOXOXOXOXOXOXOXOXOXOXOXOXOXOXOXOXOXOXOXOXOXOX",
"OXOXOXOXOXOXOXOXOXOXOXOXOXOXOXOXOXOXOX.X2.>.8.G.'.}.}.}.'.[.[.+X+X+X'.S.K.|.OXOXOXOXOXOXOXOXOXOXOXOXOXOXOXOXOXOXOXOXOXOXOXOXOXOX",
"OXOXOXOXOXOXOXOXOXOXOXOXOXOXOXOXOXOXOX#X8.t.'.}.[.'.'.'.[.}.+X{.'.'.I.H.A.Q.XXOXOXOXOXOXOXOXOXOXOXOXOXOXOXOXOXOXOXOXOXOXOXOXOXOX",
"OXOXOXOXOXOXOXOXOXOXOXOXOXOXOXOXOXOXOX$X'.w.K.'.'.'.'.'.[.[.'.'.P.P.y.$.P x.~.OXOXOXOXOXOXOXOXOXOXOXOXOXOXOXOXOXOXOXOXOXOXOXOXOX",
"OXOXOXOXOXOXOXOXOXOXOXOXOXOXOXOXOXOXOX$X#Xr.w.L.'.'.'.'.'.{.U.H.t.+.D > O ..R.~.~.OXOXOXOXOXOXOXOXOXOXOXOXOXOXOXOXOXOXOXOXOXOXOX",
"OXOXOXOXOXOXOXOXOXOXOXOXOXOXOXOXOXOXOXOXOX'.q.y.L.I.U.].U.C.&.I c 1 3 : % J x.W.XXOXOXOXOXOXOXOXOXOXOXOXOXOXOXOXOXOXOXOXOXOXOXOX",
"OXOXOXOXOXOXOXOXOXOXOXOXOXOXOXOXOXOXOXOXOX$XF.5.y.H.w.<.Y F u 5 8 8 0 3 = q ..Y.!.~.OXOXOXOXOXOXOXOXOXOXOXOXOXOXOXOXOXOXOXOXOXOX",
"OXOXOXOXOXOXOXOXOXOXOXOXOXOXOXOXOXOXOXOXOXOX@X8.Y P F l s d f f s r 2 2 : % V j.R.!.XXOXOXOXOXOXOXOXOXOXOXOXOXOXOXOXOXOXOXOXOXOX",
"OXOXOXOXOXOXOXOXOXOXOXOXOXOXOXOXOXOXOXOXOXOXOX[.Y * 8 k n n v s s g 5 & ; . w ..l.R.~.XXOXOXOXOXOXOXOXOXOXOXOXOXOXOX~.OXOXOXOXOX",
"OXOXOXOXOXOXOXOXOXOXOXOXOXOXOXOXOXOXOXOXOXOXOX$Xe.f d b n v k s s h i & % . $ C s.c.E.~.OXOXOXOXOXOXOXOXOXOXOXOXOXOXOXOXOXOXOXOX",
"OXOXOXOXOXOXOXOXOXOXOXOXOXOXOXOXOXOXOXOXOXOXOX$X#XL 6 v v v h g s g y 2 : O . m } g.c.W.~.~.OXOXOXOXOXOXOXOXOXOXOXOXOXOXOXOXOXOX",
"OXOXOXOXOXOXOXOXOXOXOXOXOXOXOXOXOXOXOXOXOXOXOXOX$Xv.8 p v v h g g h g 3 : ; . + R i.h.T.W.~.OXOXOXOXOXOXOXOXOXOXOXOXOXOXOXOXOXOX",
"OXOXOXOXOXOXOXOXOXOXOXOXOXOXOXOXOXOXOXOXOXOXOXOX$X+XH - v v d s g h p = & ; X   N ` s.l.E.~.~.OXOXOXOXOXOXOXOXOXOXOXOXOXOXOXOXOX",
"OXOXOXOXOXOXOXOXOXOXOXOXOXOXOXOXOXOXOXOXOXOXOXOXOX$X;.a f v j s s p 6 = & ; X X @ W u.g.c.E.|.oXOXOXOXOXOXOXOXOXOXOXOXOXOXOXOXOX",
"OXOXOXOXOXOXOXOXOXOXOXOXOXOXOXOXOXOXOXOXOXOXOX$XOX$X(.S d b j 8 8 6 6 = % ; O X 9 ~ { a.j.Y.!.XXOXOXOXOXOXOXOXOXOXOXOXOXOXOXOXOX",
"OXOXOXOXOXOXOXOXOXOXOXOXOXOXOXOXOXOXOXOXOXOX$XOXOXOX#XL 6 v j 8 7 7 8 4 % $ l U 3.6.` p.j.Y.W.XXOXOXOXOXOXOXOXOXOXOXOXOXOXOXOXOX",
"OXOXOXOXOXOXOXOXOXOXOXOXOXOXOXOXOXOXOXOXOXOXOXOXOX$X@XH 6 d d 8 8 8 5 3 : G e.].K.7.` u.h.Y.W.|.oXOXOXOXOXOXOXOXOXOXOXOXOXOXOXOX",
"OXOXOXOXOXOXOXOXOXOXOXOXOXOXOXOXOXOX$XOXOXOXOXOXOX+Xo.p s s 8 s 0 5 5 2 x m.$X[.L.0.`  .h.c.W.XXOXOXOXOXOXOXOXOXOXOXOXOXOXOXOXOX",
"OXOXOXOXOXOXOXOXOXOXOXOXOXOXOXOXOXOX$X$XOXOXOXOX+XT p d s p s y r 4 4 2 A (.#X).I.0.` [ d.c.Q.XXoXOXOXOXOXOXOXOXOXOXOXOXOXOXOXOX",
"OXOXOXOXOXOXOXOXOXOXOXOXOXOXOXOXOXOX$XOXOXOXOX XL 8 j h r 0 0 r e 3 , ; w v.#XL.G.6.) | h.c.W.XXOXOXOXOXOXOXOXOXOXOXOXOXOXOXOXOX",
"OXOXOXOXOXOXOXOXOXOXOXOXOXOXOXOXOXOXOXOXOXOX.X-.i a h g r t t e q : : ; , %.@XG.9.' ` i.j.T.~.XXOXOXOXOXOXOXOXOXOXOXOXOXOXOXOXOX",
"OXOXOXOXOXOXOXOXOXOXOXOXOXOXOXOXOXOXOXOXOX#XD.J.O.i 8 i t t q < , : ; O % G N.:.] / [ p.k.R.~.OXOXOXOXOXOXOXOXOXOXOXOXOXOXOXOXOX",
"OXOXOXOXOXOXOXOXOXOXOXOXOXOXOXOXOXOXOXOX$XK.C.`..XO.i 0 t 9 > ; O + o . % J ] ^ / [ i.f.T.W.XXOXOXOXOXOXOXOXOXOXOXOXOXOXOXOXOXOX",
"OXOXOXOXOXOXOXOXOXOXOXOXOXOXOXOXOXOXOXOX.X0.K.).#X.X%.r 2 > O o $ o 9 M Q E ^ ) | p.g.c.E.XXXXOXOXOXOXOXOXOXOXOXOXOXOXOXOXOXOXOX",
"OXOXOXOXOXOXOXOXOXOXOXOXOXOXOXOXOXOXOXOX.X8.K./.)..X^.X.4 # & < z B R ^ ^ ) } u.a.j.c.E.|.XXOXOXOXOXOXOXOXOXOXOXOXOXOXOXOXOXOXOX",
"OXOXOXOXOXOXOXOXOXOXOXOXOXOXOXOXOXOXOXOXOXD.C.C.D.b.D.D.I Z V Q _ ( / ` | i.a.g.k.R.Q.|.OXOXOXOXOXOXOXOXOXOXOXOXOXOXOXOXOXOXOXOX",
"OXOXOXOXOXOXOXOXOXOXOXOXOXOXOXOXOXOXOXOXOX.X_.N.b.F.J.B.a. .{ { } | i.p.s.h.k.Y.E.~.XXoXOXOXOXOXOXOXOXOXOXOXOXOXOXOXOXOXOXOXOXOX",
"OXOXOXOXOXOXOXOXOXOXOXOXOXOXOXOXOXOXOXOXOXOXXXQ.V.x.f.p.p.p.p.p.a.d.h.j.l.T.E.~.|.XXOXOXOXOXOXOXOXOXOXOXOXOXOXOXOXOXOXOXOXOXOXOX",
"OXOXOXOXOXOXOXOXOXOXOXOXOXOXOXOXOXOXOXOXOXOXoX~.R.j.d.a.d.d.h.j.j.l.Y.R.W.~.|.oXOXOXOXOXOXOXOXOXOXOXOXOXOXOXOXOXOXOXOXOXOXOXOXOX",
"OXOXOXOXOXOXOXOXOXOXOXOXOXOXOXOXOXOXOXOXOXOXOX~.~.E.T.l.l.c.T.R.E.!.!.~.OX~.OXOXOXOXOXOXOXOXOXOXOXOXOXOXOXOXOXOXOXOXOXOXOXOXOXOX",
"OXOXOXOXOXOXOXOXOXOXOXOXOXOXOXOXOXOXOXOXOXOXOXOXOX~.~.~.!.!.~.XX~.XXOXOXOXOXOXOXOXOXOXOXOXOXOXOXOXOXOXOXOXOXOXOXOXOXOXOXOXOXOXOX",
"OXOXOXOXOXOXOXOXOXOXOXOXOXOXOXOXOXOXOXOXOXOXOXOXOXOXOXOXOXXXXXOXOXOXOXOXOXOXOXOXOXOXOXOXOXOXOXOXOXOXOXOXOXOXOXOXOXOXOXOXOXOXOXOX",
"OXOXOXOXOXOXOXOXOXOXOXOXOXOXOXOXOXOXOXOXOXOXOXOXOXOXOXOXOXOXOXOXOXOXOXOXOXOXOXOXOXOXOXOXOXOXOXOXOXOXOXOXOXOXOXOXOXOXOXOXOXOXOXOX",
"OXOXOXOXOXOXOXOXOXOXOXOXOXOXOXOXOXOXOXOXOXOXOXOXOXOXOXOXOXOXOXOXOXOXOXOXOXOXOXOXOXOXOXOXOXOXOXOXOXOXOXOXOXOXOXOXOXOXOXOXOXOXOXOX",
"OXOXOXOXOXOXOXOXOXOXOXOXOXOXOXOXOXOXOXOXOXOXOXOXOXOXOXOXOXOXOXOXOXOXOXOXOXOXOXOXOXOXOXOXOXOXOXOXOXOXOXOXOXOXOXOXOXOXOXOXOXOXOXOX",
"OXOXOXOXOXOXOXOXOXOXOXOXOXOXOXOXOXOXOXOXOXOXOXOXOXOXOXOXOXOXOXOXOXOXOXOXOXOXOXOXOXOXOXOXOXOXOXOXOXOXOXOXOXOXOXOXOXOXOXOXOXOXOXOX",
"OXOXOXOXOXOXOXOXOXOXOXOXOXOXOXOXOXOXOXOXOXOXOXOXOXOXOXOXOXOXOXOXOXOXOXOXOXOXOXOXOXOXOXOXOXOXOXOXOXOXOXOXOXOXOXOXOXOXOXOXOXOXOXOX",
"OXOXOXOXOXOXOXOXOXOXOXOXOXOXOXOXOXOXOXOXOXOXOXOXOXOXOXOXOXOXOXOXOXOXOXOXOXOXOXOXOXOXOXOXOXOXOXOXOXOXOX~.OXOXOXOXOXOXOXOXOXOXOXOX",
"OXOXOXOXOXOXOXOXOXOXOXOXOXOXOXOXOXOXOXOXOXOXOXOXOXOXOXOXOXOXOXOXOXOXOXOXOXOXOXOXOXOXOXOXOXOXOXOXOXOXOXOXOXOXOXOXOXOXOXOXOXOXOXOX",
"OXOXOXOXOXOXOXOXOXOXOXOXOXOXOXOXOXOXOXOXOXOXOXOXOXOXOXOXOXOXOXOXOXOXOXOXOXOXOXOXOXOXOXOXOXOXOXOXOXOXOXOXOXOXOXOXOXOXOXOXOXOXOXOX",
"OXOXOXOXOXOXOXOXOXOXOXOXOXOXOXOXOXOXOXOXOXOXOXOXOXOXOXOXOXOXOXOXOXOXOXOXOXOXOXOXOXOXOXOXOXOXOXOXOXOXOXOXOXOXOXOXOXOXOXOXOXOXOXOX",
"OXOXOXOXOXOXOXOXOXOXOXOXOXOXOXOXOXOXOXOXOXOXOXOXOXOXOXOXOXOXOXOXOXOXOXOXOXOXOXOXOXOXOXOXOXOXOXOXOXOXOXOXOXOXOXOXOXOXOXOXOXOXOXOX",
"OXOXOXOXOXOXOXOXOXOXOXOXOXOXOXOXOXOXOXOXOXOXOXOXOXOXOXOXOXOXOXOXOXOXOXOXOXOXOXOXOXOXOXOXOXOXOXOXOXOXOXOXOXOXOXOXOXOXOXOXOXOXOXOX",
"OXOXOXOXOXOXOXOXOXOXOXOXOXOXOXOXOXOXOXOXOXOXOXOXOXOXOXOXOXOXOXOXOXOXOXOXOXOXOXOXOXOXOXOXOXOXOXOXOXOXOXOXOXOXOXOXOXOXOXOXOXOXOXOX",
"OXOXOXOXOXOXOXOXOXOXOXOXOXOXOXOXOXOXOXOXOXOXOXOXOXOXOXOXOXOXOXOXOXOXOXOXOXOXOXOXOXOXOXOXOXOXOXOXOXOXOXOXOXOXOXOXOXOXOXOXOXOXOXOX"
};
