/* XPM */
static char *enemy_281_29[] = {
/* columns rows colors chars-per-pixel */
"64 64 217 2 ",
"   c black",
".  c #1A232C",
"X  c #6B503A",
"o  c #575652",
"O  c #6A6F71",
"+  c #BD0919",
"@  c #BD0C21",
"#  c #BE1B2A",
"$  c #BA2637",
"%  c #C6030F",
"&  c #EA000B",
"*  c #E60719",
"=  c #EA121E",
"-  c #C50C21",
";  c #CA1627",
":  c #D81729",
">  c #D21F30",
",  c #E51525",
"<  c #E41926",
"1  c #E81828",
"2  c #F11729",
"3  c #CB2B38",
"4  c #D52A38",
"5  c #E6212C",
"6  c #EE2A31",
"7  c #EA343D",
"8  c #CE4A00",
"9  c #D15C02",
"0  c #E37112",
"q  c #EE7B23",
"w  c #BD384A",
"e  c #C53746",
"r  c #E73442",
"t  c #F13C4C",
"y  c #DD524C",
"u  c #D54B57",
"i  c #C75558",
"p  c #EB494E",
"a  c #ED4B54",
"s  c #E6655D",
"d  c #DC5664",
"f  c #D46265",
"g  c #D0726F",
"h  c #C96B77",
"j  c #F3626A",
"k  c #E26B76",
"l  c #E47B74",
"z  c #E87B79",
"x  c #F48834",
"c  c #9E846E",
"v  c #AB8E72",
"b  c #AC9076",
"n  c #B29579",
"m  c #FA9649",
"M  c #CD826D",
"N  c #D38576",
"B  c #CB9078",
"V  c #E5837D",
"C  c #EA857B",
"Z  c #E7AF7E",
"A  c #807F80",
"S  c #AF6F80",
"D  c #DE7A86",
"F  c #E37F87",
"G  c #AB9C8A",
"H  c #B39986",
"J  c #B5A38D",
"K  c #A8A89F",
"L  c #B8A998",
"P  c #AA8BA2",
"I  c #9CB2AD",
"U  c #9CB5B6",
"Y  c #A6ABA7",
"T  c #A4B4AF",
"R  c #B9B4AA",
"E  c #AAB9B6",
"W  c #A1BBBC",
"Q  c #B7BBB6",
"!  c #DC8E88",
"~  c #DE9887",
"^  c #D08C94",
"/  c #E68783",
"(  c #EA8C85",
")  c #E98E8C",
"_  c #F48F87",
"`  c #E29084",
"'  c #EA928C",
"]  c #F4978C",
"[  c #ED9592",
"{  c #EE9A93",
"}  c #E89B97",
"|  c #F39C98",
" . c #C1AC95",
".. c #DBA795",
"X. c #E9AE8A",
"o. c #E6A69C",
"O. c #F2A39D",
"+. c #FFA89C",
"@. c #F59FA2",
"#. c #CFAFAD",
"$. c #C5B7A7",
"%. c #DBAFBB",
"&. c #DAB6B9",
"*. c #E8A8A5",
"=. c #EBACAC",
"-. c #F3A6A2",
";. c #F4AAA4",
":. c #F8A9A4",
">. c #F4AEAA",
",. c #E8BBA1",
"<. c #F5B2AB",
"1. c #E2B2B3",
"2. c #F1B5BB",
"3. c #B7C3BC",
"4. c #CBC59B",
"5. c #EAC09D",
"6. c #CEC9A3",
"7. c #CCCAAB",
"8. c #D7C6AA",
"9. c #D7D1AE",
"0. c #CBCBB3",
"q. c #C4CDBB",
"w. c #C8CBB9",
"e. c #D7CBBA",
"r. c #CBD1BA",
"t. c #D7D5B6",
"y. c #DAD4B3",
"u. c #DBD5BB",
"i. c #DADABF",
"p. c #EEC5A5",
"a. c #E7C4B6",
"s. c #F3C3B8",
"d. c #E4D9B9",
"f. c #E2DCBC",
"g. c #F6DABA",
"h. c #E9E2BF",
"j. c #A2BEC1",
"k. c #BFBAC1",
"l. c #C9BAC6",
"z. c #D7BDC6",
"x. c #ABC3C4",
"c. c #A7C7C9",
"v. c #AACACC",
"b. c #B9C8C5",
"n. c #AECED1",
"m. c #B7CED3",
"M. c #B7D6D8",
"N. c #BEDEE0",
"B. c #C9CDC5",
"V. c #CCCBCA",
"C. c #DDDCC3",
"Z. c #D7D7C9",
"A. c #CAD9D8",
"S. c #D6D8D6",
"D. c #E8C9CA",
"F. c #F5CAC7",
"G. c #E3DEC3",
"H. c #E9DAC2",
"J. c #E4CBD3",
"K. c #E2D6D6",
"L. c #CAE1DE",
"P. c #D3E1DE",
"I. c #E6E1C2",
"U. c #ECE5C5",
"Y. c #E7E5CA",
"T. c #EBE5CA",
"R. c #EEE9CB",
"E. c #F7E6CA",
"W. c #E6E6D6",
"Q. c #ECE9D1",
"!. c #F1EDD4",
"~. c #F9E7D9",
"^. c #F1EEDA",
"/. c #ECF0DD",
"(. c #F5F2DC",
"). c #F9F3DE",
"_. c #C3DEE1",
"`. c #E6DFE3",
"'. c #C4E2E4",
"]. c #CCE4E6",
"[. c #C8E7E9",
"{. c #CCE9EB",
"}. c #D5E7E7",
"|. c #DBE4E4",
" X c #D3EBED",
".X c #DBEDED",
"XX c #DEF1EE",
"oX c #D9EEF3",
"OX c #CDF0F9",
"+X c #D8F2F5",
"@X c #DCF3F5",
"#X c #DDF5F9",
"$X c #E6E7E8",
"%X c #E4ECEC",
"&X c #F9ECE7",
"*X c #E4F3EE",
"=X c #EDF2EB",
"-X c #F5F4E2",
";X c #FBF4E4",
":X c #FEFCE5",
">X c #F5F5ED",
",X c #FBF7EA",
"<X c #F1FBEC",
"1X c #FEFAEB",
"2X c #E4EEF3",
"3X c #E8EFF1",
"4X c #E3F4F3",
"5X c #E9F2F2",
"6X c #EBF8F7",
"7X c #E1F6F8",
"8X c #E5FAFC",
"9X c #EAFDFE",
"0X c #EBFEFE",
"qX c #EAFEFF",
"wX c #F3F7F1",
"eX c #FEFEF3",
"rX c #FEFEFD",
/* pixels */
"qXqXqXqXqXqXqXqXqXqXqXqXqXqXqXqXqXqXqXqXqXqXqXqXqXqXqXqXqXqXqXqXqXqXqXqXqXqXqXqXqXqXqXqXqXqXqXqXqXqXqXqXqXqXqXqXqXqXqXqXqXqXqXqX",
"qXqXqXqXqXqXqXqXqXqXqXqXqXqXqXqXqXqXqXqXqXqXqXqXqXqXqXqXqXqXqXqXqXqXqXqXqXqXqXqXqXqXqXqXqXqXqXqXqXqXqXqXqXqXqXqXqXqXqXqXqXqXqXqX",
"qXqXqXqXqXqXqXqXqXqXqXqXqXqXqXqXqXqXqXqXqXqXqXqXqXqXqXqXqXqXqXqXqXqXqXqXqXqXqXqXqXqXqXqXqXqXqXqXqXqXqXqXqXqXqXqXqXqXqXqXqXqXqXqX",
"qXqXqXqXqXqXqXqXqXqXqXqXqXqXqXqXqXqXqXqXqXqXqXqXqXqXqXqXqXqXqXqXqXqXqXqXqXqXqXqXqXqXqXqXqXqXqXqXqXqXqXqXqXqXqXqXqXqXqXqXqXqXqXqX",
"qXqXqXqXqXqXqXqXqXqXqXqXqXqXqXqXqXqXqXqXqXqXqXqXqXqX0X0X0X0XqXqXqXqXqXqXqXqXqXqXqXqXqXqXqXqXqXqXqXqXqXqXqXqXqXqXqXqXqXqXqXqXqXqX",
"qXqXqXqXqXqXqXqXqXqXqXqXqXqXqXqXqXqXqXqXqXqXqXqXqXqX0X0X0X0XqXqXqXqXqXqXqXqXqXqXqXqXqXqXqXqXqXqXqXqXqXqXqXqXqXqXqXqXqXqXqXqXqXqX",
"qXqXqXqXqXqXqXqXqXqXqXqXqXqXqXqXqXqXqXqXqXqXqXqXqXqXqX8XqX0X0XqXqXqXqXqXqXqXqXqXqXqXqXqXqXqXqXqXqXqXqXqXqXqXqXqXqXqXqXqXqXqXqXqX",
"qXqXqXqXqXqXqXqXqXqXqXqXqXqXqXqXqXqXqXqXqXqXqXqXqX8X$X] ] 8X0XqXqXqXqXqXqXqXqXqXqXqXqXqXqXqXqXqXqXqXqXqXqXqXqXqXqXqXqXqXqXqXqXqX",
"qXqXqXqXqXqXqXqXqXqXqXqXqXqXqXqX0X0XqXqXqXqXqXqX6Xs.<.;.O.O.qXqXqXqXqXqXqXqXqXqXqXqXqXqXqXqXqXqXqXqXqXqXqXqXqXqXqXqXqXqXqXqXqXqX",
"qXqXqXqXqXqXqXqXqXqXqXqXqXqXqXqX0X0XqXqX0X9X8XJ.<.+.;.;.;.-.2.qXqXqXqXqXqXqXqXqXqXqXqXqXqXqXqXqXqXqXqXqXqXqXqXqXqXqXqXqXqXqXqXqX",
"qXqXqXqXqXqXqXqXqXqXqXqXqXqXqXqX0X0XqXqX6XK.%.>.;.>.;.;.;.;.;.|.qXqXqXqXqXqXqXqXqXqXqXqXqXqXqXqXqXqXqXqXqXqXqXqXqXqXqXqXqXqXqXqX",
"qXqXqXqXqXqXqXqXqXqXqXqXqXqXqXqX0X0X0X6X1.{ O.-.:.;.;.;.;.;.;.&.qXqXqXqXqXqXqXqXqXqXqXqXqXqXqXqXqXqXqXqXqXqXqXqXqXqXqXqXqXqXqXqX",
"qXqXqXqXqXqXqXqXqXqXqXqXqXqXqXqX9X9XD._ ( { ;.;.;.;.;.;.;.;.;.=.D.8XqXqXqXqXqXqXqXqXqXqXqXqXqXqXqXqXqXqXqXqXqXqXqXqXqXqXqXqXqXqX",
"qXqXqXqXqXqXqXqXqXqXqXqXqXqXqXqX9X8X( ( / [ >.;.;.;.;.;.;.;.;.*.1.6XqXqXqXqXqXqXqXqXqXqXqXqXqXqXqXqXqXqXqXqXqXqXqXqXqXqXqXqXqXqX",
"qXqXqXqXqXqXqXqXqXqXqXqXqXqXqXqXqX9X] ( / [ ;.;.;.;.;.;.;.;.;.;.=.D.qXqXqXqXqXqXqXqXqXqXqXqXqXqXqXqXqXqXqXqXqXqXqXqXqXqXqXqXqXqX",
"qXqXqXqXqXqXqXqXqXqXqXqXqXqXqXqXqXqX%X} / ( [ ;.;.;.;.-.-.;.;.;.-.*.6XqXqXqXqXqXqXqXqXqXqXqXqXqXqXqXqXqXqXqXqXqXqXqXqXqXqXqXqXqX",
"qXqXqXqXqXqXqXqXqXqXqXqXqXqXqXqXqXqX8X1.( ( ) -.>.;.;.;.;.O.;.:.-.=.K.qXqXqXqXqXqXqXqXqXqXqXqXqXqXqXqXqXqXqXqXqXqXqXqXqXqXqXqXqX",
"qXqXqXqXqXqXqXqXqXqXqXqXqXqXqXqXqXqX6X1.) / ) { ;.-.;.;.;.;.;.;.;.-.' |.qXqXqXqXqXqXqXqXqXqXqXqXqXqXqXqXqXqXqXqXqXqXqXqXqXqXqXqX",
"qXqXqXqXqXqXqXqXqXqXqXqXqXqXqXqXqXqXqX$X*.) / ) O.>.;.;.;.;.;.;.;.{ ) { C ! %XqXqXqXqXqXqXqXqXqXqXqXqXqXqXqXqXqXqXqXqXqXqXqXqXqX",
"qXqXqXqXqXqXqXqXqXqXqXqXqXqXqXqXqXqXqX8XD.*.) ) O.>.>.>.;.;.-.{ C l N ..*.#.4XqXqXqXqXqXqXqXqXqXqXqXqXqXqXqXqXqXqXqXqXqXqXqXqXqX",
"qXqXqXqXqXqXqXqXqXqXqXqXqXqXqXqX0X0X0XqX2XF.2.) ) [ ' [ | ( V V ` $.8.d.).<X4XqXqX0XqXqXqXqXqXqXqXqXqXqXqXqXqXqXqXqXqXqXqXqXqXqX",
"qXqXqXqXqXqXqXqXqXqXqXqXqXqXqXqX0X0X0XqX$XF.2./ l l ! z V ~ o.d.W.Q./.(.:X:X:X<X0X0XqXqXqXqXqXqXqXqXqXqXqXqXqXqXqXqXqXqXqXqXqXqX",
"qXqXqXqXqXqXqXqXqXqXqXqXqXqXqXqX0X0XqXqX+.s z z V V ! o.8.t.^.(.:X:X:X:X:X:X:X:X<X0XqXqXqXqXqXqXqXqXqXqXqXqXqXqXqXqXqXqXqXqXqXqX",
"qXqXqXqXqXqXqXqXqXqXqXqXqXqXqXqX0X0XqX3X| k l V &.t.f.f.!.).:X,X1X:X,X1X1X:X:X:X=X0XqXqXqXqXqXqXqXqXqXqXqXqXqXqXqXqXqXqXqXqXqXqX",
"qXqXqXqXqXqXqXqXqXqXqXqXqXqXqXqX0XqXqXF.l $X}.e.y.y.R.(.1XeX:X1X1X;X1X,XrXrX:X:X:X4XqXqXqXqX8X8X#XqXqXqXqXqXqXqXqXqXqXqXqXqXqXqX",
"qXqXqXqXqXqXqXqXqXqXqXqXqXqXqXqX0XqX8X=.} qX5Xt.y.h.:XS.O W.eX1X,X1X1XeXY A 1X:X:XXX0XqXqXqX8X8XY 8XqXqXqXqXqXqXqXqXqXqXqXqXqXqX",
"qXqXqXqXqXqXqXqXqXqXqXqXqXqXqXqXoXA.9X=.{ 8XXXt.d.U.-XQ   B.rXeXrXrXrXrXO . rX:X:X.X0XqXqX4X7XXXL *XqXqXqXqXqXqXqXqXqXqXqXqXqXqX",
"qXqXqXqXqXqXqXqXqXqXqXqXqXqXqXqXA.$.7XJ.C 5X4Xu.y.U.).Z.o K.rX~.g.E.g.~.c X E.1X:X=X0XqX0XJ b.oX$.XXqX8XqXqXqXqXqXqXqXqXqXqXqXqX",
"qXqXqXqXqXqXqXqXqXqXqXqXqXqXqXqX[.L 8XoX[ [ &Xi.y.R.!.:XeX:XrXX.9 m 0 x x q m ^.:X4X0XqXqXL E }.L }.P.Y 8XqXqXqXqXqXqXqXqXqXqXqX",
"qXqXqXqXqXqXqXqXqXqXqXqXqXqXB.#XoXJ #X#X2XF ) e.y.h.R.).eX1XrXZ 8 9 9 9 8 x &X,XrX6X0X0XqXL T x.H A.R E 8XqXqXqXqXqXqXqXqXqXqXqX",
"qXqXqXqXqXqXqXqXqXqXqXqXqX8X .A.}.G .XB.8X2X` ! 9.h.U.R.).1X1XU.5.p.p.p.,.g.rXeXz K.qXqXqX+XY H v G E 7XqXqXqXqXqXqXqXqXqXqXqXqX",
"qXqXqXqXqXqXqXqXqXqXqXqXqXqXA.Y G v Y k.8X7XS i 8.9.f.h.R.;X;XeXeXrXrXeXrXrX1X&Xj k J.6XqX8X}.H v R .X0XqXqXqXqXqXqXqXqXqXqXqXqX",
"qXqXqXqXqXqXqXqXqXqXqXqXqXqXqXm.n n R 8X8Xl.w e g 8.9.y.f.R.!.R.!.!.!.(.(.1X).@.p 7 F 3XqX0X8X_.H S.qXqXqXqXqXqXqXqXqXqXqXqXqXqX",
"qXqXqXqXqXqXqXqXqXqXqXqXqXqXqXqXA.L @X8X8XP $ - 3 f ..#.8.y.f.I.U.U.U.U.H.F.| a = 2 k `.0X0X8X}.n |.qXqXqXqXqXqXqXqXqXqXqXqXqXqX",
"qXqXqXqXqXqXqXqXqXqXqXqXqXqXqXqX.X$.@X8X9XS $ @ - > 4 u f N ....{ ` ] ( z d r 2 , , k `.0XqX8XA.n %XqXqXqXqXqXqXqXqXqXqXqXqXqXqX",
"qXqXqXqXqXqXqXqXqXqXqXqXqXqXqXqX6XA.A.8X#XP $ @ @ - ; > : 4 r u y 5 : = * * * , 1 6 D %X0X0X}.Y A.8XqXqXqXqXqXqXqXqXqXqXqXqXqXqX",
"qXqXqXqXqXqXqXqXqXqXqXqXqXqXqXqXqX*X$..X9Xl.e @ + + @ ; : < , : 5 1 , , 1 , 1 , 1 d &.qXqXqXQ n .X8XqXqXqXqXqXqXqXqXqXqXqXqXqXqX",
"qXqXqXqXqXqXqXqXqXqXqXqXqXqXqXqXqXqXB.3.+X4Xh $ @ ; # ; : : , , 1 , , , 1 1 < < 5 ^ 2X8XqX}.K E 7XqXqXqXqXqXqXqXqXqXqXqXqXqXqXqX",
"qXqXqXqXqXqXqXqXqXqXqXqXqXqXqXqXqXqX#XR Q {.Q h w w w e 4 1 , = , , = , < < 1 , 7 z.8X8X.X$.E .XqXqXqXqXqXqXqXqXqXqXqXqXqXqXqXqX",
"qXqXqXqXqXqXqXqXqXqXqXqXqXqXqXqXqXqX8XoXY H G l.&.D.^ i u u r = * & * = 1 1 = - ^ #XV.n L A.4XqXqXqXqXqXqXqXqXqXqXqXqXqXqXqXqXqX",
"qXqXqXqXqXqXqXqXqXqXqXqXqXqXqXqXqXqXqXqX+Xq.$.J Y.Q.W.e.&.&.&.%.%.z.z.e % - % ; #.w.G S.|.8XqXqXqXqXqXqXqXqXqXqXqXqXqXqXqXqXqXqX",
"qXqXqXqXqXqXqXqXqXqXqXqXqXqXqXqXqXqXqXqXqXOXS.$.R.U.R.Q.Q.=X=X5X5X5X2Xg % - - > ..Z.R 7X8XqXqXqXqXqXqXqXqXqXqXqXqXqXqXqXqXqXqXqX",
"qXqXqXqXqXqXqXqXqXqXqXqXqXqXqXqXqXqXqXqXqXoXS.G.Y.R.Q.R.Q.=X>X=XwXwXwXk & 2 < 5 <.^.%X8XqXqXqXqXqXqXqXqXqXqXqXqXqXqXqXqXqXqXqXqX",
"qXqXqXqXqXqXqXqXqXqXqXqXqXqXqXqXqXqXqXqXqX}.7.t.Y.R.!.U./.>X>X>XwXwX>Xj & 2 , 1 2.Q.^.*XqXqXqXqXqXqXqXqXqXqXqXqXqXqXqXqXqXqXqXqX",
"qXqXqXqXqXqXqXqXqXqXqXqXqXqXqXqXqXqXqXqXqX}.6.6.R.R.Q.U.Q.>X1X>X,XwX-Xj 6 t p p s.R.(.*XqXqXqXqXqXqXqXqXqXqXqXqXqXqXqXqXqXqXqXqX",
"qXqXqXqXqXqXqXqXqXqXqXqXqXqXqXqXqXqXqXqXqX}.7.6.R.U.R.R.R.-X;X>XwX,X&XM ` o.O.o.a.R.!.5XqXqXqXqXqXqXqXqXqXqXqXqXqXqXqXqXqXqXqXqX",
"qXqXqXqXqXqXqXqXqXqXqXqXqXqXqXqXqXqXqXqXqX%X7.4.I.I.R.U.R.).1X>X&X,X&XM ) O.;.O.9.R.^.5XqXqXqXqXqXqXqXqXqXqXqXqXqXqXqXqXqXqXqXqX",
"qXqXqXqXqXqXqXqXqXqXqXqXqXqXqXqXqXqXqXqXqX4X0.4.h.U.U.R.R.R.).:X,X,X~.g l { O.' 8.R.(.6XqXqXqXqXqXqXqXqXqXqXqXqXqXqXqXqXqXqXqXqX",
"qXqXqXqXqXqXqXqXqXqXqXqXqXqXqXqXqXqXqXqXqX7XZ.4.7.h.U.U.T.R.!.-X,X1X&XB M V C N ,.T./.7XqXqXqXqXqXqXqXqXqXqXqXqXqXqXqXqXqXqXqXqX",
"qXqXqXqXqXqXqXqXqXqXqXqXqXqXqXqXqXqXqXqXqX8XP.0.4.i.U.U.R.R.R.!.^.-X-XT.p...N ..G.I.i.L.oX8XqXqXqXqXqXqXqXqXqXqXqXqXqXqXqXqXqXqX",
"qXqXqXqXqXqXqXqXqXqXqXqXqXqXqXqXqXqXqXqX8X.XA.B.7.6.f.Y.R.R.R.R.R.R.R.R.!.g.f.Y.i.Z.b.n.N. X8XqXqXqXqXqXqXqXqXqXqXqXqXqXqXqXqXqX",
"qXqXqXqXqXqXqXqXqXqXqXqXqXqXqXqXqXqXqX7X{.].m.x.B.r.0.t.r.t.C.C.C.f.I.Y.C.C.i.i.7.3.U c.M.[.#XqXqXqXqXqXqXqXqXqXqXqXqXqXqXqXqXqX",
"qXqXqXqXqXqXqXqXqXqXqXqXqXqXqXqXqXqXqX7X[.'.M.c.3.x.3.r.q.r.0.0.0.r.r.r.q.q.3.3.3.U j.n.M.{.#XqXqXqXqXqXqXqXqXqXqXqXqXqXqXqXqXqX",
"qXqXqXqXqXqXqXqXqXqXqXqXqXqXqXqXqXqXqX8X+X[._.m.c.U W W T E T I I I I I I I I W U j.v.M.N.{.8XqXqXqXqXqXqXqXqXqXqXqXqXqXqXqXqXqX",
"qXqXqXqXqXqXqXqXqXqXqXqXqXqXqXqXqXqXqXqX8X+X X'.M.M.n.v.c.c.c.c.v.n.v.v.v.v.n.n.n.M.M.'. X#XqXqXqXqXqXqXqXqXqXqXqXqXqXqXqXqXqXqX",
"qXqXqXqXqXqXqXqXqXqXqXqXqXqXqXqXqXqXqXqXqXqX8X@XOX X[.'.'.'.'.N.N.M.N.'.'.'.[.[.{.+XOX#X8XqXqXqXqXqXqXqXqXqXqXqXqXqXqXqXqXqXqXqX",
"qXqXqXqXqXqXqXqXqXqXqXqXqXqXqXqXqXqXqXqXqXqXqXqX8X8X7X7X#X@X@X+XoX+X+X@X@X@X7X8X8XqXqXqXqXqXqXqXqXqXqXqXqXqXqXqXqXqXqXqXqXqXqXqX",
"qXqXqXqXqXqXqXqXqXqXqXqXqXqXqXqXqXqXqXqXqXqXqXqXqXqXqXqXqXqXqXqXqXqXqX8XqXqXqXqXqXqXqXqXqXqXqXqXqXqXqXqXqXqXqXqXqXqXqXqXqXqXqXqX",
"qXqXqXqXqXqXqXqXqXqXqXqXqXqXqXqXqXqXqXqXqXqXqXqXqXqXqXqXqXqXqXqXqXqXqXqXqXqXqXqXqXqXqXqXqXqXqXqXqXqXqXqXqXqXqXqXqXqXqXqXqXqXqXqX",
"qXqXqXqXqXqXqXqXqXqXqXqXqXqXqXqXqXqXqXqXqXqXqXqXqXqXqXqXqXqXqXqXqXqXqXqXqXqXqXqXqXqXqXqXqXqXqXqXqXqXqXqXqXqXqXqXqXqXqXqXqXqXqXqX",
"qXqXqXqXqXqXqXqXqXqXqXqXqXqXqXqXqXqXqXqXqXqXqXqXqXqXqXqXqXqXqXqXqXqXqXqXqXqXqXqXqXqXqXqXqXqXqXqXqXqXqXqXqXqXqXqXqXqXqXqXqXqXqXqX",
"qXqXqXqXqXqXqXqXqXqXqXqXqXqXqXqXqXqXqXqXqXqXqXqXqXqXqXqXqXqXqXqXqXqXqXqXqXqXqXqXqXqXqXqXqXqXqXqXqXqXqXqXqXqXqXqXqXqXqXqXqXqXqXqX",
"qXqXqXqXqXqXqXqXqXqXqXqXqXqXqXqXqXqXqXqXqXqXqXqXqXqXqXqXqXqXqXqXqXqXqXqXqXqXqXqXqXqXqXqXqXqXqXqXqXqXqXqXqXqXqXqXqXqXqXqXqXqXqXqX",
"qXqXqXqXqXqXqXqXqXqXqXqXqXqXqXqXqXqXqXqXqXqXqXqXqXqXqXqXqXqXqXqXqXqXqXqXqXqXqXqXqXqXqXqXqXqXqXqXqXqXqXqXqXqXqXqXqXqXqXqXqXqXqXqX"
};
