/* XPM */
static char *_636719500503[] = {
/* columns rows colors chars-per-pixel */
"64 64 223 2 ",
"   c black",
".  c #1A232C",
"X  c #6B503A",
"o  c #575652",
"O  c #6A6F71",
"+  c #BD0919",
"@  c #BD0C21",
"#  c #BE1B2A",
"$  c #BA2637",
"%  c #C6030F",
"&  c #EA000B",
"*  c #E50719",
"=  c #EA121E",
"-  c #C50C21",
";  c #CA1627",
":  c #D81729",
">  c #D21F30",
",  c #E51525",
"<  c #E41926",
"1  c #E81828",
"2  c #F11729",
"3  c #CB2B38",
"4  c #D52A38",
"5  c #DC373F",
"6  c #E6212C",
"7  c #EE2A31",
"8  c #EA343D",
"9  c #CE4A00",
"0  c #D15C02",
"q  c #E37113",
"w  c #DC7F35",
"e  c #EE7B23",
"r  c #BD384A",
"t  c #C53746",
"y  c #E73442",
"u  c #F13C4C",
"i  c #DD524C",
"p  c #C64252",
"a  c #D54B57",
"s  c #C75558",
"d  c #EB494E",
"f  c #ED4B54",
"g  c #DC5664",
"h  c #D56265",
"j  c #D0726F",
"k  c #C96B77",
"l  c #EE656C",
"z  c #F3626A",
"x  c #E1766D",
"c  c #E26B76",
"v  c #E47B74",
"b  c #E87B79",
"n  c #F48834",
"m  c #9E846E",
"M  c #AB8E73",
"N  c #AC9076",
"B  c #B29579",
"V  c #FA9649",
"C  c #CD826D",
"Z  c #D38576",
"A  c #CB9078",
"S  c #E5837D",
"D  c #EA857B",
"F  c #FD8179",
"G  c #E7AF7E",
"H  c #807F80",
"J  c #AF6F80",
"K  c #DE7A86",
"L  c #E37F87",
"P  c #AB9C8A",
"I  c #B39986",
"U  c #B5A48D",
"Y  c #A8A89F",
"T  c #B8A998",
"R  c #AA8BA2",
"E  c #9DA3A8",
"W  c #9CB2AD",
"Q  c #9CB5B6",
"!  c #A6ABA7",
"~  c #A4B4AF",
"^  c #B9B4AA",
"/  c #AAB9B6",
"(  c #A1BBBC",
")  c #B7BBB6",
"_  c #DC8E88",
"`  c #DE9887",
"'  c #D08C94",
"]  c #E68783",
"[  c #EA8C85",
"{  c #E98E8C",
"}  c #F48F87",
"|  c #E29084",
" . c #EA928C",
".. c #F4978C",
"X. c #ED9592",
"o. c #EE9A93",
"O. c #E89B97",
"+. c #F39C98",
"@. c #C1AC95",
"#. c #DBA795",
"$. c #D0AD92",
"%. c #E9AE8A",
"&. c #E6A69C",
"*. c #F2A39D",
"=. c #FFA89C",
"-. c #CFAFAD",
";. c #C5B7A7",
":. c #DBAFBB",
">. c #DAB6B9",
",. c #E8A8A5",
"<. c #ECACAC",
"1. c #F3A6A2",
"2. c #F4AAA4",
"3. c #F8A9A4",
"4. c #F4AEAA",
"5. c #E8BBA1",
"6. c #F5B2AB",
"7. c #E2B2B4",
"8. c #F1B5BB",
"9. c #B7C3BC",
"0. c #CBC59B",
"q. c #CEC9A3",
"w. c #CCCAAB",
"e. c #D7C6AA",
"r. c #D7D1AE",
"t. c #CACBB3",
"y. c #C4CDBB",
"u. c #C8CBB9",
"i. c #D7CBBA",
"p. c #CBD1BA",
"a. c #D7D5B6",
"s. c #DBD4B3",
"d. c #DBD5BB",
"f. c #DADABF",
"g. c #EEC5A5",
"h. c #E7C4B6",
"j. c #F3C3B8",
"k. c #E4D9B9",
"l. c #E2DCBC",
"z. c #F6DABA",
"x. c #E9E2BF",
"c. c #A2BEC1",
"v. c #BFBAC1",
"b. c #C9BAC6",
"n. c #D7BDC6",
"m. c #ABC3C5",
"M. c #A7C7C9",
"N. c #AACACC",
"B. c #B9C8C5",
"V. c #AECED1",
"C. c #B7CED3",
"Z. c #B7D6D8",
"A. c #BEDEE0",
"S. c #C9CDC5",
"D. c #CCCBCA",
"F. c #DDDCC3",
"G. c #D7D7C9",
"H. c #CAD9D8",
"J. c #D6D8D6",
"K. c #E8C9CA",
"L. c #F5CAC7",
"P. c #E3DEC3",
"I. c #E9DAC2",
"U. c #E4CBD3",
"Y. c #E2D6D6",
"T. c #CAE1DE",
"R. c #D3E1DE",
"E. c #E6E1C2",
"W. c #ECE5C5",
"Q. c #E7E5CA",
"!. c #EBE5CA",
"~. c #EDE9CB",
"^. c #F7E6CA",
"/. c #E6E6D6",
"(. c #ECE9D1",
"). c #F1EDD4",
"_. c #F9E7D9",
"`. c #F1EEDA",
"'. c #ECF0DD",
"]. c #F5F2DC",
"[. c #F9F3DE",
"{. c #C4DEE1",
"}. c #E6DFE3",
"|. c #C3E1E4",
" X c #CCE4E6",
".X c #C8E7E9",
"XX c #CCE9EB",
"oX c #D5E7E7",
"OX c #DBE5E4",
"+X c #D3EBED",
"@X c #DBEDED",
"#X c #DEF1EE",
"$X c #D6EDF5",
"%X c #DCEEF1",
"&X c #CDF0F9",
"*X c #D8F2F5",
"=X c #DCF3F5",
"-X c #DDF5F9",
";X c #E6E7E8",
":X c #E4ECEC",
">X c #FAEBE4",
",X c #F7EDEA",
"<X c #E6F0E6",
"1X c #E4F3EE",
"2X c #EDF2EB",
"3X c #F5F4E2",
"4X c #FAF4E4",
"5X c #FEFCE5",
"6X c #F5F5ED",
"7X c #FBF7EA",
"8X c #F1FBEC",
"9X c #FEFAEB",
"0X c #E5EEF3",
"qX c #E8EFF1",
"wX c #E3F4F3",
"eX c #E9F2F1",
"rX c #EBF8F7",
"tX c #E1F6F8",
"yX c #E5FAFC",
"uX c #EAFEFF",
"iX c #F3F7F1",
"pX c #FEFEF3",
"aX c #FEFEFD",
/* pixels */
"uXuXuXuXuXuXuXuXuXuXuXuXuXuXuXuXuXuXuXuXuXuXuXuXuXuXuXuXuXuXuXuXuXuXuXuXuXuXuXuXuXuXuXuXuXuXuXuXuXuXuXuXuXuXuXuXuXuXuXuXuXuXuXuX",
"uXuXuXuXuXuXuXuXuXuXuXuXuXuXuXuXuXuXuXuXuXuXuXuXuXuXuXuXuXuXuXuXuXuXuXuXuXuXuXuXuXuXuXuXuXuXuXuXuXuXuXuXuXuXuXuXuXuXuXuXuXuXuXuX",
"uXuXuXuXuXuXuXuXuXuXuXuXuXuXuXuXuXuXuXuXuXuXuXuXuXuXuXuXuXuXuXuXuXuXuXuXuXuXuXuXuXuXuXuXuXuXuXuXuXuXuXuXuXuXuXuXuXuXuXuXuXuXuXuX",
"uXuXuXuXuXuXuXuXuXuXuXuXuXuXuXuXuXuXuXuXuXuXuXuXuXuXuXuXuXuXuXuXuXuXuXuXuXuXuXuXuXuXuXuXuXuXuXuXuXuXuXuXuXuXuXuXuXuXuXuXuXuXuXuX",
"uXuXuXuXuXuXuXuXuXuXuXuXuXuXuXuXuXuXuXuXuXuXuXuXuXuXuXuXuXuXuXuXuXuXuXuXuXuXuXuXuXuXuXuXuXuXuXuXuXuXuXuXuXuXuXuXuXuXuXuXuXuXuXuX",
"uXuXuXuXuXuXuXuXuXuXuXuXuXuXuXuXuXuXuXuXuXuXuXuXuXuXuXuXuXuXuXuXuXuXuXuXuXuXuXuXuXuXuXuXuXuXuXuXuXuXuXuXuXuXuXuXuXuXuXuXuXuXuXuX",
"uXuXuXuXuXuXuXuXuXuXuXuXuXuXuXuXuXuXuXuXuXuXuXuXuXuXuXuXuXuXuXuXuXuXuXyXrXuXuXuXuXuXuXuXuXuXuXuXuXuXuXuXuXuXuXuXuXuXuXuXuXuXuXuX",
"uXuXuXuXuXuXuXuXuXuXuXuXuXuXuXuXuXuXuXuXuXuXuXuXuXuXuXuXuXuXuXuXuXuXyX....;XuXuXuXuXuXuXuXuXuXuXuXuXuXuXuXuXuXuXuXuXuXuXuXuXuXuX",
"uXuXuXuXuXuXuXuXuXuXuXuXuXuXuXuXuXuXuXuXuXuXuXuXuXuXuXuXuXuXuXuXuXyX+.1.2.6.j.eXuXuXuXuXuXuXuXuXuXuXuXuXuXuXuXuXuXuXuXuXuXuXuXuX",
"uXuXuXuXuXuXuXuXuXuXuXuXuXuXuXuXuXuXuXuXuXuXuXuXuXuXuXuXuXuXuXuXuXj.2.3.4.2.3.6.Y.rXuXuXuXuXuXuXuXuXuXuXuXuXuXuXuXuXuXuXuXuXuXuX",
"uXuXuXuXuXuXuXuXuXuXuXuXuXuXuXuXuXuXuXuXuXuXuXuXuXuXuXuXuXuXuXuXOX2.2.2.2.2.2.2.4.>.Y.rXuXuXuXuXuXuXuXuXuXuXuXuXuXuXuXuXuXuXuXuX",
"uXuXuXuXuXuXuXuXuXuXuXuXuXuXuXuXuXuXuXuXuXuXuXuXuXuXuXuXuXuXuXrX>.,.3.2.2.2.2.2.1.1.O.<.rXuXuXuXuXuXuXuXuXuXuXuXuXuXuXuXuXuXuXuX",
"uXuXuXuXuXuXuXuXuXuXuXuXuXuXuXuXuXuXuXuXuXuXuXuXuXuXuXuXuXuXuXK.<.2.2.1.2.2.2.*.2.2.X.{ } K.yXuXuXuXuXuXuXuXuXuXuXuXuXuXuXuXuXuX",
"uXuXuXuXuXuXuXuXuXuXuXuXuXuXuXuXuXuXuXuXuXuXuXuXuXuXuXuXuXuXrX7.*.4.2.2.2.2.2.2.2.4.X.] [ [ yXuXuXuXuXuXuXuXuXuXuXuXuXuXuXuXuXuX",
"uXuXuXuXuXuXuXuXuXuXuXuXuXuXuXuXuXuXuXuXuXuXuXuXuXuXuXuXuXuXU.<.2.2.2.2.2.2.1.2.2.2.X.] [ ..uXuXuXuXuXuXuXuXuXuXuXuXuXuXuXuXuXuX",
"uXuXuXuXuXuXuXuXuXuXuXuXuXuXuXuXuXuXuXuXuXuXuXuXuXuXuXuXuXrX,.*.4.2.2.2.2.3.3.2.2.o.[ ] O.;XuXuXuXuXuXuXuXuXuXuXuXuXuXuXuXuXuXuX",
"uXuXuXuXuXuXuXuXuXuXuXuXuXuXuXuXuXuXuXuXuXuXuXuXuXuXuXuXuXJ.<.*.2.2.1.2.2.2.2.2.1.{ [ [ 7.rXuXuXuXuXuXuXuXuXuXuXuXuXuXuXuXuXuXuX",
"uXuXuXuXuXuXuXuXuXuXuXuXuXuXuXuXuXuXuXuXuXuXuXuXuXuXuXyX}.+.3.2.2.3.2.2.2.2.2.2.+.{ ] { 7.uXuXuXuXuXuXuXuXuXuXuXuXuXuXuXuXuXuXuX",
"uXuXuXuXuXuXuXuXuXuXuXuXuXuXuXuXuXuXuXuXuXuXuXuXuXqX_ D  .{ o.3.2.2.2.2.2.2.4.*.{ ] { &.}.yXuXuXuXuXuXuXuXuXuXuXuXuXuXuXuXuXuXuX",
"uXuXuXuXuXuXuXuXuXuXuXuXuXuXuXuXuXuXuXuXuXuXuXuXyXyX-.&.#.Z v D o.1.2.1.4.4.4.+.{ { ,.K.uXuXuXuXuXuXuXuXuXuXuXuXuXuXuXuXuXuXuXuX",
"uXuXuXuXuXuXuXuXuXuXuXuXuXuXuXuXuXuXuXuXuXuXuXuXuX1X8X].d.e.$.| ] S } +.X. .X.{ { <.L.0XuXuXuXuXuXuXuXuXuXuXuXuXuXuXuXuXuXuXuXuX",
"uXuXuXuXuXuXuXuXuXuXuXuXuXuXuXuXuXuXuXuXuXuXuXuX8X5X5X5X[.<X(./.d.&.` S L ` b v { 8.L.;XuXuXuXuXuXuXuXuXuXuXuXuXuXuXuXuXuXuXuXuX",
"uXuXuXuXuXuXuXuXuXuXuXuXuXuXuXuXuXuXuXuXuXuXuX8X5X5X5X5X5X5X9X5X].].a.e.#.| v S b v l =.uXuXuXuXuXuXuXuXuXuXuXuXuXuXuXuXuXuXuXuX",
"uXuXuXuXuXuXuXuXuXuXuXuXuXuXuXuXuXuXuXuXuXuXuX2X5X5X9X9X9X9X9X9X5X4X].).l.P.i.>.S v c +.0XuXuXuXuXuXuXuXuXuXuXuXuXuXuXuXuXuXuXuX",
"uXuXuXuXuXuXuXuXuXuXuXuXuXuXuX-XyXuXuXuXuXuX1X5X5X5XaXaX5X7X5X7X5X5XpXpX[.!.s.s.a.oX;XS K.yXuXuXuXuXuXuXuXuXuXuXuXuXuXuXuXuXuXuX",
"uXuXuXuXuXuXuXuXuXuXuXuXuXuXyXY tXyXuXuXuXuX1X5X5X9XH ! pX7X7X7X7XpX/.O G.7Xx.k.a.1XuX .<.uXuXuXuXuXuXuXuXuXuXuXuXuXuXuXuXuXuXuX",
"uXuXuXuXuXuXuXuXuXuXuXuXuXuXwX@.%XtXtXuXuXuX#X5X9XaX. O aXaXaXaXpXaXp.  9.3XW.s.s.1XuXX.<.yX{.*XuXuXuXuXuXuXuXuXuXuXuXuXuXuXuXuX",
"uXuXuXuXuXuXuXuXuXuXuXuXyXuX@X;.%XB.U uXuXuX1X5X5X^.X m _.z.^.z._.aXY.o F.].~.k.d.wX0XS U.yX-.H.uXuXuXuXuXuXuXuXuXuXuXuXuXuXuXuX",
"uXuXuXuXuXuXuXuXuXuXuXyXE OXoXT oX/ T yXuXuXwX9X>XV e n n q n q %.aX9XpX5X).~.s.f.,XX.X.$XtXU  XuXuXuXuXuXuXuXuXuXuXuXuXuXuXuXuX",
"uXuXuXuXuXuXuXuXuXuXuXuX/ ^ H.I B.~ T uXuXuXyXpX5X4Xw 9 0 0 0 9 G aX9X9X[.~.E.r.f. .b %XyXtXU =XwXS.uXuXuXuXuXuXuXuXuXuXuXuXuXuX",
"uXuXuXuXuXuXuXuXuXuXuXuX=X) P M I ! *XuXuXyXY.F pXaXz.5.g.g.g.5.^.pX9X[.^.W.l.r._ _ qXyXD.oXP +XH.@.uXuXuXuXuXuXuXuXuXuXuXuXuXuX",
"uXuXuXuXuXuXuXuXuXuXuXuXuX@X^ M P  XyXuXrXU.c z >X9XaXaXaXaXpXpX9X5X3X~.W.l.r.e.p J tXrXB.! M P ! H.uXuXuXuXuXuXuXuXuXuXuXuXuXuX",
"uXuXuXuXuXuXuXuXuXuXuXuXuXrXR.I {.yXuXuXqXL 8 d 1.>X7X[.]._.`.(.(.].~.l.s.r.e.j 3 r v.yX-X^ B N C.uXuXuXuXuXuXuXuXuXuXuXuXuXuXuX",
"uXuXuXuXuXuXuXuXuXuXuXuXuXyX<XB OXyXuXuX;Xc 2 = f +.L.z.x.W.W.W.x.k.r.e.-.#.h 4 @ r R yXyXwXT H.uXuXuXuXuXuXuXuXuXuXuXuXuXuXuXuX",
"uXuXuXuXuXuXuXuXuXuXuXuXuXuX@XB {.yXuXuX}.c , , 1 y g b [ ..X.%.#.#.Z h a t > - @ $ J yXyX*X^ #XuXuXuXuXuXuXuXuXuXuXuXuXuXuXuXuX",
"uXuXuXuXuXuXuXuXuXuXuXuXuXuXrXH.! oXuXuX;XK 7 1 1 * * * = , : i i 5 4 : : ; - + @ $ R uXyXJ.J.yXuXuXuXuXuXuXuXuXuXuXuXuXuXuXuXuX",
"uXuXuXuXuXuXuXuXuXuXuXuXuXuXuX@XN ;.yXuXyX:.g 1 < < < , , , 1 6 < , : : ; @ + @ @ t b.uX@X;.1XuXuXuXuXuXuXuXuXuXuXuXuXuXuXuXuXuX",
"uXuXuXuXuXuXuXuXuXuXuXuXuXuXuXtX/ Y +XuXyX0X' 7 1 < , < , , 1 , < , , : ; # # + $ k 0X$X9.S.yXuXuXuXuXuXuXuXuXuXuXuXuXuXuXuXuXuX",
"uXuXuXuXuXuXuXuXuXuXuXuXuXuXuXuX%X) ;.@X-XyXn.8 , , , 1 , , , 2 , , 6 4 3 r r p k ) .X) ^ -XuXuXuXuXuXuXuXuXuXuXuXuXuXuXuXuXuXuX",
"uXuXuXuXuXuXuXuXuXuXuXuXuXuXuXuXyXtXH.@.B D.-X' - , 1 1 = * & * , y a a s ' D.>.b.I I ^ $XuXuXuXuXuXuXuXuXuXuXuXuXuXuXuXuXuXuXuX",
"uXuXuXuXuXuXuXuXuXuXuXuXuXuXuXuXuXuXyXOXH.U u.-.; - + + t >.:.:.:.:.7.n.i./.(./.U ;.y.=XuXuXuXuXuXuXuXuXuXuXuXuXuXuXuXuXuXuXuXuX",
"uXuXuXuXuXuXuXuXuXuXuXuXuXuXuXuXuXuXuXuXwX^ G.O.> - ; % j wXeXeX0X;X2X(.(.~.~.!.;.J.&XuXuXuXuXuXuXuXuXuXuXuXuXuXuXuXuXuXuXuXuXuX",
"uXuXuXuXuXuXuXuXuXuXuXuXuXuXuXuXuXuXuXuXtX<X`.4.6 , 2 & c 2XiX6X,X6X2X~.~.~.~.Q.Y.G.$XuXuXuXuXuXuXuXuXuXuXuXuXuXuXuXuXuXuXuXuXuX",
"uXuXuXuXuXuXuXuXuXuXuXuXuXuXuXuXuXuXuXuX1X].).8.2 , 2 & z 7XiXiX6X6X6X`.W.(.~.W.r.t.oXuXuXuXuXuXuXuXuXuXuXuXuXuXuXuXuXuXuXuXuXuX",
"uXuXuXuXuXuXuXuXuXuXuXuXuXuXuXuXuXuXuXuX1X`.).j.d d u 7 z ,X6X6X6X6X7X(.~.~.~.~.q.w.oXuXuXuXuXuXuXuXuXuXuXuXuXuXuXuXuXuXuXuXuXuX",
"uXuXuXuXuXuXuXuXuXuXuXuXuXuXuXuXuXuXuXuX1X).~.h.&.*.&.| C >X7X8X6X7X[.).~.~.~.~.0.q.oXuXuXuXuXuXuXuXuXuXuXuXuXuXuXuXuXuXuXuXuXuX",
"uXuXuXuXuXuXuXuXuXuXuXuXuXuXuXuXuXuXuXuXwX`.~.e.*.2.*.| C >X7X7X7X3X`.~.~.W.W.E.q.w.:XuXuXuXuXuXuXuXuXuXuXuXuXuXuXuXuXuXuXuXuXuX",
"uXuXuXuXuXuXuXuXuXuXuXuXuXuXuXuXuXuXuXyXrX3X~.e. .&.o.v j _.7X7X7X[.~.~.~.W.W.l.0.p.wXuXuXuXuXuXuXuXuXuXuXuXuXuXuXuXuXuXuXuXuXuX",
"uXuXuXuXuXuXuXuXuXuXuXuXuXuXuXuXuXuXuXyXwX'.Q.5.x D Z x ` 2X7X7X3X).~.~.W.W.E.r.0.G.tXuXuXuXuXuXuXuXuXuXuXuXuXuXuXuXuXuXuXuXuXuX",
"uXuXuXuXuXuXuXuXuXuXuXuXuXuXuXuXuXuXyX$XT.f.Q.W.#.A #.h.I.[.].'.).~.~.!.W.W.k.0.t.R.yXuXuXuXuXuXuXuXuXuXuXuXuXuXuXuXuXuXuXuXuXuX",
"uXuXuXuXuXuXuXuXuXuXuXuXuXuXuXuXuXyX+X|.N.B.G.f.P.k.x.).~.~.~.~.~.~.W.W.W.f.q.w.S.H.oXyXuXuXuXuXuXuXuXuXuXuXuXuXuXuXuXuXuXuXuXuX",
"uXuXuXuXuXuXuXuXuXuXuXuXuXuXuXuXuX-X.XZ.M.Q 9.w.F.f.P.f.E.E.l.F.F.F.f.a.p.r.p.D.m.Z. X+XyXuXuXuXuXuXuXuXuXuXuXuXuXuXuXuXuXuXuXuX",
"uXuXuXuXuXuXuXuXuXuXuXuXuXuXuXuXuX-X.XZ.V.Q Q / B.y.y.y.p.p.p.t.t.t.t.y.y.B.m.( M.Z.|..XtXuXuXuXuXuXuXuXuXuXuXuXuXuXuXuXuXuXuXuX",
"uXuXuXuXuXuXuXuXuXuXuXuXuXuXuXuXuXtXXX|.Z.N.M.c.Q Q W W W W W W W W ~ ( ( ( ( m.V.{..X$XuXuXuXuXuXuXuXuXuXuXuXuXuXuXuXuXuXuXuXuX",
"uXuXuXuXuXuXuXuXuXuXuXuXuXuXuXuXuXuX-X+X|.A.Z.V.V.N.N.V.N.N.N.N.N.M.N.M.N.V.Z.A..X+X-XyXuXuXuXuXuXuXuXuXuXuXuXuXuXuXuXuXuXuXuXuX",
"uXuXuXuXuXuXuXuXuXuXuXuXuXuXuXuXuXuXuXyX-X*X+XXX.X|.|.|.|.A.A.A.A.{.|.|..X.XXX+X=XtXuXuXuXuXuXuXuXuXuXuXuXuXuXuXuXuXuXuXuXuXuXuX",
"uXuXuXuXuXuXuXuXuXuXuXuXuXuXuXuXuXuXuXuXuXuXuXuXtX-X-X-X=X=X%X%X*X=X-X-XtXtXyXyXuXuXuXuXuXuXuXuXuXuXuXuXuXuXuXuXuXuXuXuXuXuXuXuX",
"uXuXuXuXuXuXuXuXuXuXuXuXuXuXuXuXuXuXuXuXuXuXuXuXuXuXuXuXyXyXyXuXuXuXuXuXuXuXuXuXuXuXuXuXuXuXuXuXuXuXuXuXuXuXuXuXuXuXuXuXuXuXuXuX",
"uXuXuXuXuXuXuXuXuXuXuXuXuXuXuXuXuXuXuXuXuXuXuXuXuXuXuXuXuXuXuXuXuXuXuXuXuXuXuXuXuXuXuXuXuXuXuXuXuXuXuXuXuXuXuXuXuXuXuXuXuXuXuXuX",
"uXuXuXuXuXuXuXuXuXuXuXuXuXuXuXuXuXuXuXuXuXuXuXuXuXuXuXuXuXuXuXuXuXuXuXuXuXuXuXuXuXuXuXuXuXuXuXuXuXuXuXuXuXuXuXuXuXuXuXuXuXuXuXuX",
"uXuXuXuXuXuXuXuXuXuXuXuXuXuXuXuXuXuXuXuXuXuXuXuXuXuXuXuXuXuXuXuXuXuXuXuXuXuXuXuXuXuXuXuXuXuXuXuXuXuXuXuXuXuXuXuXuXuXuXuXuXuXuXuX",
"uXuXuXuXuXuXuXuXuXuXuXuXuXuXuXuXuXuXuXuXuXuXuXuXuXuXuXuXuXuXuXuXuXuXuXuXuXuXuXuXuXuXuXuXuXuXuXuXuXuXuXuXuXuXuXuXuXuXuXuXuXuXuXuX",
"uXuXuXuXuXuXuXuXuXuXuXuXuXuXuXuXuXuXuXuXuXuXuXuXuXuXuXuXuXuXuXuXuXuXuXuXuXuXuXuXuXuXuXuXuXuXuXuXuXuXuXuXuXuXuXuXuXuXuXuXuXuXuXuX",
"uXuXuXuXuXuXuXuXuXuXuXuXuXuXuXuXuXuXuXuXuXuXuXuXuXuXuXuXuXuXuXuXuXuXuXuXuXuXuXuXuXuXuXuXuXuXuXuXuXuXuXuXuXuXuXuXuXuXuXuXuXuXuXuX"
};
