/* XPM */
static char *enemy_283_29[] = {
/* columns rows colors chars-per-pixel */
"64 64 221 2 ",
"   c black",
".  c #1A232C",
"X  c #6B503A",
"o  c #575652",
"O  c #6A6F71",
"+  c #BD0A1A",
"@  c #BD0C21",
"#  c #BE1B2A",
"$  c #BA2637",
"%  c #C90001",
"&  c #C20A1E",
"*  c #EA000B",
"=  c #E60719",
"-  c #EA121E",
";  c #C70B21",
":  c #CA1628",
">  c #D81729",
",  c #D21F30",
"<  c #E51525",
"1  c #EA1727",
"2  c #E41926",
"3  c #E51C2C",
"4  c #F11729",
"5  c #CB2B38",
"6  c #D92D36",
"7  c #D52A38",
"8  c #E6212C",
"9  c #EA2831",
"0  c #CE4A00",
"q  c #D15C02",
"w  c #E37112",
"e  c #EE7B23",
"r  c #BD384A",
"t  c #C53746",
"y  c #E73642",
"u  c #F13C4C",
"i  c #DD524C",
"p  c #C74656",
"a  c #D54B57",
"s  c #C75558",
"d  c #EB494E",
"f  c #ED4B54",
"g  c #E6655D",
"h  c #DC5664",
"j  c #D46265",
"k  c #D0726F",
"l  c #C96B77",
"z  c #E86C6C",
"x  c #F3626A",
"c  c #E26B76",
"v  c #E37C73",
"b  c #E87B79",
"n  c #F48834",
"m  c #9E846E",
"M  c #AB8E72",
"N  c #AC9076",
"B  c #B29579",
"V  c #FA9649",
"C  c #CD826D",
"Z  c #D08E7A",
"A  c #E5837D",
"S  c #EA857B",
"D  c #807F80",
"F  c #AF6F80",
"G  c #DE7A86",
"H  c #E37F87",
"J  c #AB9C8A",
"K  c #B39986",
"L  c #A2829B",
"P  c #B5A38D",
"I  c #A8A89F",
"U  c #B8A998",
"Y  c #AA8BA2",
"T  c #9DB4AE",
"R  c #9CB5B5",
"E  c #A6ABA7",
"W  c #A3B4AC",
"Q  c #A7B8AE",
"!  c #B9B5AA",
"~  c #A8BAB7",
"^  c #B7BBB6",
"/  c #DC8E88",
"(  c #DE9887",
")  c #D08B93",
"_  c #E68783",
"`  c #EA8C85",
"'  c #E98E8C",
"]  c #F48F87",
"[  c #E29084",
"{  c #EA928C",
"}  c #F4978C",
"|  c #ED9592",
" . c #EE9A93",
".. c #E89B97",
"X. c #F39C98",
"o. c #C1AC95",
"O. c #D0AD92",
"+. c #DBA997",
"@. c #E9AE8A",
"#. c #E6A69C",
"$. c #F2A39D",
"%. c #FFA89C",
"&. c #F59FA2",
"*. c #CFAFAD",
"=. c #C5B7A7",
"-. c #DBAFBB",
";. c #DBB5B8",
":. c #E8A8A5",
">. c #EBACAC",
",. c #F3A6A2",
"<. c #F4AAA4",
"1. c #F8A9A4",
"2. c #F4AEAA",
"3. c #E7BEA7",
"4. c #F5B2AB",
"5. c #E2B2B3",
"6. c #F1B5BB",
"7. c #B9C5BC",
"8. c #CEC79F",
"9. c #CEC8A1",
"0. c #CDCAAB",
"q. c #D6C6A9",
"w. c #D3CEAB",
"e. c #D7D1AD",
"r. c #D8D3AD",
"t. c #CBCDB4",
"y. c #D3CEB5",
"u. c #CAD0B9",
"i. c #D7D4B7",
"p. c #DBD5B3",
"a. c #DCDABD",
"s. c #EEC5A5",
"d. c #E7C6B8",
"f. c #F3C3B8",
"g. c #E0DAB5",
"h. c #E2DDBC",
"j. c #F6DABA",
"k. c #E9E2BF",
"l. c #A2BEC1",
"z. c #C9BAC6",
"x. c #D6BEC5",
"c. c #ABC3C4",
"v. c #A7C7C9",
"b. c #AACACC",
"n. c #B9C8C7",
"m. c #AECED1",
"M. c #B7CED3",
"N. c #B7D6D8",
"B. c #BEDEE0",
"V. c #CBCDC4",
"C. c #C4CCC9",
"Z. c #DBC5C3",
"A. c #CCD1C4",
"S. c #D9D9C6",
"D. c #C5CFD0",
"F. c #CAD9D8",
"G. c #D6D8D6",
"H. c #E8C9CA",
"J. c #F5CAC7",
"K. c #E4DEC4",
"L. c #EDDDC4",
"P. c #E4CBD3",
"I. c #E2D6D6",
"U. c #C9E1DF",
"Y. c #D3E0DD",
"T. c #E5E2C4",
"R. c #ECE5C5",
"E. c #E6E6CE",
"W. c #ECE5C9",
"Q. c #EEE9CC",
"!. c #F9E5C8",
"~. c #E6E5D4",
"^. c #EEEBD4",
"/. c #F1EDD4",
"(. c #F9E9D4",
"). c #F1EEDB",
"_. c #ECF0DD",
"`. c #F5F2DB",
"'. c #F9F3DE",
"]. c #C3DEE1",
"[. c #E6DFE3",
"{. c #C4E2E4",
"}. c #CCE4E6",
"|. c #C8E7E9",
" X c #CCE9EB",
".X c #D5E7E7",
"XX c #DAE5E4",
"oX c #D3EBED",
"OX c #DBECED",
"+X c #DEF1EE",
"@X c #D6EDF5",
"#X c #DCEEF1",
"$X c #CDF0F9",
"%X c #DCF3F5",
"&X c #DBF4F7",
"*X c #E7E7E8",
"=X c #E4ECEC",
"-X c #F7ECE4",
";X c #E6F0E5",
":X c #E4F3EE",
">X c #EBF3EB",
",X c #F5F3E4",
"<X c #FBF3E4",
"1X c #FEFCE5",
"2X c #F6F5EC",
"3X c #FAF6EA",
"4X c #F1FBEC",
"5X c #FEFAEB",
"6X c #E5EEF3",
"7X c #E8EFF1",
"8X c #E3F4F3",
"9X c #E9F3F2",
"0X c #E1F7F8",
"qX c #E9F6F8",
"wX c #E5FAFC",
"eX c #EAFDFE",
"rX c #EBFEFE",
"tX c #EAFEFF",
"yX c #F3F7F1",
"uX c #FEFEF3",
"iX c #FEFEFD",
/* pixels */
"tXtXtXtXtXtXtXtXtXtXtXtXtXtXtXtXtXtXtXtXtXtXtXtXtXtXtXtXtXtXtXtXtXtXtXtXtXtXtXtXtXtXtXtXtXtXtXtXtXtXtXtXtXtXtXtXtXtXtXtXtXtXtXtX",
"tXtXtXtXtXtXtXtXtXtXtXtXtXtXtXtXtXtXtXtXtXtXtXtXtXtXtXtXtXtXtXtXtXtXtXtXtXtXtXtXtXtXtXtXtXtXtXtXtXtXtXtXtXtXtXtXtXtXtXtXtXtXtXtX",
"tXtXtXtXtXtXtXtXtXtXtXtXtXtXtXtXtXtXtXtXtXtXtXtXtXtXtXtXtXtXtXtXtXtXtXtXtXtXtXtXtXtXrXrXtXtXtXtXtXtXtXtXtXtXtXtXtXtXtXtXtXtXtXtX",
"tXtXtXtXtXtXtXtXtXtXtXtXtXtXtXtXtXtXtXtXtXtXtXtXtXtXtXtXtXtXtXtXtXtXtXtXtXtXtXtXtXtXrXrXtXtXtXtXtXtXtXtXtXtXtXtXtXtXtXtXtXtXtXtX",
"tXtXtXtXtXtXtXtXtXtXtXtXtXtXtXtXtXtXtXtXtXtXtXtXtXtXtXtXtXtXtXtXtXtXtXtX0XrXrXrXrXrXrXrXtXtXtXtXtXtXtXtXtXtXtXtXtXtXtXtXtXtXtXtX",
"tXtXtXtXtXtXtXtXtXtXtXtXtXtXtXtXtXtXtXtXtXtXtXtXtXtXtXtXtXtXtXtXtXtXqX} } *XrXrXrXrXrXrXtXtXtXtXtXtXtXtXtXtXtXtXtXtXtXtXtXtXtXtX",
"tXtXtXtXtXtXtXtXtXtXtXtXtXtXtXtXtXtXtXtXtXtXtXtXtXtXtXtXtXtXtXtXtXqXX.$.<.4.f.9XrXrXtXtXtXtXtXtXtXtXtXtXtXtXtXtXtXtXtXtXtXtXtXtX",
"tXtXtXtXtXtXtXtXtXtXtXtXtXtXtXtXtXtXtXtXtXtXtXtXtXtXtXtXtXtXtXtXrXd.<.<.2.1.1.4.P.0XtXtXtXtXtXtXtXtXtXtXtXtXtXtXtXtXtXtXtXtXtXtX",
"tXtXtXtXtXtXtXtXtXtXtXtXtXtXtXtXtXtXtXtXtXtXtXtXtXtXtXtXtXtXtXtX*X<.<.<.<.<.<.<.2.;.I.qXrXrXrXtXtXtXtXtXtXtXtXtXtXtXtXtXtXtXtXtX",
"tXtXtXtXtXtXtXtXtXtXtXtXtXtXtXtXtXtXtXtXtXtXtXtXtXtXtXtXtXtXtXqX;.:.<.<.<.<.<.1.<.$.X.5.0XeXrXtXtXtXtXtXtXtXtXtXtXtXtXtXtXtXtXtX",
"tXtXtXtXtXtXtXtXtXtXtXtXtXtXtXtXtXtXtXtXtXtXtXtXtXtXtXtXtXtXeXH.>.2.<.<.<.<.<.<.<.<.| ' ] J.wXtXtXtXtXtXtXtXtXtXtXtXtXtXtXtXtXtX",
"tXtXtXtXtXtXtXtXtXtXtXtXtXtXtXtXtXtXtXtXtXtXtXtXtXtXtXtXtXtXeX5.,.<.,.<.,.<.<.<.<.2.| _ ` ` wXtXtXtXtXtXtXtXtXtXtXtXtXtXtXtXtXtX",
"tXtXtXtXtXtXtXtXtXtXtXtXtXtXtXtXtXtXtXtXtXtXtXtXtXtXtXtXrXrXH.2.,.<.<.<.,.1.,.<.<.<.| _ ` ] eXtXtXtXtXtXtXtXtXtXtXtXtXtXtXtXtXtX",
"tXtXtXtXtXtXtXtXtXtXtXtXtXtXtXtXtXtXtXtXtXtXtXtXtXtXtXtXrXqX:.,.<.:.<.<.<.<.<.<.,.| ` _ ..=XtXtXtXtXtXtXtXtXtXtXtXtXtXtXtXtXtXtX",
"tXtXtXtXtXtXtXtXtXtXtXtXtXtXtXtXtXtXtXtXtXtXtXtXtXtXtXtXrXG.>.$.<.<.<.<.<.<.<.2.,.| _ _ 5.qXtXtXtXtXtXtXtXtXtXtXtXtXtXtXtXtXtXtX",
"tXtXtXtXtXtXtXtXtXtXtXtXtXtXtXtXtXtXtXtXtXtXtXtXtXtXtXwXXXX.$.<.<.1.<.<.<.<.1.<...' _ | 5.eXtXtXtXtXtXtXtXtXtXtXtXtXtXtXtXtXtXtX",
"tXtXtXtXtXtXtXtXtXtXtXtXtXtXtXtXtXtXtXtXtXtXtXtXtX=X/ S ..`  .<.<.<.<.<.<.<.2.$.' H ' :.[.rXrXrXtXtXtXtXtXtXtXtXtXtXtXtXtXtXtXtX",
"tXtXtXtXtXtXtXtXtXtXtXtXtXtXtXtXtXtXtXtXtXtXtXtXtX0X-.+.+.A v A  .<.<.$.<.2.2.$.' ' :.P.eXrXrXrXtXtXtXtXtXtXtXtXtXtXtXtXtXtXtXtX",
"tXtXtXtXtXtXtXtXtXtXtXtXtXtXtXtXtXtXtXtXtXtXtXtXtX:X4X,Xi.q.O.( _ A { X.| { | ' ' 2.J.6XeXrXrXrXtXtXtXtXtXtXtXtXtXtXtXtXtXtXtXtX",
"tXtXtXtXtXtXtXtXtXtXtXtXtXtXtXtXtXtXtXtXtXtXtXtX4X1X1X1X`._.^._.i.#.( A b ' v v _ 6.J.*XeXeXrXrXtXtXtXtXtXtXtXtXtXtXtXtXtXtXtXtX",
"tXtXtXtXtXtXtXtXtXtXtXtXtXtXtXtXtXtXtXtXtXtXtX4X1X1X1X1X5X1X1X<X`.`.i.q.+.[ v _ S b g %.eXtXrXrXtXtXtXtXtXtXtXtXtXtXtXtXtXtXtXtX",
"tXtXtXtXtXtXtXtXtXtXtXtXtXtXtXtXtXtXtXtXtXtXeX>X1X1X1X5X5X5X1X3X1X1X)./.h.T.y.;._ v z X.6XtXrXrXtXtXtXtXtXtXtXtXtXtXtXtXtXtXtXtX",
"tXtXtXtXtXtXtXtXtXtXtXtXtXtXtX&XwXtXtXtXtXtX8X1X1X1XiXiX<X5X5X5X5X<XuXuX<XW.p.p.y.XX*Xb H.tXtXtXtXtXtXtXtXtXtXtXtXtXtXtXtXtXtXtX",
"tXtXtXtXtXtXtXtXtXtXtXtXtXtX0XI 0XwXtXtXtXeX+X1X1XuXD E uX<X5X3X5XuX~.O S.,XR.p.i.8XwX..>.tXtXtXtXtXtXtXtXtXtXtXtXtXtXtXtXtXtXtX",
"tXtXtXtXtXtXtXtXtXtXtXtXtXtX6Xo.%XwX0XtXrXrX:X1X1XiX. O iXiXiXiXuXiXA.  ^ <XW.g.y.8XtX| >.wX}.@XtXtXtXtXtXtXtXtXtXtXtXtXtXtXtXtX",
"tXtXtXtXtXtXtXtXtXtXtXtXwXwXOX=.OXn.P tXrXrX>X1X5X!.X m (.L.!.j.(.uXI.o S.'.Q.g.a.8X7XS P.wX*.F.tXtXtXtXtXtXtXtXtXtXtXtXtXtXtXtX",
"tXtXtXtXtXtXtXtXtXtXtXwXE XX.XU .X~ U 0XtXrX8X5X'.V e n n w n w @.iX1XuX1X/.W.p.a.-X| | @X0XU ].tXtXtXtXtXtXtXtXtXtXtXtXtXtXtXtX",
"tXtXtXtXtXtXtXtXtXtXtXwXQ ! F.P n.W U tXtXtXqXiX<X;Xn 0 q q q 0 @.uXuX5X'.Q.R.r.S.{ b #XqX0XP #X%XV.tXtXtXtXtXtXtXtXtXtXtXtXtXtX",
"tXtXtXtXtXtXtXtXtXtXtXtX%X~ K M K E &XtXtX&XG.b uXiXj.3.s.s.s.3.W.uX5X'.Q.W.h.r./ / =XwXC..XP .XF.o.qXtXtXtXtXtXtXtXtXtXtXtXtXtX",
"tXtXtXtXtXtXtXtXtXtXtXtXtX8X! M K  XwXtXqXP.z x -X5XiXuXuXiXuXuX5X<X<X!.R.g.r.q.s F %XwX7.E M J W F.tXtXtXtXtXtXtXtXtXtXtXtXtXtX",
"tXtXtXtXtXtXtXtXtXtXtXtXtXwXY.K F.wXtXtX9X_ y d &.-X3X'./.`.(./././.Q.h.p.y.q.k 5 r z.wX0X=.B M M.tXtXtXtXtXtXtXtXtXtXtXtXtXtXtX",
"tXtXtXtXtXtXtXtXtXtXtXtXtXtXXXB .XwXtXtX*Xc 4 < f &.J.L.R.L.R.R.R.h.r.q.*.+.j 7 # $ Y tXwX#XU F.rXtXtXtXtXtXtXtXtXtXtXtXtXtXtXtX",
"tXtXtXtXtXtXtXtXtXtXtXtXtXtX:XB F.wXtXtX*Xz 1 1 3 y f b ` { { +.+.+.C j a 7 , ; @ $ F wXwX&X=.OXtXtXtXtXtXtXtXtXtXtXtXtXtXtXtXtX",
"tXtXtXtXtXtXtXtXtXtXtXtXtXtXwXF.E .XtXtX=XG 9 3 < = < = - 2 3 i i 6 7 > : : ; @ @ $ L wXtXF.F.tXtXtXtXtXtXtXtXtXtXtXtXtXtXtXtXtX",
"tXtXtXtXtXtXtXtXtXtXtXtXtXtXtXOXM ^ wXtXqX-.h 1 2 2 2 < < < < 8 3 2 > > : + + @ + t z.tXOX=.:XtXtXtXtXtXtXtXtXtXtXtXtXtXtXtXtXtX",
"tXtXtXtXtXtXtXtXtXtXtXtXtXtXtX0X~ E oXtXeX6X) 8 2 < < < < < 1 1 < < < > : # # + $ l 6X@X7.C.qXtXtXtXtXtXtXtXtXtXtXtXtXtXtXtXtXtX",
"tXtXtXtXtXtXtXtXtXtXtXtXtXtXtXwXOX^ ! OX0XtXx.y 9 3 < 1 < - - = - < 8 7 t r r p l ^ }.^ ! &XtXtXtXtXtXtXtXtXtXtXtXtXtXtXtXtXtXtX",
"tXtXtXtXtXtXtXtXtXtXtXtXtXtXtXtXeX8XG.o.B C.&X;.) , 1 1 - = = = < y a a s ) Z.;.x.K K ! @XtXtXtXtXtXtXtXtXtXtXtXtXtXtXtXtXtXtXtX",
"tXtXtXtXtXtXtXtXtXtXtXtXtXtXtXtXtXtXwXXXG.J V.K.*.# & ; & p -.-.-.-.;.x.Z.~.E.E.P =.7.%XtXrXtXtXtXtXtXtXtXtXtXtXtXtXtXtXtXtXtXtX",
"tXtXtXtXtXtXtXtXtXtXtXtXtXtXtXtXtXtXtXtX0X! K.K...7 ; ; % k qX>X7X7X;X,X).Q.Q.E.=.G.$XtXtXtXtXtXtXtXtXtXtXtXtXtXtXtXtXtXtXtXtXtX",
"tXtXtXtXtXtXtXtXtXtXtXtXtXtXtXtXtXtXtXtXwX;X^.W.>.3 - 4 * z yXyX2X2X-X2X,X^.Q.Q.S.G.@XtXtXtXtXtXtXtXtXtXtXtXtXtXtXtXtXtXtXtXtXtX",
"tXtXtXtXtXtXtXtXtXtXtXtXtXtXtXtXtXtXtXtX=X`.W.W.f.2 < 1 * x yXyX2X2X2X2X,X^.Q.R.r.t..XtXtXtXtXtXtXtXtXtXtXtXtXtXtXtXtXtXtXtXtXtX",
"tXtXtXtXtXtXtXtXtXtXtXtXtXtXtXtXtXtXtXtX7X).Q.W.f.d d u 9 x uXyX2X2X2X2X,X/.Q.R.0.0..XtXtXtXtXtXtXtXtXtXtXtXtXtXtXtXtXtXtXtXtXtX",
"tXtXtXtXtXtXtXtXtXtXtXtXtXtXtXtXtXtXtXtX>X).W.W.d.#.,.#.[ C 2X2X3X3X2X2X`.Q.R.k.9.8..XtXtXtXtXtXtXtXtXtXtXtXtXtXtXtXtXtXtXtXtXtX",
"tXtXtXtXtXtXtXtXtXtXtXtXtXtXtXtXtXtXtXtX9X).W.Q.q.,.<.,.{ C 5X2X2X3X2X2X/.W.R.h.9.0.Y.tXtXtXtXtXtXtXtXtXtXtXtXtXtXtXtXtXtXtXtXtX",
"tXtXtXtXtXtXtXtXtXtXtXtXtXtXtXtXtXtXtXtXqX`.Q.W.q.{ X...A k 5X2X2X3X2X-XQ.W.k.r.8.t.XXtXtXtXtXtXtXtXtXtXtXtXtXtXtXtXtXtXtXtXtXtX",
"tXtXtXtXtXtXtXtXtXtXtXtXtXtXtXtXtXtXtXtX>X^.W.R.s.v A / k Z <X2X3X2X,X/.R.R.h.r.8.u.OXtXtXtXtXtXtXtXtXtXtXtXtXtXtXtXtXtXtXtXtXtX",
"tXtXtXtXtXtXtXtXtXtXtXtXtXtXtXtXtXtXtXtX>XE.W.W.L.s.Z @.g./.2X<X2X-X/.W.R.k.p.w.0.A.qXtXtXtXtXtXtXtXtXtXtXtXtXtXtXtXtXtXtXtXtXtX",
"tXtXtXtXtXtXtXtXtXtXtXtXtXtXtXtXtXtXtXtX:XE.Q.Q.Q.E.Q.Q.,X,X,X,X,X^.R.W.k.h.r.w.0.S.wXtXtXtXtXtXtXtXtXtXtXtXtXtXtXtXtXtXtXtXtXtX",
"tXtXtXtXtXtXtXtXtXtXtXtXtXtXtXtXtXtXwX@XU.S.T.E.Q.^.).^.`._.;X/.E.K.h.h.a.i.w.w.t.Y.wXtXtXtXtXtXtXtXtXtXtXtXtXtXtXtXtXtXtXtXtXtX",
"tXtXtXtXtXtXtXtXtXtXtXtXtXtXtXtXtXwX@X{.m.n.S.a.T.E.T.T.T.E.T.T.k.a.a.a.p.r.w.0.A.F.%X0XtXtXtXtXtXtXtXtXtXtXtXtXtXtXtXtXtXtXtXtX",
"tXtXtXtXtXtXtXtXtXtXtXtXtXtXtXtXtX&X|.N.v.R 7.0.i.i.a.a.a.a.a.a.a.a.p.r.w.w.u.A.c.N.}. X0XwXtXtXtXtXtXtXtXtXtXtXtXtXtXtXtXtXtXtX",
"tXtXtXtXtXtXtXtXtXtXtXtXtXtXtXtXtX&X|.N.m.c.R 7.n.7.u.u.u.u.u.i.y.w.w.0.t.7.c.R c.N.{.|.0XtXtXtXtXtXtXtXtXtXtXtXtXtXtXtXtXtXtXtX",
"tXtXtXtXtXtXtXtXtXtXtXtXtXtXtXtXtX0X X{.N.v.~ R R T T T T W W W W Q Q ~ ~ ~ c.c.m.].|.@XwXtXtXtXtXtXtXtXtXtXtXtXtXtXtXtXtXtXtXtX",
"tXtXtXtXtXtXtXtXtXtXtXtXtXtXtXtXtXtX&X XB.B.N.N.m.b.b.b.b.b.b.b.v.v.b.b.b.m.N.B.|.oX&XtXtXtXtXtXtXtXtXtXtXtXtXtXtXtXtXtXtXtXtXtX",
"tXtXtXtXtXtXtXtXtXtXtXtXtXtXtXtXtXtXtXwX&X$XoX X|.|.{.{.{.N.{.B.N.{.{.{.|.|. XoX%X0XtXtXtXtXtXtXtXtXtXtXtXtXtXtXtXtXtXtXtXtXtXtX",
"tXtXtXtXtXtXtXtXtXtXtXtXtXtXtXtXtXtXtXtXtXtXtXwXtX&X%X%X&X@X%X@X0X&X%X0X0X0XwXtXtXtXtXtXtXtXtXtXtXtXtXtXtXtXtXtXtXtXtXtXtXtXtXtX",
"tXtXtXtXtXtXtXtXtXtXtXtXtXtXtXtXtXtXtXtXtXtXtXtXeXtXtXtXtXqXtXtXtXtXtXtXtXtXtXwXtXtXtXtXtXtXtXtXtXtXtXtXtXtXtXtXtXtXtXtXtXtXtXtX",
"tXtXtXtXtXtXtXtXtXtXtXtXtXtXtXtXtXtXtXtXtXtXtXtXwXtXtXtXtXtXtXtXtXtXtXtXtXtXtXtXtXtXtXtXtXtXtXtXtXtXtXtXtXtXtXtXtXtXtXtXtXtXtXtX",
"tXtXtXtXtXtXtXtXtXtXtXtXtXtXtXtXtXtXtXtXtXtXtXtXtXtXtXtXtXtXtXtXtXtXtXtXtXtXtXtXtXtXtXtXtXtXtXtXtXtXtXtXtXtXtXtXtXtXtXtXtXtXtXtX",
"tXtXtXtXtXtXtXtXtXtXtXtXtXtXtXtXtXtXtXtXtXtXtXtXtXtXtXtXtXtXtXtXtXtXtXtXtXtXtXtXtXtXtXtXtXtXtXtXtXtXtXtXtXtXtXtXtXtXtXtXtXtXtXtX",
"tXtXtXtXtXtXtXtXtXtXtXtXtXtXtXtXtXtXtXtXtXtXtXtXtXtXtXtXtXtXtXtXtXtXtXtXtXtXtXtXtXtXtXtXtXtXtXtXtXtXtXtXtXtXtXtXtXtXtXtXtXtXtXtX",
"tXtXtXtXtXtXtXtXtXtXtXtXtXtXtXtXtXtXtXtXtXtXtXtXtXtXtXtXtXtXtXtXtXtXtXtXtXtXtXtXtXtXtXtXtXtXtXtXtXtXtXtXtXtXtXtXtXtXtXtXtXtXtXtX",
"tXtXtXtXtXtXtXtXtXtXtXtXtXtXtXtXtXtXtXtXtXtXtXtXtXtXtXtXtXtXtXtXtXtXtXtXtXtXtXtXtXtXtXtXtXtXtXtXtXtXtXtXtXtXtXtXtXtXtXtXtXtXtXtX"
};
