/* XPM */
static char *enemy_282_29[] = {
/* columns rows colors chars-per-pixel */
"64 64 221 2 ",
"   c black",
".  c #1A232C",
"X  c #6B503A",
"o  c #575652",
"O  c #6A6F71",
"+  c #BD0A1A",
"@  c #BD0C21",
"#  c #BE1B2A",
"$  c #BA2637",
"%  c #C90001",
"&  c #C20A1E",
"*  c #EA000B",
"=  c #E60719",
"-  c #EA121E",
";  c #C70B21",
":  c #CA1628",
">  c #D81729",
",  c #D21F30",
"<  c #E51525",
"1  c #EA1727",
"2  c #E41926",
"3  c #E51C2C",
"4  c #F11729",
"5  c #CB2B38",
"6  c #D92D36",
"7  c #D52A38",
"8  c #E6212C",
"9  c #EA2831",
"0  c #CE4A00",
"q  c #D15C02",
"w  c #E37112",
"e  c #DC7F35",
"r  c #EE7B23",
"t  c #BD384A",
"y  c #C53746",
"u  c #E73642",
"i  c #F13C4C",
"p  c #DD524C",
"a  c #C74656",
"s  c #D54B57",
"d  c #C75558",
"f  c #EB494E",
"g  c #ED4B54",
"h  c #E6655D",
"j  c #DC5664",
"k  c #D46265",
"l  c #D0726F",
"z  c #C96B77",
"x  c #F3626A",
"c  c #E26B76",
"v  c #E37C73",
"b  c #E87B79",
"n  c #F48834",
"m  c #9E846E",
"M  c #AB8E72",
"N  c #AC9076",
"B  c #B29579",
"V  c #FA9649",
"C  c #CD826D",
"Z  c #D08E7A",
"A  c #E5837D",
"S  c #EA857B",
"D  c #FD8179",
"F  c #AF6F80",
"G  c #DE7A86",
"H  c #E37F87",
"J  c #AB9C8A",
"K  c #B39986",
"L  c #A2829B",
"P  c #B5A38D",
"I  c #A8A89F",
"U  c #B8A998",
"Y  c #AA8BA2",
"T  c #9DA3A8",
"R  c #9DB4AE",
"E  c #9CB5B5",
"W  c #A6ABA7",
"Q  c #A3B4AC",
"!  c #A7B8AE",
"~  c #B9B5AA",
"^  c #A8BAB7",
"/  c #B7BBB6",
"(  c #DC8E88",
")  c #DE9887",
"_  c #D08B93",
"`  c #E68783",
"'  c #EA8C85",
"]  c #E98E8C",
"[  c #F48F87",
"{  c #E29084",
"}  c #EA928C",
"|  c #F4978C",
" . c #ED9592",
".. c #EE9A93",
"X. c #E89B97",
"o. c #F39C98",
"O. c #C1AC95",
"+. c #DBA997",
"@. c #E9AE8A",
"#. c #E6A69C",
"$. c #F2A39D",
"%. c #F59FA2",
"&. c #CFAFAD",
"*. c #C5B7A7",
"=. c #DBAFBB",
"-. c #DBB5B8",
";. c #E8A8A5",
":. c #EBACAC",
">. c #F3A6A2",
",. c #F4AAA4",
"<. c #F8A9A4",
"1. c #F4AEAA",
"2. c #E7BEA7",
"3. c #F5B2AB",
"4. c #E2B2B3",
"5. c #F1B5BB",
"6. c #B9C5BC",
"7. c #CEC79F",
"8. c #EAC09D",
"9. c #CEC8A1",
"0. c #CDCAAB",
"q. c #D6C6A9",
"w. c #D3CEAB",
"e. c #D7D1AD",
"r. c #D8D3AD",
"t. c #CBCDB4",
"y. c #C3C8BC",
"u. c #D3CEB5",
"i. c #CAD0B9",
"p. c #D7D4B7",
"a. c #DBD5B3",
"s. c #DCDABD",
"d. c #EEC5A5",
"f. c #E7C6B8",
"g. c #F3C3B8",
"h. c #E0DAB5",
"j. c #E2DDBC",
"k. c #F6DABA",
"l. c #E9E2BF",
"z. c #A2BEC1",
"x. c #BFBAC1",
"c. c #C9BAC6",
"v. c #D6BEC5",
"b. c #ABC3C4",
"n. c #A7C7C9",
"m. c #AACACC",
"M. c #B9C8C7",
"N. c #AECED1",
"B. c #B7CED3",
"V. c #B7D6D8",
"C. c #BEDEE0",
"Z. c #CBCDC4",
"A. c #C4CCC9",
"S. c #DBC5C3",
"D. c #CCD1C4",
"F. c #D9D9C6",
"G. c #C5CFD0",
"H. c #CAD9D8",
"J. c #D6D8D6",
"K. c #E8C9CA",
"L. c #F5CAC7",
"P. c #E4DEC4",
"I. c #EDDDC4",
"U. c #E4CBD3",
"Y. c #E2D6D6",
"T. c #C9E1DF",
"R. c #D3E0DD",
"E. c #E5E2C4",
"W. c #ECE5C5",
"Q. c #E6E6CE",
"!. c #ECE5C9",
"~. c #EEE9CC",
"^. c #F9E5C8",
"/. c #EEEBD4",
"(. c #F1EDD4",
"). c #F9E9D4",
"_. c #F1EEDB",
"`. c #ECF0DD",
"'. c #F5F2DB",
"]. c #F9F3DE",
"[. c #C3DEE1",
"{. c #E6DFE3",
"}. c #C4E2E4",
"|. c #CCE4E6",
" X c #C8E7E9",
".X c #CCE9EB",
"XX c #D5E7E7",
"oX c #DAE5E4",
"OX c #D3EBED",
"+X c #DBECED",
"@X c #DEF1EE",
"#X c #D6EDF5",
"$X c #DCEEF1",
"%X c #CDF0F9",
"&X c #DCF3F5",
"*X c #DBF4F7",
"=X c #E7E7E8",
"-X c #E4ECEC",
";X c #F7ECE4",
":X c #E4F3EE",
">X c #EBF3EB",
",X c #F5F3E4",
"<X c #FBF3E4",
"1X c #FEFCE5",
"2X c #F6F5EC",
"3X c #FAF6EA",
"4X c #F1FBEC",
"5X c #FEFAEB",
"6X c #E4EEF3",
"7X c #E8EFF1",
"8X c #E3F4F3",
"9X c #E9F3F2",
"0X c #E1F7F8",
"qX c #E9F6F8",
"wX c #E5FAFC",
"eX c #EAFDFE",
"rX c #EBFEFE",
"tX c #EAFEFF",
"yX c #F3F7F1",
"uX c #FEFEF3",
"iX c #FEFEFD",
/* pixels */
"tXtXtXtXtXtXtXtXtXtXtXtXtXtXtXtXtXtXtXtXtXtXtXtXtXtXtXtXtXtXtXtXtXtXtXtXtXtXtXtXtXtXtXtXtXtXtXtXtXtXtXtXtXtXtXtXtXtXtXtXtXtXtXtX",
"tXtXtXtXtXtXtXtXtXtXtXtXtXtXtXtXtXtXtXtXtXtXtXtXtXtXtXtXtXtXtXtXtXtXtXtXtXtXtXtXtXtXtXtXtXtXtXtXtXtXtXtXtXtXtXtXtXtXtXtXtXtXtXtX",
"tXtXtXtXtXtXtXtXtXtXtXtXtXtXtXtXtXtXtXtXtXtXtXtXtXtXtXtXtXtXtXtXtXtXtXtXtXtXtXtXtXtXtXtXtXtXtXtXtXtXtXtXtXtXtXtXtXtXtXtXtXtXtXtX",
"tXtXtXtXtXtXtXtXtXtXtXtXtXtXtXtXtXtXtXtXtXtXtXtXtXtXtXtXtXtXtXtXtXtXtXtXtXtXtXtXtXtXtXtXtXtXtXtXtXtXtXtXtXtXtXtXtXtXtXtXtXtXtXtX",
"tXtXtXtXtXtXtXtXtXtXtXtXtXtXtXtXtXtXtXtXtXtXtXtXtXtXtXqXtXtXtXtXtXtXtXtXtXtXtXtXtXtXtXtXtXtXtXtXtXtXtXtXtXtXtXtXtXtXtXtXtXtXtXtX",
"tXtXtXtXtXtXtXtXtXtXtXtXtXtXtXtXtXtXtXtXtXtXtXtXtXqX=X| | qXrXrXtXtXtXtXtXtXtXtXtXtXtXtXtXtXtXtXtXtXtXtXtXtXtXtXtXtXtXtXtXtXtXtX",
"tXtXtXtXtXtXtXtXtXtXtXtXtXtXtXtXtXtXtXtXtXtXtXtX9Xg.3.,.>.$.qXrXtXtXtXtXtXtXtXtXtXtXtXtXtXtXtXtXtXtXtXtXtXtXtXtXtXtXtXtXtXtXtXtX",
"tXtXtXtXtXtXtXtXtXtXtXtXtXtXtXtXtXtXtXtXtXtXwXU.3.,.1.1.,.,.f.rXtXtXtXtXtXtXtXtXtXtXtXtXtXtXtXtXtXtXtXtXtXtXtXtXtXtXtXtXtXtXtXtX",
"tXtXtXtXtXtXtXtXtXtXtXtXtXtXtXtXtXtXtXtXqXY.-.1.,.,.<.,.,.,.,.oXtXtXtXtXtXtXtXtXtXtXtXtXtXtXtXtXtXtXtXtXtXtXtXtXtXtXtXtXtXtXtXtX",
"tXtXtXtXtXtXtXtXtXtXtXtXtXtXtXtXtXtXtXqX4.o.>.>.<.,.,.,.,.,.;.-.tXtXtXtXtXtXtXtXtXtXtXtXtXtXtXtXtXtXtXtXtXtXtXtXtXtXtXtXtXtXtXtX",
"tXtXtXtXtXtXtXtXtXtXtXtXtXtXtXtXtXtXL.[ `  .,.,.,.,.,.,.,.,.,.:.K.tXtXtXtXtXtXtXtXtXtXtXtXtXtXtXtXtXtXtXtXtXtXtXtXtXtXtXtXtXtXtX",
"tXtXtXtXtXtXtXtXtXtXtXtXtXtXtXtXtXqX` ` `  .1.,.,.>.,.,.,.,.3.>.4.qXtXtXtXtXtXtXtXtXtXtXtXtXtXtXtXtXtXtXtXtXtXtXtXtXtXtXtXtXtXtX",
"tXtXtXtXtXtXtXtXtXtXtXtXtXtXtXtXtXtX[ ' ` } ,.,.>.,.,.,.,.,.,.$.:.K.tXeXrXrXtXtXtXtXtXtXtXtXtXtXtXtXtXtXtXtXtXtXtXtXtXtXtXtXtXtX",
"tXtXtXtXtXtXtXtXtXtXtXtXtXtXtXtXtXtX-X#.` ' X.>.,.1.,.,.,.<.,.1.$.;.qXtXrXrXtXtXtXtXtXtXtXtXtXtXtXtXtXtXtXtXtXtXtXtXtXtXtXtXtXtX",
"tXtXtXtXtXtXtXtXtXtXtXtXtXtXtXtXtXtXqX=.' ` ] >.1.,.,.<.,.$.,.1.$.,.J.tXrXeXtXtXtXtXtXtXtXtXtXtXtXtXtXtXtXtXtXtXtXtXtXtXtXtXtXtX",
"tXtXtXtXtXtXtXtXtXtXtXtXtXtXtXtXtXtXtX4.} ' ] o.>.,.>.<.,.,.,.>.1.,...oXeXeXtXtXtXtXtXtXtXtXtXtXtXtXtXtXtXtXtXtXtXtXtXtXtXtXtXtX",
"tXtXtXtXtXtXtXtXtXtXtXtXtXtXtXtXtXtXtX=X#.] ` ] $.1.,.,.,.,.,.,.$.| { X.D _ >XtXtXtXtXtXtXtXtXtXtXtXtXtXtXtXtXtXtXtXtXtXtXtXtXtX",
"tXtXtXtXtXtXtXtXtXtXtXtXtXtXtXtXtXtXtXqXK.;.] ] o.1.1.,.>.,.>...S v A +.;.&.0XtXtXtXtXtXtXtXtXtXtXtXtXtXtXtXtXtXtXtXtXtXtXtXtXtX",
"tXtXtXtXtXtXtXtXtXtXtXtXtXtXtXtXtXtXtXtX6XL.1.] ] X.} } o.[ A ` ) *.q.p.,X>X:XeXtXtXtXtXtXtXtXtXtXtXtXtXtXtXtXtXtXtXtXtXtXtXtXtX",
"tXtXtXtXtXtXtXtXtXtXtXtXtXtXtXtXtXtXtXtX=XL.5.] b b { A A ) #.p./.~.`.'.1X1X1X4XrXtXtXtXtXtXtXtXtXtXtXtXtXtXtXtXtXtXtXtXtXtXtXtX",
"tXtXtXtXtXtXtXtXtXtXtXtXtXtXtXtXtXeXeXeX<.h b b A A Z #.q.a.'.'.].1X1X1X1X1X1X1X4XrXtXtXtXtXtXtXtXtXtXtXtXtXtXtXtXtXtXtXtXtXtXtX",
"tXtXtXtXtXtXtXtXtXtXtXtXtXtXtXtXeXeXeX6Xo.c v A -.p.l.j.(._.1X1X1X1X5X5X1X4X1X1X>XrXtXtXtXtXtXtXtXtXtXtXtXtXtXtXtXtXtXtXtXtXtXtX",
"tXtXtXtXtXtXtXtXtXtXtXtXtXtXtXtXeXeXtXK.A =XoXp.a.h.~.].uXuX1X3X5X3X5X1X4XiX1X1X1X9XtXtXtXtXrXwX&XtXtXtXtXtXtXtXtXtXtXtXtXtXtXtX",
"tXtXtXtXtXtXtXtXtXtXtXtXtXtXtXtXrXrXtX:. .tX:Xu.a.E.].Y.O Y.uX5X3X3X3XuXW L 5X1X1X@XrXtXtXtXtX0XW qXtXtXtXtXtXtXtXtXtXtXtXtXtXtX",
"tXtXtXtXtXtXtXtXtXtXtXtXtXtXtXtX&XH.tX:. .tX:Xp.a.W.3X/   D.iXuXiXiXiXiXO . iX5X1X+XrXrXrXwX*X$XO.8XtXtXtXtXtXtXtXtXtXtXtXtXtXtX",
"tXtXtXtXtXtXtXtXtXtXtXtXtXtXtXtXH.*.qXU.` 6X9Xs.h.~.].F.o Y.iX).k.^.k.).m X ^.3X1X>XrXrXqXP M.+X*.+XtXwXtXtXtXtXtXtXtXtXtXtXtXtX",
"tXtXtXtXtXtXtXtXtXtXtXtXtXtXtXtX[.U *X8X]  .;Xs.a.W.(.1XuX1XiX@.w n r n n r V ].5X8XrXrXqXU ^ OXU XXoXT wXtXtXtXtXtXtXtXtXtXtXtX",
"tXtXtXtXtXtXtXtXtXtXtXtXtXtXZ.*X6XP *X0X6Xb ] F.a.E.~.].5X5XiX@.0 q q q 0 e ;X3XuXwXtXrXrXU ! M.K A.~ ^ wXtXtXtXtXtXtXtXtXtXtXtX",
"tXtXtXtXtXtXtXtXtXtXtXtXtXtXO.H.OXP XXA.wX8X( Z e.j.W.~.].1X5X^.2.d.d.d.2.k.iXuXb Y.rXrXtX*XQ M N K / *XtXtXtXtXtXtXtXtXtXtXtXtX",
"tXtXtXtXtXtXtXtXtXtXtXtXtXtXH.W J N W c.qX*XF d q.r.j.l.~.<X<X5X5XuXiXiXuXiX5X;Xx c L.wXtXwXOXJ N ~ *XtXtXtXtXtXtXtXtXtXtXtXtXtX",
"tXtXtXtXtXtXtXtXtXtXtXtXtXtXtXB.N N *.wXtXc.t y v &.r.a.l.!.(.(.(.(.'.).].3X;X%.f u ` 6XtXtXtX[.B R.qXtXtXtXtXtXtXtXtXtXtXtXtXtX",
"tXtXtXtXtXtXtXtXtXtXtXtXtXtXtXtXH.U $X0XtXY $ @ 5 k +.&.q.a.j.E.W.W.I.W.I.L.o.g - 1 c {.tXtXtXXXK oXtXtXtXtXtXtXtXtXtXtXtXtXtXtX",
"tXtXtXtXtXtXtXtXtXtXtXtXtXtXtXtX+X~ &XrX*XF $ @ ; : 5 s k C +.+.X.} } ' b h u 1 < - c {.tXtXqXH.B -XtXtXtXtXtXtXtXtXtXtXtXtXtXtX",
"tXtXtXtXtXtXtXtXtXtXtXtXtXtXtXtXrXH.J.rXtXL # @ @ ; : , , 7 6 p p 8 - < = = = < 1 9 G 9XtXtXoXW [.qXtXtXtXtXtXtXtXtXtXtXtXtXtXtX",
"tXtXtXtXtXtXtXtXtXtXtXtXtXtXtXtXrX:X*.+XtXA.y & @ @ @ : > < < 3 8 2 < < < < < 2 < j =.tXeXeX/ B +XtXtXtXtXtXtXtXtXtXtXtXtXtXtXtX",
"tXtXtXtXtXtXtXtXtXtXtXtXtXtXtXtXtXeXA./ #X6XF # + # # : > < 2 < 2 2 2 < < < 2 2 9 _ 6XtXeXOXI ! &XtXtXtXtXtXtXtXtXtXtXtXtXtXtXtX",
"tXtXtXtXtXtXtXtXtXtXtXtXtXtXtXtXtXtX&X~ / .Xc.z a t t y 7 8 > < < = - - 1 < 8 9 u v.tX&X@X~ ^ +XtXtXtXtXtXtXtXtXtXtXtXtXtXtXtXtX",
"tXtXtXtXtXtXtXtXtXtXtXtXtXtXtXtXtXtXtX#X~ K K c.-.S._ d s s u = = = = - 1 1 7 _ -.&XG.B U J.8XtXtXtXtXtXtXtXtXtXtXtXtXtXtXtXtXtX",
"tXtXtXtXtXtXtXtXtXtXtXtXtXtXtXtXtXtXtXtX0Xy.*.P Q.~.Y.u.v.-.=.=.-.=.a & @ @ # &.P.i.J J.oXrXtXtXtXtXtXtXtXtXtXtXtXtXtXtXtXtXtXtX",
"tXtXtXtXtXtXtXtXtXtXtXtXtXtXtXtXtXtXtXtXrX%XJ.*.!.W./.;X;X;X>X8X9XqXz % ; ; , X.W.E.~ 0XrXrXtXtXtXtXtXtXtXtXtXtXtXtXtXtXtXtXtXtX",
"tXtXtXtXtXtXtXtXtXtXtXtXtXtXtXtXtXtXtXtXtX#XF.F.W.~./.'.2X>XyX2X2XyXb * 4 < 1 3.W.(.-XwXtXtXtXtXtXtXtXtXtXtXtXtXtXtXtXtXtXtXtXtX",
"tXtXtXtXtXtXtXtXtXtXtXtXtXtXtXtXtXtXtXtXtXXXt.p.W.~.(.4X2X2X2X2X2X2Xx * 1 1 1 g.W.^._.:XtXtXtXtXtXtXtXtXtXtXtXtXtXtXtXtXtXtXtXtX",
"tXtXtXtXtXtXtXtXtXtXtXtXtXtXtXtXtXtXtXtXtXXX0.q.E.~.(.,X3X3X3X2XyXyXx 9 f i f g.W.(._.-XtXtXtXtXtXtXtXtXtXtXtXtXtXtXtXtXtXtXtXtX",
"tXtXtXtXtXtXtXtXtXtXtXtXtXtXtXtXtXtXtXtXtXXX0.9.l.~.~.'.2X2X3X2X3X2XC } #.$.#.f.!.!._.:XtXtXtXtXtXtXtXtXtXtXtXtXtXtXtXtXtXtXtXtX",
"tXtXtXtXtXtXtXtXtXtXtXtXtXtXtXtXtXtXtXtXtXR.7.9.l.W.!.(.,X3X3X2X3X3XC ' $.$.>.q.!.!._.9XtXtXtXtXtXtXtXtXtXtXtXtXtXtXtXtXtXtXtXtX",
"tXtXtXtXtXtXtXtXtXtXtXtXtXtXtXtXtXtXtXtXtXoXt.9.r.l.W.~.,X2X2X3X3X3XC A @.$.{ q.!.~.'.qXtXtXtXtXtXtXtXtXtXtXtXtXtXtXtXtXtXtXtXtX",
"tXtXtXtXtXtXtXtXtXtXtXtXtXtXtXtXtXtXtXtXtX+XD.7.r.a.W.W./.,X2X2X2X5X) l ( S A 2.!.!.(.>XtXtXtXtXtXtXtXtXtXtXtXtXtXtXtXtXtXtXtXtX",
"tXtXtXtXtXtXtXtXtXtXtXtXtXtXtXtXtXtXtXtXtX8XD.0.e.a.l.!.!./.,X,X,X,X/.f.+.Z 2.I.!.!.Q.>XtXtXtXtXtXtXtXtXtXtXtXtXtXtXtXtXtXtXtXtX",
"tXtXtXtXtXtXtXtXtXtXtXtXtXtXtXtXtXtXtXtXtXqXD.p.w.e.j.E.!.!./.,X2X,X,X,X~.W.Q./.~.Q./.9XtXtXtXtXtXtXtXtXtXtXtXtXtXtXtXtXtXtXtXtX",
"tXtXtXtXtXtXtXtXtXtXtXtXtXtXtXtXtXtXtXtXtXwXR.0.w.w.a.s.s.j.E.~./.'.,X`./.`.~./.Q.E.s.}.#XwXtXtXtXtXtXtXtXtXtXtXtXtXtXtXtXtXtXtX",
"tXtXtXtXtXtXtXtXtXtXtXtXtXtXtXtXeXeXwXtXwXOXH.D.9.w.r.r.s.j.s.E.E.E.E.E.E.E.E.E.s.F.M.N.V.OXtXtXtXtXtXtXtXtXtXtXtXtXtXtXtXtXtXtX",
"tXtXtXtXtXtXtXtXtXtXtXtXtXtXtXtXeXtXtXtX.X|.V.b.Z.t.w.r.r.p.s.s.F.s.s.F.s.s.s.s.0.6.E n.V..X*XtXtXtXtXtXtXtXtXtXtXtXtXtXtXtXtXtX",
"tXtXtXtXtXtXtXtXtXtXtXtXtXtXtXtXtXtXtX#X X}.V.n.^ b.M.t.0.w.t.e.u.i.i.i.i.i.6.6.6.E E N.V. X*XtXtXtXtXtXtXtXtXtXtXtXtXtXtXtXtXtX",
"tXtXtXtXtXtXtXtXtXtXtXtXtXtXtXtXtXtXtXwX@X.XV.B.n.z.^ ^ ^ ! ! Q Q Q Q Q R E R E E b.m.V.}..XtXtXtXtXtXtXtXtXtXtXtXtXtXtXtXtXtXtX",
"tXtXtXtXtXtXtXtXtXtXtXtXtXtXtXtXtXtXtXtXtX*X.X XC.V.N.m.m.n.n.n.m.m.m.m.m.m.N.N.N.V.V.C.OX*XtXtXtXtXtXtXtXtXtXtXtXtXtXtXtXtXtXtX",
"tXtXtXtXtXtXtXtXtXtXtXtXtXtXtXtXtXtXtXtXtXtXwX&XOX.X.X}.}.T.}.C.}.}.V.}.}.}. X X.X*X%X*XwXtXtXtXtXtXtXtXtXtXtXtXtXtXtXtXtXtXtXtX",
"tXtXtXtXtXtXtXtXtXtXtXtXtXtXtXtXtXtXtXtXtXtXtXtXtXqX0X0X0X*X&X#X#X#X#X&X*X&X&XwXqXtXtXtXtXtXtXtXtXtXtXtXtXtXtXtXtXtXtXtXtXtXtXtX",
"tXtXtXtXtXtXtXtXtXtXtXtXtXtXtXtXtXtXtXtXtXtXtXtXtXtXtXtXtXtXtXtXtXtXwXtXtXtXtXtXtXtXtXtXtXtXtXtXtXtXtXtXtXtXtXtXtXtXtXtXtXtXtXtX",
"tXtXtXtXtXtXtXtXtXtXtXtXtXtXtXtXtXtXtXtXtXtXtXtXtXtXtXtXtXtXtXtXtXtXtXtXtXtXtXtXtXtXtXtXtXtXtXtXtXtXtXtXtXtXtXtXtXtXtXtXtXtXtXtX",
"tXtXtXtXtXtXtXtXtXtXtXtXtXtXtXtXtXtXtXtXtXtXtXtXtXtXtXtXtXtXtXtXtXtXtXtXtXtXtXtXtXtXtXtXtXtXtXtXtXtXtXtXtXtXtXtXtXtXtXtXtXtXtXtX",
"tXtXtXtXtXtXtXtXtXtXtXtXtXtXtXtXtXtXtXtXtXtXtXtXtXtXtXtXtXtXtXtXtXtXtXtXtXtXtXtXtXtXtXtXtXtXtXtXtXtXtXtXtXtXtXtXtXtXtXtXtXtXtXtX",
"tXtXtXtXtXtXtXtXtXtXtXtXtXtXtXtXtXtXtXtXtXtXtXtXtXtXtXtXtXtXtXtXtXtXtXtXtXtXtXtXtXtXtXtXtXtXtXtXtXtXtXtXtXtXtXtXtXtXtXtXtXtXtXtX",
"tXtXtXtXtXtXtXtXtXtXtXtXtXtXtXtXtXtXtXtXtXtXtXtXtXtXtXtXtXtXtXtXtXtXtXtXtXtXtXtXtXtXtXtXtXtXtXtXtXtXtXtXtXtXtXtXtXtXtXtXtXtXtXtX",
"tXtXtXtXtXtXtXtXtXtXtXtXtXtXtXtXtXtXtXtXtXtXtXtXtXtXtXtXtXtXtXtXtXtXtXtXtXtXtXtXtXtXtXtXtXtXtXtXtXtXtXtXtXtXtXtXtXtXtXtXtXtXtXtX"
};
