/* XPM */
static char *_636719508251[] = {
/* columns rows colors chars-per-pixel */
"64 64 247 2 ",
"   c #3A231B",
".  c #7B0F07",
"X  c #472712",
"o  c #4C2E15",
"O  c #4B2E1B",
"+  c #572C16",
"@  c #4E3116",
"#  c #4D321A",
"$  c #4D3719",
"%  c #513517",
"&  c #51331A",
"*  c #652A16",
"=  c #732A13",
"-  c #4E302F",
";  c #493829",
":  c #553825",
">  c #473A32",
",  c #683326",
"<  c #4B4336",
"1  c #574535",
"2  c #784C2C",
"3  c #634432",
"4  c #794D37",
"5  c #765336",
"6  c #7B5235",
"7  c #77543C",
"8  c #7B553C",
"9  c #7D5A3E",
"0  c #70613F",
"q  c #3B304B",
"w  c #3B3B5C",
"e  c #2D3A64",
"r  c #363C63",
"t  c #453748",
"y  c #543C4E",
"u  c #453C58",
"i  c #3D4A5C",
"p  c #364560",
"a  c #4F4C4A",
"s  c #484556",
"d  c #554D56",
"f  c #5A5A56",
"g  c #6C5845",
"h  c #7B5642",
"j  c #765947",
"k  c #7D5B43",
"l  c #7E5E49",
"z  c #684653",
"x  c #785C54",
"c  c #796149",
"v  c #7D624C",
"b  c #7C6452",
"n  c #716A55",
"m  c #7B6958",
"M  c #5C5C6F",
"N  c #695966",
"B  c #58676E",
"V  c #656B66",
"C  c #776963",
"Z  c #7A7269",
"A  c #676E74",
"S  c #667576",
"D  c #797C78",
"F  c #910D09",
"G  c #831209",
"H  c #A70603",
"J  c #B80301",
"K  c #AC160E",
"L  c #8C2817",
"P  c #913A2C",
"I  c #A73C2C",
"U  c #B13329",
"Y  c #C40000",
"T  c #CC0100",
"R  c #C60B0A",
"E  c #D30000",
"W  c #DA0101",
"Q  c #CF1712",
"!  c #E30000",
"~  c #E90304",
"^  c #F30000",
"/  c #FD0000",
"(  c #FF030D",
")  c #FC0E17",
"_  c #CC250C",
"`  c #E73A15",
"'  c #F71C21",
"]  c #CD3430",
"[  c #F32E32",
"{  c #864328",
"}  c #815236",
"|  c #875338",
" . c #825A3C",
".. c #A44538",
"X. c #B74335",
"o. c #85613F",
"O. c #EB561F",
"+. c #875645",
"@. c #825E44",
"#. c #825E49",
"$. c #905253",
"%. c #AF544B",
"&. c #836146",
"*. c #83634A",
"=. c #896648",
"-. c #89654C",
";. c #8A6A4D",
":. c #91684B",
">. c #846A53",
",. c #856955",
"<. c #8A6B53",
"1. c #856B5A",
"2. c #8B715D",
"3. c #967559",
"4. c #866D61",
"5. c #887567",
"6. c #937868",
"7. c #837E77",
"8. c #927E72",
"9. c #BD686C",
"0. c #CC524F",
"q. c #ED4148",
"w. c #E65457",
"e. c #FD5457",
"r. c #FF605F",
"t. c #C65B61",
"y. c #D07575",
"u. c #EB787A",
"i. c #6A837E",
"p. c #7B8677",
"a. c #7C847B",
"s. c #EEA52C",
"d. c #FFCE3D",
"f. c #A69A51",
"g. c #998069",
"h. c #86827A",
"j. c #998576",
"k. c #A48367",
"l. c #AB8C78",
"z. c #D5A55D",
"x. c #D2C550",
"c. c #677685",
"v. c #6B7385",
"b. c #FE7E83",
"n. c #7A8687",
"m. c #738D93",
"M. c #858985",
"N. c #938D84",
"B. c #988D88",
"V. c #85958C",
"C. c #95958C",
"Z. c #889696",
"A. c #8A9B9C",
"S. c #989C99",
"D. c #B08C8A",
"F. c #A89688",
"G. c #A29B93",
"H. c #AE9F95",
"J. c #93A195",
"K. c #AAA298",
"L. c #ACA49C",
"P. c #B7AC9C",
"I. c #859EA4",
"U. c #9D98A5",
"Y. c #A498A4",
"T. c #8BA4A8",
"R. c #96A7A9",
"E. c #89AAB9",
"W. c #92AFB3",
"Q. c #9AB5B7",
"!. c #A7ABA8",
"~. c #B5ABA5",
"^. c #AFB1AE",
"/. c #A6B7B8",
"(. c #B8B9B5",
"). c #C38C86",
"_. c #CD9A9B",
"`. c #E98789",
"'. c #F98689",
"]. c #EB9DA0",
"[. c #D3ADAB",
"{. c #FBB0B4",
"}. c #A6C1BF",
"|. c #CBC4BA",
" X c #9CBBC2",
".X c #A8BDC3",
"XX c #FFBCC0",
"oX c #9EC9CE",
"OX c #A9C7CA",
"+X c #B4C6C9",
"@X c #ACD0CF",
"#X c #A8CAD4",
"$X c #AACDD6",
"%X c #B3CFD4",
"&X c #ABD5DA",
"*X c #B7D6D8",
"=X c #B5D5DC",
"-X c #A9DAE2",
";X c #B4DAE3",
":X c #BEDCE1",
">X c #9AE1E3",
",X c #A8E1E1",
"<X c #B4E3E4",
"1X c #BBE5E5",
"2X c #C8CBC7",
"3X c #D8C6C4",
"4X c #D6D3CD",
"5X c #C8D6D6",
"6X c #C5DBDE",
"7X c #D7D8D7",
"8X c #D4DCDA",
"9X c #EFCFCE",
"0X c #D2E3D7",
"qX c #E4E2DD",
"wX c #C3DEE3",
"eX c #C9DDE3",
"rX c #D5DEE1",
"tX c #FCDDE2",
"yX c #C4E1E5",
"uX c #C9E2E6",
"iX c #C3E6E9",
"pX c #CCE5E9",
"aX c #CCEBEC",
"sX c #D8E6E5",
"dX c #D1E6EB",
"fX c #D3EAED",
"gX c #DCECEB",
"hX c #D4F1EE",
"jX c #D5EDF2",
"kX c #DAEEF2",
"lX c #DAEEF9",
"zX c #D6F1F1",
"xX c #DCF2F4",
"cX c #DFF5F8",
"vX c #E7E9E6",
"bX c #E3EDEB",
"nX c #E3F1EE",
"mX c #E4F4F5",
"MX c #EAF5F4",
"NX c #E8F8F7",
"BX c #E4F6F8",
"VX c #E9F7F8",
"CX c #E6FAFB",
"ZX c #EAFEFF",
"AX c #F3F5F3",
"SX c #F3FBFB",
"DX c #FCFEFE",
/* pixels */
"ZXZXZXZXZXZXZXZXZXZXZXZXZXZXZXZXZXZXZXZXZXZXZXZXZXZXZXZXZXZXZXZXZXZXZXZXZXZXZXZXZXZXZXZXZXZXZXZXZXZXZXZXZXZXZXZXZXZXZXZXZXZXZXcX",
"ZXZXZXZXZXZXZXZXZXZXZXZXZXZXZXZXZXZXZXZXZXZXZXZXZXZXZXZXZXZXCXjXdXjXCXZXZXZXZXZXZXZXZXZXZXZXZXZXZXZXZXZXZXZXZXZXZXZXZXZXZXZXZXZX",
"ZXZXZXZXZXZXZXZXZXZXZXZXZXZXZXZXZXZXZXZXZXZXZXZXZXZXZXZXZXBXkXSXZXBXlXCXZXZXZXZXZXZXZXZXZXZXZXZXZXZXZXZXZXZXZXZXZXZXZXZXZXZXZXZX",
"ZXZXZXZXZXZXZXZXZXZXZXZXZXZXZXZXZXZXZXZXZXZXZXZXZXZXZXZXmXkXSXVXSXBXkXkXZXZXZXZXZXZXZXZXZXZXZXZXZXZXZXZXZXZXZXZXZXZXZXZXZXZXZXZX",
"ZXZXZXZXZXZXZXZXZXZXZXZXZXZXZXZXZXZXZXZXZXZXZXZXZXZXVXxXxXSXSXNXVXNXNXmXxXCXZXZXZXZXZXZXZXZXZXZXZXZXZXZXZXZXZXZXZXZXZXZXZXZXZXZX",
"ZXZXZXZXZXZXZXZXZXZXZXZXZXZXZXZXZXZXZXZXZXZXZXZXZXZXlXmXSXVXVXfXfXVXVXNXmXxXCXZXZXZXZXZXZXZXZXZXZXZXZXZXZXZXZXZXZXZXZXZXZXZXZXZX",
"ZXZXZXZXZXZXZXZXZXZXZXZXZXZXZXZXZXZXZXZXZXZXZXZXZXjXVXSXZXSXkX;X=XVXZXVXVXmXzXCXZXZXZXZXZXZXZXZXZXZXZXZXZXZXZXZXZXZXZXZXZXZXZXZX",
"ZXZXZXZXZXZXZXZXZXZXZXZXZXZXZXZXZXZXZXZXZXZXZXCXzXBXSXZXNXgXwX%X=XNXVXVXVXZXmXlXCXZXZXZXZXZXZXZXZXZXZXZXZXZXZXZXZXZXZXZXZXZXZXZX",
"ZXZXZXZXZXZXZXZXZXZXZXZXZXZXZXZXZXZXZXZXZXZXZXBXSXDXNXNXfX6X%XT.S.bXNXdXmXSXSXmXxXCXZXZXZXZXZXZXZXZXZXZXZXZXZXZXZXZXZXZXZXZXZXZX",
"ZXZXZXZXZXZXZXZXZXZXZXZXZXZXZXZXZXZXZXZXZXCXxXSXDXNXNXfX6X+XA.Z 8.vXNXyXpXmXVXSXmXxXCXZXZXZXZXZXZXZXZXZXZXZXcXZXZXZXZXZXZXZXZXZX",
"ZXZXZXZXZXZXZXZXZXZXZXZXZXZXZXZXZXZXZXZXCXxXSXSXVXmXdXwXOXZ.b j j.vXNXuX=XfXSXMXZXmXxXCXZXZXZXZXZXZXZXZXZXZXZXZXZXZXZXZXZXZXZXZX",
"ZXZXZXZXZXZXZXZXZXZXZXZXZXZXZXZXZXZXZXBXlXVXSXNXmXdXyXOXA.b 9 k 4.~.bXdX&XpXSXmXNXVXxXxXCXZXZXZXZXZXZXZXZXZXZXZXZXZXZXZXZXZXZXZX",
"ZXZXZXZXZXZXZXZXZXZXZXZXZXZXZXZXZXZXcXlXSXSXZXnXpXyXOXV.m &.&.9 4 >.5X*XR.5XSXmXmXMXNXmXxXmXZXZXZXZXZXZXZXZXZXZXZXZXZXZXZXZXZXZX",
"ZXZXZXZXZXZXZXZXZXZXZXZXZXZXZXZXZXcXkXSXNXNXmXpXwXOXZ.v 9 &.&.9 2 5.&XQ.n j.7XSXmXmXmXVXmXkXxXZXZXZXZXZXZXZXZXZXZXZXZXZXZXZXZXZX",
"ZXZXZXZXZXZXZXZXZXZXZXZXZXZXZXZXmXmXSXNXNXmXuX:XQ.M.c o.&.@.k 9 k 4.Z.m &.-.j.2XMXVXmXmXVXmXfXjXZXZXZXZXZXZXZXZXZXZXZXZXZXZXZXZX",
"ZXZXZXZXZXZXZXZXZXZXZXZXZXZXZXzXmXSXNXNXxXuXiX}.M.9 8 8 &.9 6 &.*.b j k &.*.@.6.4XMXVXVXZXkXpXfXjXcXZXZXZXZXZXZXZXZXZXZXZXZXZXZX",
"ZXZXZXZXZXZXZXZXZXZXZXZXZXZXBXmXZXVXVXxXuX:X.Xa.c >.1.,.1.2.1.<.<.g.j.8.6.5.>.&.5.2XNXNXNXVXkXpXiXfXCXZXZXZXZXZXZXZXZXZXZXZXZXZX",
"ZXZXZXZXZXZXZXZXZXZXZXZXCXxXmXVXVXSXxXyX*X/.D j 7 j.MXVXVXVXDXN.5.8XbXVXmXAXL.v @.>.2XgXVXVXSXMXuXpXaXCXZXZXZXZXZXZXZXZXZXZXZXZX",
"ZXZXZXZXZXZXZXcXZXZXZXCXxXBXBXVXSXgXpX:XQ.7.v #.j.vXSXxXjXpXMXvX8XNXaXaXkXxXuXS.2.v 5.[.bXmXVXZXmXpXpXaXBXZXZXZXZXZXZXZXZXZXZXZX",
"ZXZXZXZXZXZXZXZXZXZXCXkXBXVXVXVXSXfX=XQ.D h h F.AXDXpXV d i T.MXSXOXd f f Q.zXaX/.b 6 6.(.SXCXSXVXBXaXeXiXcXZXZXZXZXZXZXZXZXZXZX",
"ZXZXZXZXZXZXZXZXZXCXBXVXSXVXVXNXZXmX.XZ 4 6 6 2XDX.XV t q q g |.5XN t t t a S.jXpX>.8 | H.vXmXdXVXSXmXdXuXpXmXZXZXZXZXZXZXZXZXZX",
"ZXZXZXZXZXZXZXZXCXBXBXZXNXZXfXmXDXVXR.7 4 8 -.|.CXA.u q u w u C..Xs r u t t Z lX;Xm 6 9 P.MXkXyXdXVXSXNXfXpXaXcXZXZXZXZXZXZXZXZX",
"ZXZXZXZXZXZXZXcXkXVXSXNXVXfX&XkXmXpXR.h h @.;.4XDXZ.w w w e p J./.i e u s u A ;Xn.,.@.<.~.AXnXwX:XgXZXSXmXfXpXpXzXZXZXZXZXZXZXZX",
"ZXZXZXZXZXZXcXxXmXSXNXNXdXwX&XCXkX<XT.j #.*.-.j.2X%Xv.c.v.A B }.OXi.v.v.c.m.m.T.} =.*.-.j.|.bX*XR.5XmXVXSXVXfXdXaXcXZXZXZXZXZXZX",
"ZXZXZXZXZXBXkXmXSXVXmXdXiX;XR.5XfXOXa.j 8 l #.+.A.kX~.!.Q.T.A.@X;XE.m.W.T.S.OX X>.*.k @.&.F.eXOXm B.5XVXVXVXVXfXfXyXBXZXZXZXZXZX",
"ZXZXZXZXlXkXBXSXBXSXjXwX<XA.m /.<Xn.l l k k *.k h./.x y s i s m.E.M d d s z m.Z.,.#.h k *.C.*XoXZ +.B.2XSXVXSXSXlXdXyXxXZXZXZXZX",
"ZXZXZXjXfXmXVXmXBXVXjX$XA.b  .OX<XV.j k ;.-.*.#.6 5.#XN y e p m.T.i p r r m.Z.l *.*.@.8 k h.Q.A.m k +.L.AXNXmXVXNXdXwX:XzXZXZXZX",
"ZXZXjXaXSXVXkXpXmXgX<XI.m  .+. X#X7.4 7 l l -.*.h 4 Z .XA u s C.I.s u d m.n.h l *.*.#.@.&.v g m v h  .~.MXxXpXkXpX:XwXwX:XCXZXZX",
"ZXZXxXDXVXmXyXpXkXgX<XA.7 7 7  XD 6 <.&.k h *.#.h 7 k >.OXM z !. Xz d E.v.| &.&.=.*.&.*.-.k k h -.&. .K.qXmXeX:X:XwXeXwXwXiXZXZX",
"ZXZXxXSXgXyXwXpXyXpX<XA.5 h l l k k *.=.*.*.v *.v k &.&.b Z.W. X XT.T.Z 8 +.*.&.c &.&.*.k @.*.@.h k =.&.G.gXwX$X$X=XwX=X$X:XCXZX",
"ZXZXjXjXpXwXwXaXpX$X-XT.v @.&.&.&.9 k *.>.,.v *.v h l @.2 j 5.-.j x m 8  . .&.h h @.h k h 9 *.&.k k &.} N.6XwX#X#X#X$X$X#XiXZXZX",
"ZXZXCXpXfXaXeX5./.;X-XA.m -.*.h k &.*.*.*.v #.*.*.-.9 &.(.2X2X2X2X2X2X4Xg. .@.c k @.@.k k k c &.=.&.8 9 N.=X$X.XA.Q.;X$X=XzXZXZX",
"ZXZXZXCXlXaXcXwX%X1XA.Z v *.*.k h -.*.#.*.*.*.&.c 6 o.2XDXNXzXmXmXkXxXzXqXk.| &.*.&.h h k k c &.=.&.5 2 M.OXQ.V./.NXZXZXZXZXZXZX",
"ZXZXZXZXZXZXZXZX1X$Xn.j v -.c h k #.#.,.v ,.-.@. .>.|.NXhXiXm.A D Z.OXdXNX5Xj.o.&.&.k 9 k c 9 o.k c 7 9 Z M.h.-.jXZXZXZXZXZXZXZX",
"ZXZXZXZXZXZXZXZX/.C.Z #.*.&.*.*.>.=.#.*.v <.&.@.6.4XmX<Xn.B a > ; f D m.#XhXyXj.=. .c b n 0 | 6 -.>.v *.v *.*.3.CXZXZXZXZXZXZXZX",
"ZXZXZXZXZXZXZXZX(.6.*.>.#. .%.H.!.~.l.X.X.;.&.j.qXSX,Xn.a < $ % O # ; a S oXhXhXC.6 0 ..J %.K.G.!.%.@.m *.*.5.!.ZXZXZXZXZXZXZXZX",
"ZXZXZXZXZXZXZXZXsXj.;.-.+.U ) '.DXSXXX/ / ] C.xXmXoXS > & @ o + @ X X ; < B W.aXaXA.../ e.XXDXDX{.) Q #.m =.1.1XZXZXZXZXZXZXZXZX",
"ZXZXZXZXZXZXZXZXBXS.@.| I / ( / u.8X3Xw.^ / {.fXoXS > @ o X X o X X @ @ O   f Q.1X>X[ / [.zXNX]./ ^ ( ] -. .m zXZXZXZXZXZXZXZXZX",
"ZXZXZXZXZXZXZXZXZX^.9 P / / ^ Y F B.1X:XQ E ^ /.m.< O O $ @ $ : % % @ X X o : V -XY.' ^ [.&XB.J J R ! / _ g g.ZXZXZXZXZXZXZXZXZX",
"ZXZXZXZXZXZXZXZXZX2Xo.../ q.X.K L D W.W.R W Q /.n.1 & & % $ $ $ $ $ X @ o @ O f /.[ ( W 2XQ.h 4 I ] 0.! H 5 j.ZXZXZXZXZXZXZXZXZX",
"ZXZXZXZXZXZXZXZXZXgX=...e.aXaX5.4 l j 4 H ] 9XpXR.3 & & & % # % % o o @ @ o o O g sX[ E U.Z.c 7 -.5XSX`.I l ^.ZXZXZXZXZXZXZXZXZX",
"ZXZXZXZXZXZXZXZXZXNXk.F.DXZXiXD 7 7 h { H 7XDXaXR.: & & # : & & $ @ @ @ o o o # B gXw.J P n >.v b sXDXkXM.4.6XZXZXZXZXZXZXZXZXZX",
"ZXZXZXZXZXZXZXZXZXZX(.l.mXyX#XZ 7 &.@.6 h gXDXyXS & & & & : % & @ @ o % O X X j 8XZXyX%.P *.2.=.h +XaXC.+.N.mXZXZXZXZXZXZXZXZXZX",
"ZXZXZXZXZXZXZXZXZXZX5X3.2.b x c k *.@.h 1.zXzX9.J * & & & & @ @ @ @ @ @ & X O = e.aX1X-X8. .@.&.8 x m h | !.VXZXZXZXZXZXZXZXZXZX",
"ZXZXZXZXZXZXZXZXZXZXnX3.&.6 8 h l *.k #.4.kX`.~ E = o & & & & & % @ @ + o o + . / w.eXI.Z @.k l k 9 5 9 <.2XNXZXZXZXZXZXZXZXZXZX",
"ZXZXZXZXZXZXZXZXZXZXNXl.-.k k h -.-.*.*.:.e./ ~ Y . & & & & & & & & @ @ o X X L ~ / ;Xa.h @.-.*.=.&.9 >.k.nXZXZXZXZXZXZXZXZXZXZX",
"ZXZXZXZXZXZXZXZXZXZXZXP.<.>.&.-.>.*.*.*.+.F ~ ^ t.N.: # & & & % & % @ @ o # , = ! ~ 9.5.h k -.*.=.*.;.:.G.NXZXZXZXZXZXZXZXZXZXZX",
"ZXZXZXZXZXZXZXZXZXZXZX8X3.=.*.-.&.k *.*.k g Y r.fXE.1 & & % & & & % @ @ o : b D.`.T R P v *.k k k h &.:.}.ZXZXZXZXZXZXZXZXZXZXZX",
"ZXZXZXZXZXZXZXZXZXZXZXmX3.&.k c k k *.*.8 h 9.vXiXm.1 & & @ & o % @ o o & 3 6.vXZXy.K P k *.*.8 c 9 &.3.sXZXZXZXZXZXZXZXZXZXZXZX",
"ZXZXZXZXZXZXZXZXZXZXZXcXF.;.8 k @.*.v h h 8 gXxX+XC : & & & & & # & o o % , $.{.aX<X+.{ k @.*.*.@.c :.k.VXZXZXZXZXZXZXZXZXZXZXZX",
"ZXZXZXZXZXZXZXZXZXZXZXZX[.3.k h l -.*.h  .=.8X8Xt.G : & & & & & # % O & & * L ' +X>XV 2 &.#.@.&.&.&.3.P.ZXZXZXZXZXZXZXZXZXZXZXZX",
"ZXZXZXZXZXZXZXZXZXZXZXZX0X<.c k k @.k @.#.*.kXu.Y G * & + & & & : O & & & = F / / Y.C 2 -.=.*.&.&.=.3.6XZXZXZXZXZXZXZXZXZXZXZXZX",
"ZXZXZXZXZXZXZXZXZXZXZXZXsX3.&.c k h h *.*.#.8Xu.Y G + & & & & : & & % & + * . / / ! | ,.c -.&.&.&.=.3.nXZXZXZXZXZXZXZXZXZXZXZXZX",
"ZXZXZXZXZXZXZXZXZXZXZXZXgX2.:.&.h l k l *.l ` / Q P : O & & & & & & & & @ , { [ E T | -.v k k &.-.&.g.NXZXZXZXZXZXZXZXZXZXZXZXZX",
"ZXZXZXZXZXZXZXZXZXZXZXZXbX1. .@.-.-.k k >.*.! / _.Q.1 + & & & & & & & & O 1 B.tXT H +.k k h k &.=.<.l.ZXZXZXZXZXZXZXZXZXZXZXZXZX",
"ZXZXZXZXZXZXZXZXZXZXZXZXmX2.&.&.*.*.k k v l Y '.BXT.a & + % & & & & & & O 1 M.DX3XH { k h k l v -.1.P.ZXZXZXZXZXZXZXZXZXZXZXZXZX",
"ZXZXZXZXZXZXZXZXZXZXZXZXmXx.;.x.f.#.+.h k 7 J [.iXA.a # & % $ $ & & & & # : M.DXVX+X1.9 &.c k *.@.<.eXZXZXZXZXZXZXZXZXZXZXZXZXZX",
"ZXZXZXZXZXZXZXZXZXZXZXNXO.O.s.s.O...g k k 8 _.rX<XI.1 & & : & & & & & # # : I b.fXaX8.@.&.@.&.-.*.6.0XZXZXZXZXZXZXZXZXZXZXZXZXZX",
"ZXZXZXZXZXZXZXZXZXZXZXbX/ ! d.` ^ U n 7 9  .gXcX~.+.- # & & $ $ & # $ # O * F q.1X-XZ 9 &.&.&.@.#.6.0XNXZXZXZXZXZXZXZXZXZXZXZXZX",
"ZXZXZXZXZXZXZXZXZXZXZX0X! R x.` W P c k &. .hXzXD.F + : # ; O $ : O $ # X X G [ H.&X7.9  .#.9 k @.6.pXZXcXZXZXZXZXZXZXZXZXZXZXZX",
"ZXZXZXZXZXZXZXZXZXZXZX6X! E s._ W K 5 2 9 = 0.b.t.G + - 1 > ; > > ; > > -   . / E $.#.6  . .@. . .3.gXZXZXZXZXZXZXZXZXZXZXZXZXZX",
"ZXZXZXZXZXZXZXZXZXZXZXlXy.u.z.z.u.).S.C.K.R.w./ J L U.G.V.p.p.a.p.p.i.M.M.Z.I ! W 0.D.L.H.K.L.L.K.P.NXZXZXZXZXZXZXZXZXZXZXZXZXZX",
"ZXZXZXZXZXZXZXZXZXZXZXZXZXZXDXDXZXZXZXZXNXNXCX[.y.3XVXCXZXZXZXZXZXZXZXZXZXZX9Xb._.ZXZXZXZXZXZXZXZXZXZXZXZXZXZXZXZXZXZXZXZXZXZXZX",
"ZXZXZXZXZXZXZXZXZXZXZXZXZXZXZXSXZXZXZXZXZXZXZXZXZXZXZXCXZXZXZXZXZXZXZXZXZXcXcXcXZXZXZXZXZXZXZXZXZXZXZXZXZXZXZXZXZXZXZXZXZXZXZXZX"
};
