/* XPM */
static char *_636719526535[] = {
/* columns rows colors chars-per-pixel */
"64 64 252 2 ",
"   c #6D3A12",
".  c #784C2C",
"X  c #794D37",
"o  c #765336",
"O  c #7B5235",
"+  c #77543C",
"@  c #7B553C",
"#  c #7E5A3D",
"$  c #70613F",
"%  c #7B5642",
"&  c #765A47",
"*  c #7D5B43",
"=  c #725A4B",
"-  c #7E5E49",
";  c #796149",
":  c #7D624C",
">  c #7C6552",
",  c #716950",
"<  c #7B6A59",
"1  c #716E63",
"2  c #7B7567",
"3  c #7C7C76",
"4  c #9D0907",
"5  c #A70603",
"6  c #B80302",
"7  c #AC160E",
"8  c #932B0F",
"9  c #AA3A08",
"0  c #B3320C",
"q  c #903828",
"w  c #AC382B",
"e  c #C80302",
"r  c #D30000",
"t  c #DA0100",
"y  c #D81309",
"u  c #D11713",
"i  c #E30000",
"p  c #E90504",
"a  c #F30101",
"s  c #FD0100",
"d  c #FF030D",
"f  c #EF120B",
"g  c #C7260D",
"h  c #E53318",
"j  c #F51D21",
"k  c #D0332E",
"l  c #EF3131",
"z  c #97460D",
"x  c #974A13",
"c  c #AA480A",
"v  c #BB4B05",
"b  c #B34B08",
"n  c #BB5508",
"m  c #A94812",
"M  c #AA561A",
"N  c #B55415",
"B  c #864328",
"V  c #8C552A",
"C  c #975627",
"Z  c #885538",
"A  c #825A3C",
"S  c #B34B2C",
"D  c #AB5928",
"F  c #A44638",
"G  c #8A623F",
"H  c #B36732",
"J  c #C45505",
"K  c #C15B03",
"L  c #C55B06",
"P  c #CB520A",
"I  c #C86505",
"U  c #D46707",
"Y  c #D27D01",
"T  c #D87809",
"R  c #CA6813",
"E  c #D86817",
"W  c #C77315",
"Q  c #D57912",
"!  c #F2700D",
"~  c #DD5728",
"^  c #E05131",
"/  c #875645",
"(  c #825E44",
")  c #825E49",
"_  c #97535C",
"`  c #B4564F",
"'  c #836146",
"]  c #83634A",
"[  c #896648",
"{  c #89654C",
"}  c #8A6A4D",
"|  c #956A47",
" . c #846A54",
".. c #8A6B53",
"X. c #856A58",
"o. c #936450",
"O. c #8B715C",
"+. c #93755B",
"@. c #977558",
"#. c #B17048",
"$. c #A37B59",
"%. c #866D61",
"&. c #877666",
"*. c #937A68",
"=. c #857E75",
"-. c #947D71",
";. c #BB6F70",
":. c #D0504B",
">. c #E65457",
",. c #F95054",
"<. c #CD764A",
"1. c #D37473",
"2. c #EF7475",
"3. c #7E837D",
"4. c #D38503",
"5. c #D6890A",
"6. c #DC940A",
"7. c #DB9213",
"8. c #FB8905",
"9. c #EA940A",
"0. c #E89814",
"q. c #E3AA0A",
"w. c #E5A808",
"e. c #EBAD0D",
"r. c #FAA805",
"t. c #EAB709",
"y. c #EBB40D",
"u. c #EFB40E",
"i. c #E8A713",
"p. c #FF9223",
"a. c #E3B23F",
"s. c #EBC209",
"d. c #F5C506",
"f. c #F3CD06",
"g. c #F5D403",
"h. c #F9D704",
"j. c #FADC01",
"k. c #FFCC19",
"l. c #FEE100",
"z. c #FFCE3D",
"x. c #A69A51",
"c. c #838164",
"v. c #99826A",
"b. c #858279",
"n. c #998677",
"m. c #A38469",
"M. c #A88D76",
"N. c #B28872",
"B. c #D79A58",
"V. c #CF8B74",
"C. c #E9DD5C",
"Z. c #7D8483",
"A. c #838A85",
"S. c #968D87",
"D. c #88908F",
"F. c #93948C",
"G. c #899796",
"H. c #8B9B9C",
"J. c #999D98",
"K. c #A79888",
"L. c #AE9391",
"P. c #A59B94",
"I. c #A8A397",
"U. c #ACA49C",
"Y. c #B5AC9A",
"T. c #919CA3",
"R. c #9D9EA2",
"E. c #8DA1A3",
"W. c #95A8AB",
"Q. c #95B0B0",
"!. c #99B6B7",
"~. c #A7AEA7",
"^. c #B5ACA4",
"/. c #A9B2A8",
"(. c #B9B8AA",
"). c #B0A5B8",
"_. c #A8B8B9",
"`. c #B8B9B5",
"'. c #CA9694",
"]. c #F18688",
"[. c #D8A095",
"{. c #D0AEAB",
"}. c #FFB1B5",
"|. c #ADD397",
" X c #B2C2B9",
".X c #ABE2A3",
"XX c #D9D49E",
"oX c #C9C7BB",
"OX c #D3C7BA",
"+X c #9CBCC2",
"@X c #A2BEC4",
"#X c #FFBCC0",
"$X c #9EC6CB",
"%X c #9DDDCB",
"&X c #A9C9CA",
"*X c #B5C5C7",
"=X c #ABD5CE",
"-X c #BAD4CA",
";X c #AACCD5",
":X c #A9CCD6",
">X c #B3CFD4",
",X c #ABD5DA",
"<X c #B8D7D7",
"1X c #B5D5DC",
"2X c #9BE1DC",
"3X c #BDF2D8",
"4X c #ABD9E3",
"5X c #B5DBE4",
"6X c #BEDCE1",
"7X c #B5E3E5",
"8X c #BBE3E4",
"9X c #C8CAC6",
"0X c #D8C5C4",
"qX c #C7D5CD",
"wX c #D5D5CB",
"eX c #C8D8D5",
"rX c #C5DCDC",
"tX c #D5DBD7",
"yX c #EAD4D1",
"uX c #CAE2DE",
"iX c #CDE9D9",
"pX c #E7E4DE",
"aX c #C3DEE3",
"sX c #C9DDE3",
"dX c #D5DEE1",
"fX c #C5E2E4",
"gX c #CAE2E5",
"hX c #C4E4E9",
"jX c #CCE5E9",
"kX c #CCEBEC",
"lX c #D8E6E4",
"zX c #D1E6EB",
"xX c #D3EAED",
"cX c #DCECEB",
"vX c #D7F1EC",
"bX c #D5EDF3",
"nX c #DAEEF2",
"mX c #DBF3F5",
"MX c #DDF1F4",
"NX c #E6E9E5",
"BX c #E3EDEB",
"VX c #F3EAE4",
"CX c #E4F4F5",
"ZX c #EAF5F4",
"AX c #E8F8F7",
"SX c #E4F6F8",
"DX c #E9F7F8",
"FX c #E5FAFB",
"GX c #EAFEFF",
"HX c #F2F5F5",
"JX c #F3FBFC",
"KX c #FBFDFD",
/* pixels */
"GXGXGXGXGXGXGXGXGXGXGXGXGXGXGXGXGXGXGXGXGXGXGXGXGXGXGXGXGXGXGXGXGXGXGXGXGXGXGXGXGXGXGXGXGXGXGXGXGXGXGXGXGXGXGXGXGXGXGXGXGXGXGXGX",
"GXGXGXGXGXGXGXGXGXGXGXGXGXGXGXGXGXGXGXGXGXGXGXGXGXGXGXGXGXGXFXnXzXbXGXGXGXGXGXGXGXGXGXGXGXGXGXGXGXGXGXGXGXGXGXGXGXGXGXGXGXGXGXGX",
"GXGXGXGXGXGXGXGXGXGXGXGXGXGXGXGXGXGXGXGXGXGXGXGXGXGXGXGXGXmXnXJXGXCXnXFXGXGXGXGXGXGXGXGXGXGXGXGXGXGXGXGXGXGXGXGXGXGXGXGXGXGXGXGX",
"GXGXGXGXGXGXGXGXGXGXGXGXGXGXGXGXGXGXGXGXGXGXGXGXGXGXGXGXCXMXJXDXJXSXnXnXGXGXGXGXGXGXGXGXGXGXGXGXGXGXGXGXGXGXGXGXGXGXGXGXGXGXGXGX",
"GXGXGXGXGXGXGXGXGXGXGXGXGXGXGXGXGXGXGXGXGXGXGXGXGXGXGXmXCXJXJXDXDXDXAXMXmXFXGXGXGXGXGXGXGXGXGXGXGXGXGXGXGXGXGXGXGXGXGXGXGXGXGXGX",
"GXGXGXGXGXGXGXGXGXGXGXGXGXGXGXGXGXGXGXGXGXGXGXGXGXGXnXmXJXDXDXzXxXDXDXAXmXmXFXGXGXGXGXGXGXGXGXGXGXGXGXGXGXGXGXGXGXGXmXGXGXGXGXGX",
"GXGXGXGXGXGXGXGXGXGXGXGXGXGXGXGXGXGXGXGXGXGXGXGXGXbXDXJXDXGXnX5X1XDXDXJXDXSXmXFXGXGXGXGXGXGXGXGXGXGXGXGXGXGXGXGXGXGXGXGXGXGXGXGX",
"GXGXGXGXGXGXGXGXGXGXGXGXGXGXGXGXGXGXGXGXGXGXGXFXmXCXKXFXDXcXsX>X1XAXDXGXDXDXCXmXFXGXGXGXGXGXGXGXGXGXGXGXGXGXGXGXGXGXGXGXGXGXGXGX",
"GXGXGXGXGXGXGXGXGXGXGXGXGXGXGXGXGXGXGXGXGXGXFXSXJXKXAXZXzXsX:XT.J.BXSXzXCXJXJXCXnXFXGXGXGXGXGXGXGXGXGXGXGXGXGXGXGXGXGXGXGXGXGXGX",
"GXGXGXGXGXGXGXGXGXGXGXGXGXGXGXGXGXGXGXGXGXFXCXFXKXAXAXzXrX&XH.2 -.NXDXaXjXDXDXJXCXmXFXGXGXGXGXGXGXGXGXGXGXGXGXGXGXGXGXGXGXGXGXGX",
"GXGXGXGXGXGXGXGXGXGXGXGXGXGXGXGXGXGXGXGXFXnXJXKXGXAXzXsX&XG.> - n.NXDXgX1XzXJXZXAXAXmXSXGXGXGXGXGXGXGXGXGXGXGXGXGXGXGXGXGXGXGXGX",
"GXGXGXGXGXGXGXGXGXGXGXGXGXGXGXGXGXGXGXSXnXGXJXDXCXjXfX&XH.> # & %.^.BXzX,XjXJXCXDXDXCXmXSXGXGXGXGXGXGXGXGXGXGXGXGXGXGXGXGXGXGXGX",
"GXGXGXGXGXGXGXGXGXGXGXGXGXGXGXGXGXGXmXnXJXDXZXCXjXhX&XG.< ; G # + ] qX6XW.-XJXCXCXAXDXCXnXCXGXGXGXGXGXGXGXGXGXGXGXGXGXGXGXGXGXGX",
"GXGXGXGXGXGXGXGXGXGXGXGXGXGXGXGXGXSXmXJXDXDXAXgXrX&XD.- # [ ' # X &.1X!.> S.tXJXCXCXCXDXCXnXmXGXGXGXGXGXGXGXGXGXGXGXGXGXGXGXGXGX",
"GXGXGXGXGXGXGXGXGXGXGXGXGXGXGXGXmXCXJXDXAXCXhXfX!.A.: ; ' # ; # * %.G.< * { n.9XZXDXCXCXDXCXzXnXGXGXGXGXGXGXGXGXGXGXGXGXGXGXGXGX",
"GXGXGXGXGXGXGXGXGXGXGXGXGXGXGXmXAXJXDXDXMXgX8X XA.# A O ' A O * ' > & * ' ] ( *.wXDXDXDXGXnXjXxXbXmXGXGXGXGXGXGXGXGXGXGXGXGXGXGX",
"GXGXGXGXGXGXGXGXGXGXGXGXGXGXSXAXDXDXAXnXfX6X@X3.; > O.> O.O.O.....v.v.v.*.&. .' &.9XZXDXDXAXnXjXhXxXFXGXGXGXGXGXGXGXGXGXGXGXGXGX",
"GXGXmXGXGXGXGXGXGXGXGXGXFXmXSXDXDXJXMXhX<X_.3 & + v.DXDXDXFXKXS.%.lXCXCXZXJXI.' ) ..9XBXDXZXJXSXgXhXxXFXGXGXGXGXGXGXGXGXGXGXGXGX",
"GXGXGXGXGXGXGXGXGXGXGXFXmXCXSXDXDXnXgX6X_.3 : ) n.NXZXkXrXqXcXcXeXAXuX-XuXkXhXE.O.* &.`.BXFXFXJXCXgXhXzXSXFXGXGXGXGXGXGXGXGXGXGX",
"GXGXGXGXGXGXGXGXGXGXFXnXSXDXDXDXKXxX1X_.3 @ @ P.KXHX XM.@.m.K.VXKX&X@...v.~.uXkX_. .# &.{.ZXFXJXGXSXxXgXkXmXGXGXGXGXGXGXGXGXGXGX",
"GXGXGXGXGXGXGXGXGXFXSXSXJXDXAXDXJXMX_.2 X + O 9XKX Xm.x m m D XXuXB.M m C | I.kXhXX.# Z U.VXBXzXDXJXCXzXgXkXmXGXGXGXGXGXGXGXGXGX",
"GXGXGXGXGXGXGXGXFXSXSXJXAXGXcXMXJXDXW.% X o { oXZXI.C c R U ! XX<X! E R D C v.fX5X> O % U.ZXnXsXzXAXJXDXzXgXxXmXGXGXGXGXGXGXGXGX",
"GXGXGXGXGXGXGXFXnXSXJXDXDXxX:XMXDXkXW.& @ ( { wXJXP.x c ! 8.r.XX3Xd.8.! H G b.:XZ...( { ^.ZXnXaX6XnXJXJXDXzXzXjXmXGXGXGXGXGXGXGX",
"GXGXGXGXGXGXmXmXAXJXAXAXjXaX4XFXnX7XE.& ) ] o.n.oX&XD.J.{.oX.XiX1X.X X/.T.Z.Q.W.@ { ]  .n.0XBX<XW.-XDXDXGXDXcXjXkXmXGXGXGXGXGXGX",
"GXGXGXGXGXMXMXCXDXDXCXzXhX7XE.eXxX+XZ.- @ - ) / T.gX{.iXiX3X3X<X5X4X%X=X=X^.&X+X .] * ( ( K.uX&X%.S.qXDXDXDXJXzXxXgXmXGXGXGXGXGX",
"GXGXGXGXMXnXDXJXDXJXbXaX7XH.X._.7XZ.> - * ( ' * b._.N.E 8.k.l.|.5XC.k.r.! #.E.G. .) * * ] F.<X$X2 % S.9XJXDXDXJXnXzXsXnXGXGXGXGX",
"GXGXGXbXxXCXDXCXAXDXbX:XH.> A @X7XD.% & ..] ] ) O =.*XN.! 8.d..X=Xh.p.! #.H.Z.> ] ] ( % * b.!.H.< % % ^.HXFXCXZXFXzXaXaXmXGXGXGX",
"GXGXbXkXJXDXnXjXCXbX5XE.< ( / +X$Xb.X + - - { ] + o &.~.N.E ! |.$X8.Q N.H.A.* ) ] ] ' - ( : = < > * Z ^.HXMXjXnXjX6XaXaX6XFXGXGX",
"GXGXmXKXDXmXhXgXMXcX7XH.& o + +X3 O ..' * * ] ] * o *  ._.m.<.`.*XB.$.W.A.A ) ) [ ' ' ] { * * * ) ( A U.NXnXsXaX<XaXaXaX6XhXGXGX",
"GXGXmXKXnXgXsXhXhXfX7XH.o % - - * ; ] [ : ] : ] - * ( [ X.E.!.$X+XW.W.3 @ @ ' ' ( ( ' ] * ) ' * % ( { ( P.cXaX;X,X1XsX1X:X6XGXGX",
"GXGXbXcXgXsXaXkXgX>X4XE.> * ' ' ' # * ] .. .- ] : % : ( X & &.> % 1 < A # * ] ( % * * * * * [ - A ; ( Z S.rXaX;X;X&X:X:X:XhXGXGX",
"GXGXFXhXxXkXsX&.@X5X,XG.< { ' * A ] ] ] ] - - ] ] [ * ' (.9X9XOX9XoX9XwXv.Z ( * * ( * * * * * ' } ' + O S.1X:X@XH.!.5X:X1XbXGXGX",
"GXGXGXFXMXkXFXsX<X8XH.2 > ' ( * ( ) { ]  .] ' ' ; O G oXKXpXtXwXwXtXdXvXNXm.V ; [ ; # + * * * ' [ ; O . A.&X!.G.!.DXGXGXGXGXGXGX",
"GXGXGXGXGXGXGXGX5X:XZ.& - [ : * % ) ) > - ..] ( A  .oXNXoXI.O.* { @.I.qXCXeXv.' [ ' * # * ; # # ; * + # 2 A.=.{ nXGXGXGXGXGXGXGX",
"GXGXGXGXGXGXGXGX_.D.2 * ] [ ; ' X.{ / ) : ..] ; *.wXNX/.; V x x z x G @.~.iXfXS.[ # * < , $ Z # [ > : ] > ] ' @.FXGXGXGXGXGXGXGX",
"GXGXGXGXGXGXGXGX(.-.{  .& / ` Y./.U.L.S S [ [ v.pXpXY.G x z c b b n b z Z K.iXkXF.O = F 6 ` P.P./.` G < ] ] &.~.GXGXGXGXGXGXGXGX",
"GXGXGXGXGXGXGXGXcXn.[ { / w d ].KXJX#Xs s k F.BXcXJ.G z c N L R W I n v c C v.qXkXH.F s ,.}.KXKX}.j u ) < [ X.8XGXGXGXGXGXGXGXGX",
"GXGXGXGXGXGXGXGXSXJ.( @ w s d s 2.tX0X>.a s }.jX/.G z b N W 7.0.6.4.I n b z V M.1X2Xl s {.MXGX[.s a d k { #  .nXGXGXGXGXGXGXGXGX",
"GXGXGXGXGXGXGXGXGX/.# q s s p e 4 D.8X8Xu e s ).2 x n K 7.7.i.y.t.w.6.4.K b z V /.P.j d {.1XS.6 6 e p s 0 & *.FXGXGXGXGXGXGXGXGX",
"GXGXGXGXGXGXGXGXGX9X[ F d l :.7 8 3 !.Q.u t u @Xc.n n W 7.q.s.g.g.f.t.6.Y K n C m.l s t 9X!.% X q k :.p 5 X K.FXGXGXGXGXGXGXGXGX",
"GXGXGXGXGXGXGXGXGXcX[ F ,.vXkX%.X = = . 5 k yXeXM.K I 5.i.s.g.l.j.j.f.t.6.J J c B {.^ r R.G.> @ ) tXJX].w & (.FXGXGXGXGXGXGXGXGX",
"GXGXGXGXGXGXGXGXGXAXm.K.KXDXhX3 + % * B 5 tXKXrXm.v U 5.t.g.l.l.j.l.h.t.6.I J b C wX>.6 q < > : > zXKXmXS.%.rXGXGXGXGXGXGXGXGXGX",
"GXGXGXGXGXGXGXGXGXGX`.M.AXhX:X2 X ) ( @ X cXKX-X| v I 6.s.j.l.l.j.j.h.s.6.U J N V.NXsX` q ] O.[ ( *XkXD.& S.MXGXGXGXGXGXGXGXGXGX",
"GXGXGXGXGXGXGXGXGXGXeX@.%.> = > - ' * % X.cXxX;.0 v I 5.y.g.l.l.j.h.j.s.6.U v c ^ gX8X4Xb.Z ( ( % = > % Z ~.FXGXGXGXGXGXGXGXGXGX",
"GXGXGXGXGXGXGXGXGXGXBX@.( O O % * : * ) %.mX].u g v L 4.q.g.l.l.l.j.g.t.7.I b c y >.sXE.2 - ( ) * + o # } 9XGXGXGXGXGXGXGXGXGXGX",
"GXGXGXGXGXGXGXGXGXGXDXM.{ * * * } { { ] o.,.s p 0 v L 4.q.f.l.l.l.l.g.t.6.I b c y s 5XZ.% * } ( } ' * } m.BXGXGXGXGXGXGXGXGXGXGX",
"GXGXGXGXGXGXGXGXGXGXGXY.O.{ ] { } ] : ' ) 4 a p S R K 4.q.g.l.l.l.l.g.y.5.I m x y p ;.%.% * ..] [ ' { | P.GXGXGXGXGXGXGXGXGXGXGX",
"GXGXGXGXGXGXGXGXGXGXGXtX+.{ ] { ; * ] ' & , e ,.Y.H K 4.q.g.l.l.l.l.h.y.5.K M H V.t r q ; : * * * * { [  XGXGXGXGXGXGXGXGXGXGXGX",
"GXGXGXGXGXGXGXGXGXGXGXAX+.( * ( * * ' ) % % ;.pX(.H n 4.q.f.l.l.l.l.j.e.5.K N V.BX1.7 q & ] ] A - * ' @.lXGXGXGXGXGXGXGXGXGXGXGX",
"GXGXGXGXGXGXGXGXGXGXGXmXK.} + * - ) ' * % @ vXvXY.D I 4.q.g.l.l.l.l.j.e.4.K b V.gX5X/ B * ( ) ) * ; } m.FXGXGXGXGXGXGXGXGXGXGXGX",
"GXGXGXGXGXGXGXGXGXGXGXGX{.+.* * ) { ' * @ { tXdX:.9 n 4.q.s.l.l.l.l.j.y.Q K b h  X2X1 . ' ' ( ' ' ' @.Y.GXGXGXGXGXGXGXGXGXGXGXGX",
"GXGXGXGXGXGXGXGXGXGXGXGXiX..* * * - * ) ) { nX2.e 9 K 4.q.f.l.l.l.l.h.y.T n 9 f d R.1 O { [ ] : ' [ @.rXGXGXGXGXGXGXGXGXGXGXGXGX",
"GXGXGXGXGXGXGXGXGXGXGXGXlXO.' ' ( % % ' ] ] tX2.6 9 K Y w.d.l.l.l.l.h.i.T n 9 y s i / : ( ] [ ( ' { @.CXGXGXGXGXGXGXGXGXGXGXGXGX",
"GXGXGXGXGXGXGXGXGXGXGXGXcX+.[ ' % - - * ] ) h s g N K Y w.f.j.l.l.l.f.e.T n m h r r Z { ; * * ' ' ' m.DXGXGXGXGXGXGXGXGXGXGXGXGX",
"GXGXGXGXGXGXGXGXGXGXGXGXBXX.( ( ] { ( *  .> i s '.H J Y w.f.g.l.l.j.f.i.T J H yXe 5 / * * % - ' } } M.DXGXGXGXGXGXGXGXGXGXGXGXGX",
"GXGXGXGXGXGXGXGXGXGXGXFXCX+.) ] ] ] * * - - e ].{.H L Y w.f.g.l.j.j.d.e.T J | VX{.7 B * * & - ' { O.^.GXGXGXGXGXGXGXGXGXGXGXGXGX",
"GXGXGXGXGXGXGXGXGXGXGXGXZXa. .a.x. .( + * + 6 {.-XH J Y t.g.j.j.l.j.f.e.T L | VXJX*XX.( ( * ( ' ' ..sXGXGXGXGXGXGXGXGXGXGXGXGXGX",
"GXGXGXGXGXGXGXGXGXGXGXFX~ ! a.p.h F ; * * @ '.lX,XH n Y w.f.g.j.j.j.d.i.T L S 2.xXkX=.( ' ( ] ] ] +.uXFXGXGXGXGXGXGXGXGXGXGXGXGX",
"GXGXGXGXGXGXGXGXGXGXGXBXs i z.k a w , + + # MXmXP.D v I 9.t.s.f.f.d.u.0.U P 9 l 8X5X&.# ' ' ' ( ) *.iXGXGXGXGXGXGXGXGXGXGXGXGXGX",
"GXGXGXGXGXGXGXGXGXGXGXtXi u a.P r w , # G A vXvX;.9 J P T 9.r.w.i.0.0.Q U J 8 l L.2X3 @ # ( * * ( *.gXGXGXGXGXGXGXGXGXGXGXGXGXGX",
"GXGXGXGXGXGXGXGXGXFXGXsXp r r.g r 4 o . O   :.].` 8 0 N I R E I W W R n P b 8 a r _ * O Z A ( A Z @.cXGXGXGXGXGXGXGXGXGXGXGXGXGX",
"GXGXGXGXGXGXGXGXGXGXGXMX1.1.C.V.2.'.J.J.I.R.>.s 6 q *.-.*.c.3.3.O.2 2 &.%.&.q t r :.L.I.I.I.U.U.U.Y.AXGXGXGXGXGXGXGXGXGXGXGXGXGX",
"GXGXGXGXGXGXGXGXGXGXGXGXGXGXKXJXGXGXGXGXGXGXGX{.1.0XJXGXGXGXFXFXFXFXGXGXDXGXyX1.[.FXGXGXGXGXGXGXGXGXGXGXGXGXGXGXGXGXGXGXGXGXGXGX",
"GXGXGXGXGXGXGXGXGXGXGXGXGXGXGXJXGXGXGXGXGXGXGXGXGXGXGXGXGXGXGXGXGXGXGXGXGXGXGXJXGXGXGXGXGXGXGXGXGXGXGXGXGXGXGXGXGXGXGXGXGXGXGXGX"
};
