/* XPM */
static char *_636719531902[] = {
/* columns rows colors chars-per-pixel */
"64 64 253 2 ",
"   c #6D3A12",
".  c #784C2C",
"X  c #794D37",
"o  c #765336",
"O  c #7B5235",
"+  c #77543C",
"@  c #7B553C",
"#  c #7E5A3D",
"$  c #70613F",
"%  c #7B5642",
"&  c #765A47",
"*  c #7D5B43",
"=  c #725A4B",
"-  c #7E5E49",
";  c #796149",
":  c #7D624B",
">  c #7C6552",
",  c #716950",
"<  c #7B6A58",
"1  c #666F66",
"2  c #786D61",
"3  c #7B7269",
"4  c #7C7C77",
"5  c #9D0907",
"6  c #A70603",
"7  c #B90302",
"8  c #AC160E",
"9  c #822F1A",
"0  c #AF2A06",
"q  c #903828",
"w  c #AC382B",
"e  c #C40404",
"r  c #CE0201",
"t  c #D30100",
"y  c #DA0100",
"u  c #D61D08",
"i  c #D11713",
"p  c #E30000",
"a  c #EB0504",
"s  c #F30201",
"d  c #FD0100",
"f  c #FF030D",
"g  c #FC0E17",
"h  c #D03407",
"j  c #E52E09",
"k  c #F51D21",
"l  c #CD3430",
"z  c #EE342C",
"x  c #BB5E06",
"c  c #AF441E",
"v  c #BB6609",
"b  c #AF6518",
"n  c #864328",
"m  c #815236",
"M  c #875239",
"N  c #825A3D",
"B  c #A44638",
"V  c #B74335",
"C  c #85613F",
"Z  c #A76828",
"A  c #B47935",
"S  c #D34907",
"D  c #C65902",
"F  c #CC5C01",
"G  c #D65A01",
"H  c #EC5314",
"J  c #C66601",
"K  c #D36500",
"L  c #DA6500",
"P  c #D56B00",
"I  c #DB6B00",
"U  c #CB7908",
"Y  c #DD7301",
"T  c #D67901",
"R  c #E26400",
"E  c #E36C00",
"W  c #E86B00",
"Q  c #E27300",
"!  c #E37A00",
"~  c #EA7A00",
"^  c #F87800",
"/  c #FE6E19",
"(  c #E05227",
")  c #DE7A29",
"_  c #875645",
"`  c #825E44",
"'  c #825E49",
"]  c #97535C",
"[  c #AF544B",
"{  c #836146",
"}  c #83634A",
"|  c #896648",
" . c #89654C",
".. c #8A6A4D",
"X. c #916C49",
"o. c #846A53",
"O. c #866956",
"+. c #8A6B53",
"@. c #846B59",
"#. c #8C715D",
"$. c #977559",
"%. c #A67A4F",
"&. c #866D61",
"*. c #887566",
"=. c #937967",
"-. c #877E76",
";. c #BD686C",
":. c #CE544B",
">. c #E65456",
",. c #F95054",
"<. c #FC625B",
"1. c #D27470",
"2. c #EC7775",
"3. c #7E837D",
"4. c #BF8132",
"5. c #EB8300",
"6. c #E88A00",
"7. c #F98900",
"8. c #ED9500",
"9. c #EC9D00",
"0. c #F29200",
"q. c #FC9800",
"w. c #EDA400",
"e. c #F3AC00",
"r. c #FAA901",
"t. c #FCB400",
"y. c #F4BC00",
"u. c #FABC00",
"i. c #D4892C",
"p. c #ECA335",
"a. c #FAC300",
"s. c #F8C800",
"d. c #F6D200",
"f. c #FCD300",
"g. c #FDDB00",
"h. c #FFE400",
"j. c #FFE800",
"k. c #FFF600",
"l. c #FFCE3D",
"z. c #968F4E",
"x. c #998853",
"c. c #B38B54",
"v. c #998069",
"b. c #87847A",
"n. c #988576",
"m. c #A58366",
"M. c #B09274",
"N. c #B3A177",
"B. c #C49964",
"V. c #D09071",
"C. c #D4A362",
"Z. c #AFEA79",
"A. c #D2C550",
"S. c #7D8584",
"D. c #838984",
"F. c #968D87",
"G. c #93948C",
"H. c #889190",
"J. c #899696",
"K. c #8B9B9C",
"L. c #999C97",
"P. c #A89688",
"I. c #AE918E",
"U. c #A59B93",
"Y. c #A6A78A",
"T. c #AAA298",
"R. c #ACA49C",
"E. c #B7AC9C",
"W. c #949BA3",
"Q. c #9D9EA2",
"!. c #8DA1A3",
"~. c #96A8A9",
"^. c #9AB5B7",
"/. c #B5ACA4",
"(. c #AAB2A8",
"). c #B9B8A8",
"_. c #ABAAB1",
"`. c #A7B8B8",
"'. c #B8BAB6",
"]. c #CA9694",
"[. c #F18588",
"{. c #CCAF90",
"}. c #EAAA9E",
"|. c #D1AFAA",
" X c #FFB1B5",
".X c #A3F096",
"XX c #B3CAB8",
"oX c #C9D09E",
"OX c #EBD086",
"+X c #CDF393",
"@X c #CAC8BB",
"#X c #D3CCB4",
"$X c #E8D2B7",
"%X c #9ABBC2",
"&X c #A2BEC4",
"*X c #FFBCC0",
"=X c #96C9D0",
"-X c #A9C8C9",
";X c #B6C7C7",
":X c #B6D6CA",
">X c #AACCD5",
",X c #B3CFD4",
"<X c #A9D5D9",
"1X c #B6D5D9",
"2X c #91E7D4",
"3X c #B5F3D7",
"4X c #99DAE1",
"5X c #A8D9E2",
"6X c #B5DCE4",
"7X c #BEDCE1",
"8X c #9AE2E1",
"9X c #B5E3E5",
"0X c #BCE4E4",
"qX c #BFF1E4",
"wX c #C8CAC8",
"eX c #D9C6C3",
"rX c #C9D6CD",
"tX c #D6D7CB",
"yX c #C7D9D9",
"uX c #D5DBD9",
"iX c #E8D6CC",
"pX c #D0E6D9",
"aX c #E4E5D7",
"sX c #C3DEE3",
"dX c #C9DDE3",
"fX c #D5DEE1",
"gX c #C5E1E5",
"hX c #CAE2E5",
"jX c #C5E6E8",
"kX c #CCE5E9",
"lX c #CCEBEB",
"zX c #D5E5E5",
"xX c #D1E6EB",
"cX c #D3EAEC",
"vX c #DCECEB",
"bX c #D1F4EA",
"nX c #D5EDF3",
"mX c #DAEEF2",
"MX c #DAF3F4",
"NX c #DDF1F4",
"BX c #E6E8E6",
"VX c #E3EDEB",
"CX c #E9F1EF",
"ZX c #E4F4F5",
"AX c #EAF5F4",
"SX c #E8F8F7",
"DX c #E4F6F8",
"FX c #E9F7F8",
"GX c #E6FAFB",
"HX c #EAFEFF",
"JX c #F5F6F3",
"KX c #F3FBFB",
"LX c #FBFEFD",
/* pixels */
"HXHXHXHXHXHXHXHXHXHXHXHXHXHXHXHXHXHXHXHXHXHXHXHXHXHXHXHXHXHXHXHXHXHXHXHXHXHXHXHXHXHXHXHXHXHXHXHXHXHXHXHXHXHXHXHXHXHXHXHXHXHXHXHX",
"HXHXHXHXHXHXHXHXHXHXHXHXHXHXHXHXHXHXHXHXHXHXHXHXHXHXHXHXHXHXGXnXxXnXHXHXHXHXHXHXHXHXHXHXHXHXHXHXHXHXHXHXHXHXHXHXHXHXHXHXHXHXHXHX",
"HXHXHXHXHXHXHXHXHXHXHXHXHXHXHXHXHXHXHXHXHXHXHXHXHXHXHXHXHXDXmXKXFXDXmXGXHXHXHXHXHXHXHXHXHXHXHXHXHXHXHXHXHXHXHXHXHXHXHXHXHXHXHXHX",
"HXHXHXHXHXHXHXHXHXHXHXHXHXHXHXHXHXHXHXHXHXHXHXHXHXHXHXHXZXNXKXHXFXHXmXNXHXHXHXHXHXHXHXHXHXHXHXHXHXHXHXHXHXHXHXHXHXHXHXHXHXHXHXHX",
"HXHXHXHXHXHXHXHXHXHXHXHXHXHXHXHXHXHXHXHXHXHXHXHXHXHXHXMXmXLXFXFXSXFXSXNXMXGXHXHXHXHXHXHXHXHXHXHXHXHXHXHXHXHXHXHXHXHXHXHXHXHXHXHX",
"HXHXHXHXHXHXHXHXHXHXHXHXHXHXHXHXHXHXHXHXHXHXHXHXHXHXmXNXLXFXFXcXxXFXFXSXNXNXGXHXHXHXHXHXHXHXHXHXHXHXHXHXHXHXHXHXHXHXHXHXHXHXHXHX",
"HXHXHXHXHXHXHXHXHXHXHXHXHXHXHXHXHXHXHXHXHXHXHXHXHXnXFXKXFXHXvX7X1XFXHXKXFXDXMXGXHXHXHXHXHXHXHXHXHXHXHXHXHXHXHXHXHXHXHXHXHXHXHXHX",
"HXHXHXHXHXHXHXHXHXHXHXHXHXHXHXHXHXHXHXHXHXHXHXGXMXZXLXGXFXnXdX>X1XFXFXFXFXFXDXMXGXHXHXHXHXHXHXHXHXHXHXHXHXHXHXHXHXHXHXHXHXHXHXHX",
"HXHXHXHXHXHXHXHXHXHXHXHXHXHXHXHXHXHXHXHXHXHXHXDXKXLXFXSXcXyX,XW.L.CXFXxXZXKXKXDXmXGXHXHXHXHXHXHXHXHXHXHXHXHXHXHXHXHXHXHXHXHXHXHX",
"HXHXHXHXHXHXHXHXHXHXHXHXHXHXHXHXHXHXHXHXHXGXNXHXLXHXFXxXsX-XK.3 -.BXDXdXkXFXFXKXZXMXGXHXHXHXHXHXHXHXHXHXHXHXHXHXHXHXHXHXHXHXHXHX",
"HXHXHXHXHXHXHXHXHXHXHXHXHXHXHXHXHXHXHXHXGXNXKXLXFXSXkXgX-XJ.< & n.BXFXjX1XxXKXFXFXSXNXGXHXHXHXHXHXHXHXHXHXHXHXHXHXHXHXHXHXHXHXHX",
"HXHXHXHXHXHXHXHXHXHXHXHXHXHXHXHXHXHXHXGXmXFXKXFXZXkXgX;XJ.< # * &./.VXxX<XkXKXZXSXFXZXMXDXHXHXHXHXHXHXHXHXHXHXHXHXHXMXHXHXHXHXHX",
"HXHXHXHXHXHXHXHXHXHXHXHXHXHXHXHXHXHXDXNXKXKXFXZXkXgX-XJ.< ; { # @ } 1XsX~.;XJXZXZXZXSXZXmXNXHXHXHXHXHXHXHXHXHXHXHXHXHXHXHXHXHXHX",
"HXHXHXHXHXHXHXHXHXHXHXHXHXHXHXHXGXDXmXFXFXFXZXkXsX-XJ.; # { | @ X *.,X^.< n.uXKXZXZXAXFXSXmXMXHXHXHXHXHXHXHXHXHXHXHXHXHXHXHXHXHX",
"HXHXHXHXHXHXHXHXHXHXHXHXHXHXHXHXDXZXKXFXFXNXjX7X^.D.; C { C * # * &.J.< |  .n.rXAXAXZXZXFXZXcXmXHXHXHXHXHXHXHXHXHXHXHXHXHXHXHXHX",
"HXHXHXHXHXHXHXHXHXHXHXHXHXHXHXMXDXFXFXFXZXhX0XXXD.# # O { # O { { > & - | { * =.uXAXFXFXFXNXkXlXnXMXHXHXHXHXHXHXHXHXHXHXHXHXHXHX",
"HXHXHXHXHXHXHXHXHXHXHXHXHXHXDXZXFXFXFXmXhX7X&X3.; } #.> #.#.#.+.+.v.n.v.v.*.o.{ &.wXAXSXGXFXmXkXjXnXDXHXHXHXHXHXHXHXHXHXHXHXHXHX",
"HXHXHXHXHXHXHXHXHXHXHXHXGXMXSXFXFXKXmXjX1X`.4 & @ n.FXHXGXHXKXF.#.VXZXSXZXKXR.; ` O.wXCXFXFXKXFXhXjXcXGXHXHXHXHXHXHXHXHXHXHXHXHX",
"HXHXMXHXHXHXHXHXHXHXHXGXMXDXDXFXFXvXjXsX`.4 } ' n.AXSXkXhXpXVXVXzXSXzXyXhXbXjXL.#.' #.'.VXFXFXFXZXkXhXlXDXHXHXHXHXHXHXHXHXHXHXHX",
"HXHXHXHXHXHXHXHXHXHXGXNXDXFXFXFXLXnX1X^.4 @ @ U.KXJXtX{.B.B.{.AXLX1Xc.B.N.XXjXlX(.< @ =.'.JXFXKXFXZXlXkXlXNXHXHXHXHXHXHXHXHXHXHX",
"HXHXHXHXHXHXHXHXHXGXDXZXKXFXHXFXKXZX&X3 X o O wXLXrXB.J J F T $XvX6.T P J c.).jXlX< @ M T.BXZXxXFXKXZXcXgXlXNXHXHXHXHXHXHXHXHXHX",
"HXHXHXHXHXHXHXHXGXDXDXKXFXFXcXZXKXFX~.% X + } eXSX|.U J ~ ^ ^ OX0X7.^ ! T v N.pX6X< X ` /.CXZXsXxXFXKXFXcXhXxXNXHXHXHXHXHXHXHXHX",
"HXHXHXHXHXHXHXGXmXFXKXSXKXxX<XvXAXlX~.& @ ` +.tXKX).J G ^ q.s.+XqXg.r.7.T 4.Y.>XS.O.`  ./.JXvXdX7XVXKXKXFXcXhXlXMXHXHXHXHXHXHXHX",
"HXHXHXHXHXHXNXMXSXHXFXSXxX7X5XNXNX6X!.& '  . .n.rX1XR.XXeX$X+XbX0X.XXX@X`.!.=X%X@  . . .n.@XVX1X~.1XZXFXFXFXmXxXlXMXHXHXHXHXHXHX",
"HXHXHXHXFXDXNXDXKXFXZXxXjX6X!.yXlX-XS.& @ - ' _ !.lX#XaXbX3X3X0X5X4X8X2X3X@X>X=X@.{ ` ` ` P.fX-X< G.rXFXSXHXKXmXcXjXNXHXHXHXHXHX",
"HXHXHXHXNXmXDXFXDXKXnXsX7XK.2 '.9XS.& - * { { - b.;X{.^ q.f.k.Z.4Xk.g.t.^ ) ^.J.> - * * } G.1X=X3 _ F.wXKXFXFXFXmXxXsXNXHXHXHXHX",
"HXHXHXnXnXZXFXDXSXFXnX>XK.> ` ;X9XH.% - ..} ' ' m b.rXV.^ q.h..X4Xg.t.7.i.(.J.& } } ' @ - b.^.K.2 _ _ R.JXSXZXFXFXkXsXsXMXHXHXHX",
"HXHXnXlXKXFXmXxXZXnX6X!.2 N % %X-X3.X + - -  . .# X v.XXC.^ q.oX-Xr.7.i./.J.- - {  .{ ` { : = , : % N /.CXmXkXmXkX7XsXsXsXGXHXHX",
"HXHXNXLXFXNXjXdXNXvX9XK.+ + + %X4 O +.{ - * ' } * + - #.;XB.~ #X<Xq.i.&XG.` { { } } { } } * * *  .` N T.BXmXdX7XsXsXsXsX7XjXHXHX",
"HXHXmXLXvXhXsXjXjXgX9XK.X * ' = # ; } | : { > } - * ` | @.^.>X=X=X-X^.b.& * { { ` ' { } ` ` ` - % * ..` U.vXsX>X>X6XsX1X>X7XGXHX",
"HXHXnXmXjXdXsXlXjX>X5X!.: ` { { { # * } +.o.- } : % : ` o = 3 o.: 3 < N N * } ` @ * * * * * { { * * ` m F.yX7X>X&X>X>X>X>XgXHXHX",
"HXHXGXjXcXlXdX*.`.6X5XK.<  .{ * * { } } } - - } } | # { '.eX#X@X@XwXwXtX=.N ` ` ` ` * * * * : { | { @ # F.1X>X&XW.^.6X<X1XnXHXHX",
"HXHXHXGXMXnXMXdX,X0X!.3 : } { ` ` ' O.} o.: } { ; o C @XJXaX|.oX#X#XtXMXaXm.M { | { # & * ; * { { { o . D.-X`.J.^.FXHXHXHXHXHXHX",
"HXHXHXHXHXHXHXHX0X>XS.& : } : & % ` - > - +.} ` N +.@XaX{.c.Z Z Z Z M.@XZXyXb.C { { * + * C * N ; { + % 3 D.3.| mXHXHXHXHXHXHXHX",
"HXHXHXHXHXHXHXHX`.H.3 % } } O.} +. .' } } +.} * =.tXiXN.Z v x D D v v Z N.pXpXn.| # - > , $ M N } O.: { } : { $.SXHXHXHXHXHXHXHX",
"HXHXHXHXHXHXHXHX'.=. .o.{ N V T.(.R.M.V V  .| v.aXiXc.b v J K P L L K D b c.@XbXG.O = B 7 [ Y.L.(.[ ` < > } #._.HXHXHXHXHXHXHXHX",
"HXHXHXHXHXHXHXHXvXn...} _ w g [.LXKX*Xd d l G.NXaXm.b F K P Y ! 6.Q I L F x %.#XbXK.B d ,.*XLXLX Xg i ' 2 | @.6XHXHXHXHXHXHXHXHX",
"HXHXHXHXHXHXHXHXFXL.` N w d f d 2.uXeX>.s d  XzXY.b D L Q 5.r.r.r.9.6.Q L F b 4.XX8Xz d |.nXFX}.d a f l } N o.MXHXHXHXHXHXHXHXHX",
"HXHXHXHXHXHXHXHXGX(.# q d d a r 5 H.0X6Xi t d _.X.J I Y 8.e.u.s.a.y.e.9.Q I J v N.I.k s |.1XG.7 e r a d i $ v.HXHXHXHXHXHXHXHXHX",
"HXHXHXHXHXHXHXHXHXrX| w d >.l 8 9 S.^.~.e t i '.x.E Y 6.e.a.d.g.h.f.a.e.8.E K v A z f y wX^.% X q l :.p 5 o n.HXHXHXHXHXHXHXHXHX",
"HXHXHXHXHXHXHXHXHXVX| B ,.nXlX3 X % = . 6 l iXrXB.W ~ w.y.d.h.h.h.h.f.s.r.Q R K x {.z t Q.J.> @ ' uXKX[.w - ).FXHXHXHXHXHXHXHXHX",
"HXHXHXHXHXHXHXHXHXDXm.P.LXSXlX4 X @ ` n 6 uXLXyXB.L ~ w.s.h.j.j.j.h.h.f.e.~ R L v |.>.7 q > < ' > zXLXmXF.3 yXHXHXHXHXHXHXHXHXHX",
"HXHXHXHXHXHXHXHXHXFX`.M.SXsX>X3 @ ' { X X zXLX:XU L 5.w.s.h.j.j.h.h.g.f.e.5.R L i.iXgX[ q } #.| * ;XlXH.& F.NXHXHXHXHXHXHXHXHXHX",
"HXHXHXHXHXHXHXHXHXHXyX$.#., = > - { * % @.vXxX1.G G ~ w.s.h.j.j.j.h.h.f.e.5.R G H yXqX5X-.N ` { % = < % N R.GXHXHXHXHXHXHXHXHXHX",
"HXHXHXHXHXHXHXHXHXHXVX$.` X @ * - : - - =.VX[.a S R Q 9.y.h.j.j.j.h.h.d.e.5.L S u ,.dXK.3 - ` - - + o @ $.wXHXHXHXHXHXHXHXHXHXHX",
"HXHXHXHXHXHXHXHXHXHXFXM.| ` * &  ...{  . .,.d a j R Q 9.y.g.j.j.j.h.g.s.w.T L D u d 6XD.% - ..' ..{ * ..$.mXHXHXHXHXHXHXHXHXHXHX",
"HXHXHXHXHXHXHXHXHXHXHXE.#.| {  ...{ - { ` 5 s a G I Y w.y.g.j.j.j.j.h.s.w.! K D u s ;.&.% -  .{  .{ ..X.U.GXHXHXHXHXHXHXHXHXHXHX",
"HXHXHXHXHXHXHXHXHXHXHXuX$.| { | - - } } % = e <.{.6.Y 9.a.g.j.j.j.j.h.a.9.! P U V.y r n ; { * * - % } X.XXHXHXHXHXHXHXHXHXHXHXHX",
"HXHXHXHXHXHXHXHXHXHXHXZX$.{ - * * - ` ' % % ;.BXoX6.P 9.y.g.h.j.j.j.h.a.9.! I i.aX1.8 9 & } { * - # { $.zXSXHXHXHXHXHXHXHXHXHXHX",
"HXHXHXHXHXHXHXHXHXHXHXHXP...+ * ` } { * @ @ vXMX{.P Y 9.y.g.j.j.j.h.h.a.8.Q L i.uX0X_ n * { ' { * ; X.m.GXHXHXHXHXHXHXHXHXHXHXHX",
"HXHXHXHXHXHXHXHXHXHXHXMX|.$.- # - } { * _ | fXuX:.G Y 9.y.g.j.j.j.j.h.a.0.Q G j XX4X1 . { { ` { * { $.E.HXHXHXHXHXHXHXHXHXHXHXHX",
"HXHXHXHXHXHXHXHXHXHXHXHXpX+.: % * - * ` ` { MX2.r S I 9.y.g.j.j.j.j.h.u.0.Q F j d _.2 X |  .{ ` { ..$.yXHXHXHXHXHXHXHXHXHXHXHXHX",
"HXHXHXHXHXHXHXHXHXHXHXHXzX$.{ : ` % % { } } uX2.r S Q 8.y.g.h.j.j.j.h.u.6.Q F u d p M > { } | { { ..$.ZXHXHXHXHXHXHXHXHXHXHXHXHX",
"HXHXHXHXHXHXHXHXHXHXHXHXvX#.| { * * * - : ; k d u G Y 8.y.g.h.j.j.j.g.u.0.I F z t r M  .: & * : { { v.FXHXHXHXHXHXHXHXHXHXHXHXHX",
"HXHXHXHXHXHXHXHXHXHXHXHXVXO.N ` } ..* * o.o.a d V.Y Q 8.y.g.g.j.j.h.f.u.0.E U }.r 6 _ - % % - { ....M.FXHXHXHXHXHXHXHXHXHXHXHXHX",
"HXHXHXHXHXHXHXHXHXHXHXHXSX#.{ { } { : # { ; e [.$XY Q 8.y.g.h.h.h.h.g.u.0.I i.$XeX6 n % # - - { } #./.HXHXHXHXHXHXHXHXHXHXHXHXHX",
"HXHXHXHXHXHXHXHXHXHXHXHXCXA.} A.c.= _ % * + 7 |.:XU Q 8.u.g.h.h.j.h.g.a.0.Q i.iXHX;X@.` { { ` ' ` +.dXHXHXHXHXHXHXHXHXHXHXHXHXHX",
"HXHXHXHXHXHXHXHXHXHXHXGX( / A.7.H B , % * + ].fX<X6.I 8.a.g.h.h.h.h.f.t.7.E D 2.lXlX*.` ` : } }  .=.pXSXHXHXHXHXHXHXHXHXHXHXHXHX",
"HXHXHXHXHXHXHXHXHXHXHXVXd y l.j s w , + @ N NXMX{.J R 5.r.a.f.g.g.f.a.t.7.E h z jX6X*.N { { { { ' =.pXSXHXHXHXHXHXHXHXHXHXHXHXHX",
"HXHXHXHXHXHXHXHXHXHXHXpXy i p.( t w , # C N bXmXV.h L W 7.r.t.u.u.t.r.0.~ I h z I.4X4 + # ` * # ` =.kXHXHXHXHXHXHXHXHXHXHXHXHXHX",
"HXHXHXHXHXHXHXHXHXHXHXdXp y r.u t 5 o . m   :.[.[ 0 G R ~ 5.5.5.6.5.5.Q R G 0 s t ] ` O N N ` N N $.vXSXHXHXHXHXHXHXHXHXHXHXHXHX",
"HXHXHXHXHXHXHXHXHXHXHXNX1.1.OXV.2.].L.L.R.Q.>.d e 0 %.c.m.x.z.z.x.x.x.$.$.%.c p t :.I.T.T.T.R.R.T.E.GXHXHXHXHXHXHXHXHXHXHXHXHXHX",
"HXHXHXHXHXHXHXHXHXHXHXHXHXHXLXKXHXHXHXHXHXHXHX|.1.eXFXFXGXHXGXGXDXGXHXGXSXFXiX1.].KXHXHXHXHXHXHXHXHXHXHXHXHXHXHXHXHXHXHXHXHXHXHX",
"HXHXHXHXHXHXHXHXHXHXHXHXHXHXHXHXHXHXHXHXHXHXHXHXGXHXHXHXHXHXHXHXHXHXHXHXHXHXHXKXHXHXHXHXHXHXHXHXHXHXHXHXHXHXHXHXHXHXHXHXHXHXHXHX"
};
