/* XPM */
static char *_636719546791[] = {
/* columns rows colors chars-per-pixel */
"64 64 223 2 ",
"   c #67361D",
".  c #7A5243",
"X  c #96501A",
"o  c #91480D",
"O  c #A65B1B",
"+  c #AA5D18",
"@  c #AF611C",
"#  c #B96619",
"$  c #BD600B",
"%  c #985929",
"&  c #965C34",
"*  c #8A502E",
"=  c #A15C27",
"-  c #91603B",
";  c #AF6626",
":  c #A96529",
">  c #B36622",
",  c #BB6C22",
"<  c #B26A2A",
"1  c #B96C27",
"2  c #A86732",
"3  c #B26D31",
"4  c #AE713F",
"5  c #BB7537",
"6  c #BD732F",
"7  c #C36D1D",
"8  c #C66B15",
"9  c #CB741E",
"0  c #C7711F",
"q  c #D4791E",
"w  c #DB7C1D",
"e  c #D2771B",
"r  c #E27C16",
"t  c #C47223",
"y  c #CB7523",
"u  c #C4742A",
"i  c #CE7927",
"p  c #D37A24",
"a  c #DB7F22",
"s  c #D47C27",
"d  c #C47A36",
"f  c #D17E32",
"g  c #956B4F",
"h  c #A87147",
"j  c #BC7B44",
"k  c #B77843",
"l  c #A37A57",
"z  c #B17F51",
"x  c #9F7760",
"c  c #C27D40",
"v  c #DF801F",
"b  c #E4821E",
"n  c #DD8122",
"m  c #DC832B",
"M  c #D6812D",
"N  c #CB823D",
"B  c #CE8033",
"V  c #DC8C3B",
"C  c #D78535",
"Z  c #E28424",
"A  c #E98622",
"S  c #EA8925",
"D  c #E28629",
"F  c #E68A2C",
"G  c #EC8D2C",
"H  c #E78825",
"J  c #E38B32",
"K  c #EB8F30",
"L  c #E38E3A",
"P  c #ED9234",
"I  c #EC943A",
"U  c #E8933A",
"Y  c #F19435",
"T  c #F1973B",
"R  c #F3993C",
"E  c #BC804D",
"W  c #B8926B",
"Q  c #A68D74",
"!  c #B58D74",
"~  c #AE9175",
"^  c #CA8749",
"/  c #DA8E44",
"(  c #D58B46",
")  c #DD944D",
"_  c #DC9145",
"`  c #C88D55",
"'  c #CA935C",
"]  c #D99759",
"[  c #E49344",
"{  c #EA9744",
"}  c #EE9944",
"|  c #EC9B4B",
" . c #E5984B",
".. c #F49C43",
"X. c #F89E43",
"o. c #F29E4A",
"O. c #E49B53",
"+. c #E99F56",
"@. c #FCA347",
"#. c #F6A24B",
"$. c #FBA44B",
"%. c #FFA84E",
"&. c #F5A047",
"*. c #ECA255",
"=. c #EDA55C",
"-. c #F4A454",
";. c #FAA752",
":. c #FEAA54",
">. c #FFAE5B",
",. c #F5A95C",
"<. c #FFB15E",
"1. c #CB9667",
"2. c #DA9E65",
"3. c #C39A74",
"4. c #E19F60",
"5. c #DDA368",
"6. c #C9A17D",
"7. c #DAA978",
"8. c #E9A767",
"9. c #F4AF6B",
"0. c #F7AD64",
"q. c #FFB263",
"w. c #FEB66B",
"e. c #FFB96D",
"r. c #F4B06C",
"t. c #E6AB76",
"y. c #E6B17C",
"u. c #FFBB74",
"i. c #FEBD7B",
"p. c #F7B572",
"a. c #FFC07F",
"s. c #B7A38E",
"d. c #BBAB9A",
"f. c #AAA695",
"g. c #9EB6B6",
"h. c #ADB4AD",
"j. c #A2BABA",
"k. c #AABAB6",
"l. c #AFB1A9",
"z. c #CCA681",
"x. c #D9B286",
"c. c #C9B89F",
"v. c #DABB99",
"b. c #C9AD8F",
"n. c #E9B788",
"m. c #FABE82",
"M. c #EBBE93",
"N. c #CABBA6",
"B. c #D6BBA6",
"V. c #B1C1BE",
"C. c #DBC09D",
"Z. c #FFC285",
"A. c #FEC58B",
"S. c #E7C19B",
"D. c #FFC992",
"F. c #FECC9C",
"G. c #F6C79A",
"H. c #DBC3A7",
"J. c #CDC7B8",
"K. c #D4C8B4",
"L. c #D9D0BD",
"P. c #FBCDA2",
"I. c #F2CEAB",
"U. c #F4CBA5",
"Y. c #FFD1A5",
"T. c #FFD5AC",
"R. c #E6D5BA",
"E. c #FBD5B1",
"W. c #FFDAB5",
"Q. c #FEDDBB",
"!. c #E7C9AC",
"~. c #FFE1BF",
"^. c #A3BFC0",
"/. c #A9C5C5",
"(. c #BCDBDD",
"). c #B6D3D5",
"_. c #BAD0CF",
"`. c #BFDDE0",
"'. c #D8D8CA",
"]. c #C7DAD8",
"[. c #DADDD4",
"{. c #C4CAC0",
"}. c #E5DBC4",
"|. c #E5D9C5",
" X c #F9DEC5",
".X c #E7DFD2",
"XX c #DDE2DB",
"oX c #EAE2CC",
"OX c #FFE2C3",
"+X c #FFE5CC",
"@X c #FFE9CE",
"#X c #E5E6D8",
"$X c #FFEAD5",
"%X c #FFEDDC",
"&X c #FFE7D1",
"*X c #FFF1D6",
"=X c #C1DFE0",
"-X c #C4E2E4",
";X c #CAE8E9",
":X c #D8EBEA",
">X c #DCF4F5",
",X c #D9F2F4",
"<X c #D3EEF0",
"1X c #E5EBE5",
"2X c #F9EEE2",
"3X c #E2F0EE",
"4X c #EAF3EC",
"5X c #FFF2E4",
"6X c #FFF4EB",
"7X c #F8F6EB",
"8X c #E5F5F3",
"9X c #EBF6F2",
"0X c #EAF8F5",
"qX c #E0F7F8",
"wX c #E5FAFB",
"eX c #EAFEFF",
"rX c #E7F8F7",
"tX c #F3F7F5",
"yX c #FEF7F2",
"uX c #FFFAF4",
"iX c #FFFEFE",
"pX c #F3FBFB",
"aX c None",
/* pixels */
"aXaXaXaXaXaXaXaXaXaXaXaXaXaXaXaXaXaXaXaXaXaXaXaXaXaXaXaXaXaXaXaXaXaXaXaXaXaXaXaXaXaXaXaXaXaXaXaXaXaXaXaXaXaXaXaXaXaXaXaXaXaXaXaX",
"aXaXaXaXaXaXaXaXaXaXaXaXaXaXaXaXaXaXaXaXaXaXaXaXaXaXaXaXaXaXaXaXaXaXaXaXaXaXaXaXaXaXaXaXaXaXaXaXaXaXaXaXaXaXaXaXaXaXaXaXaXaXaXaX",
"aXaXaXaXaXaXaXaXaXaXaXaXaXaXaXaXaXaXaXaXaXaXaXaXaXaXaXaXaXaXaXaXaXaXaXaXaXaXaXaXaXaXaXaXaXaXaXaXaXaXaXaXaXaXaXaXaXaXaXaXaXaXaXaX",
"aXaXaXaXaXaXaXaXaXaXaXaXaXaXaXaXaXaXaXaXaXaXaXaXaXaXaXaXaXaXaXaXaXaXaXaXaXeXeXeXeXeXeXaXaXaXaXaXaXaXaXaXaXaXaXaXaXaXaXaXaXaXaXaX",
"aXaXaXaXaXaXaXaXaXaXaXaXaXaXaXaXaXaXaXaXaXaXaXaXaXaXaXaXaXaXaXaXaXaXaXeXeXeXeXeXeXeXeXeXaXaXaXaXaXaXaXaXaXaXaXaXaXaXaXaXaXaXaXaX",
"aXaXaXaXaXaXaXaXaXaXaXaXaXaXaXaXaXaXaXaXaXaXaXaXaXaXaXaXaXaXaXeXeXeXeXeXeXeXeXeXeXeXeXeXeXaXaXaXaXaXaXaXaXaXaXaXaXaXaXaXaXaXaXaX",
"aXaXaXaXaXaXaXaXaXaXaXaXaXaXaXaXaXaXaXaXaXaXaXaXaXaXaXaXaXeXeXeXeXeXeXeXeXeXeXeXeXeXeXeXeXeXaXaXaXaXaXaXaXaXaXaXaXaXaXaXaXaXaXaX",
"aXaXaXaXaXaXaXaXaXaXaXaXaXaXaXaXaXaXaXaXaXaXaXaXaXaXaXeXeXeXeXeXeXeXeXeXeXeXeXeXeXeXeXeXeXeXaXaXaXaXaXaXaXaXaXaXaXaXaXaXaXaXaXaX",
"aXaXaXaXaXaXaXaXaXaXaXaXaXaXaXaXaXaXaXaXaXaXaXaXaXaXaXeXeXeXeXeXeXeXeXeXeXeXeX4X.X8XeXeXeXeXeXaXaXaXaXaXaXaXaXaXaXaXaXaXaXaXaXaX",
"aXaXaXaXaXaXaXaXaXaXaXaXaXaXaXaXaXaXaXaXaXaXaXaXaXaXeXeXeXeXeXeX'.:XeXeXeXeXeXR.( J.8XeXeXeXeXaXaXaXaXaXaXaXaXaXaXaXaXaXaXaXaXaX",
"aXaXaXaXaXaXaXaXaXaXaXaXaXaXaXaXaXaXaXaXaXaXaXaXaXaXeXeXeXeXeX>X1.C '.0XeXeX.XV Z x.3XeXeXeXeXeXaXaXaXaXaXaXaXaXaXaXaXaXaXaXaXaX",
"aXaXaXaXaXaXaXaXaXaXaXaXaXaXaXaXaXaXaXaXaXaXaXaXaXeXeXeXeXeXeX1XP.9.[ }.eX:X_ r F ] 8XeXeXeXeXeXaXaXaXaXaXaXaXaXaXaXaXaXaXaXaXaX",
"aXaXaXaXaXaXaXaXaXaXaXaXaXaXaXaXaXaXaXaXaXaXaXaXaXeXeXeXeXeXeX1X6X%X;. .L.7.Z Z G 8.qXeXeXeXeXeXeXaXaXaXaXaXaXaXaXaXaXaXaXaXaXaX",
"aXaXaXaXaXaXaXaXaXaXaXaXaXaXaXeXeXeXeXeXeXeXeXeXeXeXeXeXeXeXeX2X5XiXF.[ d 6 f f V *.XXeXeXeXeXeXeXeXaXaXaXaXaXaXaXaXaXaXaXaXaXaX",
"aXaXaXaXaXaXaXaXaXaXaXaXaXeXeXeXeXeXeXeXeXeXeXeXeXeXeXeXeXeXwX|.%XiX+X8.V L  ./ N d E #XeXeXeXeXeXeXeXaXaXaXaXaXaXaXaXaXaXaXaXaX",
"aXaXaXaXaXaXaXaXaXaXaXaXeXeXeXeXeXeXeXeXeXeXeXeXeXeXeXeXeX[.H.2. X$X Xn.O.o.$.o.| [ f ^ #XeXeXeXeXeXeXeXaXaXaXaXaXaXaXaXaXaXaXaX",
"aXaXaXaXaXaXaXaXaXaXaXeXeXeXeXeXeXeXeXeXeXeXeXeXeXeXeXeX#Xv./  .M.U.M.8.| o.$.o.&.} [ C ` XXeXeXeXeXeXeXaXaXaXaXaXaXaXaXaXaXaXaX",
"aXaXaXaXaXaXaXaXaXaXeXeXeXeXeXeXeX9X8X4XrXeXeXeXeXeXeXwXv./ ..| O.8.8.=.-.:.>.>.:.#.|  .d 3.8XeXeXeXeXeXeXaXaXaXaXaXaXaXaXaXaXaX",
"aXaXaXaXaXaXaXaXaXaXeXeXeXeX0XoXR.S.C.C.K.}.4XeXeXeXeX.Xf P $.%.o.#.;.>.:.:.q.w.u.u.r.8.=.^ K.eXeXeXeXeXeXaXaXaXaXaXaXaXaXaXaXaX",
"aXaXaXaXaXaXaXaXaXeXeXeXeXoXC.5.O.*.*.*.*.O.7.R.8XeX4X' D ..$.$.$.:.%.>.:.q.i.A.P.Y.Y.I.G.] 6.eXeXeXeXeXeXeXaXaXaXaXaXaXaXaXaXaX",
"aXaXaXaXaXaXaXaXaXeXeXpXR.5.*.#.$.@.$.$.@.@.I _ x.#X}.m P #.%.%.%.:.:.:.q.i.A.T.+X@X&X+XW.n.z.8XeXeXeXeXeXeXaXaXaXaXaXaXaXaXaXaX",
"aXaXaXaXaXaXaXaXeXeX0XR.t.| ..@.@.@.@.@.@.@.R S L x.y.H ..%.$.%.:.>.>.q.m.D.P.OX5XyXH.W E.G.z.4XeXeXeXeXeXeXeXaXaXaXaXaXaXaXaXaX",
"aXaXaXaXaXaXaXaXeXeXoXy.&.@.%.@.%.%.:.:.%.%.@.Y S V ] K @.:.%.%.:.:.>.u.D.D.T.2XyXiXB.- I.W.7.}.eXeXeXeXeXeXeXaXaXaXaXaXaXaXaXaX",
"aXaXaXaXaXaXaXeXeX4XC. .@.%.@.%.a.Y.T.T.F.u.%.X.S F / P X.:.:.%.:.>.<.Z.F.P.E.$XuXiXN.  B.*XM.7.7XeXeXeXeXeXeXaXaXaXaXaXaXaXaXaX",
"aXaXaXaXaXaXaXeXeXR.] o.$.%.:.Z.@X5XuXuX%XOXA.;.P Z C H T :.:.$.:.>.w.Z.F.F.W.&XuXiX2XN..X6XQ.1.l d.3XeXeXeXeXaXaXaXaXaXaXaXaXaX",
"aXaXaXaXaXaXeXeX0Xv.) &.@.>.D.+XyXiXiXiXuX5X+XA.R D s n G @.:.:.%.:.e.A.F.Y.W.@XuXiXiXiXiX5X&X!.g . XXeXeXeXeXaXaXaXaXaXaXaXaXaX",
"aXaXaXaXaXaXeXeX#X6.U #.$.q.Q.6XiXiXuXuXiX6X%XQ.0.L u q A R :.>.:.:.w.Z.F.P.T.+XuXiXiXiXiXiX$XOX!.! 1XeXeXeXeXaXaXaXaXaXaXaXaXaX",
"aXaXaXaXaXaXeXeXR.1.J #.:.i.OXuX}.S.n.I.yXyX%X+XF.[ 6 7 b F @.:.:.:.q.a.F.Y.T.OX6XiXiXiXiXiX$XQ.E.B.9XeXeXeXeXaXaXaXaXaXaXaXaXaX",
"aXaXaXaXaXaXeXeXH.' F ..:.D.%X5X8.u 6 5 S.*X$X$XQ.=.d # q A G ..;.:.>.u.F.Y.W.Q.%XiXiXiXiX2XQ.E.S..XeXeXeXeXeXaXaXaXaXaXaXaXaXaX",
"aXaXaXaXaXaXeXeXc.` D R :.F.%X5X*.V 4.3 5 Y.$X2X&Xi.V ; 7 b b G T @.;.q.Z.Y.T.Q.+XuXiXuX%X XT.M.!.eXeXeXeXeXaXaXaXaXaXaXaXaXaXaX",
"aXaXaXaXaXaXeXeXc.W v R :.Z.OX6XQ.T.G.( < 7.+X$X$XD.[ u @ 9 v Z H T ..%.w.D.T.W.OX$X2X&XOXF.t.M.9XeXeXeXeXeXaXaXaXaXaXaXaXaXaXaX",
"aXaXaXaXaXaXeXeXH.W e G #.e.T.%XiX5XS.) u k E.&X&XD.@.J , > 9 n n D K P o.,.m.P.U.P.P.G.n.2.7.9XeXeXeXeXeXaXaXaXaXaXaXaXaXaXaXaX",
"aXaXaXaXaXaXeXeXK.~ # v G &.a.Y.T.A.*.J i d E.@XOXu.@.K t ; , 0 9 y M J Y R *.t.t.2.2.2.7.|.9XeXeXeXeXeXaXaXaXaXaXaXaXaXaXaXaXaX",
"aXaXaXaXaXaXeXeXL.d.@ e b G X.:.<.#.U F 7 ' W.Q.F.<.R D y 9 y y y f C [ &...,.y.y.2.2.!.1X0XeXeXeXeXeXaXaXaXaXaXaXaXaXaXaXaXaXaX",
"aXaXaXaXaXaXeXeX:XJ.l @ q Z m K K F H m > n.W.T.D.<.P 9 q w w J T } | ,.>.:.w.Z.G.t.2.8XeXeXeXeXeXeXeXaXaXaXaXaXaXaXaXaXaXaXaXaX",
"aXaXaXaXaXaXeXeXeX#XJ.l @ q n n v m m # ` E.T.Y.u.$.D 9 w v H %.<.:.r.9.0.w.e.Z.n.n.O.R.eXeXeXeXeXeXeXaXaXaXaXaXaXaXaXaXaXaXaXaX",
"aXaXaXaXaXaXeXeXeXeX8Xd.l @ # # # # # c Y.Q.W.D.%.R i q n H R q.e.r.8.) O.0.u.u.] ' 8.O.|.eXeXeXeXeXeXeXaXaXaXaXaXaXaXaXaXaXaXaX",
"aXaXaXaXaXaXaXeXeXeXeX8XN.W E 4 k 5 N P.W.Y.F.w...m 9 q A G @.<.u.p.j s L ,.w.w.] ^ ) _ ] #XeXeXeXeXeXeXeXaXaXaXaXaXaXaXaXaXaXaX",
"aXaXaXaXaXaXaXeXeXeXeXeX8X'.K.c.L.'.R.$XY.Z.u.:.T M 9 w Z Y $.>.u.p.3 9 H o.0.w.q.( N N d ] [.eXeXeXeXeXeXeXaXaXaXaXaXaXaXaXaXaX",
"aXaXaXaXaXaXaXaXeXeXeXeXeXeXwX4X8XpXuXQ.D.e.<.;.} i 0 v S R %.<.u.e.N , n F o.q.e.=.( / ; d ) oXeXeXeXeXeXeXaXaXaXaXaXaXaXaXaXaX",
"aXaXaXaXaXaXaXaXaXeXeXeXeXeXeXeXeXyX2XT.i.:.:.#.I t t v F X.:.:.w.e.-.u 7 w K ..-.-._ _ 6 # V 6.4XeXeXeXeXeXaXaXaXaXaXaXaXaXaXaX",
"aXaXaXaXaXaXaXaXaXaXeXeXeXeXeXeX0X7XOXD.w.>.%...F t 9 b G &.:.:.q.e.e.O.3 # a H G L ( _ 5 $ 0 ~ 3XeXeXeXeXeXaXaXaXaXaXaXaXaXaXaX",
"aXaXaXaXaXaXaXaXaXaXaXeXeXeXeXeXtX6XQ.Z.q.:.o.P D , y a G ..$.:.q.e.e.w.O.3 @ 8 y d (  .< o h [.eXeXeXeXeXaXaXaXaXaXaXaXaXaXaXaX",
"aXaXaXaXaXaXaXaXaXaXaXaXeXeXeXeXtX6XQ.i.>.;...K D > 7 a P R $.:.>.q.w.e.e.8.^ d N ( _ V 2 s.:XeXeXeXeXeXeXaXaXaXaXaXaXaXaXaXaXaX",
"aXaXaXaXaXaXaXaXaXaXaXaXaXeXeXeXtX6XT.u.>.;.o.K D > > a G Y ..:.>.q.q.e.e.u.u.p.0.+.{ a 5 XXeXeXeXeXeXeXaXaXaXaXaXaXaXaXaXaXaXaX",
"aXaXaXaXaXaXaXaXaXaXaXaXaXeXeXeXtX6XE.e.,.;...F a t > y a G P ..;.>.q.q.q.w.e.u.q.#.I p j :XeXeXeXeXeXeXaXaXaXaXaXaXaXaXaXaXaXaX",
"aXaXaXaXaXaXaXaXaXaXaXaXaXeXeXeX9X6XW.w.;.-.| J Z u ; t r A K Y R $.:.>.>.q.q.q.>...J 7 ' eXeXeXeXeXeXaXaXaXaXaXaXaXaXaXaXaXaXaX",
"aXaXaXaXaXaXaXaXaXaXaXaXaXaXeXeX9X6XQ.u.-.-.o.J a s ; ; y r A K I T ..o.$.o.$.o.I P M @ ! eXeXeXeXeXeXaXaXaXaXaXaXaXaXaXaXaXaXaX",
"aXaXaXaXaXaXaXaXaXaXaXaXaXaXeXeX0XyX&Xm.0.| [ a a Z u = 1 p A A G P P P T Y T P S D > 2 J.eXeXeXeXeXaXaXaXaXaXaXaXaXaXaXaXaXaXaX",
"aXaXaXaXaXaXaXaXaXaXaXaXaXaXeXeXeXtX2XM.8.+.[ f a a u : = : i Z S S S S S G Y J s ; 2 ^ x.3XeXeXeXeXeXaXaXaXaXaXaXaXaXaXaXaXaXaX",
"aXaXaXaXaXaXaXaXaXaXaXaXaXaXeXeXeXeX7Xv.1.] ( f i t < : % X X d T P P G M f 6 < % % / -.) N.wXeXeXeXeXaXaXaXaXaXaXaXaXaXaXaXaXaX",
"aXaXaXaXaXaXaXaXaXaXaXaXaXaXaXeXeXeXeX1Xv.k 4 d 2 = % % * x - = L } -.,.O.^ j k & , G J E b.<XeXeXeXeXaXaXaXaXaXaXaXaXaXaXaXaXaX",
"aXaXaXaXaXaXaXaXaXaXaXaXaXaXaXeXeXeXeXeXqX'.z.E k h g ~ h.^.s.X y F [ o.-.#.#.,.d + $ + l J.;X>XeXeXeXaXaXaXaXaXaXaXaXaXaXaXaXaX",
"aXaXaXaXaXaXaXaXaXaXaXaXaXaXaXaXeXeXeXeXqX;X=X_.^.k.k.^.^.g.l.Q O 8 s C L m F V h Q W s.V._.-X>XeXeXeXaXaXaXaXaXaXaXaXaXaXaXaXaX",
"aXaXaXaXaXaXaXaXaXaXaXaXaXaXaXaXaXeXeXeXwX,X;X(.].^.^.j.g.j.g.f.l = X X @ : : & d.h.h.j.(.=X;XqXeXeXeXaXaXaXaXaXaXaXaXaXaXaXaXaX",
"aXaXaXaXaXaXaXaXaXaXaXaXaXaXaXaXaXeXeXeXeXwX>X<X=X=X].)./.^.^.^.g.k.l.l.f.Q Q f./.).).(.-X<XqXeXeXeXeXaXaXaXaXaXaXaXaXaXaXaXaXaX",
"aXaXaXaXaXaXaXaXaXaXaXaXaXaXaXaXaXaXeXeXeXeXeXwX>X<X<X-X-X-X-X`.`.`.).(.`.-X-X-X;X;X<X,XqXwXeXeXeXeXaXaXaXaXaXaXaXaXaXaXaXaXaXaX",
"aXaXaXaXaXaXaXaXaXaXaXaXaXaXaXaXaXaXaXeXeXeXeXeXeXwXwXwXqX>X>X>X,X<X,X,X>X>X>XqXqXeXeXeXeXeXeXeXeXaXaXaXaXaXaXaXaXaXaXaXaXaXaXaX",
"aXaXaXaXaXaXaXaXaXaXaXaXaXaXaXaXaXaXaXaXaXeXeXeXeXeXeXeXeXeXeXeXeXeXeXeXeXeXeXeXeXeXeXeXeXeXeXaXaXaXaXaXaXaXaXaXaXaXaXaXaXaXaXaX",
"aXaXaXaXaXaXaXaXaXaXaXaXaXaXaXaXaXaXaXaXaXaXaXaXeXeXeXeXeXeXeXeXeXeXeXeXeXeXeXeXeXeXeXeXaXaXaXaXaXaXaXaXaXaXaXaXaXaXaXaXaXaXaXaX",
"aXaXaXaXaXaXaXaXaXaXaXaXaXaXaXaXaXaXaXaXaXaXaXaXaXaXaXaXaXaXaXaXaXaXaXaXaXaXaXaXaXaXaXaXaXaXaXaXaXaXaXaXaXaXaXaXaXaXaXaXaXaXaXaX",
"aXaXaXaXaXaXaXaXaXaXaXaXaXaXaXaXaXaXaXaXaXaXaXaXaXaXaXaXaXaXaXaXaXaXaXaXaXaXaXaXaXaXaXaXaXaXaXaXaXaXaXaXaXaXaXaXaXaXaXaXaXaXaXaX",
"aXaXaXaXaXaXaXaXaXaXaXaXaXaXaXaXaXaXaXaXaXaXaXaXaXaXaXaXaXaXaXaXaXaXaXaXaXaXaXaXaXaXaXaXaXaXaXaXaXaXaXaXaXaXaXaXaXaXaXaXaXaXaXaX",
"aXaXaXaXaXaXaXaXaXaXaXaXaXaXaXaXaXaXaXaXaXaXaXaXaXaXaXaXaXaXaXaXaXaXaXaXaXaXaXaXaXaXaXaXaXaXaXaXaXaXaXaXaXaXaXaXaXaXaXaXaXaXaXaX"
};
