/* XPM */
static char *result[] = {
/* columns rows colors chars-per-pixel */
"64 64 198 2 ",
"   c #516B6F",
".  c #446E78",
"X  c #446C74",
"o  c #4B757E",
"O  c #42717D",
"+  c #577477",
"@  c #637D7F",
"#  c #457683",
"$  c #497783",
"%  c #4B7A86",
"&  c #4B7D8C",
"*  c #457C8C",
"=  c #527C85",
"-  c #527E8A",
";  c #677F80",
":  c #54818C",
">  c #5C868F",
",  c #468193",
"<  c #4B8394",
"1  c #4C8799",
"2  c #4D899D",
"3  c #548593",
"4  c #5C8A97",
"5  c #508798",
"6  c #528B9D",
"7  c #598C9B",
"8  c #5C909E",
"9  c #6B898E",
"0  c #678990",
"q  c #6B8C93",
"w  c #608D99",
"e  c #62909D",
"r  c #6A919B",
"t  c #6F9095",
"y  c #7A949B",
"u  c #7F9A9F",
"i  c #74959F",
"p  c #4E8EA3",
"a  c #528EA2",
"s  c #4F91A7",
"d  c #4E92A9",
"f  c #5291A5",
"g  c #5C92A3",
"h  c #5395AB",
"j  c #5A96AA",
"k  c #5598AF",
"l  c #5B99AD",
"z  c #559AB2",
"x  c #5C9DB3",
"c  c #6394A3",
"v  c #6197A8",
"b  c #639AAB",
"n  c #6B9DAC",
"m  c #6B98A5",
"M  c #739AA6",
"N  c #7E9EA5",
"B  c #729FAD",
"V  c #799EA9",
"C  c #639DB1",
"Z  c #699FB1",
"A  c #5EA0B7",
"S  c #5EA2B9",
"D  c #73A1AF",
"F  c #63A1B6",
"G  c #6CA2B4",
"H  c #64A4BB",
"J  c #6BA6BB",
"K  c #67A8BE",
"L  c #6AA9BF",
"P  c #73A4B4",
"I  c #7CA5B2",
"U  c #73AABC",
"Y  c #7CABBB",
"T  c #76A8B8",
"R  c #6CACC2",
"E  c #72AEC2",
"W  c #7BAFC1",
"Q  c #74B1C6",
"!  c #7BB2C5",
"~  c #76B3C9",
"^  c #7AB6CB",
"/  c #7CB9CE",
"(  c #7EBBD0",
")  c #819EA3",
"_  c #84A1A5",
"`  c #8AA1A6",
"'  c #86A5AA",
"]  c #8AA5AB",
"[  c #8DA9AD",
"{  c #91ACAF",
"}  c #84AEBA",
"|  c #89AEBA",
" . c #81A7B1",
".. c #93ADB3",
"X. c #96AFB7",
"o. c #86B1BD",
"O. c #8BB1BD",
"+. c #96B0B2",
"@. c #9AB3B5",
"#. c #94B4BE",
"$. c #9CB6B9",
"%. c #9BB8B8",
"&. c #ACB7BC",
"*. c #A1BBBE",
"=. c #A6B7BD",
"-. c #84B4C4",
";. c #8CB6C3",
":. c #84BACC",
">. c #89BBCC",
",. c #89B8C8",
"<. c #91B5C2",
"1. c #93BAC6",
"2. c #9BBAC5",
"3. c #94BCC9",
"4. c #9BBECA",
"5. c #83BDD2",
"6. c #8ABFD0",
"7. c #A3BFC1",
"8. c #AEBEC5",
"9. c #95C0CE",
"0. c #9BC2CE",
"q. c #87C0D4",
"w. c #8BC2D5",
"e. c #91C5D6",
"r. c #9CC5D2",
"t. c #93C6D8",
"y. c #97C9DA",
"u. c #9BCADB",
"i. c #A5C3C5",
"p. c #A8C5C7",
"a. c #A6C3CC",
"s. c #ABC4CB",
"d. c #ABC9CD",
"f. c #B3C5CB",
"g. c #A6C6D1",
"h. c #A4C8D3",
"j. c #ACCCD4",
"k. c #A3CEDC",
"l. c #ACCED8",
"z. c #A9C7D1",
"x. c #B3CCD3",
"c. c #B9CDD4",
"v. c #A5D0DF",
"b. c #AFD1DA",
"n. c #B4D1D4",
"m. c #BCD0D4",
"M. c #B3D2DA",
"N. c #B7D8D9",
"B. c #BBDBDD",
"V. c #BAD5DD",
"C. c #ACD4E1",
"Z. c #B1D6E3",
"A. c #B8D7E1",
"S. c #B6D9E4",
"D. c #BBDBE5",
"F. c #BEDDE8",
"G. c #BFE0E2",
"H. c #C0CED1",
"J. c #C2D1D7",
"K. c #C2D5DC",
"L. c #C9D6DA",
"P. c #C2DBDE",
"I. c #CDDADD",
"U. c #D3DDDF",
"Y. c #C2DDE3",
"T. c #CADDE3",
"R. c #C2DFE9",
"E. c #D7DDE1",
"W. c #C4E2E5",
"Q. c #C5E1EA",
"!. c #CBE4EB",
"~. c #CCE9EB",
"^. c #CBE2E4",
"/. c #DAE0E3",
"(. c #D2E7ED",
"). c #DAE7EA",
"_. c #D3EBEE",
"`. c #DAEAED",
"'. c #D1E3E6",
"]. c #D5ECF1",
"[. c #DCEDF2",
"{. c #D6F0F1",
"}. c #DCF3F5",
"|. c #E2E6E9",
" X c #E4EAED",
".X c #E6E7E9",
"XX c #E2EEF3",
"oX c #E4F1F5",
"OX c #ECF3F6",
"+X c #E4F6F9",
"@X c #EDF6F8",
"#X c #E4F9FA",
"$X c #EBFBFC",
"%X c #F2F4F5",
"&X c #F2F7F8",
"*X c #F4FAFB",
"=X c #FDFEFE",
"-X c None",
/* pixels */
"-X-X-X-X-X-X-X-X-X-X-X-X-X-X-X-X-X-X-X-X-X-X-X-X-X-X-X-X-X-X-X-X-X-X-X-X-X-X-X-X-X-X-X-X-X-X-X-X-X-X-X-X-X-X-X-X-X-X-X-X-X-X-X-X",
"-X-X-X-X-X-X-X-X-X-X-X-X-X-X-X-X-X-X-X-X-X-X-X-X-X-X-X-X-X-X-X-X-X-X-X-X-X-X-X-X-X-X-X-X-X-X-X-X-X-X-X-X-X-X-X-X-X-X-X-X-X-X-X-X",
"-X-X-X-X-X-X-X-X-X-X-X-X-X-X-X-X-X-X-X-X-X-X-X-X-X-X-X-X-X-X-X-X-X-X-X-X-X-X-X-X-X-X-X-X-X-X-X-X-X-X-X-X-X-X-X-X-X-X-X-X-X-X-X-X",
"-X-X-X-X-X-X-X-X-X-X-X-X-X-X-X-X-X-X-X-X-X-X-X-X-X-X-X-X-X-X-X-X-X-X-X-X-X-X-X-X-X-X-X-X-X-X-X-X-X-X-X-X-X-X-X-X-X-X-X-X-X-X-X-X",
"-X-X-X-X-X-X-X-X-X-X-X-X-X-X-X-X-X-X-X-X-X-X-X-X-X-X-X-X-X-X-X-X-X-X-X-X-X-X-X-X-X-X-X-X-X-X-X-X-X-X-X-X-X-X-X-X-X-X-X-X-X-X-X-X",
"-X-X-X-X-X-X-X-X-X-X-X-X-X-X-X-X-X-X-X-X-X-X-X-X-X-X-X-X-X-X-X-X-X-X-X-X-X-X-X-X-X-X-X-X-X-X-X-X-X-X-X-X-X-X-X-X-X-X-X-X-X-X-X-X",
"-X-X-X-X-X-X-X-X-X-X-X-X-X-X-X-X-X-X-X-X-X-X-X-X-X-X-X-X-X-X-X-X-X-X-X-X-X-X-X-X-X-X-X-X-X-X-X-X-X-X-X-X-X-X-X-X-X-X-X-X-X-X-X-X",
"-X-X-X-X-X-X-X-X-X-X-X-X-X-X-X-X-X-X-X-X-X-X$XoX$X-X-X-X-X-X-X-X-X-X-X-X-X-X-X-X-X-X-X-X-X-X-X-X-X-X-X-X-X-X-X-X-X-X-X-X-X-X-X-X",
"-X-X-X-X-X-X-X-X-X-X-X-X-X-X-X-X-X-X-X-X-X$X|.s.XX-X-X-X-X-X@X@X$X-X-X-X-X-X-X-X-X-X-X-X-X-X-X-X-X-X-X-X-X-X-X-X-X-X-X-X-X-X-X-X",
"-X-X-X-X-X-X-X-X-X-X-X-X-X-X-X-X-X-X-X-X-X X8.z 2.OX-X-X-XOXf.&.OX-X-X-X-X-X-X-X-X-X-X-X-X-X-X-X-X-X-X-X-X-X-X-X-X-X-X-X-X-X-X-X",
"-X-X-X-X-X-X-X-X-X-X-X-X-X-X-X-X-X-X-X-X-X X| F l s.@X-XOX2.G 1..X$X-X-X-X-X-X-X-X-X-X-X-X-X-X-X-X-X-X-X-X-X-X-X-X-X-X-X-X-X-X-X",
"-X-X-X-X-X-X-X-X-X-X-X-X-X-X-X-X-X-X-X-X-XXXY F k C J.OXg.E A.(.|.$X-X-X-X-X-X-X-X-X-X-X-X-X-X-X-X-X-X-X-X-X-X-X-X-X-X-X-X-X-X-X",
"-X-X-X-X-X-X-X-X-X-X-X-X-X-X-X-X-X-X-X-X-X X,.J k x B X.J e.OXOX X&X-X-X-X-X-X-X-X-X-X-X-X-X-X-X-X-X-X-X-X-X-X-X-X-X-X-X-X-X-X-X",
"-X-X-X-X-X-X-X-X-X-X-X-X-X-X-X-X-X-X-X-XOX8.G b c v c j W R.&XOX|.&X-X-X-X-X-X-X-X-X-X-X-X-X-X-X-X-X-X-X-X-X-X-X-X-X-X-X-X-X-X-X",
"-X-X-X-X-X-X-X-X-X-X-X-X-X-X-X-X-X-X-X@Xs.7 g Z U ! E T 0.(.@X[.x.`.-X-X-X-X-X-X-X-X-X-X-X-X-X-X-X-X-X-X-X-X-X-X-X-X-X-X-X-X-X-X",
"-X-X-X-X-X-X-X-X-X-X-X-X-X-X-X-X-X-X@Xf.b Z E E ~ ^ E W g.Y.(.Y. .<.J.-X-X-X-X-X-X-X-X-X-X-X-X-X-X-X-X-X-X-X-X-X-X-X-X-X-X-X-X-X",
"-X-X-X-X-X-X-X-X-X-X-X-X-X-X-X-X-X$Xf.m G J E ~ ( ( ^ W ,.3.h.3.Y J | K.-X-X-X-X-X-X-X-X-X$X$X-X-X-X-X-X-X-X-X-X-X-X-X-X-X-X-X-X",
"-X-X-X-X-X-X-X-X-X-X-X-X-X-X-X-X-XU.V Z Y W 5.6.w.q.5.( :.:.-.W ~ ~ G | XX-X-X-X-X-X+X_.!.Q.].}.$X$X-X-X-X-X-X-X-X-X-X-X-X-X-X-X",
"-X-X-X-X-X-X-X-X-X-X-X-X-X-X-X-X%X=.I 1.r.k.v.v.u.t.5.5.5.( ( ^ ^ ^ R l s.-X-X-X}.R.j.a.3.3.3.r.j.!.$X-X-X-X-X-X-X-X-X-X-X-X-X-X",
"-X-X-X-X-X-X-X-X-X-X-X-X-X-X-X-X%X..1.S.R.!.!.R.Z.u.t.5.( ( ( ( ^ ^ ~ H Z `.-XQ.0.-.U Q ! ! ~ ^ ! 3.b.#X-X-X-X-X-X-X-X-X-X-X-X-X",
"-X-X-X-X-X-X-X-X-X-X-X-X-X-X-X-X X$.l.R.T.).XX[.!.Z.v.t.q.( ( ( ( / ~ R x M.B.W G R Q ^ ^ ^ / ~ ~ Q ! h.{.-X-X-X-X-X-X-X-X-X-X-X",
"-X-X-X-X-X-X-X-X-X-X-X-X-X-X-X-XE.#.R.V.q c.&XOX[.S.Z.v.t.q.q.( ( ( ^ Q x -.;.C S R ^ ^ ^ / / ^ ^ ^ ~ ! j.].-X-X-X-X-X-X-X-X-X-X",
"-X-X-X-X-X-X-X-X-X-X-X-X-X-X-X%Xc.7.(.x.+ H.=X*X+XR.S.C.u.w.( q.( ( ( / H T S z R ^ ( t.y.t.w.5.^ ^ / ~ -.K.-X-X-X-X-X-X-X-X-X-X",
"-X-X-X-X-X-X-X-X-X-X-X-X-X$X+XL.-.A.XXf.  J.=X*X}.Q.D.Z.v.t.q.( ( ( ( Q H Z z S ~ q.C.Q.].].(.S.w.( ^ / E <.~.-X-X-X-X-X-X-X-X-X",
"-X-X-X-X-X-X-X-X-X-X-X-X-XE.9 + #.(.OXOXXX=X=X*X[.!.D.S.C.q.( q.( ( ^ R z l z K 6.S.].@X*X=X*XoXS.t.( ( ~ P c.$X-X-X-X-X-X-X-X-X",
"-X-X-X-X-X-X-X-X-X-X-X-X-XE.@ { T.XX%X=X=X=X=X*X[.Q.D.S.C.t.q.( ( 5.Q A d f A ! Z.[.OX*X=X=X=X&XoXF.6.^ ~ U <.[.-X-X-X-X-X-X-X-X",
"-X-X-X-X-X-X-X-X-X-X-X-X-X/.+.(.!.OX=X=X=X=X=X&X].Q.F.S.C.w.5.( 5.( K z p 6 J r.(.XX*X*XXXXX@X&X*X(.e.^ ^ J I !.-X-X-X-X-X-X-X-X",
"-X-X-X-X-X-X-X-X-X-X-X-X-X%Xf.R.!.[.*X=X=X=X=XOX!.Q.F.Z.u.w.5.( ( Q z h 1 5 U S.].XX@XXX8.} <.x.@X[.C.5.~ H n x.].-X-X-X-X-X-X-X",
"-X-X-X-X-X-X-X-X-X-X-X-X-X-X).c.F.!.oX*X=X=X*XoX(.Q.F.C.y.5.( ~ R x z p < g ,.!.oXXX].<.7 e g W [.oXS.5.Q F n 7.!.-X-X-X-X-X-X-X",
"-X-X-X-X-X-X-X-X-X-X-X-X-X-X-XT.g.A.(.oX@X=X&X(.!.F.S.u.5./ Q R z z d , < n k.[.oX[.M.w e ,.,.,.+X[.Z.6.E x m =.Y.-X-X-X-X-X-X-X",
"-X-X-X-X-X-X-X-X-X-X-X-X-X-X-X+XK.;.l.R.(.[.].!.Q.D.k.6.! R H x h d 2 & f E b.[.[.(.| 5 P M.].[.@X].v.5.R k r s.-X-X-X-X-X-X-X-X",
"-X-X-X-X-X-X-X-X-X-X-X-X-X-X-X-X+Xx.| 1.h.l.l.l.l.e.! R R x h d p 1 & 1 F ~ C.].[.R.w g Z 4.].OX[.S.w.Q F f i T.-X-X-X-X-X-X-X-X",
"-X-X-X-X-X-X-X-X-X-X-X-X-X-X-X-X-X$X`.a.} } o.1.3.^ R J F l 6 1 1 , & a x ~ t.!.[.R.n a C E u.C.C.e.~ x h , y '.-X-X-X-X-X-X-X-X",
"-X-X-X-X-X-X-X-X-X-X-X-X-X-X-X-X-X-X$X@XT.;.;.h.r.>.^ ^ U b l j f f p p f R 5.Z.R.!.;.& x C E ^ ~ R x h p $ =.}.-X-X-X-X-X-X-X-X",
"-X-X-X-X-X-X-X-X-X-X-X-X-X-X-X-X-X-X-X-X`.o.0.x.k.e.5.w.>.:.~ ~ R h d d p H 5.v.S.Q.l.3 a x x x x z h p % ` ).-X-X-X-X-X-X-X-X-X",
"-X-X-X-X-X-X-X-X-X-X-X-X-X-X-X-X-X-X-X#Xz.;.1.3.u.u.e.>.:.>.w.w./ F k h p k ~ e.S.R.Q.;.* f f s a f 1 # y I.-X-X-X-X-X-X-X-X-X-X",
"-X-X-X-X-X-X-X-X-X-X-X-X-X-X-X-X-X-X*Xa.T -.M T e.e.>.U G Y e.e.5.Q x h p 2 J ^ v.R.R.R.I & & - & % - ) J.-X-X-X-X-X-X-X-X-X-X-X",
"-X-X-X-X-X-X-X-X-X-X-X-X-X-X-X-X-X#Xx.P P G c :.e.e.-.F 6 e 9.u.q.~ R z a p l R 6.C.S.R.Q.<.[ _ ..7.x.(.+X-X-X-X-X-X-X-X-X-X-X-X",
"-X-X-X-X-X-X-X-X-X-X-X-X-X-X-X-X@Xs.B 4 b c U e.w.:.R x 1 7 e.y.q.( R z s 2 j R 5.e.u.S.].`.U.).[.-X-X-X-X-X-X-X-X-X-X-X-X-X-X-X",
"-X-X-X-X-X-X-X-X-X-X-X-X-X-X-X-Xx.U g & G n ,.e.5.E x s < F e.t.5.( R x h 2 a R ^ 5.t.C.!.&X=X$X-X-X-X-X-X-X-X-X-X-X-X-X-X-X-X-X",
"-X-X-X-X-X-X-X-X-X-X-X-X-X-X-X).' b * g Z Z W ~ K A f < g :.t.e.5.( ~ S h 1 2 H Q 5.5.y.S.XX&XOX-X-X-X-X-X-X-X-X-X-X-X-X-X-X-X-X",
"-X-X-X-X-X-X-X-X-X-X-X-X-X-X-X[.) 1 # 7 P Z C x k 2 < 8 ! e.t.w.5.( ~ H h 2 1 x R ! 5.e.C.(.&X@X-X-X-X-X-X-X-X-X-X-X-X-X-X-X-X-X",
"-X-X-X-X-X-X-X-X-X-X-X-X-X-X-X$XE.) . 3 J n g p , & c ,.y.t.e.w.( ^ R H z 1 & x H ~ ( 6.v.!.@X%X-X-X-X-X-X-X-X-X-X-X-X-X-X-X-X-X",
"-X-X-X-X-X-X-X-X-X-X-X-X-X-X-X-X*X#X&.3 b G P n D Y w.t.e.e.w.q.q.~ R S h 1 & z H ~ ( 6.u.R.@X%X-X-X-X-X-X-X-X-X-X-X-X-X-X-X-X-X",
"-X-X-X-X-X-X-X-X-X-X-X-X-X-X-X-X-X$XL.4 l J Q 6.y.t.e.t.t.w.q.5.( R H x d , & k x E :.5.u.R.OX%X-X-X-X-X-X-X-X-X-X-X-X-X-X-X-X-X",
"-X-X-X-X-X-X-X-X-X-X-X-X-X-X-X-X-X-X`.c a J ^ 6.e.w.w.w.w.q.5.~ R H S d p & 1 k x E ^ 5.e.F.@X%X-X-X-X-X-X-X-X-X-X-X-X-X-X-X-X-X",
"-X-X-X-X-X-X-X-X-X-X-X-X-X-X-X-X-X-X@XM 2 C R ^ q.q.q.( 5.^ Q R R x z d 1 & a f F ! ^ 5.e.R.%X%X-X-X-X-X-X-X-X-X-X-X-X-X-X-X-X-X",
"-X-X-X-X-X-X-X-X-X-X-X-X-X-X-X-X-X-X-X] & a x R R Q Q Q Q Q R K S z d p % & f k x E ! ^ u.!.&X%X-X-X-X-X-X-X-X-X-X-X-X-X-X-X-X-X",
"-X-X-X-X-X-X-X-X-X-X-X-X-X-X-X-X-X-X-Xs.: & f C H K H K K H H S A k 6 < # 5 j h j G E >.k.`.*X-X-X-X-X-X-X-X-X-X-X-X-X-X-X-X-X-X",
"-X-X-X-X-X-X-X-X-X-X-X-X-X-X-X-X-X-XJ.O.P > & a x H F x x z z S k 1 % O % 5 f h l G ! ,.s. X%X-X-X-X-X-X-X-X-X-X-X-X-X-X-X-X-X-X",
"-X-X-X-X-X-X-X-X-X-X-X-X-X-X-X-X-X-X2.T W G $ X - > g l K R R J 4 . o o $ & < 6 v n B ' f.XX-X-X-X-X-X-X-X-X-X-X-X-X-X-X-X-X-X-X",
"-X-X-X-X-X-X-X-X-X-X-X-X-X-X-X-X-X~.p.w j z , - n m P ! :.! J C 3 q u 9 o o o : 4 r M x..X-X-X-X-X-X-X-X-X-X-X-X-X-X-X-X-X-X-X-X",
"-X-X-X-X-X-X-X-X-X-X-X-X-X-X-X-X~.G.d.u : * O e ! E E W U F h 5 q u _ ' ] _ _ V ' n.}.-X-X-X-X-X-X-X-X-X-X-X-X-X-X-X-X-X-X-X-X-X",
"-X-X-X-X-X-X-X-X-X-X-X-X-X-X-X~.W.N.p.%.+.%.{ q v h j j a 6 1 > _ N ) ' { @.7.m.^.~.#X$X-X-X-X-X-X-X-X-X-X-X-X-X-X-X-X-X-X-X-X-X",
"-X-X-X-X-X-X-X-X-X-X-X-X-X-X-XW.W.B.j.*.%.$.$.=.t : - % o o 9 ` [ ] [ { @.%.i.n.W.~.#X-X-X-X-X-X-X-X-X-X-X-X-X-X-X-X-X-X-X-X-X-X",
"-X-X-X-X-X-X-X-X-X-X-X-X-X-X-X-XG.G.N.p.i.*.$.%.+.+.@.%.=.%.%.@.+.+.@.%.*.i.x.B.~.{.-X-X-X-X-X-X-X-X-X-X-X-X-X-X-X-X-X-X-X-X-X-X",
"-X-X-X-X-X-X-X-X-X-X-X-X-X-X-X-X~.W.G.N.N.j.d.p.p.p.i.7.%.i.i.p.p.p.p.d.j.N.W.~.}.}.-X-X-X-X-X-X-X-X-X-X-X-X-X-X-X-X-X-X-X-X-X-X",
"-X-X-X-X-X-X-X-X-X-X-X-X-X-X-X-X-X-X~.~.~.~.W.W.W.W.B.B.B.B.B.G.G.B.B.B.G.W.{.}.-X-X-X-X-X-X-X-X-X-X-X-X-X-X-X-X-X-X-X-X-X-X-X-X",
"-X-X-X-X-X-X-X-X-X-X-X-X-X-X-X-X-X-X-X-X-X-X-X_._.{.{.{.{.{.{.{.{.{.{.{.{.-X-X-X-X-X-X-X-X-X-X-X-X-X-X-X-X-X-X-X-X-X-X-X-X-X-X-X",
"-X-X-X-X-X-X-X-X-X-X-X-X-X-X-X-X-X-X-X-X-X-X-X-X-X-X-X-X-X-X-X-X-X-X-X-X-X-X-X-X-X-X-X-X-X-X-X-X-X-X-X-X-X-X-X-X-X-X-X-X-X-X-X-X",
"-X-X-X-X-X-X-X-X-X-X-X-X-X-X-X-X-X-X-X-X-X-X-X-X-X-X-X-X-X-X-X-X-X-X-X-X-X-X-X-X-X-X-X-X-X-X-X-X-X-X-X-X-X-X-X-X-X-X-X-X-X-X-X-X",
"-X-X-X-X-X-X-X-X-X-X-X-X-X-X-X-X-X-X-X-X-X-X-X-X-X-X-X-X-X-X-X-X-X-X-X-X-X-X-X-X-X-X-X-X-X-X-X-X-X-X-X-X-X-X-X-X-X-X-X-X-X-X-X-X",
"-X-X-X-X-X-X-X-X-X-X-X-X-X-X-X-X-X-X-X-X-X-X-X-X-X-X-X-X-X-X-X-X-X-X-X-X-X-X-X-X-X-X-X-X-X-X-X-X-X-X-X-X-X-X-X-X-X-X-X-X-X-X-X-X",
"-X-X-X-X-X-X-X-X-X-X-X-X-X-X-X-X-X-X-X-X-X-X-X-X-X-X-X-X-X-X-X-X-X-X-X-X-X-X-X-X-X-X-X-X-X-X-X-X-X-X-X-X-X-X-X-X-X-X-X-X-X-X-X-X"
};
