/* XPM */
static char *result[] = {
/* columns rows colors chars-per-pixel */
"64 64 129 2 ",
"   c #7A979D",
".  c #7E9CA4",
"X  c #7C9FA9",
"o  c #7FA0A7",
"O  c #7FA2AC",
"+  c #7EA6B1",
"@  c #7FA8B5",
"#  c #85979A",
"$  c #869B9D",
"%  c #809DA3",
"&  c #8A9FA1",
"*  c #81A0A7",
"=  c #82A3AC",
"-  c #88A4A9",
";  c #8CA8AE",
":  c #93A5A6",
">  c #90A6AB",
",  c #90A8AB",
"<  c #81A6B1",
"1  c #83AAB5",
"2  c #8AACB5",
"3  c #83ADBB",
"4  c #8BAFBA",
"5  c #93ADB1",
"6  c #99ADB0",
"7  c #85B0BE",
"8  c #8CB1BD",
"9  c #96B1B5",
"0  c #9AB3B5",
"q  c #93B3BC",
"w  c #9DB6B9",
"e  c #9DB9BA",
"r  c #A2B5B9",
"t  c #A2BABD",
"y  c #85B3C3",
"u  c #8BB6C4",
"i  c #8DB8C7",
"p  c #86B7C8",
"a  c #88B7C8",
"s  c #87B8C9",
"d  c #8CBBCB",
"f  c #92B6C2",
"g  c #9BB7C0",
"h  c #95B9C5",
"j  c #9BBBC4",
"k  c #93BDCB",
"l  c #9ABECA",
"z  c #A2BEC1",
"x  c #ACBDC2",
"c  c #A5BFC8",
"v  c #94C0CF",
"b  c #9CC2CE",
"n  c #95C2D1",
"m  c #9BC5D4",
"M  c #9EC8D6",
"N  c #9DC9D8",
"B  c #A5C3C5",
"V  c #AAC4C6",
"C  c #A2C2CD",
"Z  c #AAC6CC",
"A  c #ABC9CB",
"S  c #B3C6CC",
"D  c #B8C7CA",
"F  c #A3C6D2",
"G  c #ADC7D1",
"H  c #A3C9D5",
"J  c #ACCAD3",
"K  c #A2CDDB",
"L  c #ABCEDA",
"P  c #B2CCD3",
"I  c #BBCDD4",
"U  c #B5CFD8",
"Y  c #A6D1DF",
"T  c #AAD1DF",
"R  c #B5D3D5",
"E  c #BBD2D6",
"W  c #B5D2DB",
"Q  c #BCD4DC",
"!  c #B7D8D9",
"~  c #BBDBDE",
"^  c #ACD3E1",
"/  c #B2D6E3",
"(  c #B9D6E1",
")  c #B6D8E4",
"_  c #BCDBE5",
"`  c #BFDDE8",
"'  c #C2CCCF",
"]  c #C5CDD1",
"[  c #C6D2D6",
"{  c #C3D6DB",
"}  c #CAD6DB",
"|  c #C2DBDF",
" . c #CBD9DD",
".. c #D3DDDF",
"X. c #C4DDE3",
"o. c #CADDE2",
"O. c #C2DFE9",
"+. c #D3DFE3",
"@. c #C4E1E4",
"#. c #CDE4E6",
"$. c #C6E3EA",
"%. c #CCE5EC",
"&. c #CCE9EA",
"*. c #D3E2E6",
"=. c #D9E4E6",
"-. c #D3E6EC",
";. c #DDE7E9",
":. c #D3EBEE",
">. c #D9EAEE",
",. c #D5EAF0",
"<. c #DBECF2",
"1. c #D7F0F2",
"2. c #DCF3F5",
"3. c #E2E7EA",
"4. c #E3EAEC",
"5. c #EAECEE",
"6. c #E2EEF2",
"7. c #E9EDF0",
"8. c #E4F1F5",
"9. c #EAF3F5",
"0. c #E0F6F8",
"q. c #ECF6F8",
"w. c #E5F9FB",
"e. c #EBFBFD",
"r. c #F3F5F6",
"t. c #F2F7F9",
"y. c #F4F9FA",
"u. c #FCFDFE",
"i. c None",
/* pixels */
"i.i.i.i.i.i.i.i.i.i.i.i.i.i.i.i.i.i.i.i.i.i.i.i.i.i.i.i.i.i.i.i.i.i.i.i.i.i.i.i.i.i.i.i.i.i.i.i.i.i.i.i.i.i.i.i.i.i.i.i.i.i.i.i.",
"i.i.i.i.i.i.i.i.i.i.i.i.i.i.i.i.i.i.i.i.i.i.i.i.i.i.i.i.i.i.i.i.i.i.i.i.i.i.i.i.i.i.i.i.i.i.i.i.i.i.i.i.i.i.i.i.i.i.i.i.i.i.i.i.",
"i.i.i.i.i.i.i.i.i.i.i.i.i.i.i.i.i.i.i.i.i.i.i.i.i.i.i.i.i.i.i.i.i.i.i.i.i.i.i.i.i.i.i.i.i.i.i.i.i.i.i.i.i.i.i.i.i.i.i.i.i.i.i.i.",
"i.i.i.i.i.i.i.i.i.i.i.i.i.i.i.i.i.i.i.i.i.i.i.i.i.i.i.i.i.i.i.i.i.i.i.i.i.i.i.i.i.i.i.i.i.i.i.i.i.i.i.i.i.i.i.i.i.i.i.i.i.i.i.i.",
"i.i.i.i.i.i.i.i.i.i.i.i.i.i.i.i.i.i.i.i.i.i.i.i.i.i.i.i.i.i.i.i.i.i.i.i.i.i.i.i.i.i.i.i.i.i.i.i.i.i.i.i.i.i.i.i.i.i.i.i.i.i.i.i.",
"i.i.i.i.i.i.i.i.i.i.i.i.i.i.i.i.i.i.i.i.i.i.i.i.i.i.i.i.i.i.i.i.i.i.i.i.i.i.i.i.i.i.i.i.i.i.i.i.i.i.i.i.i.i.i.i.i.i.i.i.i.i.i.i.",
"i.i.i.i.i.i.i.i.i.i.i.i.i.i.i.i.i.i.i.i.i.i.i.i.i.i.i.i.i.i.i.i.i.i.i.i.i.i.i.i.i.i.i.i.i.i.i.i.i.i.i.i.i.i.i.i.i.i.i.i.i.i.i.i.",
"i.i.i.i.i.i.i.i.i.i.i.i.i.i.i.i.i.i.i.i.i.i.i.i.i.i.i.i.i.i.i.i.i.i.i.i.i.i.i.e.w.e.i.i.i.i.i.i.i.i.i.i.i.i.i.i.i.i.i.i.i.i.i.i.",
"i.i.i.i.i.i.i.i.i.i.i.i.i.i.i.i.i.i.i.i.i.i.i.i.i.i.i.i.i.i.i.e.q.e.i.i.i.i.i.9.[ 5.q.i.i.i.i.i.i.i.i.i.i.i.i.i.i.i.i.i.i.i.i.i.",
"i.i.i.i.i.i.i.i.i.i.i.i.i.i.i.i.i.i.i.i.i.i.i.i.i.i.i.i.i.i.i.r.] } q.i.i.i.t.I s { 9.i.i.i.i.i.i.i.i.i.i.i.i.i.i.i.i.i.i.i.i.i.",
"i.i.i.i.i.i.i.i.i.i.i.i.i.i.i.i.i.i.i.i.i.i.i.i.i.i.i.i.i.i.e.5.P l E q.i.e.{ i k G 9.i.i.i.i.i.i.i.i.i.i.i.i.i.i.i.i.i.i.i.i.i.",
"i.i.i.i.i.i.i.i.i.i.i.i.i.i.i.i.i.i.i.i.i.i.i.i.i.i.i.i.i.i.e.5.<.-.n X.t.+.i p k C 9.i.i.i.i.i.i.i.i.i.i.i.i.i.i.i.i.i.i.i.i.i.",
"i.i.i.i.i.i.i.i.i.i.i.i.i.i.i.i.i.i.i.i.i.i.i.i.i.i.i.i.i.i.y.9.t.q.( k S j i i n L 9.i.i.i.i.i.i.i.i.i.i.i.i.i.i.i.i.i.i.i.i.i.",
"i.i.i.i.i.i.i.i.i.i.i.i.i.i.i.i.i.i.i.i.i.i.i.i.i.i.i.i.i.i.e.7.t.u.-.H f f f f f l [ q.i.i.i.i.i.i.i.i.i.i.i.i.i.i.i.i.i.i.i.i.",
"i.i.i.i.i.i.i.i.i.i.i.i.i.i.i.i.i.i.i.i.i.i.i.i.i.i.i.i.i.i.6. .8.t.6.Q m m F n k q 8 [ q.i.i.i.i.i.i.i.i.i.i.i.i.i.i.i.i.i.i.i.",
"i.i.i.i.i.i.i.i.i.i.i.i.i.i.i.i.i.i.i.i.i.i.i.i.i.i.i.i.i.+.P Z -.6.-.( F m K K m m h i  .e.i.i.i.i.i.i.i.i.i.i.i.i.i.i.i.i.i.i.",
"i.i.i.i.i.i.i.i.i.i.i.i.i.i.i.i.i.e.e.i.i.i.i.i.i.i.i.i.*.Z k H U X.Q H H K Y Y H m k l q } q.i.i.i.i.i.i.i.i.i.i.i.i.i.i.i.i.i.",
"i.i.i.i.i.i.i.i.i.i.i.i.i.i.e.e.w.2.,.,.2.w.i.i.i.i.i.8.Z v N N F K L Y Y Y ^ ^ ^ Y H F j z 4.i.i.i.i.i.i.i.i.i.i.i.i.i.i.i.i.i.",
"i.i.i.i.i.i.i.i.i.i.i.i.i.e.<._ / W W P Q  .:.0.i.i.i.{ i N N K H Y K Y Y ^ / ) O.O._ ( W c I r.i.i.i.i.i.i.i.i.i.i.i.i.i.i.i.i.",
"i.i.i.i.i.i.i.i.i.i.i.i.w.O.U H H H N H H m H Q :.i.8.k k N K K Y K Y Y ^ ^ ` $.,.<.<.<.$.W S r.i.i.i.i.i.i.i.i.i.i.i.i.i.i.i.i.",
"i.i.i.i.i.i.i.i.i.i.i.2._ H N N K K K K K N n v F $.o.d n N K K K Y Y ^ / ` $.,.8.q.6.-.-.X.I 9.i.i.i.i.i.i.i.i.i.i.i.i.i.i.i.i.",
"i.i.i.i.i.i.i.i.i.i.2.X.H N K K K K K N N K N k k L J k N K Y Y Y ^ ^ ^ O.%.-.8.t.y.o.6 -.-.D 4.i.i.i.i.i.i.i.i.i.i.i.i.i.i.i.i.",
"i.i.i.i.i.i.i.i.i.i.+.H H K K Y ^ ^ ) ) ^ ^ K n d d m n K Y K K Y Y ^ ) $.%.<.9.u.u.+.# o.<.Q o.y.i.i.i.i.i.i.i.i.i.i.i.i.i.i.i.",
"i.i.i.i.i.i.i.i.i.<.U m K K K ^ %.2.6.0.,.O.^ N d d d d N Y ^ K Y ^ / O.$.%.<.6.u.u.+.#  .9.o.G =.w.e.i.i.i.i.i.i.i.i.i.i.i.i.i.",
"i.i.i.i.i.i.i.i.e.o.C N K Y / %.q.y.u.u.q.8.%./ k a i a k Y Y K Y ^ / O.%.%.<.9.u.u.u.9.r.t.<.I - : 3.i.i.i.i.i.i.i.i.i.i.i.i.i.",
"i.i.i.i.i.i.i.i.2.P b K K ^ -.q.y.u.u.u.u.t.8.O.K k y a d N ^ Y Y Y / O.%.%.<.8.u.u.u.u.u.y.9.>.D : 3.i.i.i.i.i.i.i.i.i.i.i.i.i.",
"i.i.i.i.i.i.i.i.,.c v K Y / 2.y.y.t.9.q.u.y.9.<.) k 2 3 p n K ^ Y Y / ` $.,.,.2.y.u.u.u.u.u.t.<.>.D 4.i.i.i.i.i.i.i.i.i.i.i.i.i.",
"i.i.i.i.i.i.i.2.o.j k N Y O.8.y.o.P Z Q 9.y.9.0.%.m 2 @ p d N K Y Y ^ _ $.,.,.<.t.u.u.u.u.u.8.<.-.} r.i.i.i.i.i.i.i.i.i.i.i.i.i.",
"i.i.i.i.i.i.i.,.{ f k N L %.q.9.H 8 8 4 P 6.9.q.<.U u < 3 a a n N Y ^ ) $.,.,.,.q.u.u.u.u.q.<.-.o.8.i.i.i.i.i.i.i.i.i.i.i.i.i.i.",
"i.i.i.i.i.i.i.#.I q d N ^ $.9.q.J L L q q o.9.q.8._ l < @ y a a k N N ^ ` %.,.<.6.y.u.y.9.<.#.Q ;.i.i.i.i.i.i.i.i.i.i.i.i.i.i.i.",
"i.i.i.i.i.i.i.i.[ w a n L O.2.y.9.6.o.l 1 Z <.8.8.$.m y O 3 y a d k N N L O.%.,.,.8.8.6.,.X.P -.q.i.i.i.i.i.i.i.i.i.i.i.i.i.i.i.",
"i.i.i.i.i.i.i.i.-.w y d N ^ %.8.t.8.( l 4 q >.6.8.O.K k @ O @ y p s d k l H / O.X.X.X._ U G X.q.i.i.i.i.i.i.i.i.i.i.i.i.i.i.i.i.",
"i.i.i.i.i.i.i.i.,.r @ p d M / O.O.) F i 3 h ,.8.,./ N d @ @ @ @ y y u k k l K W P G Z G { 6.e.i.i.i.i.i.i.i.i.i.i.i.i.i.i.i.i.i.",
"i.i.i.i.i.i.i.i.8.] X 3 p d m K K m k a 1 J <.,.$.^ n y 3 7 7 y y y l l K K ^ ( X.L J -.e.e.i.i.i.i.i.i.i.i.i.i.i.i.i.i.i.i.i.i.",
"i.i.i.i.i.i.i.i.i.8.x * 3 y a s i a k y 1 o.,.%.` ^ d 7 y y p n H H K ^ ^ Y / O.X.W G 6.i.i.i.i.i.i.i.i.i.i.i.i.i.i.i.i.i.i.i.i.",
"i.i.i.i.i.i.i.i.i.i.=.r X 1 y y y y 3 1 G ,.,.%./ N y 7 y p n Y ^ ^ L L L / ) _ W U J { e.i.i.i.i.i.i.i.i.i.i.i.i.i.i.i.i.i.i.i.",
"i.i.i.i.i.i.i.i.i.i.i.*.t - = = = = < c -.,.,._ K n 3 y p s N ^ ) ^ c h l ^ ( / C g J m { e.i.i.i.i.i.i.i.i.i.i.i.i.i.i.i.i.i.i.",
"i.i.i.i.i.i.i.i.i.i.i.w.2. .E V x V P ,.,.%.$.^ N a 3 y p n K ^ ) U f y k K / / L f l j j o.e.i.i.i.i.i.i.i.i.i.i.i.i.i.i.i.i.i.",
"i.i.i.i.i.i.i.i.i.i.i.i.i.i.i.8.<.;.6.8.%.` / K n a 3 y s N K ^ ) / 2 3 a N ^ ^ / F f f 4 j { q.i.i.i.i.i.i.i.i.i.i.i.i.i.i.i.i.",
"i.i.i.i.i.i.i.i.i.i.i.i.i.i.i.i.e.u.y.<.O./ ^ L n 3 @ y s n K ^ ) / k 1 y d l L ^ L h l < 8 C +.i.i.i.i.i.i.i.i.i.i.i.i.i.i.i.i.",
"i.i.i.i.i.i.i.i.i.i.i.i.i.i.i.i.t.y.9.%.) ^ Y M v 2 @ p d N K ^ / / L u 1 y i k H M l l 8 + i x <.i.i.i.i.i.i.i.i.i.i.i.i.i.i.i.",
"i.i.i.i.i.i.i.i.i.i.i.i.i.i.i.i.r.y.6.O./ Y K n s 4 @ s n N K ^ ^ ) / H 4 < y y d k h l 4 X 1 t 8.i.i.i.i.i.i.i.i.i.i.i.i.i.i.i.",
"i.i.i.i.i.i.i.i.i.i.i.i.i.i.i.i.y.y.<.O.^ ^ M k s < 1 p v N K ^ ^ / ) ^ K f < + 4 u h k <   z 4.e.i.i.i.i.i.i.i.i.i.i.i.i.i.i.i.",
"i.i.i.i.i.i.i.i.i.i.i.i.i.i.i.i.y.r.,._ ^ K N k s = @ y d n N ^ ^ ^ ) ) / ^ c l h l l h 2 ] e.e.i.i.i.i.i.i.i.i.i.i.i.i.i.i.i.i.",
"i.i.i.i.i.i.i.i.i.i.i.i.i.i.i.i.y.t.-.) ^ K M d a = + y d n m K ^ ^ ^ ) / / ) ) ^ H l a 2 +.e.i.i.i.i.i.i.i.i.i.i.i.i.i.i.i.i.i.",
"i.i.i.i.i.i.i.i.i.i.i.i.i.i.i.i.y.t.-.) Y K M d p 1 O 7 p d v n K L ^ ^ / ^ / ^ ^ H k y f 6.i.i.i.i.i.i.i.i.i.i.i.i.i.i.i.i.i.i.",
"i.i.i.i.i.i.i.i.i.i.i.i.i.i.i.i.y.y.,.) K K H d y 4 + @ y p v n k N Y Y ^ Y ^ Y Y k k 3 z e.i.i.i.i.i.i.i.i.i.i.i.i.i.i.i.i.i.i.",
"i.i.i.i.i.i.i.i.i.i.i.i.i.i.i.i.r.y.,./ L L m d y p O + @ y s k k N m N N N N N k k y < x i.i.i.i.i.i.i.i.i.i.i.i.i.i.i.i.i.i.i.",
"i.i.i.i.i.i.i.i.i.i.i.i.i.i.i.i.i.y.9.X.L H l u u p 1 o 1 7 p s d v v n n n n v d 7 + ; { i.i.i.i.i.i.i.i.i.i.i.i.i.i.i.i.i.i.i.",
"i.i.i.i.i.i.i.i.i.i.i.i.i.i.i.i.i.r.9.{ J H k i y 7 1 * * * 1 a v d s d s d v h 8 = 2 l A *.i.i.i.i.i.i.i.i.i.i.i.i.i.i.i.i.i.i.",
"i.i.i.i.i.i.i.i.i.i.i.i.i.i.i.i.i.i.r. .B j h f 8 1 = * %     2 v n n v a 8 ; =   o l H C E i.i.i.i.i.i.i.i.i.i.i.i.i.i.i.i.i.i.",
"i.i.i.i.i.i.i.i.i.i.i.i.i.i.i.i.i.i.i.5.{ g q 2 = * . % , r , = d n H L H b h h - @ a i q Q :.i.i.i.i.i.i.i.i.i.i.i.i.i.i.i.i.i.",
"i.i.i.i.i.i.i.i.i.i.i.i.i.i.i.i.i.i.i.i.r.;.{ V j r e t t r r - 1 a v b m m m N q o 1 q z P ~ :.i.i.i.i.i.i.i.i.i.i.i.i.i.i.i.i.",
"i.i.i.i.i.i.i.i.i.i.i.i.i.i.i.i.i.i.i.i.e.w.:.#.E V r w w w e r = @ 7 8 i u i q 9 t t 9 9 A ! &.i.i.i.i.i.i.i.i.i.i.i.i.i.i.i.i.",
"i.i.i.i.i.i.i.i.i.i.i.i.i.i.i.i.i.i.i.i.i.2.&.@.R z e e e r e e e , - . o = = ; r w e e z A ! &.i.i.i.i.i.i.i.i.i.i.i.i.i.i.i.i.",
"i.i.i.i.i.i.i.i.i.i.i.i.i.i.i.i.i.i.i.i.i.i.1.&.| R V t e 0 0 0 0 w w e r 0 9 0 0 e e z A ! @.&.i.i.i.i.i.i.i.i.i.i.i.i.i.i.i.i.",
"i.i.i.i.i.i.i.i.i.i.i.i.i.i.i.i.i.i.i.i.i.i.0.2.:.@.~ ! R A A B B B B z t B V B B A R ! ~ @.:.i.i.i.i.i.i.i.i.i.i.i.i.i.i.i.i.i.",
"i.i.i.i.i.i.i.i.i.i.i.i.i.i.i.i.i.i.i.i.i.i.i.i.w.2.1.&.&.@.@.@.@.~ ~ ! ~ ~ @.@.@.&.&.&.,.1.i.i.i.i.i.i.i.i.i.i.i.i.i.i.i.i.i.i.",
"i.i.i.i.i.i.i.i.i.i.i.i.i.i.i.i.i.i.i.i.i.i.i.i.i.i.i.i.2.2.2.0.2.2.1.1.1.1.1.1.1.i.i.i.i.i.i.i.i.i.i.i.i.i.i.i.i.i.i.i.i.i.i.i.",
"i.i.i.i.i.i.i.i.i.i.i.i.i.i.i.i.i.i.i.i.i.i.i.i.i.i.i.i.i.i.i.i.i.i.i.i.i.i.i.i.i.i.i.i.i.i.i.i.i.i.i.i.i.i.i.i.i.i.i.i.i.i.i.i.",
"i.i.i.i.i.i.i.i.i.i.i.i.i.i.i.i.i.i.i.i.i.i.i.i.i.i.i.i.i.i.i.i.i.i.i.i.i.i.i.i.i.i.i.i.i.i.i.i.i.i.i.i.i.i.i.i.i.i.i.i.i.i.i.i.",
"i.i.i.i.i.i.i.i.i.i.i.i.i.i.i.i.i.i.i.i.i.i.i.i.i.i.i.i.i.i.i.i.i.i.i.i.i.i.i.i.i.i.i.i.i.i.i.i.i.i.i.i.i.i.i.i.i.i.i.i.i.i.i.i.",
"i.i.i.i.i.i.i.i.i.i.i.i.i.i.i.i.i.i.i.i.i.i.i.i.i.i.i.i.i.i.i.i.i.i.i.i.i.i.i.i.i.i.i.i.i.i.i.i.i.i.i.i.i.i.i.i.i.i.i.i.i.i.i.i.",
"i.i.i.i.i.i.i.i.i.i.i.i.i.i.i.i.i.i.i.i.i.i.i.i.i.i.i.i.i.i.i.i.i.i.i.i.i.i.i.i.i.i.i.i.i.i.i.i.i.i.i.i.i.i.i.i.i.i.i.i.i.i.i.i."
};
