/* XPM */
static char *result[] = {
/* columns rows colors chars-per-pixel */
"64 64 129 2 ",
"   c #7A979D",
".  c #7E9CA4",
"X  c #7C9FA9",
"o  c #7FA0A7",
"O  c #7FA2AC",
"+  c #7EA6B1",
"@  c #7FA8B5",
"#  c #85979A",
"$  c #869B9D",
"%  c #809DA3",
"&  c #8A9FA1",
"*  c #81A0A7",
"=  c #82A3AC",
"-  c #88A4A9",
";  c #8CA8AE",
":  c #93A5A6",
">  c #90A6AB",
",  c #90A8AB",
"<  c #81A6B1",
"1  c #83AAB5",
"2  c #8AACB5",
"3  c #83ADBB",
"4  c #8BAFBA",
"5  c #93ADB1",
"6  c #99ADB0",
"7  c #85B0BE",
"8  c #8CB1BD",
"9  c #96B1B5",
"0  c #9AB3B5",
"q  c #93B3BC",
"w  c #9DB6B9",
"e  c #9DB9BA",
"r  c #A2B5B9",
"t  c #A2BABD",
"y  c #85B3C3",
"u  c #8BB6C4",
"i  c #8DB8C7",
"p  c #86B7C8",
"a  c #88B7C8",
"s  c #87B8C9",
"d  c #8CBBCB",
"f  c #92B6C2",
"g  c #9BB7C0",
"h  c #95B9C5",
"j  c #9BBBC4",
"k  c #93BDCB",
"l  c #9ABECA",
"z  c #A2BEC1",
"x  c #ACBDC2",
"c  c #A5BFC8",
"v  c #94C0CF",
"b  c #9CC2CE",
"n  c #95C2D1",
"m  c #9BC5D4",
"M  c #9EC8D6",
"N  c #9DC9D8",
"B  c #A5C3C5",
"V  c #AAC4C6",
"C  c #A2C2CD",
"Z  c #AAC6CC",
"A  c #ABC9CB",
"S  c #B3C6CC",
"D  c #B8C7CA",
"F  c #A3C6D2",
"G  c #ADC7D1",
"H  c #A3C9D5",
"J  c #ACCAD3",
"K  c #A2CDDB",
"L  c #ABCEDA",
"P  c #B2CCD3",
"I  c #BBCDD4",
"U  c #B5CFD8",
"Y  c #A6D1DF",
"T  c #AAD1DF",
"R  c #B5D3D5",
"E  c #BBD2D6",
"W  c #B5D2DB",
"Q  c #BCD4DC",
"!  c #B7D8D9",
"~  c #BBDBDE",
"^  c #ACD3E1",
"/  c #B2D6E3",
"(  c #B9D6E1",
")  c #B6D8E4",
"_  c #BCDBE5",
"`  c #BFDDE8",
"'  c #C2CCCF",
"]  c #C5CDD1",
"[  c #C6D2D6",
"{  c #C3D6DB",
"}  c #CAD6DB",
"|  c #C2DBDF",
" . c #CBD9DD",
".. c #D3DDDF",
"X. c #C4DDE3",
"o. c #CADDE2",
"O. c #C2DFE9",
"+. c #D3DFE3",
"@. c #C4E1E4",
"#. c #CDE4E6",
"$. c #C6E3EA",
"%. c #CCE5EC",
"&. c #CCE9EA",
"*. c #D3E2E6",
"=. c #D9E4E6",
"-. c #D3E6EC",
";. c #DDE7E9",
":. c #D3EBEE",
">. c #D9EAEE",
",. c #D5EAF0",
"<. c #DBECF2",
"1. c #D7F0F2",
"2. c #DCF3F5",
"3. c #E2E7EA",
"4. c #E3EAEC",
"5. c #EAECEE",
"6. c #E2EEF2",
"7. c #E9EDF0",
"8. c #E4F1F5",
"9. c #EAF3F5",
"0. c #E0F6F8",
"q. c #ECF6F8",
"w. c #E5F9FB",
"e. c #EBFBFD",
"r. c #F3F5F6",
"t. c #F2F7F9",
"y. c #F4F9FA",
"u. c #FCFDFE",
"i. c None",
/* pixels */
"i.i.i.i.i.i.i.i.i.i.i.i.i.i.i.i.i.i.i.i.i.i.i.i.i.i.i.i.i.i.i.i.i.i.i.i.i.i.i.i.i.i.i.i.i.i.i.i.i.i.i.i.i.i.i.i.i.i.i.i.i.i.i.i.",
"i.i.i.i.i.i.i.i.i.i.i.i.i.i.i.i.i.i.i.i.i.i.i.i.i.i.i.i.i.i.i.i.i.i.i.i.i.i.i.i.i.i.i.i.i.i.i.i.i.i.i.i.i.i.i.i.i.i.i.i.i.i.i.i.",
"i.i.i.i.i.i.i.i.i.i.i.i.i.i.i.i.i.i.i.i.i.i.i.i.i.i.i.i.i.i.i.i.i.i.i.i.i.i.i.i.i.i.i.i.i.i.i.i.i.i.i.i.i.i.i.i.i.i.i.i.i.i.i.i.",
"i.i.i.i.i.i.i.i.i.i.i.i.i.i.i.i.i.i.i.i.i.i.i.i.i.i.i.i.i.i.i.i.i.i.i.i.i.i.i.i.i.i.i.i.i.i.i.i.i.i.i.i.i.i.i.i.i.i.i.i.i.i.i.i.",
"i.i.i.i.i.i.i.i.i.i.i.i.i.i.i.i.i.i.i.i.i.i.i.i.i.i.i.i.i.i.i.i.i.i.i.i.i.i.i.i.i.i.i.i.i.i.i.i.i.i.i.i.i.i.i.i.i.i.i.i.i.i.i.i.",
"i.i.i.i.i.i.i.i.i.i.i.i.i.i.i.i.i.i.i.i.i.i.i.i.i.i.i.i.i.i.i.i.i.i.i.i.i.i.i.i.i.i.i.i.i.i.i.i.i.i.i.i.i.i.i.i.i.i.i.i.i.i.i.i.",
"i.i.i.i.i.i.i.i.i.i.i.i.i.i.i.i.i.i.i.i.i.i.i.i.i.i.i.i.i.i.i.i.i.i.i.i.i.i.i.i.i.i.i.i.i.i.i.i.i.i.i.i.i.i.i.i.i.i.i.i.i.i.i.i.",
"i.i.i.i.i.i.i.i.i.i.i.i.i.i.i.i.i.i.i.i.i.i.e.q.e.i.i.i.i.i.i.i.i.i.i.i.i.i.i.i.i.i.i.i.i.i.i.i.i.i.i.i.i.i.i.i.i.i.i.i.i.i.i.i.",
"i.i.i.i.i.i.i.i.i.i.i.i.i.i.i.i.i.i.i.i.i.y.4.{ 9.i.i.i.i.i.e.q.e.i.i.i.i.i.i.i.i.i.i.i.i.i.i.i.i.i.i.i.i.i.i.i.i.i.i.i.i.i.i.i.",
"i.i.i.i.i.i.i.i.i.i.i.i.i.i.i.i.i.i.i.i.i.9.[ a I t.i.i.i.q.} ] t.i.i.i.i.i.i.i.i.i.i.i.i.i.i.i.i.i.i.i.i.i.i.i.i.i.i.i.i.i.i.i.",
"i.i.i.i.i.i.i.i.i.i.i.i.i.i.i.i.i.i.i.i.i.9.Z k i { q.i.q.Q l U 9.e.i.i.i.i.i.i.i.i.i.i.i.i.i.i.i.i.i.i.i.i.i.i.i.i.i.i.i.i.i.i.",
"i.i.i.i.i.i.i.i.i.i.i.i.i.i.i.i.i.i.i.i.i.9.C k s i +.q.X.m o.6.5.e.i.i.i.i.i.i.i.i.i.i.i.i.i.i.i.i.i.i.i.i.i.i.i.i.i.i.i.i.i.i.",
"i.i.i.i.i.i.i.i.i.i.i.i.i.i.i.i.i.i.i.i.i.9.L n a i j S l ) q.y.r.e.i.i.i.i.i.i.i.i.i.i.i.i.i.i.i.i.i.i.i.i.i.i.i.i.i.i.i.i.i.i.",
"i.i.i.i.i.i.i.i.i.i.i.i.i.i.i.i.i.i.i.i.q.[ l f f f q u F -.y.y.5.r.i.i.i.i.i.i.i.i.i.i.i.i.i.i.i.i.i.i.i.i.i.i.i.i.i.i.i.i.i.i.",
"i.i.i.i.i.i.i.i.i.i.i.i.i.i.i.i.i.i.i.e.{ 4 u j m H m m ( 6.t.9. .6.i.i.i.i.i.i.i.i.i.i.i.i.i.i.i.i.i.i.i.i.i.i.i.i.i.i.i.i.i.i.",
"i.i.i.i.i.i.i.i.i.i.i.i.i.i.i.i.i.i.e.{ h h m m H K m F ( -.6.+.C P +.i.i.i.i.i.i.i.i.i.i.i.i.i.i.i.i.i.i.i.i.i.i.i.i.i.i.i.i.i.",
"i.i.i.i.i.i.i.i.i.i.i.i.i.i.i.i.i.t.} f l n m H Y Y K H L U X.U F v Z *.i.i.i.i.i.i.i.i.i.w.e.i.i.i.i.i.i.i.i.i.i.i.i.i.i.i.i.i.",
"i.i.i.i.i.i.i.i.i.i.i.i.i.i.i.i.i.3.z h C H L ^ ^ ^ Y Y L K K H H N v Z 8.i.i.i.i.i.w.<.1.,.<.w.e.e.i.i.i.i.i.i.i.i.i.i.i.i.i.i.",
"i.i.i.i.i.i.i.i.i.i.i.i.i.i.i.i.t.I c U ( _ ` ` ) / Y ^ ^ Y K N K H m a { i.i.i.0.:.| { W U ( / _ ,.e.i.i.i.i.i.i.i.i.i.i.i.i.i.",
"i.i.i.i.i.i.i.i.i.i.i.i.i.i.i.i.r.S W %.<.<.<.,.$.` / Y K Y K Y K K N n h 8.i.,.W J m H N H N N H W @.w.i.i.i.i.i.i.i.i.i.i.i.i.",
"i.i.i.i.i.i.i.i.i.i.i.i.i.i.i.i.9.I X.,.-.6.7.8.<.$.` / Y Y Y Y ^ N N m i X.%.H k n N K K K K K H H H _ 2.i.i.i.i.i.i.i.i.i.i.i.",
"i.i.i.i.i.i.i.i.i.i.i.i.i.i.i.i.3.P -.*.6 +.y.t.8.%.$.O./ ^ Y Y N Y Y N d G J k k N K K K K K K K N N K X.2.i.i.i.i.i.i.i.i.i.i.",
"i.i.i.i.i.i.i.i.i.i.i.i.i.i.i.t...E <.o.$ +.u.u.q.,.%.$._ ^ Y Y K K ^ N n m d s n K ^ ^ ) / / ^ ^ ^ N N G +.i.i.i.i.i.i.i.i.i.i.",
"i.i.i.i.i.i.i.i.i.i.i.i.i.e.w.=.G o.9.} # +.u.u.w.<.%.%.` / ^ Y Y Y Y N k k s n N ^ O.,.8.6.<.%.^ N K K m P <.i.i.i.i.i.i.i.i.i.",
"i.i.i.i.i.i.i.i.i.i.i.i.i.;.: & P 6.q.t.r.u.u.y.8.<.-.%.` / ^ Y K Y K n s p p n / %.8.q.u.u.y.q.%./ K K H l o.e.i.i.i.i.i.i.i.i.",
"i.i.i.i.i.i.i.i.i.i.i.i.i.3.: D >.9.y.u.u.u.u.u.8.<.%.%.` / Y Y Y Y N v p 7 d N o.8.t.u.u.u.u.y.w.-.^ K H m P 2.i.i.i.i.i.i.i.i.",
"i.i.i.i.i.i.i.i.i.i.i.i.i.4.D 6.<.t.u.u.u.u.u.y.2.,.:.$.` / Y Y Y K n s 7 3 v ( 6.9.y.u.q.7.t.u.u.<./ Y K n c >.i.i.i.i.i.i.i.i.",
"i.i.i.i.i.i.i.i.i.i.i.i.i.r. .-.<.8.u.u.u.u.u.q.<.,.-.%._ ^ Y Y Y N s p 1 2 m %.8.8.y.9.{ Z G o.t.9.` ^ N k j o.2.i.i.i.i.i.i.i.",
"i.i.i.i.i.i.i.i.i.i.i.i.i.i.6.o.-.<.9.u.u.u.u.9.2.,.-.$.) ^ Y K n s s 3 O 8 T <.q.8.8.U 4 4 u H 9.q.%.Y N k f E ,.i.i.i.i.i.i.i.",
"i.i.i.i.i.i.i.i.i.i.i.i.i.i.i.>.{ %.<.9.y.u.y.6.<.,.%._ Y K K k s s y + 1 k _ 9.q.8.o.4 q U J L q.q.$.^ N i g I %.i.i.i.i.i.i.i.",
"i.i.i.i.i.i.i.i.i.i.i.i.i.i.i.q.*.J X.<.6.8.8.<.,.O.O.^ N N k s a y 3 + u m $.8.8.6.Z < j o.6.q.t.6.` Y m a w { i.i.i.i.i.i.i.i.",
"i.i.i.i.i.i.i.i.i.i.i.i.i.i.i.i.w.o.G U _ X.X.X.X.( H m k d p y 3 3 + < k H O.8.8.>.q y l ( 6.q.w.%.^ N i y w -.i.i.i.i.i.i.i.i.",
"i.i.i.i.i.i.i.i.i.i.i.i.i.i.i.i.i.e.6.{ G Z A U R K m n k u 7 3 3 + + 3 d N / <.6.<.h 3 k m / O.O./ H d a + r >.i.i.i.i.i.i.i.i.",
"i.i.i.i.i.i.i.i.i.i.i.i.i.i.i.i.i.i.e.e.-.J U ( ( T N K b k 8 a y y 3 3 y m ^ $.,.>.J < i k m K K m d p 3 = ] 0.i.i.i.i.i.i.i.i.",
"i.i.i.i.i.i.i.i.i.i.i.i.i.i.i.i.i.i.i.i.6.J W X._ ) ^ ^ T L N N k a y y y k Y O.%.,.O.2 y i a u a a y 3 O t 6.i.i.i.i.i.i.i.i.i.",
"i.i.i.i.i.i.i.i.i.i.i.i.i.i.i.i.i.i.i.e.{ J U W _ ) W L L T / ^ K k s y 3 y N / %.,.<.G < y y y y y 3 % r =.i.i.i.i.i.i.i.i.i.i.",
"i.i.i.i.i.i.i.i.i.i.i.i.i.i.i.i.i.i.e.{ C J g C / / L m b C W / ^ N d p y 3 k K O.,.,.-.c < = = = = = t *.i.i.i.i.i.i.i.i.i.i.i.",
"i.i.i.i.i.i.i.i.i.i.i.i.i.i.i.i.i.e. .l l l f L / / H l 7 8 W ) ^ K k s y @ i M ^ O.$.,.,.P V x Z I o.<.q.i.i.i.i.i.i.i.i.i.i.i.",
"i.i.i.i.i.i.i.i.i.i.i.i.i.i.i.i.e.{ l 2 h q F / / ^ n a @ 2 / _ ^ K n s y 3 y m Y / _ %.6.6.;.<.8.i.i.i.i.i.i.i.i.i.i.i.i.i.i.i.",
"i.i.i.i.i.i.i.i.i.i.i.i.i.i.i.i.o.b 8 < k j K ^ L m i y 1 k / / ^ Y M s y 3 3 m K ^ / O.<.y.u.e.i.i.i.i.i.i.i.i.i.i.i.i.i.i.i.i.",
"i.i.i.i.i.i.i.i.i.i.i.i.i.i.i.<.x f + 4 l l H N v d 7 1 8 T / / ^ Y N s y @ 3 k N Y ^ ) -.9.y.t.i.i.i.i.i.i.i.i.i.i.i.i.i.i.i.i.",
"i.i.i.i.i.i.i.i.i.i.i.i.i.i.i.0.x 1 X 4 l f k d p 7 1 8 H / / / Y K N n p 3 3 i n K Y / O.6.y.y.i.i.i.i.i.i.i.i.i.i.i.i.i.i.i.i.",
"i.i.i.i.i.i.i.i.i.i.i.i.i.i.i.e.4.x . 1 m f 4 3 + < 8 Y ) ) / ^ Y Y N d y 3 < i k N Y ^ O.,.y.y.i.i.i.i.i.i.i.i.i.i.i.i.i.i.i.i.",
"i.i.i.i.i.i.i.i.i.i.i.i.i.i.i.i.e.e.D ; f l l l j F T ) / / T ^ Y Y n d p < < a k N K ^ _ >.t.y.i.i.i.i.i.i.i.i.i.i.i.i.i.i.i.i.",
"i.i.i.i.i.i.i.i.i.i.i.i.i.i.i.i.i.e.+.4 i l K ^ / ) / / ^ ^ ^ ^ K n d d p + < a k M L Y ) ,.y.r.i.i.i.i.i.i.i.i.i.i.i.i.i.i.i.i.",
"i.i.i.i.i.i.i.i.i.i.i.i.i.i.i.i.i.i.6.q y k H ^ / ^ / ^ ^ ^ ^ K n n s p 3 + 2 y s M K Y / ,.t.y.i.i.i.i.i.i.i.i.i.i.i.i.i.i.i.i.",
"i.i.i.i.i.i.i.i.i.i.i.i.i.i.i.i.i.i.e.g 1 k m K ^ ^ ^ ^ ^ K N m n n s y @ + 3 y k H K K / ,.y.t.i.i.i.i.i.i.i.i.i.i.i.i.i.i.i.i.",
"i.i.i.i.i.i.i.i.i.i.i.i.i.i.i.i.i.i.i.x < y d k m N m N N m n n d s p 3 + = y y d m H K ( <.y.t.i.i.i.i.i.i.i.i.i.i.i.i.i.i.i.i.",
"i.i.i.i.i.i.i.i.i.i.i.i.i.i.i.i.i.i.i.{ ; < y d k n n n n n d d a p 7 < * 1 a y a l H L X.7.y.i.i.i.i.i.i.i.i.i.i.i.i.i.i.i.i.i.",
"i.i.i.i.i.i.i.i.i.i.i.i.i.i.i.i.i.i.*.A j 2 = 4 k k d s d p d d a 1 = o = 1 7 y a l H L { 9.y.i.i.i.i.i.i.i.i.i.i.i.i.i.i.i.i.i.",
"i.i.i.i.i.i.i.i.i.i.i.i.i.i.i.i.i.i.R b H k %   = 2 8 h n m m v 2   .   * = 1 4 f g j B  .r.i.i.i.i.i.i.i.i.i.i.i.i.i.i.i.i.i.i.",
"i.i.i.i.i.i.i.i.i.i.i.i.i.i.i.i.i.:.E 0 u a 3 = h f b H K H b i < , r , % . * = 2 q w { 5.i.i.i.i.i.i.i.i.i.i.i.i.i.i.i.i.i.i.i.",
"i.i.i.i.i.i.i.i.i.i.i.i.i.i.i.i.1.~ R b q 2 o q H m m H m k u 1 - r r t t r w t B { =.r.i.i.i.i.i.i.i.i.i.i.i.i.i.i.i.i.i.i.i.i.",
"i.i.i.i.i.i.i.i.i.i.i.i.i.i.i.i.&.! B 9 9 e t 9 f a u u 8 3 1 = t w w w w t V E #.>.w.e.i.i.i.i.i.i.i.i.i.i.i.i.i.i.i.i.i.i.i.i.",
"i.i.i.i.i.i.i.i.i.i.i.i.i.i.i.i.$.! R e e 0 0 t ; = % . . - , w e e w w e e B R @.&.2.i.i.i.i.i.i.i.i.i.i.i.i.i.i.i.i.i.i.i.i.i.",
"i.i.i.i.i.i.i.i.i.i.i.i.i.i.i.i.&.~ ! A B t e e 0 0 0 t w w w w 0 0 0 r t V P ~ &.1.i.i.i.i.i.i.i.i.i.i.i.i.i.i.i.i.i.i.i.i.i.i.",
"i.i.i.i.i.i.i.i.i.i.i.i.i.i.i.i.i.:.@.! ! R A B A V z t b B B B B V A R ! ~ #.:.2.0.i.i.i.i.i.i.i.i.i.i.i.i.i.i.i.i.i.i.i.i.i.i.",
"i.i.i.i.i.i.i.i.i.i.i.i.i.i.i.i.i.i.1.1.&.&.&.@.@.@.~ ~ ! ~ ~ @.@.@.@.&.&.:.2.0.i.i.i.i.i.i.i.i.i.i.i.i.i.i.i.i.i.i.i.i.i.i.i.i.",
"i.i.i.i.i.i.i.i.i.i.i.i.i.i.i.i.i.i.i.i.i.i.i.1.1.1.2.1.1.1.2.2.2.2.2.0.i.i.i.i.i.i.i.i.i.i.i.i.i.i.i.i.i.i.i.i.i.i.i.i.i.i.i.i.",
"i.i.i.i.i.i.i.i.i.i.i.i.i.i.i.i.i.i.i.i.i.i.i.i.i.i.i.i.i.i.i.i.i.i.i.i.i.i.i.i.i.i.i.i.i.i.i.i.i.i.i.i.i.i.i.i.i.i.i.i.i.i.i.i.",
"i.i.i.i.i.i.i.i.i.i.i.i.i.i.i.i.i.i.i.i.i.i.i.i.i.i.i.i.i.i.i.i.i.i.i.i.i.i.i.i.i.i.i.i.i.i.i.i.i.i.i.i.i.i.i.i.i.i.i.i.i.i.i.i.",
"i.i.i.i.i.i.i.i.i.i.i.i.i.i.i.i.i.i.i.i.i.i.i.i.i.i.i.i.i.i.i.i.i.i.i.i.i.i.i.i.i.i.i.i.i.i.i.i.i.i.i.i.i.i.i.i.i.i.i.i.i.i.i.i.",
"i.i.i.i.i.i.i.i.i.i.i.i.i.i.i.i.i.i.i.i.i.i.i.i.i.i.i.i.i.i.i.i.i.i.i.i.i.i.i.i.i.i.i.i.i.i.i.i.i.i.i.i.i.i.i.i.i.i.i.i.i.i.i.i.",
"i.i.i.i.i.i.i.i.i.i.i.i.i.i.i.i.i.i.i.i.i.i.i.i.i.i.i.i.i.i.i.i.i.i.i.i.i.i.i.i.i.i.i.i.i.i.i.i.i.i.i.i.i.i.i.i.i.i.i.i.i.i.i.i."
};
