/* XPM */
static char *_636719552941[] = {
/* columns rows colors chars-per-pixel */
"64 64 229 2 ",
"   c #67361D",
".  c #7A5243",
"X  c #96501A",
"o  c #984F13",
"O  c #A75B1B",
"+  c #A85B18",
"@  c #AF621D",
"#  c #B3641C",
"$  c #B76317",
"%  c #BD600B",
"&  c #985929",
"*  c #965C34",
"=  c #8A502E",
"-  c #A15C27",
";  c #91603B",
":  c #AD6424",
">  c #A86328",
",  c #B46723",
"<  c #B46924",
"1  c #BC6C22",
"2  c #B26B2C",
"3  c #BB6E2A",
"4  c #B26C31",
"5  c #BB7538",
"6  c #AA6B38",
"7  c #C66D18",
"8  c #C7711E",
"9  c #CA741F",
"0  c #D1761D",
"q  c #D67A1D",
"w  c #DB7C1D",
"e  c #C7690C",
"r  c #E27C16",
"t  c #C47224",
"y  c #CB7523",
"u  c #C2732A",
"i  c #CD7928",
"p  c #D47D25",
"a  c #DB7F22",
"s  c #D27B27",
"d  c #C47935",
"f  c #D17E32",
"g  c #C26E20",
"h  c #956B4F",
"j  c #A97349",
"k  c #BA7A43",
"l  c #A27B5A",
"z  c #9F7760",
"x  c #C17E40",
"c  c #DF801F",
"v  c #E3821E",
"b  c #DD8123",
"n  c #DB832C",
"m  c #D7812D",
"M  c #CC833D",
"N  c #CE8032",
"B  c #D58535",
"V  c #D98737",
"C  c #E38423",
"Z  c #E98622",
"A  c #EA8925",
"S  c #E3862A",
"D  c #E58A2C",
"F  c #EB8D2C",
"G  c #E78825",
"H  c #E48B32",
"J  c #EB8E30",
"K  c #E38F3A",
"L  c #ED9234",
"P  c #ED943A",
"I  c #E8933B",
"U  c #F19435",
"Y  c #F2973B",
"T  c #F3993D",
"R  c #F89C3D",
"E  c #B5825A",
"W  c #BF804C",
"Q  c #A68667",
"!  c #BD936B",
"~  c #A88C72",
"^  c #B58D74",
"/  c #B59778",
"(  c #CA8849",
")  c #DB8E44",
"_  c #D38A46",
"`  c #DC944E",
"'  c #DB9146",
"]  c #C88E58",
"[  c #D18E52",
"{  c #CC9258",
"}  c #DC9A5C",
"|  c #D79558",
" . c #E39243",
".. c #EC9945",
"X. c #E8994A",
"o. c #F49C43",
"O. c #F29E4A",
"+. c #F89F43",
"@. c #E49A53",
"#. c #E69D57",
"$. c #FBA246",
"%. c #F5A14B",
"&. c #FBA44B",
"*. c #FFA84E",
"=. c #F5A047",
"-. c #ECA55D",
";. c #EBA156",
":. c #F5A454",
">. c #FAA652",
",. c #FEAB54",
"<. c #FEAE5B",
"1. c #F5A95C",
"2. c #FFB05F",
"3. c #C99769",
"4. c #D89D64",
"5. c #C29A74",
"6. c #DBA16A",
"7. c #C8A078",
"8. c #DAA977",
"9. c #EBA661",
"0. c #E9A867",
"q. c #F6AE66",
"w. c #FFB263",
"e. c #FEB56B",
"r. c #FFB96D",
"t. c #F4B06C",
"y. c #E5AC76",
"u. c #E8B17B",
"i. c #FFBA74",
"p. c #FFBE7D",
"a. c #F6B472",
"s. c #FFC07F",
"d. c #A69885",
"f. c #ABA598",
"g. c #B8A999",
"h. c #B9A38C",
"j. c #9EB8B8",
"k. c #98A8A5",
"l. c #ADB2AA",
"z. c #B4B4A8",
"x. c #A2BABA",
"c. c #ADBCB7",
"v. c #B9BDB5",
"b. c #CBA684",
"n. c #D6AB84",
"m. c #D7B38B",
"M. c #D9BB9A",
"N. c #C4B098",
"B. c #EAB787",
"V. c #F9BD82",
"C. c #EBBE93",
"Z. c #E1BC90",
"A. c #CCBCA7",
"S. c #D6BBA6",
"D. c #B6C2BD",
"F. c #FFC284",
"G. c #FFC58B",
"H. c #F7C28B",
"J. c #E8C19E",
"K. c #FFC993",
"L. c #FECC9C",
"P. c #F4C69A",
"I. c #DEC6AA",
"U. c #D5C9B4",
"Y. c #D2C7B3",
"T. c #E5C8A9",
"R. c #FACDA2",
"E. c #F2CCA9",
"W. c #FFD1A5",
"Q. c #FFD5AC",
"!. c #FFD8AF",
"~. c #E5D5BA",
"^. c #FDD6B1",
"/. c #FFDAB4",
"(. c #FEDCBB",
"). c #E6CDB2",
"_. c #FFE1BF",
"`. c #A3BFC0",
"'. c #A7C4C5",
"]. c #BBDBDD",
"[. c #B4D3D5",
"{. c #BED0CD",
"}. c #BFDDE0",
"|. c #D9D5C6",
" X c #C5D9D8",
".X c #D8DBD3",
"XX c #C2CFC8",
"oX c #E3D6C2",
"OX c #E5DDC8",
"+X c #FCDEC2",
"@X c #F9DFC9",
"#X c #E7DFD2",
"$X c #DEE3DB",
"%X c #FFE2C4",
"&X c #FFE5CB",
"*X c #F7E3CD",
"=X c #E2E5DB",
"-X c #E7E3D5",
";X c #FFE7D0",
":X c #FFEAD5",
">X c #FEEDDC",
",X c #F6E9CE",
"<X c #C1DFE0",
"1X c #C4E1E3",
"2X c #CAE8E9",
"3X c #D2ECEE",
"4X c #DEE9E6",
"5X c #DCF4F5",
"6X c #D9F2F4",
"7X c #D3EEF0",
"8X c #E4EAE1",
"9X c #E2EEEA",
"0X c #E8EBE2",
"qX c #F7EEE3",
"wX c #E2F1EF",
"eX c #EBF3EB",
"rX c #FEF2E5",
"tX c #FEF4EB",
"yX c #F6F5E9",
"uX c #E4F5F4",
"iX c #EBF6F3",
"pX c #E0F7F8",
"aX c #E4FAFB",
"sX c #EAFEFF",
"dX c #E9F8F5",
"fX c #FFF9F4",
"gX c #FFFEFE",
"hX c #F3F8F7",
"jX c None",
/* pixels */
"jXjXjXjXjXjXjXjXjXjXjXjXjXjXjXjXjXjXjXjXjXjXjXjXjXjXjXjXjXjXjXjXjXjXjXjXjXjXjXjXjXjXjXjXjXjXjXjXjXjXjXjXjXjXjXjXjXjXjXjXjXjXjXjX",
"jXjXjXjXjXjXjXjXjXjXjXjXjXjXjXjXjXjXjXjXjXjXjXjXjXjXjXjXjXjXjXjXjXjXjXjXjXjXjXjXjXjXjXjXjXjXjXjXjXjXjXjXjXjXjXjXjXjXjXjXjXjXjXjX",
"jXjXjXjXjXjXjXjXjXjXjXjXjXjXjXjXjXjXjXjXjXjXjXjXjXjXjXjXjXjXjXjXjXjXjXjXjXjXjXjXjXjXjXjXjXjXjXjXjXjXjXjXjXjXjXjXjXjXjXjXjXjXjXjX",
"jXjXjXjXjXjXjXjXjXjXjXjXjXjXjXjXjXjXjXjXjXjXjXjXjXjXjXjXjXjXjXjXjXjXjXjXjXsXsXsXsXsXsXjXjXjXjXjXjXjXjXjXjXjXjXjXjXjXjXjXjXjXjXjX",
"jXjXjXjXjXjXjXjXjXjXjXjXjXjXjXjXjXjXjXjXjXjXjXjXjXjXjXjXjXjXjXjXjXjXjXsXsXsXsXsXsXsXsXsXjXjXjXjXjXjXjXjXjXjXjXjXjXjXjXjXjXjXjXjX",
"jXjXjXjXjXjXjXjXjXjXjXjXjXjXjXjXjXjXjXjXjXjXjXjXjXjXjXjXjXjXjXsXsXsXsXsXsXsXsXsXsXsXsXsXsXjXjXjXjXjXjXjXjXjXjXjXjXjXjXjXjXjXjXjX",
"jXjXjXjXjXjXjXjXjXjXjXjXjXjXjXjXjXjXjXjXjXjXjXjXjXjXjXjXjXsXsXsXsXsXsXsXsXsXsXsXsXsXsXsXsXsXjXjXjXjXjXjXjXjXjXjXjXjXjXjXjXjXjXjX",
"jXjXjXjXjXjXjXjXjXjXjXjXjXjXjXjXjXjXjXjXjXjXjXjXjXjXjXsXsXsXsXsXsXsXsXsXsXsXsXsXsXsXsXsXsXsXjXjXjXjXjXjXjXjXjXjXjXjXjXjXjXjXjXjX",
"jXjXjXjXjXjXjXjXjXjXjXjXjXjXjXjXjXjXjXjXjXjXjXjXjXjXjXsXsXsXsXsXsXaXsXsXsXsXsXiX.XdXsXsXsXsXsXjXjXjXjXjXjXjXjXjXjXjXjXjXjXjXjXjX",
"jXjXjXjXjXjXjXjXjXjXjXjXjXjXjXjXjXjXjXjXjXjXjXjXjXjXsXsXsXsXsXsX.X$XsXsXsXsXsX~.' Y.uXsXsXsXsXjXjXjXjXjXjXjXjXjXjXjXjXjXjXjXjXjX",
"jXjXjXjXjXjXjXjXjXjXjXjXjXjXjXjXjXjXjXjXjXjXjXjXjXjXsXsXsXsXsXpX3.M |.sXsXsX-XV v m.6XsXsXsXsXsXjXjXjXjXjXjXjXjXjXjXjXjXjXjXjXjX",
"jXjXjXjXjXjXjXjXjXjXjXjXjXjXjXjXjXjXjXjXjXjXjXjXjXsXsXsXsXsXaX$XW.t.I OXaX8X' w F } wXsXsXsXsXsXjXjXjXjXjXjXjXjXjXjXjXjXjXjXjXjX",
"jXjXjXjXjXjXjXjXjXjXjXjXjXjXjXjXjXjXjXjXjXjXjXjXjXsXsXsXsXsXsXqXtX:X:.X.U.8.C C F 9.5XsXsXsXsXsXsXjXjXjXjXjXjXjXjXjXjXjXjXjXjXjX",
"jXjXjXjXjXjXjXjXjXjXjXjXjXjXjXsXsXsXsXsXsXsXsXsXsXsXsXsXsXsXsXqXtXfXL.I d 5 f f V ;..XsXsXsXsXsXsXsXjXjXjXjXjXjXjXjXjXjXjXjXjXjX",
"jXjXjXjXjXjXjXjXjXjXjXjXjXsXsXsXsXsXsXsXsXsXsXsXsXsXsXsXsXsXaXOX>XgX&X0.V  .X.) _ d ( =XsXsXsXsXsXsXsXjXjXjXjXjXjXjXjXjXjXjXjXjX",
"jXjXjXjXjXjXjXjXjXjXjXjXsXsXsXsXsXsXsXsXsXsXsXsXsXsXsXsXsX.XI.4.+X:X*XB.#.+.&.O...) f ( 8XsXsXsXsXsXsXsXjXjXjXjXjXjXjXjXjXjXjXjX",
"jXjXjXjXjXjXjXjXjXjXjXsXsXsXsXsXsXsXsXsXsXsXsXsXsXsXsXsX=XM.) @.C.E.C.0.@.+.&.&.=... .V ] $XsXsXsXsXsXsXjXjXjXjXjXjXjXjXjXjXjXjX",
"jXjXjXjXjXjXjXjXjXjXsXsXsXsXsXsXsXsXsXsXsXsXsXsXsXsXsXaXM.V P O.#.0.9.-.>.>.<.<.,.O.X.@.d 5.uXsXsXsXsXsXsXjXjXjXjXjXjXjXjXjXjXjX",
"jXjXjXjXjXjXjXjXjXjXsXsXsXsXsXsXsXsXsXsXsXsXsXsXsXsXsX-XB L &.&.O.%.>.,.,.<.w.r.i.i.t.0.#.] Y.aXsXsXsXsXsXjXjXjXjXjXjXjXjXjXjXjX",
"jXjXjXjXjXjXjXjXjXsXsXsXsXsXsXsXsXsXsXsXsXsXsXsXsXaXdX[ S +.>.&.&.,.,.,.,.w.i.G.R.W.W.W.H.} b.sXsXsXsXsXsXsXjXjXjXjXjXjXjXjXjXjX",
"jXjXjXjXjXjXjXjXjXsXsXsXsXsXaXeX-X~.).U.oX8XsXsXsXsXOXn L &.$.*.*.,.,.,.w.p.G.Q.&X&X;X&X/.B.n.uXsXsXsXsXsXsXjXjXjXjXjXjXjXjXjXjX",
"jXjXjXjXjXjXjXjXsXsXsXsXsX8XT.8.-.9.9.9.0.6.Z.OXsXsX8.G R >.*.*.,.,.<.w.V.K.L.&XrXfXI.! ^.P.b.9XsXsXsXsXsXsXsXjXjXjXjXjXjXjXjXjX",
"jXjXjXjXjXjXjXjXsXsXsXsXOXy.-.O.%.%.$.$.$.R ..` M.~.} J &.,.*.*.,.<.<.i.K.K.Q.qXfXgXA.= E.^.8.OXsXsXsXsXsXsXsXjXjXjXjXjXjXjXjXjX",
"jXjXjXjXjXjXjXsXsXsXsX~.y...$.&.*.&.&.&.*.$.T F V 4.` J +.,.,.*.,.,.w.F.L.R.^.:XfXgXS.  I.:XC.8.yXsXsXsXsXsXsXjXjXjXjXjXjXjXjXjX",
"jXjXjXjXjXjXjXsXsXsXOXu.T &.&.*.*.,.<.<.<.&.&.U Z H V D Y >.,.*.,.,.e.F.L.W.^.;XfXgXqXA.#XtX(.3.z g.wXsXsXsXsXjXjXjXjXjXjXjXjXjX",
"jXjXjXjXjXjXsXsXsXeXm...&.&.$.,.G.Q./.(.W.p.,.+.A G m C F %.,.,.,.,.e.G.L.W./.;XfXgXgXgXgXrX;XT.h . $XsXsXsXsXjXjXjXjXjXjXjXjXjX",
"jXjXjXjXjXjXsXsXaX~.} o.$.,.2.K.:XtXgXfXrX&XL.1.L C p w C T ,.,.,.,.e.G.L.W.Q.&XfXgXgXgXgXfXrX%XE.^ 8XsXsXsXsXjXjXjXjXjXjXjXjXjX",
"jXjXjXjXjXjXsXsXeXm.X.$.$.<.W.:XfXgXgXgXfXrX:XL.O.D i 0 v F &.,.,.,.w.s.L.W.Q._.tXgXgXgXgXgX:X/.^.S.iXsXsXsXsXjXjXjXjXjXjXjXjXjX",
"jXjXjXjXjXjXsXsX-X7.K $.*.e.%XfXtX>X,X>XgXfX>X%XV.I u # v v F o.&.,.2.i.L.W.^.(.>XgXgXgXfX>X+X^.C.#XaXsXsXsXsXjXjXjXjXjXjXjXjXjX",
"jXjXjXjXjXjXsXsXU.{ D =.>.G.:XrXJ.] ( 6.+XtX:X;XQ.@.u : 9 v C A Y &.,.w.F.W.^.(.;XfXgXfXrX&XQ.Z.).sXsXsXsXsXjXjXjXjXjXjXjXjXjXjX",
"jXjXjXjXjXjXsXsXY.] C =.<.K.rXrX..y M 2 ] (.:XrX&Xa.B < @ 0 c C D U o.$.e.K.Q./.(.:XrX:X%XL.y.C.iXsXsXsXsXsXjXjXjXjXjXjXjXjXjXjX",
"jXjXjXjXjXjXsXsXA.] b T ,.G.&XtXP.H.H.( 2 B.*X:X;XK. .1 : < 9 b b C L L O.1.V.R.E.R.E.L.B.| 8.iXsXsXsXsXsXjXjXjXjXjXjXjXjXjXjXjX",
"jXjXjXjXjXjXsXsXY.! q F %.i./.>XgXtXP.` 3 W (.;X;XK.%.n t , 1 8 y y m H U T ;.y.8.4.0.4.8.oXiXsXsXsXsXsXjXjXjXjXjXjXjXjXjXjXjXjX",
"jXjXjXjXjXjXsXsX|./ 7 v L *.s.Q.(.L.0.K i 5 ^.;X%Xs.$.L y 9 y 9 i i B  .=.o.1.u.B.4.4.T.0XhXsXsXsXsXsXjXjXjXjXjXjXjXjXjXjXjXjXjX",
"jXjXjXjXjXjXsXsX4Xh.+ q C J $.2.e.>.K D 7 { /._.W.2.T b 9 w w H ..P O.9.<.,.e.F.P.y.4.iXsXsXsXsXsXsXsXjXjXjXjXjXjXjXjXjXjXjXjXjX",
"jXjXjXjXjXjXsXsXsX$X~ @ 0 C D A F D D b , B./.W.K.<.L 0 w v D &.2.<.w.t.q.w.i.F.B.u.#.~.sXsXsXsXsXsXsXjXjXjXjXjXjXjXjXjXjXjXjXjX",
"jXjXjXjXjXjXsXsXsXsXuXQ O 7 w q q b b # { (.!.W.e.$.n 0 v G R w.r.a.9.` @.q.i.i.| { 9.| oXsXsXsXsXsXsXsXjXjXjXjXjXjXjXjXjXjXjXjX",
"jXjXjXjXjXjXjXsXsXsXaX9X^ > $ # $ $ $ ( !.(./.G.$.P y q C F $.2.i.a.k s K 1.e.e.;.k ` ' | -XsXsXsXsXsXsXsXjXjXjXjXjXjXjXjXjXjXjX",
"jXjXjXjXjXjXjXsXsXsXsXsXdX|.N.! / 3.6.(.^.L.K.w.o.n 9 c C U &.<.p.t.4 9 D O.w.e.e.' _ d ( } OXaXsXsXsXsXsXsXjXjXjXjXjXjXjXjXjXjX",
"jXjXjXjXjXjXjXjXsXsXsXsXsXsXsXwXdXsXrX,XL.i.e.>.Y p 8 c G R *.2.i.r.B , a D O.w.r.;._ 5 <  .@.-XsXsXsXsXsXsXjXjXjXjXjXjXjXjXjXjX",
"jXjXjXjXjXjXjXjXjXsXsXsXsXsXsXsXsXhXtX^.F.w.,.>.P y t c F o.,.,.e.r.:.u g a J o.:.:.` M # p V 7.9XsXsXsXsXsXjXjXjXjXjXjXjXjXjXjX",
"jXjXjXjXjXjXjXjXjXjXsXsXsXsXsXsXsXtX;XL.i.<.&.O.H t 9 v F =.,.,.w.r.r.@.3 $ a G F K ) _ + e 9 ~ 9XsXsXsXsXsXjXjXjXjXjXjXjXjXjXjX",
"jXjXjXjXjXjXjXjXjXjXjXsXsXsXsXsXhXtX(.G.e.,.%.L S 1 8 C F o.&.,.w.r.r.e.@.4 + 7 y i ) ( X o j .XsXsXsXsXsXjXjXjXjXjXjXjXjXjXjXjX",
"jXjXjXjXjXjXjXjXjXjXjXjXsXsXsXsXhXtX(.p.w.:.+.L G , 1 a L T &.,.<.w.r.r.e.9.[ x ( _  .d l .X8XaXsXsXsXsXsXjXjXjXjXjXjXjXjXjXjXjX",
"jXjXjXjXjXjXjXjXjXjXjXjXjXsXsXsXhXtX^.i.<.:.o.J C < , a F U T ,.<.w.w.r.e.i.i.a.9.%.I 7 N.aXsXsXsXsXsXsXjXjXjXjXjXjXjXjXjXjXjXjX",
"jXjXjXjXjXjXjXjXjXjXjXjXjXsXsXsXhXtX^.e.,.:.o.H a 3 , y C F L o.,.<.w.w.w.e.e.i.w.O.H 8 Y.sXsXsXsXsXsXsXjXjXjXjXjXjXjXjXjXjXjXjX",
"jXjXjXjXjXjXjXjXjXjXjXjXjXsXsXsXiXtX/.e.:.:.O.H a i , t w Z F U T &.,.w.w.w.w.w.>.Y B $ 8XsXsXsXsXsXsXjXjXjXjXjXjXjXjXjXjXjXjXjX",
"jXjXjXjXjXjXjXjXjXjXjXjXjXjXsXsXiXtX(.i.:.:.O.H a p > , y r Z L L Y o.+.+.:.+.+.L H t 4 6XsXsXsXsXsXsXjXjXjXjXjXjXjXjXjXjXjXjXjX",
"jXjXjXjXjXjXjXjXjXjXjXjXjXjXsXsXdXfX;XV.q.X. .a a a u - 3 s v Z F L L P U U Y L F s : E $XsXsXsXsXsXjXjXjXjXjXjXjXjXjXjXjXjXjXjX",
"jXjXjXjXjXjXjXjXjXjXjXjXjXjXsXsXsXhX>XC.0.#.) H a a u > - , i C A Z G G A F L D s > 6 [ 8.wXsXsXsXsXsXjXjXjXjXjXjXjXjXjXjXjXjXjX",
"jXjXjXjXjXjXjXjXjXjXjXjXjXjXsXsXsXsXyXM.3.[ _ f i u 2 > = X X d T Y L A m N 3 4 = & ' -.` Y.aXaXsXsXsXjXjXjXjXjXjXjXjXjXjXjXjXjX",
"jXjXjXjXjXjXjXjXjXjXjXjXjXjXjXsXsXsXsX-Xn.x k 5 4 - - & * z ; 4 K ..:.1.#.( k k & t A H 5 N.7XaXsXsXsXjXjXjXjXjXjXjXjXjXjXjXjXjX",
"jXjXjXjXjXjXjXjXjXjXjXjXjXjXjXsXsXsXsXsXqX|.b.E k j j z c.`.d.& 9 D I ;.:.%.%.1.d + % O h Y.2X5XsXsXsXjXjXjXjXjXjXjXjXjXjXjXjXjX",
"jXjXjXjXjXjXjXjXjXjXjXjXjXjXjXjXsXsXsXsX5X3X<X{.v.v.x.j.x.j.f.~ O 7 s m K n D K j Q Q h.D.{.2X5XsXsXsXjXjXjXjXjXjXjXjXjXjXjXjXjX",
"jXjXjXjXjXjXjXjXjXjXjXjXjXjXjXjXjXsXsXsXaX6X2X1X[.'.`.j.j.j.k.f.Q - X X O < < * g.z.z.z. X1X2XpXsXsXsXjXjXjXjXjXjXjXjXjXjXjXjXjX",
"jXjXjXjXjXjXjXjXjXjXjXjXjXjXjXjXjXsXsXsXsXaX5X3X1X}.}.[.'.'.`.`.x.c.z.f.f.~ Q d.c.[.[.].1X3XpXsXsXsXsXjXjXjXjXjXjXjXjXjXjXjXjXjX",
"jXjXjXjXjXjXjXjXjXjXjXjXjXjXjXjXjXjXsXsXsXsXsXaX5X3X2X2X1X1X1X}.].].].]. X1X1X2X2X2X3X6XpXsXsXsXsXsXjXjXjXjXjXjXjXjXjXjXjXjXjXjX",
"jXjXjXjXjXjXjXjXjXjXjXjXjXjXjXjXjXjXjXsXsXsXsXsXsXsXaXpXaX5X5X5X6X6X6X6X5X5X5X5XaXaXsXsXsXsXsXsXsXjXjXjXjXjXjXjXjXjXjXjXjXjXjXjX",
"jXjXjXjXjXjXjXjXjXjXjXjXjXjXjXjXjXjXjXjXjXsXsXsXsXsXsXsXsXsXsXsXaXsXaXsXsXsXsXsXsXsXsXsXsXsXsXjXjXjXjXjXjXjXjXjXjXjXjXjXjXjXjXjX",
"jXjXjXjXjXjXjXjXjXjXjXjXjXjXjXjXjXjXjXjXjXjXjXjXsXsXsXsXsXsXsXsXsXsXsXsXsXsXsXsXsXsXsXsXjXjXjXjXjXjXjXjXjXjXjXjXjXjXjXjXjXjXjXjX",
"jXjXjXjXjXjXjXjXjXjXjXjXjXjXjXjXjXjXjXjXjXjXjXjXjXjXjXjXjXjXjXjXjXjXjXjXjXjXjXjXjXjXjXjXjXjXjXjXjXjXjXjXjXjXjXjXjXjXjXjXjXjXjXjX",
"jXjXjXjXjXjXjXjXjXjXjXjXjXjXjXjXjXjXjXjXjXjXjXjXjXjXjXjXjXjXjXjXjXjXjXjXjXjXjXjXjXjXjXjXjXjXjXjXjXjXjXjXjXjXjXjXjXjXjXjXjXjXjXjX",
"jXjXjXjXjXjXjXjXjXjXjXjXjXjXjXjXjXjXjXjXjXjXjXjXjXjXjXjXjXjXjXjXjXjXjXjXjXjXjXjXjXjXjXjXjXjXjXjXjXjXjXjXjXjXjXjXjXjXjXjXjXjXjXjX",
"jXjXjXjXjXjXjXjXjXjXjXjXjXjXjXjXjXjXjXjXjXjXjXjXjXjXjXjXjXjXjXjXjXjXjXjXjXjXjXjXjXjXjXjXjXjXjXjXjXjXjXjXjXjXjXjXjXjXjXjXjXjXjXjX"
};
