/* XPM */
static char *_636719559092[] = {
/* columns rows colors chars-per-pixel */
"64 64 228 2 ",
"   c #6B3921",
".  c #76442E",
"X  c #7C574B",
"o  c #9D551B",
"O  c #B15B0E",
"+  c #B96619",
"@  c #A25E28",
"#  c #9B6133",
"$  c #9F602C",
"%  c #AD6424",
"&  c #AA652B",
"*  c #A6632B",
"=  c #B26523",
"-  c #BB6C23",
";  c #B36B2B",
":  c #BA6E2A",
">  c #B46926",
",  c #BE732D",
"<  c #A66A36",
"1  c #B36E34",
"2  c #BB7332",
"3  c #B67339",
"4  c #AD703C",
"5  c #C46E1B",
"6  c #C36A17",
"7  c #CC741E",
"8  c #C9721C",
"9  c #D4791E",
"0  c #DC7D1D",
"q  c #D3771C",
"w  c #E17B17",
"e  c #C26F23",
"r  c #C47223",
"t  c #CC7624",
"y  c #C4742B",
"u  c #CB792C",
"i  c #CD7927",
"p  c #D47B24",
"a  c #DB7E21",
"s  c #D47E2B",
"d  c #C57D3B",
"f  c #C77B34",
"g  c #D27F31",
"h  c #8C5D44",
"j  c #9D6D45",
"k  c #9D724C",
"l  c #9A765C",
"z  c #A87C55",
"x  c #AE7848",
"c  c #C27F41",
"v  c #DF801F",
"b  c #E4821E",
"n  c #DD8124",
"m  c #DC832C",
"M  c #D6802C",
"N  c #CC813A",
"B  c #CB8139",
"V  c #D48232",
"C  c #DB8732",
"Z  c #DF8D3D",
"A  c #D78739",
"S  c #E38524",
"D  c #E1862A",
"F  c #E5892D",
"G  c #EB8D2D",
"H  c #E88925",
"J  c #E58C33",
"K  c #EA8E31",
"L  c #E38D3B",
"P  c #ED9133",
"I  c #EB933A",
"U  c #E6903A",
"Y  c #F1963A",
"T  c #F39A3D",
"R  c #F29637",
"E  c #EF912E",
"W  c #AC835A",
"Q  c #BC8658",
"!  c #A98C6B",
"~  c #B58E68",
"^  c #B79776",
"/  c #B0936F",
"(  c #CA8646",
")  c #D68C46",
"_  c #DC924B",
"`  c #DB9042",
"'  c #C58C57",
"]  c #CC925A",
"[  c #DA9757",
"{  c #D18F53",
"}  c #E29243",
"|  c #EB9641",
" . c #ED9944",
".. c #EC9C4C",
"X. c #E5984C",
"o. c #F49D44",
"O. c #F19E4A",
"+. c #F89F46",
"@. c #E49C54",
"#. c #EC9E51",
"$. c #E39D59",
"%. c #FAA145",
"&. c #F5A04A",
"*. c #FCA44B",
"=. c #FFA84E",
"-. c #E9A25B",
";. c #F4A453",
":. c #FBA751",
">. c #FEAA54",
",. c #F4A759",
"<. c #FEAD5B",
"1. c #F3A95F",
"2. c #FFB15F",
"3. c #CB9769",
"4. c #D99D63",
"5. c #D99E67",
"6. c #C99E77",
"7. c #C08F60",
"8. c #DAA26B",
"9. c #DDA164",
"0. c #D8A97A",
"q. c #D3A87A",
"w. c #E7A769",
"e. c #F3AC65",
"r. c #F5AE67",
"t. c #FEB264",
"y. c #FEB56B",
"u. c #FFB86E",
"i. c #E5AB72",
"p. c #E4AB76",
"a. c #E4B17D",
"s. c #EDB27A",
"d. c #FFBB74",
"f. c #FEBD7C",
"g. c #F5B372",
"h. c #FFC07E",
"j. c #AE9D87",
"k. c #9BA79F",
"l. c #AAA695",
"z. c #9CB1B0",
"x. c #A2AEA9",
"c. c #B8B6A9",
"v. c #A2B9B8",
"b. c #B0BCB4",
"n. c #C8A886",
"m. c #D3AE8C",
"M. c #D9B288",
"N. c #C8AD95",
"B. c #CBB49B",
"V. c #D9B998",
"C. c #EAB585",
"Z. c #E2B789",
"A. c #F8BD84",
"S. c #E2BB92",
"D. c #CABDA8",
"F. c #D1B7A5",
"G. c #B1C1BB",
"H. c #DCC099",
"J. c #FFC285",
"K. c #FFC68C",
"L. c #FCC68F",
"P. c #E9C096",
"I. c #FFC994",
"U. c #F3C599",
"Y. c #FECC9B",
"T. c #F6C392",
"R. c #DAC5A7",
"E. c #C8C5B8",
"W. c #D5CAB8",
"Q. c #CBC0AD",
"!. c #E5C5A3",
"~. c #F6CDA6",
"^. c #FFD1A5",
"/. c #FFD5AC",
"(. c #E8D5BE",
"). c #FED6B2",
"_. c #FFD9B4",
"`. c #FFDDBC",
"'. c #F1D8BF",
"]. c #E1CCBA",
"[. c #FFE0BA",
"{. c #A8C6C7",
"}. c #B9CECB",
"|. c #BCDBDC",
" X c #B7D4D5",
".X c #AECFD2",
"XX c #BEDDE0",
"oX c #D9D8CA",
"OX c #C1DAD9",
"+X c #CDCEC3",
"@X c #E7D9C5",
"#X c #FCDDC1",
"$X c #F1D9C0",
"%X c #DDE2DB",
"&X c #FFE1C4",
"*X c #FFE5CA",
"=X c #FFEBCB",
"-X c #E3E6DC",
";X c #E9E6D7",
":X c #FEE6D1",
">X c #FFEAD4",
",X c #FFECDC",
"<X c #F2E9D7",
"1X c #C0DFE0",
"2X c #C4E2E4",
"3X c #CCE9EA",
"4X c #C9E6E7",
"5X c #D6ECEC",
"6X c #DCF4F5",
"7X c #D9F2F4",
"8X c #D9EFEF",
"9X c #E5EBE3",
"0X c #E7EDE7",
"qX c #F7EDE2",
"wX c #E6F3EE",
"eX c #EAF1EB",
"rX c #FFF2E4",
"tX c #FFF4EB",
"yX c #E5F5F3",
"uX c #ECF6F2",
"iX c #E0F7F8",
"pX c #E5FAFB",
"aX c #EAFEFF",
"sX c #E9F9F6",
"dX c #FEF9F4",
"fX c #FFFEFE",
"gX c #F5F9F6",
"hX c None",
/* pixels */
"hXhXhXhXhXhXhXhXhXhXhXhXhXhXhXhXhXhXhXhXhXhXhXhXhXhXhXhXhXhXhXhXhXhXhXhXhXhXhXhXhXhXhXhXhXhXhXhXhXhXhXhXhXhXhXhXhXhXhXhXhXhXhXhX",
"hXhXhXhXhXhXhXhXhXhXhXhXhXhXhXhXhXhXhXhXhXhXhXhXhXhXhXhXhXhXhXhXhXhXhXhXhXhXhXhXhXhXhXhXhXhXhXhXhXhXhXhXhXhXhXhXhXhXhXhXhXhXhXhX",
"hXhXhXhXhXhXhXhXhXhXhXhXhXhXhXhXhXhXhXhXhXhXhXhXhXhXhXhXhXhXhXhXhXhXhXhXhXhXhXhXhXhXhXhXhXhXhXhXhXhXhXhXhXhXhXhXhXhXhXhXhXhXhXhX",
"hXhXhXhXhXhXhXhXhXhXhXhXhXhXhXhXhXhXhXhXhXhXhXhXhXhXhXhXhXhXhXhXhXhXhXhXhXaXaXaXaXaXaXhXhXhXhXhXhXhXhXhXhXhXhXhXhXhXhXhXhXhXhXhX",
"hXhXhXhXhXhXhXhXhXhXhXhXhXhXhXhXhXhXhXhXhXhXhXhXhXhXhXhXhXhXhXhXhXhXhXaXaXaXaXaXaXaXaXaXhXhXhXhXhXhXhXhXhXhXhXhXhXhXhXhXhXhXhXhX",
"hXhXhXhXhXhXhXhXhXhXhXhXhXhXhXhXhXhXhXhXhXhXhXhXhXhXhXhXhXhXhXaXaXaXaXaXaXaXaXaXaXaXaXaXaXhXhXhXhXhXhXhXhXhXhXhXhXhXhXhXhXhXhXhX",
"hXhXhXhXhXhXhXhXhXhXhXhXhXhXhXhXhXhXhXhXhXhXhXhXhXhXhXhXhXaXaXaXaXaXaXaXaXaXaXaXyXaXaXaXaXaXhXhXhXhXhXhXhXhXhXhXhXhXhXhXhXhXhXhX",
"hXhXhXhXhXhXhXhXhXhXhXhXhXhXhXhXhXhXhXhXhXhXhXhXhXhXhXaXaXaXaXaXyXaXaXaXaXaXaX0Xq.oXaXaXaXaXhXhXhXhXhXhXhXhXhXhXhXhXhXhXhXhXhXhX",
"hXhXhXhXhXhXhXhXhXhXhXhXhXhXhXhXhXhXhXhXhXhXhXhXhXhXhXaXaXaXaXpXn.6.uXaXaXaXyX4.w V.8XaXaXaXaXhXhXhXhXhXhXhXhXhXhXhXhXhXhXhXhXhX",
"hXhXhXhXhXhXhXhXhXhXhXhXhXhXhXhXhXhXhXhXhXhXhXhXhXhXaXaXaXaXaX8Xa.L 9.uXaXsX0.w G 8.yXaXaXaXaXhXhXhXhXhXhXhXhXhXhXhXhXhXhXhXhXhX",
"hXhXhXhXhXhXhXhXhXhXhXhXhXhXhXhXhXhXhXhXhXhXhXhXhXhXaXaXaXaXaX-X>X/.I i.sXR.H b F -.yXaXaXaXaXaXhXhXhXhXhXhXhXhXhXhXhXhXhXhXhXhX",
"hXhXhXhXhXhXhXhXhXhXhXhXhXhXhXhXhXhXhXhXhXhXhXhXhXaXaXaXaXaXaXqXtXtXf.P ] c s m I r.6XaXaXaXaXaXhXhXhXhXhXhXhXhXhXhXhXhXhXhXhXhX",
"hXhXhXhXhXhXhXhXhXhXhXhXhXhXhXhXhXhXhXhXhXhXhXhXhXaXaXaXaXaXaX;XrXfX#X$.g g ) d B N n.sXaXaXaXaXaXhXhXhXhXhXhXhXhXhXhXhXhXhXhXhX",
"hXhXhXhXhXhXhXhXhXhXhXhXhXhXhXaXaXaXaXaXaXaXaXaXaXaXaXaXaXyX%XM.*XrX>XC.X.O.*...` B r q.sXaXaXaXaXaXhXhXhXhXhXhXhXhXhXhXhXhXhXhX",
"hXhXhXhXhXhXhXhXhXhXhXhXhXaXaXaXaXaXaXaXaXaXaXaXaXaXaXaXyXW.[ [ ~.'.~.s.@.O.+.+.o.X.L V m.pXaXaXaXaXaXhXhXhXhXhXhXhXhXhXhXhXhXhX",
"hXhXhXhXhXhXhXhXhXhXhXhXaXaXaXaXaXaXaXaXaXaXaXaXaXaXaXaX(.4.U #.0.C.i.-...:.>.>.*. .} } d B.sXaXaXaXaXaXhXhXhXhXhXhXhXhXhXhXhXhX",
"hXhXhXhXhXhXhXhXhXhXhXaXaXaXaXaXaXaXaXaXaXaXaXaXaXaXaXyX( K &.&...;.,.>.>.<.t.t.y.t.-.$.{ ' oXaXaXaXaXaXhXhXhXhXhXhXhXhXhXhXhXhX",
"hXhXhXhXhXhXhXhXhXhXaXaXaXaXaXaXaXaXaXaXaXaXaXaXaXaXaXq.a T *.=.*.=.>.>.>.<.y.A.L.I.L.T.s.{ n.aXaXaXaXaXaXhXhXhXhXhXhXhXhXhXhXhX",
"hXhXhXhXhXhXhXhXhXhXaXaXaXaXaXaXaX9X-X%X0XaXaXaXaXaX-XC P +.=.=.=.=.>.>.2.u.A.Y.`.`.:X=X/.i.q.iXaXaXaXaXaXhXhXhXhXhXhXhXhXhXhXhX",
"hXhXhXhXhXhXhXhXhXaXaXaXaXaX;XH.Z.a.a.a.V.H.(.uXaXaXH.S T *.&.=.>.>.>.>.d.K.I.`.,XrX$XS.).T.m.yXaXaXaXaXaXaXhXhXhXhXhXhXhXhXhXhX",
"hXhXhXhXhXhXhXhXhXaXaXaXuXH.a.-.;.%.%.%.o.I -.M.@X0X9.G %.>.=.=.>.<.<.u.A.Y.^.,XtXfXF.h ~.).q.-XaXaXaXaXaXaXhXhXhXhXhXhXhXhXhXhX",
"hXhXhXhXhXhXhXhXaXaXaX<XS.-.o.%.*.*.*.%.=.%.P G _ M.[ E *.>.=.=.>.>.t.h.Y.Y.).,XdXfXF.  P.=XM.S.gXaXaXaXaXaXaXhXhXhXhXhXhXhXhXhX",
"hXhXhXhXhXhXhXhXaXaX;XP.#.%.%.*.*.%.*.*.%.*.%.E F ` ) G o.>.>.*.>.>.t.J.Y.^.).:XdXfX@Xl ].rX~.] B.9XaXaXaXaXaXhXhXhXhXhXhXhXhXhX",
"hXhXhXhXhXhXhXaXaXaX!.@.&.*.=.=.u.h.K.K.J.2.=.T H H C S P &.>.>.>.>.y.K.Y.^.`.:XdXfXfXfXfX,X>Xm.. X %XaXaXaXaXhXhXhXhXhXhXhXhXhX",
"hXhXhXhXhXhXhXaXaX@X9.o.*.*.:.d.[.,XtXtX>X_.f.*.E S M 0 H o.>.>.>.>.y.J.Y.^.).=XdXfXfXfXfXdX,X#XV.l 9XaXaXaXaXhXhXhXhXhXhXhXhXhX",
"hXhXhXhXhXhXaXaXaXV.[ &.*.>.J.&XtXfXfXfXtXrX&XA.Y D p 9 b P =.>.>.<.t.h.Y.^./.&XtXfXfXfXfXfX,X`.`.N.0XaXaXaXaXhXhXhXhXhXhXhXhXhX",
"hXhXhXhXhXhXaXaX-Xq.U &.=.2._.dXfXfXfXdXfXdX,X`.t.L y 8 v S Y *.>.>.2.h.Y././.&XrXfXfXfXfXtX#X`.~.R.aXaXaXaXaXhXhXhXhXhXhXhXhXhX",
"hXhXhXhXhXhXaXaXoX] G &.=.f.*XdX'.S.a.!.tXtX,X*XY.} , = q b H P %.*.<.y.L.^./.`.>XdXfXfXtX:X`.U.!.uXaXaXaXaXaXhXhXhXhXhXhXhXhXhX",
"hXhXhXhXhXhXaXaXR.] G o.>.I.,XrX-.r y 3 a.=X>X,X#Xe.B % + 9 b S G T *.>.d.Y./.`.#XtXdXrX:X).S.Z.9XaXaXaXaXaXaXhXhXhXhXhXhXhXhXhX",
"hXhXhXhXhXhXaXaXQ.' m T >.I.>XrXw.-.w.3 1 U.>X,X:XJ.Z - % - 9 v S G I T ;.d.I./.)._.#X).~.w.9.<XaXaXaXaXaXaXhXhXhXhXhXhXhXhXhXhX",
"hXhXhXhXhXhXaXaXQ.Q n Y :.h.`.rXrX=X~.[ : 3.#X:X>XI.X.M - > - t 9 a m K R o.e.C.C.C.C.w.5.m.@XaXaXaXaXaXaXaXhXhXhXhXhXhXhXhXhXhX",
"hXhXhXhXhXhXaXaXW.^ 7 G T t.Y.*X,X&Xs.} i 3 ).:X*XK.%.P t + r 8 8 y V L Y | ,.p.0.4.4.w.(.uXaXaXaXaXaXaXaXhXhXhXhXhXhXhXhXhXhXhX",
"hXhXhXhXhXhXaXaX%Xj.+ v S R <.h.J.t.| F 8 ( _.*X/.y.%.m 7 9 0 m L Z } -.>.*.t.A.S.i.w.qXaXaXaXaXaXaXaXaXhXhXhXhXhXhXhXhXhXhXhXhX",
"hXhXhXhXhXhXaXaXaXW.# + a S E R T I G D + 0._.).I.2.R q 9 0 S o.:.*.1.y.t.2.u.J.U.s.4.-XaXaXaXaXaXaXaXhXhXhXhXhXhXhXhXhXhXhXhXhX",
"hXhXhXhXhXhXaXaXaXsX+X# + 0 S S n n G 5 3 ~./.^.h.>.F q b S E <.y.y.e.-.-.r.d.f.w.8.-.i.wXaXaXaXaXaXaXhXhXhXhXhXhXhXhXhXhXhXhXhX",
"hXhXhXhXhXhXaXaXaXaXaX+X< O 6 8 8 t + : U.[._.Y.<.T t q b G %.t.u.g.{ V } e.y.y.@.x $._ 8.sXaXaXaXaXaXhXhXhXhXhXhXhXhXhXhXhXhXhX",
"hXhXhXhXhXhXaXaXaXaXaXaX%X^ x 4 3 3 c U.[.^.^.y.T C 7 v S E *.<.f.g.1 7 K ;.t.u.e.( ) ( ( 0.uXaXaXaXaXaXhXhXhXhXhXhXhXhXhXhXhXhX",
"hXhXhXhXhXhXhXaXaXaXaXaXaXaXwXoX%X%X[.=X^.J.d.>.T M 8 v H R =.<.d.g.y - S I ,.y.u.@.A 2 2 X.8.wXaXaXaXaXaXhXhXhXhXhXhXhXhXhXhXhX",
"hXhXhXhXhXhXhXaXaXaXaXaXaXaXaXaXaXgXgX[.K.y.2.:.T t 8 v H +.=.<.y.u.} - 7 H I ;.t.,.X.f % C ` V.sXaXaXaXaXaXhXhXhXhXhXhXhXhXhXhX",
"hXhXhXhXhXhXhXhXaXaXaXaXaXaXaXaXaXgX,X^.d.2.:.&.U , 8 v G %.:.<.y.u.y.A - 7 S P I | _ ( + q s / 5XaXaXaXaXaXhXhXhXhXhXhXhXhXhXhX",
"hXhXhXhXhXhXhXhXhXaXaXaXaXaXaXaXuXtX&XL.y.<.*.I F e r S G +.:.>.t.y.u.t.( = 6 q a g ` ) o O ; c.sXaXaXaXaXaXhXhXhXhXhXhXhXhXhXhX",
"hXhXhXhXhXhXhXhXhXhXaXaXaXaXaXaXgXtX`.A.t.:.+.K D - 5 a G T *.>.2.y.y.d.r.{ 1 - y d _ d # ^ E.yXaXaXaXaXaXaXhXhXhXhXhXhXhXhXhXhX",
"hXhXhXhXhXhXhXhXhXhXhXaXaXaXaXaXuXtX).f.<.:.o.P F > - a G R +.>.<.t.y.u.u.u.r.9.$.@.I e ^ aXaXaXaXaXaXaXaXhXhXhXhXhXhXhXhXhXhXhX",
"hXhXhXhXhXhXhXhXhXhXhXhXaXaXaXaXgXtX/.d.<.:.O.F a - = p F E R *.>.2.2.y.y.y.u.u.t.O.J r Q.aXaXaXaXaXaXaXaXhXhXhXhXhXhXhXhXhXhXhX",
"hXhXhXhXhXhXhXhXhXhXhXhXhXaXaXaXuXtX).y.,.;.O.F a y > r w G K R &.>.<.<.t.t.y.y.<.| C + 9XaXaXaXaXaXaXaXhXhXhXhXhXhXhXhXhXhXhXhX",
"hXhXhXhXhXhXhXhXhXhXhXhXhXaXaXaXuXtX`.u.:.;.O.J a s = > p w G K I T *.:.:.:.>.:.Y K M 2 eXaX5XaXaXaXaXaXhXhXhXhXhXhXhXhXhXhXhXhX",
"hXhXhXhXhXhXhXhXhXhXhXhXhXaXaXaXgXdX#XA.>.O. .C a a : @ e a F K E P I T | R I K K F u M.oX6.3.B.uXaXaXhXhXhXhXhXhXhXhXhXhXhXhXhX",
"hXhXhXhXhXhXhXhXhXhXhXhXhXhXaXaXpXdX>XU.e...` M a a y @ % y u s F G K G K K D F K m A q.8.e.r._ D.aXaXhXhXhXhXhXhXhXhXhXhXhXhXhX",
"hXhXhXhXhXhXhXhXhXhXhXhXhXhXaXaXaXsXqXV.5.$.) g a i y @ * * ; y u s M m m C M D G U ` ..2.2.:.B N.aXhXhXhXhXhXhXhXhXhXhXhXhXhXhX",
"hXhXhXhXhXhXhXhXhXhXhXhXhXhXaXaXaXaXaX].3.x c d y & @ * * < < * & : : y y y g K I #.#.;.;.| y W +XaXaXhXhXhXhXhXhXhXhXhXhXhXhXhX",
"hXhXhXhXhXhXhXhXhXhXhXhXhXhXaXaXaXaXaXsX'.6.x x 1 @ # & 1 1 1 j < & % = % & A U  .;.O. .U , j c.sXaXaXhXhXhXhXhXhXhXhXhXhXhXhXhX",
"hXhXhXhXhXhXhXhXhXhXhXhXhXhXhXaXaXaXaXaXgXeX$Xm.n.S.z > y s s f d c ' ~ j * B C Z U Z B 2 l G.wXaXaXaXhXhXhXhXhXhXhXhXhXhXhXhXhX",
"hXhXhXhXhXhXhXhXhXhXhXhXhXhXhXaXaXaXaXaXpX3X4XOX+XG.j.= y s P Y o.@.3.E.}.# 1 f 2 2 < x l b.2X6XaXaXaXhXhXhXhXhXhXhXhXhXhXhXhXhX",
"hXhXhXhXhXhXhXhXhXhXhXhXhXhXhXhXaXaXaXaXiX4XOX.Xv.v.j.z = p g K U X.' ~ v.j.k k k k ! l.{.XX4X6XaXaXaXhXhXhXhXhXhXhXhXhXhXhXhXhX",
"hXhXhXhXhXhXhXhXhXhXhXhXhXhXhXhXhXaXaXaXaX8X4X1X.X{.z.l.z f f c i B x / v.z.k.k.x.z.z.{. X1X3XiXaXaXaXhXhXhXhXhXhXhXhXhXhXhXhXhX",
"hXhXhXhXhXhXhXhXhXhXhXhXhXhXhXhXhXaXaXaXaXpX6X5X4XXX|..Xc.j.z z W W ! v.v.{..X.X.X.X X|.2X5XiXaXaXaXaXhXhXhXhXhXhXhXhXhXhXhXhXhX",
"hXhXhXhXhXhXhXhXhXhXhXhXhXhXhXhXhXhXaXaXaXaXaXpX6X8X3X4X4X2XOX XG.}. X|.1X2X2X2X4X3X5X7X6XaXaXaXaXaXhXhXhXhXhXhXhXhXhXhXhXhXhXhX",
"hXhXhXhXhXhXhXhXhXhXhXhXhXhXhXhXhXhXhXaXaXaXaXaXaXaXiXpX6X6XyX6X6X6X8X8X6X6X6XiXiXaXaXaXaXaXaXaXaXhXhXhXhXhXhXhXhXhXhXhXhXhXhXhX",
"hXhXhXhXhXhXhXhXhXhXhXhXhXhXhXhXhXhXhXhXhXaXaXaXaXaXaXaXaXaXaXaXaXaXaXaXaXaXaXaXaXaXaXaXaXaXaXhXhXhXhXhXhXhXhXhXhXhXhXhXhXhXhXhX",
"hXhXhXhXhXhXhXhXhXhXhXhXhXhXhXhXhXhXhXhXhXhXhXhXaXaXaXaXaXaXaXaXaXaXaXaXaXaXaXaXaXaXaXaXhXhXhXhXhXhXhXhXhXhXhXhXhXhXhXhXhXhXhXhX",
"hXhXhXhXhXhXhXhXhXhXhXhXhXhXhXhXhXhXhXhXhXhXhXhXhXhXhXhXhXhXhXhXhXhXhXhXhXhXhXhXhXhXhXhXhXhXhXhXhXhXhXhXhXhXhXhXhXhXhXhXhXhXhXhX",
"hXhXhXhXhXhXhXhXhXhXhXhXhXhXhXhXhXhXhXhXhXhXhXhXhXhXhXhXhXhXhXhXhXhXhXhXhXhXhXhXhXhXhXhXhXhXhXhXhXhXhXhXhXhXhXhXhXhXhXhXhXhXhXhX",
"hXhXhXhXhXhXhXhXhXhXhXhXhXhXhXhXhXhXhXhXhXhXhXhXhXhXhXhXhXhXhXhXhXhXhXhXhXhXhXhXhXhXhXhXhXhXhXhXhXhXhXhXhXhXhXhXhXhXhXhXhXhXhXhX",
"hXhXhXhXhXhXhXhXhXhXhXhXhXhXhXhXhXhXhXhXhXhXhXhXhXhXhXhXhXhXhXhXhXhXhXhXhXhXhXhXhXhXhXhXhXhXhXhXhXhXhXhXhXhXhXhXhXhXhXhXhXhXhXhX"
};
