/* XPM */
static char *_636719565647[] = {
/* columns rows colors chars-per-pixel */
"64 64 225 2 ",
"   c #6B3921",
".  c #76442E",
"X  c #7C574B",
"o  c #9D551B",
"O  c #B15B0E",
"+  c #B96619",
"@  c #9D5E2B",
"#  c #A15C26",
"$  c #9B6234",
"%  c #AC6425",
"&  c #AA662B",
"*  c #A66229",
"=  c #B16523",
"-  c #BB6B23",
";  c #B46C2B",
":  c #B76A27",
">  c #BE722D",
",  c #BF7026",
"<  c #A56A39",
"1  c #B36E33",
"2  c #AD723D",
"3  c #BC7332",
"4  c #B7753B",
"5  c #C46E1B",
"6  c #C36A17",
"7  c #CC741E",
"8  c #C9721C",
"9  c #D4791E",
"0  c #DC7D1D",
"q  c #D3771C",
"w  c #E17B17",
"e  c #C26F23",
"r  c #C47223",
"t  c #C4742A",
"y  c #CC7826",
"u  c #D47B24",
"i  c #DB7E21",
"p  c #D47E2C",
"a  c #C47C3B",
"s  c #C77B34",
"d  c #D17F31",
"f  c #8C5D44",
"g  c #97725C",
"h  c #9F6C43",
"j  c #A67549",
"k  c #B77B45",
"l  c #AD7C52",
"z  c #DF801F",
"x  c #E4821E",
"c  c #DD8124",
"v  c #DC842C",
"b  c #D6802C",
"n  c #CD823B",
"m  c #DA8632",
"M  c #DE8C3C",
"N  c #D48437",
"B  c #E38524",
"V  c #E1862A",
"C  c #E4892D",
"Z  c #EB8D2D",
"A  c #E88925",
"S  c #E48B33",
"D  c #E98D31",
"F  c #E48E3B",
"G  c #ED9133",
"H  c #EA933B",
"J  c #E5923F",
"K  c #F1963A",
"L  c #F49A3D",
"P  c #F29637",
"I  c #EF912E",
"U  c #BB8555",
"Y  c #9E886D",
"T  c #A58969",
"R  c #A5937B",
"E  c #B59573",
"W  c #B28F6F",
"Q  c #C98546",
"!  c #D38943",
"~  c #D78D47",
"^  c #DC924B",
"/  c #DB9042",
"(  c #CC925A",
")  c #DD9C5D",
"_  c #D99555",
"`  c #C98D56",
"'  c #E29343",
"]  c #EA9643",
"[  c #EE9A45",
"{  c #EC9B4A",
"}  c #E5984C",
"|  c #F39D44",
" . c #F19E4A",
".. c #F89F46",
"X. c #E59D55",
"o. c #E99E53",
"O. c #FAA145",
"+. c #F4A04B",
"@. c #FCA44B",
"#. c #FFA84E",
"$. c #EDA255",
"%. c #E5A25E",
"&. c #EBA45D",
"*. c #F4A453",
"=. c #FBA752",
"-. c #FEAB54",
";. c #F4A759",
":. c #FEAD5B",
">. c #F5A95C",
",. c #FFB05F",
"<. c #CD9466",
"1. c #D99D63",
"2. c #D99E67",
"3. c #C7966B",
"4. c #DBA26B",
"5. c #DDA164",
"6. c #D9A879",
"7. c #D3A87A",
"8. c #E7A769",
"9. c #F4AE66",
"0. c #FEB264",
"q. c #FEB56B",
"w. c #FFB86E",
"e. c #E5AB72",
"r. c #E4AB76",
"t. c #E4B17D",
"y. c #ECB37C",
"u. c #EFB376",
"i. c #FFBB74",
"p. c #FEBD7C",
"a. c #F5B372",
"s. c #FFC07E",
"d. c #A29B89",
"f. c #AB9E8C",
"g. c #B8AA96",
"h. c #AAA28F",
"j. c #9EB6B6",
"k. c #9EB3AF",
"l. c #A2BBBC",
"z. c #A5BAB6",
"x. c #B3B4A9",
"c. c #C9A785",
"v. c #D4AE8C",
"b. c #DAB287",
"n. c #CCB398",
"m. c #D9B998",
"M. c #CDAE98",
"N. c #EAB585",
"B. c #E2B789",
"V. c #F8BD84",
"C. c #E2BB92",
"Z. c #CEBAA7",
"A. c #DCC099",
"S. c #FFC285",
"D. c #FFC68C",
"F. c #FCC68F",
"G. c #E9C096",
"H. c #FFC994",
"J. c #F3C599",
"K. c #FECC9B",
"L. c #F6C594",
"P. c #EEC38E",
"I. c #DAC5A7",
"U. c #CCC4B4",
"Y. c #D5CAB8",
"T. c #CBC0AD",
"R. c #E3C3A1",
"E. c #E9CBA8",
"W. c #F6CDA6",
"Q. c #FFD1A5",
"!. c #FFD5AC",
"~. c #E1CCBA",
"^. c #E8D5BC",
"/. c #FED6B2",
"(. c #FFD9B4",
"). c #FFDDBC",
"_. c #F1D8BF",
"`. c #FFE0BA",
"'. c #A3BFC2",
"]. c #A9C7C9",
"[. c #B6CBC7",
"{. c #AECED1",
"}. c #B3D1D3",
"|. c #BBDADC",
" X c #B7D7D8",
".X c #BFDDE0",
"XX c #DAD8CB",
"oX c #C1DADA",
"OX c #D2D4CA",
"+X c #E7D9C5",
"@X c #FCDDC1",
"#X c #F1D9C0",
"$X c #DDE2DB",
"%X c #FFE1C4",
"&X c #FFE5CA",
"*X c #FCE9C9",
"=X c #E7E6D9",
"-X c #FEE6D1",
";X c #FFEAD4",
":X c #FFECDC",
">X c #F2E9D7",
",X c #C1DFE0",
"<X c #C4E2E4",
"1X c #CCE9EA",
"2X c #C9E6E7",
"3X c #D5EBEB",
"4X c #DCF4F5",
"5X c #D9F2F4",
"6X c #D3EEF0",
"7X c #E6EBE2",
"8X c #E7EDE7",
"9X c #F7EDE2",
"0X c #E8F2EC",
"qX c #FFF2E4",
"wX c #FFF4EB",
"eX c #E4F4F3",
"rX c #ECF6F2",
"tX c #E0F7F8",
"yX c #E5FAFB",
"uX c #EAFEFF",
"iX c #E9F9F6",
"pX c #FEF9F4",
"aX c #FFFEFE",
"sX c #F5F9F6",
"dX c None",
/* pixels */
"dXdXdXdXdXdXdXdXdXdXdXdXdXdXdXdXdXdXdXdXdXdXdXdXdXdXdXdXdXdXdXdXdXdXdXdXdXdXdXdXdXdXdXdXdXdXdXdXdXdXdXdXdXdXdXdXdXdXdXdXdXdXdXdX",
"dXdXdXdXdXdXdXdXdXdXdXdXdXdXdXdXdXdXdXdXdXdXdXdXdXdXdXdXdXdXdXdXdXdXdXdXdXdXdXdXdXdXdXdXdXdXdXdXdXdXdXdXdXdXdXdXdXdXdXdXdXdXdXdX",
"dXdXdXdXdXdXdXdXdXdXdXdXdXdXdXdXdXdXdXdXdXdXdXdXdXdXdXdXdXdXdXdXdXdXdXdXdXdXdXdXdXdXdXdXdXdXdXdXdXdXdXdXdXdXdXdXdXdXdXdXdXdXdXdX",
"dXdXdXdXdXdXdXdXdXdXdXdXdXdXdXdXdXdXdXdXdXdXdXdXdXdXdXdXdXdXdXdXdXdXdXdXdXuXuXuXuXuXuXdXdXdXdXdXdXdXdXdXdXdXdXdXdXdXdXdXdXdXdXdX",
"dXdXdXdXdXdXdXdXdXdXdXdXdXdXdXdXdXdXdXdXdXdXdXdXdXdXdXdXdXdXdXdXdXdXdXuXuXuXuXuXuXuXuXuXdXdXdXdXdXdXdXdXdXdXdXdXdXdXdXdXdXdXdXdX",
"dXdXdXdXdXdXdXdXdXdXdXdXdXdXdXdXdXdXdXdXdXdXdXdXdXdXdXdXdXdXdXuXuXuXuXuXuXuXuXuXuXuXuXuXuXdXdXdXdXdXdXdXdXdXdXdXdXdXdXdXdXdXdXdX",
"dXdXdXdXdXdXdXdXdXdXdXdXdXdXdXdXdXdXdXdXdXdXdXdXdXdXdXdXdXuXuXuXuXuXuXuXuXuXuXuXeXuXuXuXuXuXdXdXdXdXdXdXdXdXdXdXdXdXdXdXdXdXdXdX",
"dXdXdXdXdXdXdXdXdXdXdXdXdXdXdXdXdXdXdXdXdXdXdXdXdXdXdXuXuXuXuXuX4XuXuXuXuXuXuX9X7.XXuXuXuXuXdXdXdXdXdXdXdXdXdXdXdXdXdXdXdXdXdXdX",
"dXdXdXdXdXdXdXdXdXdXdXdXdXdXdXdXdXdXdXdXdXdXdXdXdXdXdXuXuXuXuXyXc.7.0XuXuXuXeX1.w m.5XuXuXuXuXdXdXdXdXdXdXdXdXdXdXdXdXdXdXdXdXdX",
"dXdXdXdXdXdXdXdXdXdXdXdXdXdXdXdXdXdXdXdXdXdXdXdXdXdXuXuXuXuXuX3Xt.F 5.0XuXyX6.w Z 4.0XuXuXuXuXdXdXdXdXdXdXdXdXdXdXdXdXdXdXdXdXdX",
"dXdXdXdXdXdXdXdXdXdXdXdXdXdXdXdXdXdXdXdXdXdXdXdXdXdXuXuXuXuXuX7X;X/.H e.iXI.x x V 8.eXuXuXuXuXuXdXdXdXdXdXdXdXdXdXdXdXdXdXdXdXdX",
"dXdXdXdXdXdXdXdXdXdXdXdXdXdXdXdXdXdXdXdXdXdXdXdXdXuXuXuXuXuXuX9XwXwXp.G ` Q p p G 9.5XuXuXuXuXuXdXdXdXdXdXdXdXdXdXdXdXdXdXdXdXdX",
"dXdXdXdXdXdXdXdXdXdXdXdXdXdXdXdXdXdXdXdXdXdXdXdXdXuXuXuXuXuXuX=X9XaX@XX.d d ! ! n n c.iXuXuXuXuXuXdXdXdXdXdXdXdXdXdXdXdXdXdXdXdX",
"dXdXdXdXdXdXdXdXdXdXdXdXdXdXdXuXuXuXuXuXuXuXuXuXuXuXuXuXuX0X$Xb.-XqX;XN.}  .@. ./ d e 7.iXuXuXuXuXuXdXdXdXdXdXdXdXdXdXdXdXdXdXdX",
"dXdXdXdXdXdXdXdXdXdXdXdXdXuXuXuXuXuXuXuXuXuXuXuXuXuXuXuX0XY.) _ W.@XE.y.o. ... . .{ M N v.yXuXuXuXuXuXdXdXdXdXdXdXdXdXdXdXdXdXdX",
"dXdXdXdXdXdXdXdXdXdXdXdXuXuXuXuXuXuXuXuXuXuXuXuXuXuXuXuXXX) F o.6.y.e.&. .=.-.-.@.[ ' ' a n.yXuXuXuXuXuXdXdXdXdXdXdXdXdXdXdXdXdX",
"dXdXdXdXdXdXdXdXdXdXdXuXuXuXuXuXuXuXuXuXuXuXuXuXuXuXuXeXQ S @.+.[ $.;.-.-.:.,.0.0.9.&.X.` ` XXuXuXuXuXuXdXdXdXdXdXdXdXdXdXdXdXdX",
"dXdXdXdXdXdXdXdXdXdXuXuXuXuXuXuXuXuXuXuXuXuXuXuXuXuXuX7.c L @.@.@.#.-.-.-.:.q.V.F.H.F.L.y._ c.uXuXuXuXuXuXdXdXdXdXdXdXdXdXdXdXdX",
"dXdXdXdXdXdXdXdXdXdXuXuXuXuXuXuXuX7X=X3X8XuXuXuXuXuX=Xm I O.@.@.#.-.-.-.:.w.V.Q.).@X&X;XQ.e.c.iXuXuXuXuXuXdXdXdXdXdXdXdXdXdXdXdX",
"dXdXdXdXdXdXdXdXdXuXuXuXuXuX=XA.B.t.t.t.m.G.^.0XuXuXA.B L @.@.-.#.-.-.:.i.D.H.).:XqX#XC./.L.c.eXuXuXuXuXuXuXdXdXdXdXdXdXdXdXdXdX",
"dXdXdXdXdXdXdXdXdXuXuXuXeXA.r.&.$.O.O.O.[ K %.b.=X=X1.Z ..-.#.#.-.,.-.w.D.H.!.;XwXaXZ.f W.!.7.=XuXuXuXuXuXuXdXdXdXdXdXdXdXdXdXdX",
"dXdXdXdXdXdXdXdXuXuXuX>XC.$.+.O.O.@.@.O.#.O.P S ^ b._ I @.-.#.#.-.-.,.S.H.K./.:XpXaXZ.  R.*XB.C.sXuXuXuXuXuXuXdXdXdXdXdXdXdXdXdX",
"dXdXdXdXdXdXdXdXuXuX=XG.o.O.@.@.@.O.#.#.O.O.O.I Z M ! Z | -.-.#.-.-.0.S.K.Q./.-XpXaX+Xg ~.qXW.( n.7XuXuXuXuXuXdXdXdXdXdXdXdXdXdX",
"dXdXdXdXdXdXdXuXuXyXE.o.O.@.@.#.s.s.D.D.S.,.@.L A V m B G @.-.#.-.-.q.D.K.Q.).-XpXaXaXpXaX:X;Xv.. X $XuXuXuXuXdXdXdXdXdXdXdXdXdX",
"dXdXdXdXdXdXdXuXuX+X5.| @.@.-.i.`.:XwXqX;X(.p.@.G B b 0 B | -.-.-.-.q.S.K.Q./.&XpXaXaXaXaXpX:X%Xm.g 7XuXuXuXuXdXdXdXdXdXdXdXdXdX",
"dXdXdXdXdXdXuXuXuXm._ +.@.-.S.%XqXaXaXaXwXqX%Xp.K V u 9 x G =.-.-.-.0.s.K.Q.!.%XwXaXaXaXaXaX:X).).M.8XuXuXuXuXdXdXdXdXdXdXdXdXdX",
"dXdXdXdXdXdXuXuX=X7.F @.@.,.(.wXaXaXaXpXaXpX:X).9.S t 8 x B P @.-.-.0.s.K.Q.!.%XqXaXaXaXaXwX%X(.W.I.uXuXuXuXuXdXdXdXdXdXdXdXdXdX",
"dXdXdXdXdXdXuXuXXX( C +.-.s.&XpX_.C.6.E.wXwX:X&XK.} t = q x A G O.#.,.q.H.Q.!.).;XpXaXaXwX-X).J.R.eXuXuXuXuXuXdXdXdXdXdXdXdXdXdX",
"dXdXdXdXdXdXuXuXY.` C +.-.H.:XqX%.r t 3 t.*X;X:X@X8.n % + 9 z B Z L @.-.i.K.!.).@XqXpXqX-X/.N.B.7XuXuXuXuXuXuXdXdXdXdXdXdXdXdXdX",
"dXdXdXdXdXdXuXuXT.` c L -.H.;XwX8.$.e.4 1 J.;X9X;XS.M - % + 9 z B Z G L ;.i.L.!./._.@X(.W.8.4.=XuXuXuXuXuXuXdXdXdXdXdXdXdXdXdXdX",
"dXdXdXdXdXdXuXuXT.( z K -.p.).qXqX;XW._ ; <.%X-X;XH.{ p , = , y u u v Z P | 9.N.N.N.y.4.2.b.=XsXuXuXuXuXuXuXdXdXdXdXdXdXdXdXdXdX",
"dXdXdXdXdXdXuXuXY.E 8 C L ,.K.&X:X%Xu.J y 4 /.*X&XS.@.G y + r 8 r y N M L K ;.e.r.1.1.e.^.rXuXuXuXuXuXuXuXdXdXdXdXdXdXdXdXdXdXdX",
"dXdXdXdXdXdXuXuX=Xf.O 0 B K :.p.S.0.] S y Q /.&X!.q.O.v 8 0 0 v S M ' o.-.=.0.V.G.8.8.7XuXuXuXuXuXuXuXuXdXdXdXdXdXdXdXdXdXdXdXdX",
"dXdXdXdXdXdXuXuXiXU.h + z B G P L H C B + 6.(.!.H.,.P q 9 0 B | -.@.>.q.0.:.i.S.P.y.1.7XuXuXuXuXuXuXuXdXdXdXdXdXdXdXdXdXdXdXdXdX",
"dXdXdXdXdXdXuXuXuXiXOX@ + 0 B B B A V 8 4 W.!.!.s.-.C q z x G :.0.0.9.&.&.a.i.p.8.4.&.6.0XuXuXuXuXuXuXdXdXdXdXdXdXdXdXdXdXdXdXdX",
"dXdXdXdXdXdXuXuXuXuXuXOX< O 6 8 8 r + ; L.`.(.H.-.L y 9 x Z O.,.i.a.( N ' >.q.q.^ U %./ 6.rXuXuXuXuXuXdXdXdXdXdXdXdXdXdXdXdXdXdX",
"dXdXdXdXdXdXuXuXuXuXuXuX=XE l 2 4 4 a L.`.Q.Q.q.| v 7 z B I @.,.p.u.1 7 C *.0.q.9.n ! Q Q 6.eXuXuXuXuXuXdXdXdXdXdXdXdXdXdXdXdXdX",
"dXdXdXdXdXdXdXuXuXuXuXuXuXuX8XXX$X$X_.;XQ.S.i.-.L b 8 z A L @.,.i.q.s - B H >.q.w.$.! 3 3 ' 6.0XuXuXuXuXuXdXdXdXdXdXdXdXdXdXdXdX",
"dXdXdXdXdXdXdXuXuXuXuXuXuXuXuXuXuXuXpX`.F.q.,.=.L y 8 c A L =.:.q.q.] : q A H =.0.&.^ n = m J m.iXuXuXuXuXuXdXdXdXdXdXdXdXdXdXdX",
"dXdXdXdXdXdXdXdXuXuXuXuXuXuXuXuXuXwX:XQ.i.:.-.+.H , 8 z Z ..-.:.0.w.0.N = y B D K ] ~ ! + q b W 8XuXuXuXuXuXdXdXdXdXdXdXdXdXdXdX",
"dXdXdXdXdXdXdXdXdXuXuXuXuXuXuXuXrXwX%XH.q.-.+.K C e r i G ..=.=.0.q.i.0.Q % 6 q i N ~ ! o O & x.yXuXuXuXuXuXdXdXdXdXdXdXdXdXdXdX",
"dXdXdXdXdXdXdXdXdXdXuXuXuXuXuXuXsXwX).V.0.=...G V : r w I L @.:.0.q.w.q.9.~ 1 : t n / n $ E U.eXuXuXuXuXuXuXdXdXdXdXdXdXdXdXdXdX",
"dXdXdXdXdXdXdXdXdXdXdXuXuXuXuXuXrXwX/.i.0.=...G i : : i I K ..-.,.0.q.w.i.q.9.8.) o.] - f.uXuXuXuXuXuXuXuXdXdXdXdXdXdXdXdXdXdXdX",
"dXdXdXdXdXdXdXdXdXdXdXdXuXuXuXuXsXwX!.i.-.=.[ S i e = u A I P  .-.,.0.0.q.q.q.i.0. .D r Z.uXuXuXuXuXuXuXuXdXdXdXdXdXdXdXdXdXdXdX",
"dXdXdXdXdXdXdXdXdXdXdXdXdXuXuXyXrXwX/.0.>.=. .C i t : r w Z Z K +.@.:.:.0.0.0.q.:.L m + =XuXuXuXuXuXuXuXdXdXdXdXdXdXdXdXdXdXdXdX",
"dXdXdXdXdXdXdXdXdXdXdXdXdXuXuXuXsXwX).i.*.*. .S i p % : 9 w Z G P | @.=.=.=.-.=.| S y % +X*XK.P.0XuXuXuXdXdXdXdXdXdXdXdXdXdXdXdX",
"dXdXdXdXdXdXdXdXdXdXdXdXdXuXuXuXiXpX@Xp.;.{ ] m i i : # e p D D G G P L | P K P Z c ; n 9.,.,.$.^.uXuXdXdXdXdXdXdXdXdXdXdXdXdXdX",
"dXdXdXdXdXdXdXdXdXdXdXdXdXdXuXuXuXsX:XL.9.o.F v i i t * % y p p C D S D Z D D D C t 3 | -.>.{ N v.uXuXdXdXdXdXdXdXdXdXdXdXdXdXdX",
"dXdXdXdXdXdXdXdXdXdXdXdXdXdXuXuXuXiX9Xm.2.X.~ d p y ; # 1 t y p S C C v v v m C t ; M [ [ F b k $XuXdXdXdXdXdXdXdXdXdXdXdXdXdXdX",
"dXdXdXdXdXdXdXdXdXdXdXdXdXdXuXuXuXuXuX~.<.k a s t & $ & d F S S S b t t t t t , * , M ] J N k Y.uXuXuXdXdXdXdXdXdXdXdXdXdXdXdXdX",
"dXdXdXdXdXdXdXdXdXdXdXdXdXdXuXuXuXuXuXiX#X3.U k & # @ a p ]  .] S p % * = & % < 2 = y m s 4 g.uXuXuXuXdXdXdXdXdXdXdXdXdXdXdXdXdX",
"dXdXdXdXdXdXdXdXdXdXdXdXdXdXdXuXuXuXuXuXyX0X+Xv.c.c.l 1 d F { $.o.] } Q 2 l T h.R j 2 j j g.1XuXuXuXuXdXdXdXdXdXdXdXdXdXdXdXdXdX",
"dXdXdXdXdXdXdXdXdXdXdXdXdXdXdXuXuXuXuXuXyX1X<XoX[.'.d.$ 1 M ] { { *.0.0.) W l.l.j.x.R h.z. X1XtXuXuXuXdXdXdXdXdXdXdXdXdXdXdXdXdX",
"dXdXdXdXdXdXdXdXdXdXdXdXdXdXdXdXuXuXuXuXeX1XoX}.'.'.'.d.$ # d d ] { [ -.,.U z.j.z.k.k.z.{.|.2X4XuXuXuXdXdXdXdXdXdXdXdXdXdXdXdXdX",
"dXdXdXdXdXdXdXdXdXdXdXdXdXdXdXdXdXuXuXuXuX6X1X|.oX'.'.'.h.d.j h 3 3 3 s a T j.j.j.'.'.]. X,X1XtXuXuXuXdXdXdXdXdXdXdXdXdXdXdXdXdX",
"dXdXdXdXdXdXdXdXdXdXdXdXdXdXdXdXdXuXuXuXuXyX4X6X,XoXoX}.'.'.x.d.R Y T R R l.].{.{.}. X|.<X6XtXuXuXuXuXdXdXdXdXdXdXdXdXdXdXdXdXdX",
"dXdXdXdXdXdXdXdXdXdXdXdXdXdXdXdXdXdXuXuXuXuXuXyX4X6X1X1X2X<X<X.X X X[.[.oX<X<X2X2X1X6X5X4XuXuXuXuXuXdXdXdXdXdXdXdXdXdXdXdXdXdXdX",
"dXdXdXdXdXdXdXdXdXdXdXdXdXdXdXdXdXdXdXuXuXuXuXuXuXuXtXtXeX4X4X4X5X5X5X5X4X4X4XtXtXuXuXuXuXuXuXuXuXdXdXdXdXdXdXdXdXdXdXdXdXdXdXdX",
"dXdXdXdXdXdXdXdXdXdXdXdXdXdXdXdXdXdXdXdXdXuXuXuXuXuXuXuXuXuXuXuXuXyXuXuXuXuXuXuXuXuXuXuXuXuXuXdXdXdXdXdXdXdXdXdXdXdXdXdXdXdXdXdX",
"dXdXdXdXdXdXdXdXdXdXdXdXdXdXdXdXdXdXdXdXdXdXdXdXuXuXuXuXuXuXuXuXuXuXuXuXuXuXuXuXuXuXuXuXdXdXdXdXdXdXdXdXdXdXdXdXdXdXdXdXdXdXdXdX",
"dXdXdXdXdXdXdXdXdXdXdXdXdXdXdXdXdXdXdXdXdXdXdXdXdXdXdXdXdXdXdXdXdXdXdXdXdXdXdXdXdXdXdXdXdXdXdXdXdXdXdXdXdXdXdXdXdXdXdXdXdXdXdXdX",
"dXdXdXdXdXdXdXdXdXdXdXdXdXdXdXdXdXdXdXdXdXdXdXdXdXdXdXdXdXdXdXdXdXdXdXdXdXdXdXdXdXdXdXdXdXdXdXdXdXdXdXdXdXdXdXdXdXdXdXdXdXdXdXdX",
"dXdXdXdXdXdXdXdXdXdXdXdXdXdXdXdXdXdXdXdXdXdXdXdXdXdXdXdXdXdXdXdXdXdXdXdXdXdXdXdXdXdXdXdXdXdXdXdXdXdXdXdXdXdXdXdXdXdXdXdXdXdXdXdX",
"dXdXdXdXdXdXdXdXdXdXdXdXdXdXdXdXdXdXdXdXdXdXdXdXdXdXdXdXdXdXdXdXdXdXdXdXdXdXdXdXdXdXdXdXdXdXdXdXdXdXdXdXdXdXdXdXdXdXdXdXdXdXdXdX"
};
