/* XPM */
static char *_636719572080[] = {
/* columns rows colors chars-per-pixel */
"64 64 223 2 ",
"   c #67361D",
".  c #7A5243",
"X  c #96501A",
"o  c #91480D",
"O  c #A65B1B",
"+  c #AA5D18",
"@  c #AF611C",
"#  c #B96619",
"$  c #BD600B",
"%  c #985929",
"&  c #965C34",
"*  c #8A502E",
"=  c #A15C27",
"-  c #91603B",
";  c #AF6626",
":  c #A96529",
">  c #B36622",
",  c #BB6C22",
"<  c #B26A2A",
"1  c #B96C27",
"2  c #A86732",
"3  c #B26D31",
"4  c #AE713F",
"5  c #BB7537",
"6  c #BD732F",
"7  c #C36D1D",
"8  c #C66B15",
"9  c #CB741E",
"0  c #C7711F",
"q  c #D4791E",
"w  c #DB7C1D",
"e  c #D2771B",
"r  c #E27C16",
"t  c #C47223",
"y  c #CB7523",
"u  c #C4742A",
"i  c #CE7927",
"p  c #D37A24",
"a  c #DB7F22",
"s  c #D47C27",
"d  c #C47A36",
"f  c #D17E32",
"g  c #956B4F",
"h  c #A87147",
"j  c #BC7B44",
"k  c #B77843",
"l  c #A37A57",
"z  c #B17F51",
"x  c #9F7760",
"c  c #C27D40",
"v  c #DF801F",
"b  c #E4821E",
"n  c #DD8122",
"m  c #DC832B",
"M  c #D6812D",
"N  c #CB823D",
"B  c #CE8033",
"V  c #DC8C3B",
"C  c #D78535",
"Z  c #E28424",
"A  c #E98622",
"S  c #EA8925",
"D  c #E28629",
"F  c #E68A2C",
"G  c #EC8D2C",
"H  c #E78825",
"J  c #E38B32",
"K  c #EB8F30",
"L  c #E38E3A",
"P  c #ED9234",
"I  c #EC943A",
"U  c #E8933A",
"Y  c #F19435",
"T  c #F1973B",
"R  c #F3993C",
"E  c #BC804D",
"W  c #B8926B",
"Q  c #A68D74",
"!  c #B58D74",
"~  c #AE9175",
"^  c #CA8749",
"/  c #DA8E44",
"(  c #D58B46",
")  c #DD944D",
"_  c #DC9145",
"`  c #C88D55",
"'  c #CA935C",
"]  c #D99759",
"[  c #E49344",
"{  c #EA9744",
"}  c #EE9944",
"|  c #EC9B4B",
" . c #E5984B",
".. c #F49C43",
"X. c #F89E43",
"o. c #F29E4A",
"O. c #E49B53",
"+. c #E99F56",
"@. c #FCA347",
"#. c #F6A24B",
"$. c #FBA44B",
"%. c #FFA84E",
"&. c #F5A047",
"*. c #ECA255",
"=. c #EDA55C",
"-. c #F4A454",
";. c #FAA752",
":. c #FEAA54",
">. c #FFAE5B",
",. c #F5A95C",
"<. c #FFB15E",
"1. c #CB9667",
"2. c #DA9E65",
"3. c #C39A74",
"4. c #E19F60",
"5. c #DDA368",
"6. c #C9A17D",
"7. c #DAA978",
"8. c #E9A767",
"9. c #F4AF6B",
"0. c #F7AD64",
"q. c #FFB263",
"w. c #FEB66B",
"e. c #FFB96D",
"r. c #F4B06C",
"t. c #E6AB76",
"y. c #E6B17C",
"u. c #FFBB74",
"i. c #FEBD7B",
"p. c #F7B572",
"a. c #FFC07F",
"s. c #B7A38E",
"d. c #BBAB9A",
"f. c #AAA695",
"g. c #9EB6B6",
"h. c #ADB4AD",
"j. c #A2BABA",
"k. c #AABAB6",
"l. c #AFB1A9",
"z. c #CCA681",
"x. c #D9B286",
"c. c #C9B89F",
"v. c #DABB99",
"b. c #C9AD8F",
"n. c #E9B788",
"m. c #FABE82",
"M. c #EBBE93",
"N. c #CABBA6",
"B. c #D6BBA6",
"V. c #B1C1BE",
"C. c #DBC09D",
"Z. c #FFC285",
"A. c #FEC58B",
"S. c #E7C19B",
"D. c #FFC992",
"F. c #FECC9C",
"G. c #F6C79A",
"H. c #DBC3A7",
"J. c #CDC7B8",
"K. c #D4C8B4",
"L. c #D9D0BD",
"P. c #FBCDA2",
"I. c #F2CEAB",
"U. c #F4CBA5",
"Y. c #FFD1A5",
"T. c #FFD5AC",
"R. c #E6D5BA",
"E. c #FBD5B1",
"W. c #FFDAB5",
"Q. c #FEDDBB",
"!. c #E7C9AC",
"~. c #FFE1BF",
"^. c #A3BFC0",
"/. c #A9C5C5",
"(. c #BCDBDD",
"). c #B6D3D5",
"_. c #BAD0CF",
"`. c #BFDDE0",
"'. c #D8D8CA",
"]. c #C7DAD8",
"[. c #DADDD4",
"{. c #C4CAC0",
"}. c #E5DBC4",
"|. c #E5D9C5",
" X c #F9DEC5",
".X c #E7DFD2",
"XX c #DDE2DB",
"oX c #EAE2CC",
"OX c #FFE2C3",
"+X c #FFE5CC",
"@X c #FFE9CE",
"#X c #E5E6D8",
"$X c #FFEAD5",
"%X c #FFEDDC",
"&X c #FFE7D1",
"*X c #FFF1D6",
"=X c #C1DFE0",
"-X c #C4E2E4",
";X c #CAE8E9",
":X c #D8EBEA",
">X c #DCF4F5",
",X c #D9F2F4",
"<X c #D3EEF0",
"1X c #E5EBE5",
"2X c #F9EEE2",
"3X c #E2F0EE",
"4X c #EAF3EC",
"5X c #FFF2E4",
"6X c #FFF4EB",
"7X c #F8F6EB",
"8X c #E5F5F3",
"9X c #EBF6F2",
"0X c #EAF8F5",
"qX c #E0F7F8",
"wX c #E5FAFB",
"eX c #EAFEFF",
"rX c #E7F8F7",
"tX c #F3F7F5",
"yX c #FEF7F2",
"uX c #FFFAF4",
"iX c #FFFEFE",
"pX c #F3FBFB",
"aX c None",
/* pixels */
"aXaXaXaXaXaXaXaXaXaXaXaXaXaXaXaXaXaXaXaXaXaXaXaXaXaXaXaXaXaXaXaXaXaXaXaXaXaXaXaXaXaXaXaXaXaXaXaXaXaXaXaXaXaXaXaXaXaXaXaXaXaXaXaX",
"aXaXaXaXaXaXaXaXaXaXaXaXaXaXaXaXaXaXaXaXaXaXaXaXaXaXaXaXaXaXaXaXaXaXaXaXaXaXaXaXaXaXaXaXaXaXaXaXaXaXaXaXaXaXaXaXaXaXaXaXaXaXaXaX",
"aXaXaXaXaXaXaXaXaXaXaXaXaXaXaXaXaXaXaXaXaXaXaXaXaXaXaXaXaXaXaXaXaXaXaXaXaXaXaXaXaXaXaXaXaXaXaXaXaXaXaXaXaXaXaXaXaXaXaXaXaXaXaXaX",
"aXaXaXaXaXaXaXaXaXaXaXaXaXaXaXaXaXaXaXaXaXeXeXeXeXeXeXaXaXaXaXaXaXaXaXaXaXaXaXaXaXaXaXaXaXaXaXaXaXaXaXaXaXaXaXaXaXaXaXaXaXaXaXaX",
"aXaXaXaXaXaXaXaXaXaXaXaXaXaXaXaXaXaXaXaXeXeXeXeXeXeXeXeXeXaXaXaXaXaXaXaXaXaXaXaXaXaXaXaXaXaXaXaXaXaXaXaXaXaXaXaXaXaXaXaXaXaXaXaX",
"aXaXaXaXaXaXaXaXaXaXaXaXaXaXaXaXaXaXaXeXeXeXeXeXeXeXeXeXeXeXeXeXeXaXaXaXaXaXaXaXaXaXaXaXaXaXaXaXaXaXaXaXaXaXaXaXaXaXaXaXaXaXaXaX",
"aXaXaXaXaXaXaXaXaXaXaXaXaXaXaXaXaXaXeXeXeXeXeXeXeXeXeXeXeXeXeXeXeXeXeXaXaXaXaXaXaXaXaXaXaXaXaXaXaXaXaXaXaXaXaXaXaXaXaXaXaXaXaXaX",
"aXaXaXaXaXaXaXaXaXaXaXaXaXaXaXaXaXaXeXeXeXeXeXeXeXeXeXeXeXeXeXeXeXeXeXeXeXaXaXaXaXaXaXaXaXaXaXaXaXaXaXaXaXaXaXaXaXaXaXaXaXaXaXaX",
"aXaXaXaXaXaXaXaXaXaXaXaXaXaXaXaXaXeXeXeXeXeXrX[.4XeXeXeXeXeXeXpXeXeXeXeXeXaXaXaXaXaXaXaXaXaXaXaXaXaXaXaXaXaXaXaXaXaXaXaXaXaXaXaX",
"aXaXaXaXaXaXaXaXaXaXaXaXaXaXaXaXaXeXeXeXeX8XJ./ R.eXeXeXeXeX:X].eXeXeXeXeXeXaXaXaXaXaXaXaXaXaXaXaXaXaXaXaXaXaXaXaXaXaXaXaXaXaXaX",
"aXaXaXaXaXaXaXaXaXaXaXaXaXaXaXaXeXeXeXeXeX3Xx.b V XXeXeXeXR.N 1.qXeXeXeXeXeXaXaXaXaXaXaXaXaXaXaXaXaXaXaXaXaXaXaXaXaXaXaXaXaXaXaX",
"aXaXaXaXaXaXaXaXaXaXaXaXaXaXaXaXeXeXeXeXeX8X2.D r _ 1XeX}.[ 9.P.1XeXeXeXeXeXeXaXaXaXaXaXaXaXaXaXaXaXaXaXaXaXaXaXaXaXaXaXaXaXaXaX",
"aXaXaXaXaXaXaXaXaXaXaXaXaXaXaXeXeXeXeXeXeXqX8.G Z b 7.L. .;.$X6X2XwXeXeXeXeXeXaXaXaXaXaXaXaXaXaXaXaXaXaXaXaXaXaXaXaXaXaXaXaXaXaX",
"aXaXaXaXaXaXaXaXaXaXaXaXaXaXeXeXeXeXeXeXeX[.+.L B B 6 d L P.uX6X2XeXeXeXeXeXeXeXeXeXeXeXeXeXeXeXeXaXaXaXaXaXaXaXaXaXaXaXaXaXaXaX",
"aXaXaXaXaXaXaXaXaXaXaXaXaXeXeXeXeXeXeXeX#X^ d c /  .L V 8.&XuX2X'.rXeXeXeXeXeXeXeXeXeXeXeXeXeXeXeXeXeXaXaXaXaXaXaXaXaXaXaXaXaXaX",
"aXaXaXaXaXaXaXaXaXaXaXaXeXeXeXeXeXeXeX#X` f [ } o.@.o.O.n. X%X X2.H.XXeXeXeXeXeXeXeXeXeXeXeXeXeXeXeXeXeXaXaXaXaXaXaXaXaXaXaXaXaX",
"aXaXaXaXaXaXaXaXaXaXaXaXeXeXeXeXeXeX#X` C { } o.@.$.#.| 8.M.U.M.O.V v.#XeXeXeXeXeXeXeXeXeXeXeXeXeXeXeXeXeXaXaXaXaXaXaXaXaXaXaXaX",
"aXaXaXaXaXaXaXaXaXaXaXeXeXeXeXeXeX8X3.d  . .#.:.>.<.;.-.=.8.8.+.o.I / v.rXeXeXeXeXeXeX0X8X4X0XeXeXeXeXeXeXeXaXaXaXaXaXaXaXaXaXaX",
"aXaXaXaXaXaXaXaXaXaXaXeXeXeXeXeXeXK.^ ] 8.r.u.u.e.<.:.:.:.;.#.o.#.$.Y B .XeXeXeXeX4X}.K.C.C.C.R.oX0XeXeXeXeXaXaXaXaXaXaXaXaXaXaX",
"aXaXaXaXaXaXaXaXaXaXeXeXeXeXeXeXeXz.] G.T.Y.Y.P.A.u.q.>.:.%.:.%.%.;...S ' 8XeX0XR.y.) *.*.*.*.*.5.C.oXeXeXeXeXaXaXaXaXaXaXaXaXaX",
"aXaXaXaXaXaXaXaXaXaXeXeXeXeXeXeXqXx.n.E.+X&X@X+XY.D.i.<.:.:.:.%.%.$.&.Y m }.#Xx._ I R $.@.@.@.@.&.*.5.R.eXeXeXaXaXaXaXaXaXaXaXaX",
"aXaXaXaXaXaXaXaXaXeXeXeXeXeXeXeX:Xz.G.E.! !.yX2X+XY.D.a.q.:.:.%.%.$.;...S 7.x.L S R $.@.@.@.@.%.@.X.} t.R.eXeXeXaXaXaXaXaXaXaXaX",
"aXaXaXaXaXaXaXaXaXeXeXeXeXeXeXeX}.7.W.I.* B.iXyX%XT.F.D.a.<.>.:.%.%.>.@.G ] L S Y @.%.%.>.:.:.$.%.$.@...y.oXeXeXaXaXaXaXaXaXaXaX",
"aXaXaXaXaXaXaXaXaXeXeXeXeXeXeX4Xt.S.5XB.  B.iXuX$XT.F.F.Z.<.:.:.%.:.:.X.P _ F S R :.e.Y.T.Y.Y.a.;.$.%.@.} C.4XeXeXaXaXaXaXaXaXaX",
"aXaXaXaXaXaXaXaXaXeXeXeXeX3Xb.x 1.Q.5X.XN.2XiXuX&XW.P.F.Z.w.>.:.%.:.;.T F C Z G ;.A.OX2XuXuX6X&XZ.;.%.$...] R.eXeXaXaXaXaXaXaXaX",
"aXaXaXaXaXaXaXaXaXeXeXeXeX[.. g !.@X5XiXiXiXiXuX&XW.P.F.Z.w.:.:.:.:.@.G Z s Z ..Z.@X2XyXiXiXiXyX+XD.>.$.&.O.v.0XeXeXaXaXaXaXaXaX",
"aXaXaXaXaXaXaXaXaXeXeXeXeX1X! I.OX%XiXiXiXiXiXyX+XT.P.P.Z.w.:.:.:.:.} A q u L 9.Q.%XyXiXuXuXiXiX6XW.q.$.#.L 6.#XeXeXaXaXaXaXaXaX",
"aXaXaXaXaXaXaXaXaXeXeXeXeXrXB.E.W.$XiXiXiXiXiX5X XE.Y.F.a.<.>.>.:.@.G b 0 1  .D.+X$XyXuXI.n.S.|.uX+Xu.:.$.J 1.R.eXeXaXaXaXaXaXaX",
"aXaXaXaXaXaXaXaXaXeXeXeXeXeXoXS.T.Q.%XiXiXiXiX%XQ.T.Y.F.u.>.:.$...G b e > u 8.Q.%X$X%XM.d 6 6 8.5X%XD.>...F ' H.eXeXaXaXaXaXaXaX",
"aXaXaXaXaXaXaXaXaXaXeXeXeXeXeX!.n.T.+X2XuXiXuX@XQ.E.Y.A.q.;.@.R G b b 7 > V i.&X%X$XU.5 3 O.V O.5X*XD.:...D ` c.eXeXaXaXaXaXaXaX",
"aXaXaXaXaXaXaXaXaXaXeXeXeXeXeX0XC.t.D.OX$X5X%XOXW.T.D.w.$...Y F Z b 9 > u } D.$X$X+X7.; ` F.T.Q.6X+XZ.:.R a ` N.eXeXaXaXaXaXaXaX",
"aXaXaXaXaXaXaXaXaXaXaXeXeXeXeXeX9Xx.] n.G.P.P.U.P.m.,...Y P Z n w 9 > , J #.A.&X@XE.j u ) G.5XiX$XT.u.&.G p W N.eXeXaXaXaXaXaXaX",
"aXaXaXaXaXaXaXaXaXaXaXaXeXeXeXeXeX9X|.7.] 5.5.7.t.*.T P F M i 9 0 , > t K @.a.~.@XE.5 i L *.A.E.Y.a.@.G Z 8 ~ J.eXeXaXaXaXaXaXaX",
"aXaXaXaXaXaXaXaXaXaXaXaXaXeXeXeXeXeX0X1X!.2.2.n.y.,.....[ N i i 9 y t y Z R q.F.~.W.] 7 F J #.<.:.&.G b e O d.'.eXeXaXaXaXaXaXaX",
"aXaXaXaXaXaXaXaXaXaXaXaXaXeXeXeXeXeXeXeX9X2.t.G.Z.w.:.>.0.| } T J w w q 9 P <.A.T.W.n.@ m F F K G F v q + l J.:XeXeXaXaXaXaXaXaX",
"aXaXaXaXaXaXaXaXaXaXaXaXaXeXeXeXeXeXeXeXR.+.y.n.Z.e.w.0.9.q.>.<.%.D v w e m %.u.Y.T.E.` # m D v n v e @ l J.#XeXeXeXaXaXaXaXaXaX",
"aXaXaXaXaXaXaXaXaXaXaXaXeXeXeXeXeXeXeX|.O.8.' ] e.u.9.O.) 8.w.w.<.R H v q y R %.D.E.W.Y.d # 7 7 # # @ l d.8XeXeXeXeXaXaXaXaXaXaX",
"aXaXaXaXaXaXaXaXaXaXaXeXeXeXeXeXeXeX.X] _ ) c +.w.w.,.L f c t.u.<.@.K b w 0 m } w.Y.Y.W.P.d 4 k 4 E W N.3XeXeXeXeXaXaXaXaXaXaXaX",
"aXaXaXaXaXaXaXaXaXaXeXeXeXeXeXeXeX.X' d N N ( w.w.q.o.F 9 3 p.u.<.%.Y Z w 9 m } :.u.A.Y.&X|.'.L.H.J.'.8XeXeXeXeXeXaXaXaXaXaXaXaX",
"aXaXaXaXaXaXaXaXaXaXeXeXeXeXeXeX.XO.f ; / ^ =.e.0.#.G w > B w.u.<.%.R D v 9 p } ;.>.e.A.Q.yXpXrX:XwXeXeXeXeXeXeXaXaXaXaXaXaXaXaX",
"aXaXaXaXaXaXaXaXaXaXeXeXeXeXeX3X3.V # 6 _ ) *.#...J n 7 u -.e.w.>.%.&.S v 0 t U #.>.<.i.T.%XuXeXeXeXeXeXeXeXeXaXaXaXaXaXaXaXaXaX",
"aXaXaXaXaXaXaXaXaXaXeXeXeXeXeX:X~ t # 6 _ _ L K H a # 1  .u.e.w.>.%.@.G b 0 t F R #.>.w.D.OX7X0XeXeXeXeXeXeXaXaXaXaXaXaXaXaXaXaX",
"aXaXaXaXaXaXaXaXaXaXaXeXeXeXeXeX'.h o 3  .( f 9 8 @ 3 O.e.e.e.q.:.%...K Z 0 , D P o.$.q.Z. X6XtXeXeXeXeXeXaXaXaXaXaXaXaXaXaXaXaX",
"aXaXaXaXaXaXaXaXaXaXaXeXeXeXeXeXwX:Xs.2 V _ ^ N d ^ 8.w.e.e.q.>.:.@.R K b , > D P X.;.<.i.W.5XtXeXeXeXeXaXaXaXaXaXaXaXaXaXaXaXaX",
"aXaXaXaXaXaXaXaXaXaXaXaXeXeXeXeXeXeXXX4 m I -.8.p.u.e.w.q.w.<.<.:.R Y G a @ , D P ..;.0.u.T.6XtXeXeXeXaXaXaXaXaXaXaXaXaXaXaXaXaX",
"aXaXaXaXaXaXaXaXaXaXaXaXeXeXeXeXeXeXXX^ p U #.w.u.e.w.w.q.<.<.;...P G Z i > , a F } ;.:.u.E.6XtXeXeXeXaXaXaXaXaXaXaXaXaXaXaXaXaX",
"aXaXaXaXaXaXaXaXaXaXaXaXaXeXeXeXeXeXeX' 7 J ..:.q.q.q.q.<.>.#...P G A w t ; u n J o.-.;.w.E.6XtXeXeXeXaXaXaXaXaXaXaXaXaXaXaXaXaX",
"aXaXaXaXaXaXaXaXaXaXaXaXaXeXeXeXeXeXeX~ @ M P T o.#.&.&.&.R R Y P A w q > ; s n J | -.-.u.Q.6X0XeXeXaXaXaXaXaXaXaXaXaXaXaXaXaXaX",
"aXaXaXaXaXaXaXaXaXaXaXaXaXaXeXeXeXeXeXJ.2 # n G P Y Y Y Y Y P G A a p 1 = t a a a [ | 0.Z.@XuXrXeXeXaXaXaXaXaXaXaXaXaXaXaXaXaXaX",
"aXaXaXaXaXaXaXaXaXaXaXaXaXeXeXeXeXeX3Xx.^ 2 < s G P G G S b S S a i < = = u a a f [ *.8.M.%XpXeXeXeXaXaXaXaXaXaXaXaXaXaXaXaXaXaX",
"aXaXaXaXaXaXaXaXaXaXaXaXaXeXeXeXeXqXN. .=./ % % 3 6 d M S Y T T f % X % : 3 u f J ( ` 1.B.4XeXeXeXeXaXaXaXaXaXaXaXaXaXaXaXaXaXaX",
"aXaXaXaXaXaXaXaXaXaXaXaXaXeXeXeXwX<Xb.c J G , & k j ^ O.=.,.} U 3 & g & % % = 3 5 k k n.1XeXeXeXeXaXaXaXaXaXaXaXaXaXaXaXaXaXaXaX",
"aXaXaXaXaXaXaXaXaXaXaXaXaXeXeXeXqX;X{.l O $ O d ;.#.#.*.*.U m 9 % s.g.g.Q h h c z 3.'.qXeXeXeXeXeXaXaXaXaXaXaXaXaXaXaXaXaXaXaXaX",
"aXaXaXaXaXaXaXaXaXaXaXaXaXeXeXeX>X;X_.V.s.W Q 4 L J F m C i 8 % Q f.g.g.^.j.k.^.].=X=XqXeXeXeXeXaXaXaXaXaXaXaXaXaXaXaXaXaXaXaXaX",
"aXaXaXaXaXaXaXaXaXaXaXaXaXeXeXeXqX;X`.(.k.k.k.d.& ; ; O X X % E f.j.g.g.g.^./.).=X;X>XeXeXeXeXaXaXaXaXaXaXaXaXaXaXaXaXaXaXaXaXaX",
"aXaXaXaXaXaXaXaXaXaXaXaXaXeXeXeXeX>X<X`.(.).)./.f.Q Q l.l.l.k.k.^.^.^.^.).(.`.=X<X,XwXpXeXeXeXaXaXaXaXaXaXaXaXaXaXaXaXaXaXaXaXaX",
"aXaXaXaXaXaXaXaXaXaXaXaXaXaXeXeXeXeXeXqX,X<X;X;X-X-X-X(.(.(.(.(.=X=X=X-X;X;X<X>XrXeXeXeXeXeXaXaXaXaXaXaXaXaXaXaXaXaXaXaXaXaXaXaX",
"aXaXaXaXaXaXaXaXaXaXaXaXaXaXaXeXeXeXeXeXeXeXrXqXqXqX>X,X,X,X,X,XqXqX>X>XwXwXeXeXeXeXeXeXeXaXaXaXaXaXaXaXaXaXaXaXaXaXaXaXaXaXaXaX",
"aXaXaXaXaXaXaXaXaXaXaXaXaXaXaXaXaXeXeXeXeXeXeXeXeXeXeXeXwXeXeXeXpXeXeXeXeXeXeXeXeXeXeXaXaXaXaXaXaXaXaXaXaXaXaXaXaXaXaXaXaXaXaXaX",
"aXaXaXaXaXaXaXaXaXaXaXaXaXaXaXaXaXaXaXaXeXeXeXeXeXeXeXeXeXeXeXeXeXeXeXeXeXeXeXeXaXaXaXaXaXaXaXaXaXaXaXaXaXaXaXaXaXaXaXaXaXaXaXaX",
"aXaXaXaXaXaXaXaXaXaXaXaXaXaXaXaXaXaXaXaXaXaXaXaXaXaXaXaXaXaXaXaXaXaXaXaXaXaXaXaXaXaXaXaXaXaXaXaXaXaXaXaXaXaXaXaXaXaXaXaXaXaXaXaX",
"aXaXaXaXaXaXaXaXaXaXaXaXaXaXaXaXaXaXaXaXaXaXaXaXaXaXaXaXaXaXaXaXaXaXaXaXaXaXaXaXaXaXaXaXaXaXaXaXaXaXaXaXaXaXaXaXaXaXaXaXaXaXaXaX",
"aXaXaXaXaXaXaXaXaXaXaXaXaXaXaXaXaXaXaXaXaXaXaXaXaXaXaXaXaXaXaXaXaXaXaXaXaXaXaXaXaXaXaXaXaXaXaXaXaXaXaXaXaXaXaXaXaXaXaXaXaXaXaXaX",
"aXaXaXaXaXaXaXaXaXaXaXaXaXaXaXaXaXaXaXaXaXaXaXaXaXaXaXaXaXaXaXaXaXaXaXaXaXaXaXaXaXaXaXaXaXaXaXaXaXaXaXaXaXaXaXaXaXaXaXaXaXaXaXaX"
};
