/* XPM */
static char *_636719579756[] = {
/* columns rows colors chars-per-pixel */
"64 64 229 2 ",
"   c #67361D",
".  c #7A5243",
"X  c #96501A",
"o  c #984F13",
"O  c #A75B1B",
"+  c #A85B18",
"@  c #AF621D",
"#  c #B3641C",
"$  c #B76317",
"%  c #BD600B",
"&  c #985929",
"*  c #965C34",
"=  c #8A502E",
"-  c #A15C27",
";  c #91603B",
":  c #AD6424",
">  c #A86328",
",  c #B46723",
"<  c #B46924",
"1  c #BC6C22",
"2  c #B26B2C",
"3  c #BB6E2A",
"4  c #B26C31",
"5  c #BB7538",
"6  c #AA6B38",
"7  c #C66D18",
"8  c #C7711E",
"9  c #CA741F",
"0  c #D1761D",
"q  c #D67A1D",
"w  c #DB7C1D",
"e  c #C7690C",
"r  c #E27C16",
"t  c #C47224",
"y  c #CB7523",
"u  c #C2732A",
"i  c #CD7928",
"p  c #D47D25",
"a  c #DB7F22",
"s  c #D27B27",
"d  c #C47935",
"f  c #D17E32",
"g  c #C26E20",
"h  c #956B4F",
"j  c #A97349",
"k  c #BA7A43",
"l  c #A27B5A",
"z  c #9F7760",
"x  c #C17E40",
"c  c #DF801F",
"v  c #E3821E",
"b  c #DD8123",
"n  c #DB832C",
"m  c #D7812D",
"M  c #CC833D",
"N  c #CE8032",
"B  c #D58535",
"V  c #D98737",
"C  c #E38423",
"Z  c #E98622",
"A  c #EA8925",
"S  c #E3862A",
"D  c #E58A2C",
"F  c #EB8D2C",
"G  c #E78825",
"H  c #E48B32",
"J  c #EB8E30",
"K  c #E38F3A",
"L  c #ED9234",
"P  c #ED943A",
"I  c #E8933B",
"U  c #F19435",
"Y  c #F2973B",
"T  c #F3993D",
"R  c #F89C3D",
"E  c #B5825A",
"W  c #BF804C",
"Q  c #A68667",
"!  c #BD936B",
"~  c #A88C72",
"^  c #B58D74",
"/  c #B59778",
"(  c #CA8849",
")  c #DB8E44",
"_  c #D38A46",
"`  c #DC944E",
"'  c #DB9146",
"]  c #C88E58",
"[  c #D18E52",
"{  c #CC9258",
"}  c #DC9A5C",
"|  c #D79558",
" . c #E39243",
".. c #EC9945",
"X. c #E8994A",
"o. c #F49C43",
"O. c #F29E4A",
"+. c #F89F43",
"@. c #E49A53",
"#. c #E69D57",
"$. c #FBA246",
"%. c #F5A14B",
"&. c #FBA44B",
"*. c #FFA84E",
"=. c #F5A047",
"-. c #ECA55D",
";. c #EBA156",
":. c #F5A454",
">. c #FAA652",
",. c #FEAB54",
"<. c #FEAE5B",
"1. c #F5A95C",
"2. c #FFB05F",
"3. c #C99769",
"4. c #D89D64",
"5. c #C29A74",
"6. c #DBA16A",
"7. c #C8A078",
"8. c #DAA977",
"9. c #EBA661",
"0. c #E9A867",
"q. c #F6AE66",
"w. c #FFB263",
"e. c #FEB56B",
"r. c #FFB96D",
"t. c #F4B06C",
"y. c #E5AC76",
"u. c #E8B17B",
"i. c #FFBA74",
"p. c #FFBE7D",
"a. c #F6B472",
"s. c #FFC07F",
"d. c #A69885",
"f. c #ABA598",
"g. c #B8A999",
"h. c #B9A38C",
"j. c #9EB8B8",
"k. c #98A8A5",
"l. c #ADB2AA",
"z. c #B4B4A8",
"x. c #A2BABA",
"c. c #ADBCB7",
"v. c #B9BDB5",
"b. c #CBA684",
"n. c #D6AB84",
"m. c #D7B38B",
"M. c #D9BB9A",
"N. c #C4B098",
"B. c #EAB787",
"V. c #F9BD82",
"C. c #EBBE93",
"Z. c #E1BC90",
"A. c #CCBCA7",
"S. c #D6BBA6",
"D. c #B6C2BD",
"F. c #FFC284",
"G. c #FFC58B",
"H. c #F7C28B",
"J. c #E8C19E",
"K. c #FFC993",
"L. c #FECC9C",
"P. c #F4C69A",
"I. c #DEC6AA",
"U. c #D5C9B4",
"Y. c #D2C7B3",
"T. c #E5C8A9",
"R. c #FACDA2",
"E. c #F2CCA9",
"W. c #FFD1A5",
"Q. c #FFD5AC",
"!. c #FFD8AF",
"~. c #E5D5BA",
"^. c #FDD6B1",
"/. c #FFDAB4",
"(. c #FEDCBB",
"). c #E6CDB2",
"_. c #FFE1BF",
"`. c #A3BFC0",
"'. c #A7C4C5",
"]. c #BBDBDD",
"[. c #B4D3D5",
"{. c #BED0CD",
"}. c #BFDDE0",
"|. c #D9D5C6",
" X c #C5D9D8",
".X c #D8DBD3",
"XX c #C2CFC8",
"oX c #E3D6C2",
"OX c #E5DDC8",
"+X c #FCDEC2",
"@X c #F9DFC9",
"#X c #E7DFD2",
"$X c #DEE3DB",
"%X c #FFE2C4",
"&X c #FFE5CB",
"*X c #F7E3CD",
"=X c #E2E5DB",
"-X c #E7E3D5",
";X c #FFE7D0",
":X c #FFEAD5",
">X c #FEEDDC",
",X c #F6E9CE",
"<X c #C1DFE0",
"1X c #C4E1E3",
"2X c #CAE8E9",
"3X c #D2ECEE",
"4X c #DEE9E6",
"5X c #DCF4F5",
"6X c #D9F2F4",
"7X c #D3EEF0",
"8X c #E4EAE1",
"9X c #E2EEEA",
"0X c #E8EBE2",
"qX c #F7EEE3",
"wX c #E2F1EF",
"eX c #EBF3EB",
"rX c #FEF2E5",
"tX c #FEF4EB",
"yX c #F6F5E9",
"uX c #E4F5F4",
"iX c #EBF6F3",
"pX c #E0F7F8",
"aX c #E4FAFB",
"sX c #EAFEFF",
"dX c #E9F8F5",
"fX c #FFF9F4",
"gX c #FFFEFE",
"hX c #F3F8F7",
"jX c None",
/* pixels */
"jXjXjXjXjXjXjXjXjXjXjXjXjXjXjXjXjXjXjXjXjXjXjXjXjXjXjXjXjXjXjXjXjXjXjXjXjXjXjXjXjXjXjXjXjXjXjXjXjXjXjXjXjXjXjXjXjXjXjXjXjXjXjXjX",
"jXjXjXjXjXjXjXjXjXjXjXjXjXjXjXjXjXjXjXjXjXjXjXjXjXjXjXjXjXjXjXjXjXjXjXjXjXjXjXjXjXjXjXjXjXjXjXjXjXjXjXjXjXjXjXjXjXjXjXjXjXjXjXjX",
"jXjXjXjXjXjXjXjXjXjXjXjXjXjXjXjXjXjXjXjXjXjXjXjXjXjXjXjXjXjXjXjXjXjXjXjXjXjXjXjXjXjXjXjXjXjXjXjXjXjXjXjXjXjXjXjXjXjXjXjXjXjXjXjX",
"jXjXjXjXjXjXjXjXjXjXjXjXjXjXjXjXjXjXjXjXjXsXsXsXsXsXsXjXjXjXjXjXjXjXjXjXjXjXjXjXjXjXjXjXjXjXjXjXjXjXjXjXjXjXjXjXjXjXjXjXjXjXjXjX",
"jXjXjXjXjXjXjXjXjXjXjXjXjXjXjXjXjXjXjXjXsXsXsXsXsXsXsXsXsXjXjXjXjXjXjXjXjXjXjXjXjXjXjXjXjXjXjXjXjXjXjXjXjXjXjXjXjXjXjXjXjXjXjXjX",
"jXjXjXjXjXjXjXjXjXjXjXjXjXjXjXjXjXjXjXsXsXsXsXsXsXsXsXsXsXsXsXsXsXjXjXjXjXjXjXjXjXjXjXjXjXjXjXjXjXjXjXjXjXjXjXjXjXjXjXjXjXjXjXjX",
"jXjXjXjXjXjXjXjXjXjXjXjXjXjXjXjXjXjXsXsXsXsXsXsXsXsXsXsXsXsXsXsXsXsXsXjXjXjXjXjXjXjXjXjXjXjXjXjXjXjXjXjXjXjXjXjXjXjXjXjXjXjXjXjX",
"jXjXjXjXjXjXjXjXjXjXjXjXjXjXjXjXjXjXsXsXsXsXsXsXsXsXsXsXsXsXsXsXsXsXsXsXsXjXjXjXjXjXjXjXjXjXjXjXjXjXjXjXjXjXjXjXjXjXjXjXjXjXjXjX",
"jXjXjXjXjXjXjXjXjXjXjXjXjXjXjXjXjXsXsXsXsXsXaX.XiXsXsXsXsXsXsXaXsXsXsXsXsXjXjXjXjXjXjXjXjXjXjXjXjXjXjXjXjXjXjXjXjXjXjXjXjXjXjXjX",
"jXjXjXjXjXjXjXjXjXjXjXjXjXjXjXjXjXsXsXsXsXuXY.' ~.sXsXsXsXsX$X.XsXsXsXsXsXsXjXjXjXjXjXjXjXjXjXjXjXjXjXjXjXjXjXjXjXjXjXjXjXjXjXjX",
"jXjXjXjXjXjXjXjXjXjXjXjXjXjXjXjXsXsXsXsXsX6Xn.v V $XsXsXsX|.V 7.aXsXsXsXsXsXjXjXjXjXjXjXjXjXjXjXjXjXjXjXjXjXjXjXjXjXjXjXjXjXjXjX",
"jXjXjXjXjXjXjXjXjXjXjXjXjXjXjXjXsXsXsXsXsXuX} F r ' 8XsXOXK t.P.=XsXsXsXsXsXsXjXjXjXjXjXjXjXjXjXjXjXjXjXjXjXjXjXjXjXjXjXjXjXjXjX",
"jXjXjXjXjXjXjXjXjXjXjXjXjXjXjXsXsXsXsXsXsXaX0.J C v 8.U.X.:.:XtX0XsXsXsXsXsXsXjXjXjXjXjXjXjXjXjXjXjXjXjXjXjXjXjXjXjXjXjXjXjXjXjX",
"jXjXjXjXjXjXjXjXjXjXjXjXjXjXsXsXsXsXsXsXsX.X;.K N N d d I R.fXtXqXsXsXsXsXsXsXsXsXsXsXsXsXsXsXsXsXjXjXjXjXjXjXjXjXjXjXjXjXjXjXjX",
"jXjXjXjXjXjXjXjXjXjXjXjXjXsXsXsXsXsXsXsX=X( d d ) X. .V 0.;XfXqXoXaXsXsXsXsXsXsXsXsXsXsXsXsXsXsXsXsXsXjXjXjXjXjXjXjXjXjXjXjXjXjX",
"jXjXjXjXjXjXjXjXjXjXjXjXsXsXsXsXsXsXsX8X( f  ...O.&.O.@.B.@X>X+X4.I.$XsXsXsXsXsXsXsXsXsXsXsXsXsXsXsXsXsXjXjXjXjXjXjXjXjXjXjXjXjX",
"jXjXjXjXjXjXjXjXjXjXjXjXsXsXsXsXsXsX4X( V  .o.O.&.&.O.X.0.C.T.C.@.' M.$XsXsXsXsXsXsXsXsXsXsXsXsXsXsXsXsXsXjXjXjXjXjXjXjXjXjXjXjX",
"jXjXjXjXjXjXjXjXjXjXjXsXsXsXsXsXsXdX5.f ` X.O.,.<.<.,.:.-.9.0.;.O.P V M.dXsXsXsXsXsXsXsXsXsXsXsXsXsXsXsXsXsXjXjXjXjXjXjXjXjXjXjX",
"jXjXjXjXjXjXjXjXjXjXjXsXsXsXsXsXsXY.( 4.0.a.i.i.r.2.2.,.,.>.%.%.%.&.L B .XsXsXsXsXsXsXsXsXsXsXsXsXsXsXsXsXsXjXjXjXjXjXjXjXjXjXjX",
"jXjXjXjXjXjXjXjXjXjXsXsXsXsXsXsXsX7.4.H.W.W.W.R.G.i.2.,.,.,.*.&.&.&.$.A [ dXsXsXsXsXsXsXsXsXsXsXsXsXsXsXsXsXsXjXjXjXjXjXjXjXjXjX",
"jXjXjXjXjXjXjXjXjXjXsXsXsXsXsXsXdXn.B./.&X;X&X&XQ.G.s.w.,.,.,.*.,.&.&.U n OXaXsXsXsX=X~.U.).~.=XiXsXsXsXsXsXsXjXjXjXjXjXjXjXjXjX",
"jXjXjXjXjXjXjXjXjXsXsXsXsXsXsXsX6Xb.P.^.^ ).tXrX&XL.K.s.w.<.,.,.*.&.&.+.G 8.sXsXOXM.6.0.9.9.-.;.6.T.8XsXsXsXsXsXjXjXjXjXjXjXjXjX",
"jXjXjXjXjXjXjXjXjXsXsXsXsXsXsXsXOX8./.E.= A.gXfX>XQ.L.K.i.2.<.,.*.&.,.&.J } oXZ.` ..=.$.$.$.&.%.%.-.8.OXsXsXsXsXjXjXjXjXjXjXjXjX",
"jXjXjXjXjXjXjXjXjXsXsXsXsXsXsXqX8.C.rXS.  S.gXfX:X/.L.K.F.w.,.,.*.,.<.o.D ` 6.K F T $.*.&.&.*.&.&.=.O.y.~.sXsXsXsXjXjXjXjXjXjXjX",
"jXjXjXjXjXjXjXjXjXsXsXsXsXuXg.l 3.(.rX#XA.qXgXfX;X/.R.L.F.e.,.,.*.,.,.Y G V D G U $.*.,.2.<.,.*.&.&.&.T y.,XsXsXsXjXjXjXjXjXjXjX",
"jXjXjXjXjXjXjXjXjXsXsXsXsX.X. h T.;XrXgXgXgXgXfX;X/.R.L.G.e.,.,.,.,.&.F b m G F +.,.s.Q.(./.!.G.*.&.&.&.X.m.0XsXsXsXjXjXjXjXjXjX",
"jXjXjXjXjXjXjXjXjXsXsXsXsX8X^ E.%X>XfXgXgXgXgXfX%X!.R.R.F.e.,.,.,.,.T C w p C L 1.L.&XrXfXfXtX:XK.2.*.&.o.} ~.sXsXsXjXjXjXjXjXjX",
"jXjXjXjXjXjXjXjXjXsXsXsXsXdXS.Q./.:XgXgXgXgXgXrX+X^.W.L.F.w.,.,.,.&.D v 0 y D O.L.:XrXfXgXgXgXfX:XW.<.&.=.` m.yXsXsXjXjXjXjXjXjX",
"jXjXjXjXjXjXjXjXjXsXsXsXsXsX#XJ.!.(.rXfXgXgXgX>X+X^.W.L.i.w.,.&.R F v w 1 u I V.&X:XfXfX>X*X>XyXfX_.r.*.&.H 7.-XsXsXjXjXjXjXjXjX",
"jXjXjXjXjXjXjXjXjXjXsXsXsXsXsX).B.!.%X>XfXgXfX&X(.!.R.F.w.>.&.Y F v v 8 : u @.!.:X:XtX@X6.( ] H.tX:XG.*.=.H { U.sXsXjXjXjXjXjXjX",
"jXjXjXjXjXjXjXjXjXjXsXsXsXsXsXdXJ.y.L.+X:XrX>X_./.W.K.e.&.+.U D C c 0 : < B a.%X>X:X(.] 4 M s X.rXrXL.,.o.n [ Y.sXsXjXjXjXjXjXjX",
"jXjXjXjXjXjXjXjXjXjXjXsXsXsXsXsXdX8.4.B.P.W.E.R.R.V.q.o.U J C b a 9 < : 3  .G.:X:X&XB.6 ( H.H.P.rX&XG.,.T b ] A.sXsXjXjXjXjXjXjX",
"jXjXjXjXjXjXjXjXjXjXjXjXsXsXsXsXsXdXoX8.} 6.4.8.y.;.T L H B y y 8 1 , y n %.K.;X;X(.k u ` P.rXfXrX!.i.&.L q ! Y.sXsXjXjXjXjXjXjX",
"jXjXjXjXjXjXjXjXjXjXjXjXjXsXsXsXsXsXhX0XT.6.6.B.u.1.o.o. .B i y y 9 8 y L &.p.%X;XQ.k y K 9.L._.!.F.&.L v 7 / |.sXsXjXjXjXjXjXjX",
"jXjXjXjXjXjXjXjXjXjXjXjXjXsXsXsXsXsXsXsXeX} u.P.F.e.,.<.q.X.P o.D w w 0 b R w.L.+X(.{ 8 D I :.w.2.=.J C w + h.=XsXsXjXjXjXjXjXjX",
"jXjXjXjXjXjXjXjXjXjXjXjXjXsXsXsXsXsXsXsXoX#.u.B.F.i.w.q.q.w.<.2.*.D c w 9 L 2.G.W./.B.< n D D J F G C 0 + ~ $XsXsXsXjXjXjXjXjXjX",
"jXjXjXjXjXjXjXjXjXjXjXjXsXsXsXsXsXsXsXoX} -.{ | r.i.t.@.` 9.e.e.2.R G c 0 n &.r.R.^./.{ $ p a p w q 7 + Q wXsXsXsXsXjXjXjXjXjXjX",
"jXjXjXjXjXjXjXjXjXjXjXsXsXsXsXsXsXsX-X| _ ` x #.e.e.:.I f x u.i.2.$.F C q y L &.G.^././.[ $ $ $ $ # > / wXsXsXsXsXjXjXjXjXjXjXjX",
"jXjXjXjXjXjXjXjXjXjXsXsXsXsXsXsXsXOX4.( d _ [ w.e.w.O.S 8 4 a.i.2.&.U C w 9 n ..w.K.L./.(.4.3.5.! N.|.uXsXsXsXsXsXjXjXjXjXjXjXjX",
"jXjXjXjXjXjXjXjXjXjXsXsXsXsXsXsX#X@.K , d _ -.r.w.%.D b < B r.i.2.*.T G c 8 m T >.w.p.L.%XyXsXdXuXaXsXsXsXsXsXsXjXjXjXjXjXjXjXjX",
"jXjXjXjXjXjXjXjXjXjXsXsXsXsXsX9X5.V p @ M ` ;.&.o.D b 8 u :.r.e.,.,.$.A c t y P >.,.w.F./.tXhXsXsXsXsXsXsXsXsXjXjXjXjXjXjXjXjXjX",
"jXjXjXjXjXjXjXjXjXjXsXsXsXsXsX6X^ t e @ _ ' K F D w $ 3 @.i.r.w.<.*.=.J c 8 t H o.>.<.i.L.;XtXdXsXsXsXsXsXsXjXjXjXjXjXjXjXjXjXjX",
"jXjXjXjXjXjXjXjXjXjXjXsXsXsXsXsX.Xj o X _ ' f 9 7 @ 4 ` e.r.e.w.,.*.R J v 8 1 S L %.,.w.G.+XtXiXsXsXsXsXsXjXjXjXjXjXjXjXjXjXjXjX",
"jXjXjXjXjXjXjXjXjXjXjXsXsXsXsXsXaX4X.Xl d ' _ M d [ 9.r.e.e.w.w.,.$.T J v 1 < S L O.>.w.p./.tXhXsXsXsXsXjXjXjXjXjXjXjXjXjXjXjXjX",
"jXjXjXjXjXjXjXjXjXjXjXjXsXsXsXsXsXsXsXN.$ P ;.q.a.i.r.r.r.e.2.2.,.o.U F a , < C J o.>.<.i.^.tXhXsXsXsXjXjXjXjXjXjXjXjXjXjXjXjXjX",
"jXjXjXjXjXjXjXjXjXjXjXjXsXsXsXsXsXsXsXU.8 H =.w.i.e.r.w.w.2.<.>.o.L F C y , 3 b D ..:.<.r.^.tXhXsXsXsXjXjXjXjXjXjXjXjXjXjXjXjXjX",
"jXjXjXjXjXjXjXjXjXjXjXjXjXsXsXsXsXsXsX$X$ B T :.w.w.2.2.2.>.&.T L F Z w t < u b H O.:.>.e./.tXhXsXsXsXjXjXjXjXjXjXjXjXjXjXjXjXjX",
"jXjXjXjXjXjXjXjXjXjXjXjXjXsXsXsXsXsXsX4X4 y H L %.&.%.%.=.o.T U F Z r i , : p b H O.:.:.i.(.tXdXsXsXjXjXjXjXjXjXjXjXjXjXjXjXjXjX",
"jXjXjXjXjXjXjXjXjXjXjXjXjXjXsXsXsXsXsX=XE > p A L U U U U U L F r a 0 g - u a a a  .O.q.H.;XtXsXsXsXjXjXjXjXjXjXjXjXjXjXjXjXjXjX",
"jXjXjXjXjXjXjXjXjXjXjXjXjXsXsXsXsXsX9X8.[ 6 > i D U J F A v G A F i , - > i a a f  .#.0.C.>XhXsXsXsXjXjXjXjXjXjXjXjXjXjXjXjXjXjX",
"jXjXjXjXjXjXjXjXjXjXjXjXjXsXsXsXsXaXA.` :.' & & 2 5 d n A L P T d X X = > 4 u s K _ | { M.eXsXsXsXsXjXjXjXjXjXjXjXjXjXjXjXjXjXjX",
"jXjXjXjXjXjXjXjXjXjXjXjXjXsXsXsXuX3XN.( V F t * 5 k _ @.1.1...K 4 ; z * & & - 4 5 k k n.#XsXsXsXsXjXjXjXjXjXjXjXjXjXjXjXjXjXjXjX",
"jXjXjXjXjXjXjXjXjXjXjXjXjXsXsXsX5X2XXXh O % O d :.%.%.;.;.I G 0 - d.`.l.z j j x k b.|.eXsXsXsXsXsXjXjXjXjXjXjXjXjXjXjXjXjXjXjXjX",
"jXjXjXjXjXjXjXjXjXjXjXjXjXsXsXsX5X2XXXD.h.Q Q 6 K H n H m m 7 X ~ f.`.j.x.x.`.D.{.1X3XpXsXsXsXsXjXjXjXjXjXjXjXjXjXjXjXjXjXjXjXjX",
"jXjXjXjXjXjXjXjXjXjXjXjXjXsXsXsXaX2X<X Xv.z.z.g.* > > + X o - Q f.k.j.j.j.`.`.[.1X2X6XaXsXsXsXjXjXjXjXjXjXjXjXjXjXjXjXjXjXjXjXjX",
"jXjXjXjXjXjXjXjXjXjXjXjXjXsXsXsXsX5X3X<X].[.[.c.d.~ ~ g.f.l.D.x.`.`.`.`.[.].1X1X3X5XaXaXsXsXsXjXjXjXjXjXjXjXjXjXjXjXjXjXjXjXjXjX",
"jXjXjXjXjXjXjXjXjXjXjXjXjXjXsXsXsXsXsX5X6X3X2X2X1X1X1X X].].].].1X1X<X1X2X2X7X5XaXsXsXsXsXsXjXjXjXjXjXjXjXjXjXjXjXjXjXjXjXjXjXjX",
"jXjXjXjXjXjXjXjXjXjXjXjXjXjXjXsXsXsXsXsXsXsXsXaXaX5X5X6X6X6X6X6XpXpXpXpXaXaXdXsXsXsXsXsXsXjXjXjXjXjXjXjXjXjXjXjXjXjXjXjXjXjXjXjX",
"jXjXjXjXjXjXjXjXjXjXjXjXjXjXjXjXjXsXsXsXsXsXsXsXsXsXsXsXaXsXsXsXdXsXsXsXsXsXsXsXsXsXsXjXjXjXjXjXjXjXjXjXjXjXjXjXjXjXjXjXjXjXjXjX",
"jXjXjXjXjXjXjXjXjXjXjXjXjXjXjXjXjXjXjXjXsXsXsXsXsXsXsXsXsXsXsXsXdXsXsXsXsXsXsXsXjXjXjXjXjXjXjXjXjXjXjXjXjXjXjXjXjXjXjXjXjXjXjXjX",
"jXjXjXjXjXjXjXjXjXjXjXjXjXjXjXjXjXjXjXjXjXjXjXjXjXjXjXjXjXjXjXjXjXjXjXjXjXjXjXjXjXjXjXjXjXjXjXjXjXjXjXjXjXjXjXjXjXjXjXjXjXjXjXjX",
"jXjXjXjXjXjXjXjXjXjXjXjXjXjXjXjXjXjXjXjXjXjXjXjXjXjXjXjXjXjXjXjXjXjXjXjXjXjXjXjXjXjXjXjXjXjXjXjXjXjXjXjXjXjXjXjXjXjXjXjXjXjXjXjX",
"jXjXjXjXjXjXjXjXjXjXjXjXjXjXjXjXjXjXjXjXjXjXjXjXjXjXjXjXjXjXjXjXjXjXjXjXjXjXjXjXjXjXjXjXjXjXjXjXjXjXjXjXjXjXjXjXjXjXjXjXjXjXjXjX",
"jXjXjXjXjXjXjXjXjXjXjXjXjXjXjXjXjXjXjXjXjXjXjXjXjXjXjXjXjXjXjXjXjXjXjXjXjXjXjXjXjXjXjXjXjXjXjXjXjXjXjXjXjXjXjXjXjXjXjXjXjXjXjXjX"
};
