/* XPM */
static char *_636719586349[] = {
/* columns rows colors chars-per-pixel */
"64 64 228 2 ",
"   c #6B3921",
".  c #76442E",
"X  c #7C574B",
"o  c #9D551B",
"O  c #B15B0E",
"+  c #B96619",
"@  c #A25E28",
"#  c #9B6133",
"$  c #9F602C",
"%  c #AD6424",
"&  c #AA652B",
"*  c #A6632B",
"=  c #B26523",
"-  c #BB6C23",
";  c #B36B2B",
":  c #BA6E2A",
">  c #B46926",
",  c #BE732D",
"<  c #A66A36",
"1  c #B36E34",
"2  c #BB7332",
"3  c #B67339",
"4  c #AD703C",
"5  c #C46E1B",
"6  c #C36A17",
"7  c #CC741E",
"8  c #C9721C",
"9  c #D4791E",
"0  c #DC7D1D",
"q  c #D3771C",
"w  c #E17B17",
"e  c #C26F23",
"r  c #C47223",
"t  c #CC7624",
"y  c #C4742B",
"u  c #CB792C",
"i  c #CD7927",
"p  c #D47B24",
"a  c #DB7E21",
"s  c #D47E2B",
"d  c #C57D3B",
"f  c #C77B34",
"g  c #D27F31",
"h  c #8C5D44",
"j  c #9D6D45",
"k  c #9D724C",
"l  c #9A765C",
"z  c #A87C55",
"x  c #AE7848",
"c  c #C27F41",
"v  c #DF801F",
"b  c #E4821E",
"n  c #DD8124",
"m  c #DC832C",
"M  c #D6802C",
"N  c #CC813A",
"B  c #CB8139",
"V  c #D48232",
"C  c #DB8732",
"Z  c #DF8D3D",
"A  c #D78739",
"S  c #E38524",
"D  c #E1862A",
"F  c #E5892D",
"G  c #EB8D2D",
"H  c #E88925",
"J  c #E58C33",
"K  c #EA8E31",
"L  c #E38D3B",
"P  c #ED9133",
"I  c #EB933A",
"U  c #E6903A",
"Y  c #F1963A",
"T  c #F39A3D",
"R  c #F29637",
"E  c #EF912E",
"W  c #AC835A",
"Q  c #BC8658",
"!  c #A98C6B",
"~  c #B58E68",
"^  c #B79776",
"/  c #B0936F",
"(  c #CA8646",
")  c #D68C46",
"_  c #DC924B",
"`  c #DB9042",
"'  c #C58C57",
"]  c #CC925A",
"[  c #DA9757",
"{  c #D18F53",
"}  c #E29243",
"|  c #EB9641",
" . c #ED9944",
".. c #EC9C4C",
"X. c #E5984C",
"o. c #F49D44",
"O. c #F19E4A",
"+. c #F89F46",
"@. c #E49C54",
"#. c #EC9E51",
"$. c #E39D59",
"%. c #FAA145",
"&. c #F5A04A",
"*. c #FCA44B",
"=. c #FFA84E",
"-. c #E9A25B",
";. c #F4A453",
":. c #FBA751",
">. c #FEAA54",
",. c #F4A759",
"<. c #FEAD5B",
"1. c #F3A95F",
"2. c #FFB15F",
"3. c #CB9769",
"4. c #D99D63",
"5. c #D99E67",
"6. c #C99E77",
"7. c #C08F60",
"8. c #DAA26B",
"9. c #DDA164",
"0. c #D8A97A",
"q. c #D3A87A",
"w. c #E7A769",
"e. c #F3AC65",
"r. c #F5AE67",
"t. c #FEB264",
"y. c #FEB56B",
"u. c #FFB86E",
"i. c #E5AB72",
"p. c #E4AB76",
"a. c #E4B17D",
"s. c #EDB27A",
"d. c #FFBB74",
"f. c #FEBD7C",
"g. c #F5B372",
"h. c #FFC07E",
"j. c #AE9D87",
"k. c #9BA79F",
"l. c #AAA695",
"z. c #9CB1B0",
"x. c #A2AEA9",
"c. c #B8B6A9",
"v. c #A2B9B8",
"b. c #B0BCB4",
"n. c #C8A886",
"m. c #D3AE8C",
"M. c #D9B288",
"N. c #C8AD95",
"B. c #CBB49B",
"V. c #D9B998",
"C. c #EAB585",
"Z. c #E2B789",
"A. c #F8BD84",
"S. c #E2BB92",
"D. c #CABDA8",
"F. c #D1B7A5",
"G. c #B1C1BB",
"H. c #DCC099",
"J. c #FFC285",
"K. c #FFC68C",
"L. c #FCC68F",
"P. c #E9C096",
"I. c #FFC994",
"U. c #F3C599",
"Y. c #FECC9B",
"T. c #F6C392",
"R. c #DAC5A7",
"E. c #C8C5B8",
"W. c #D5CAB8",
"Q. c #CBC0AD",
"!. c #E5C5A3",
"~. c #F6CDA6",
"^. c #FFD1A5",
"/. c #FFD5AC",
"(. c #E8D5BE",
"). c #FED6B2",
"_. c #FFD9B4",
"`. c #FFDDBC",
"'. c #F1D8BF",
"]. c #E1CCBA",
"[. c #FFE0BA",
"{. c #A8C6C7",
"}. c #B9CECB",
"|. c #BCDBDC",
" X c #B7D4D5",
".X c #AECFD2",
"XX c #BEDDE0",
"oX c #D9D8CA",
"OX c #C1DAD9",
"+X c #CDCEC3",
"@X c #E7D9C5",
"#X c #FCDDC1",
"$X c #F1D9C0",
"%X c #DDE2DB",
"&X c #FFE1C4",
"*X c #FFE5CA",
"=X c #FFEBCB",
"-X c #E3E6DC",
";X c #E9E6D7",
":X c #FEE6D1",
">X c #FFEAD4",
",X c #FFECDC",
"<X c #F2E9D7",
"1X c #C0DFE0",
"2X c #C4E2E4",
"3X c #CCE9EA",
"4X c #C9E6E7",
"5X c #D6ECEC",
"6X c #DCF4F5",
"7X c #D9F2F4",
"8X c #D9EFEF",
"9X c #E5EBE3",
"0X c #E7EDE7",
"qX c #F7EDE2",
"wX c #E6F3EE",
"eX c #EAF1EB",
"rX c #FFF2E4",
"tX c #FFF4EB",
"yX c #E5F5F3",
"uX c #ECF6F2",
"iX c #E0F7F8",
"pX c #E5FAFB",
"aX c #EAFEFF",
"sX c #E9F9F6",
"dX c #FEF9F4",
"fX c #FFFEFE",
"gX c #F5F9F6",
"hX c None",
/* pixels */
"hXhXhXhXhXhXhXhXhXhXhXhXhXhXhXhXhXhXhXhXhXhXhXhXhXhXhXhXhXhXhXhXhXhXhXhXhXhXhXhXhXhXhXhXhXhXhXhXhXhXhXhXhXhXhXhXhXhXhXhXhXhXhXhX",
"hXhXhXhXhXhXhXhXhXhXhXhXhXhXhXhXhXhXhXhXhXhXhXhXhXhXhXhXhXhXhXhXhXhXhXhXhXhXhXhXhXhXhXhXhXhXhXhXhXhXhXhXhXhXhXhXhXhXhXhXhXhXhXhX",
"hXhXhXhXhXhXhXhXhXhXhXhXhXhXhXhXhXhXhXhXhXhXhXhXhXhXhXhXhXhXhXhXhXhXhXhXhXhXhXhXhXhXhXhXhXhXhXhXhXhXhXhXhXhXhXhXhXhXhXhXhXhXhXhX",
"hXhXhXhXhXhXhXhXhXhXhXhXhXhXhXhXhXhXhXhXhXaXaXaXaXaXaXhXhXhXhXhXhXhXhXhXhXhXhXhXhXhXhXhXhXhXhXhXhXhXhXhXhXhXhXhXhXhXhXhXhXhXhXhX",
"hXhXhXhXhXhXhXhXhXhXhXhXhXhXhXhXhXhXhXhXaXaXaXaXaXaXaXaXaXhXhXhXhXhXhXhXhXhXhXhXhXhXhXhXhXhXhXhXhXhXhXhXhXhXhXhXhXhXhXhXhXhXhXhX",
"hXhXhXhXhXhXhXhXhXhXhXhXhXhXhXhXhXhXhXaXaXaXaXaXaXaXaXaXaXaXaXaXaXhXhXhXhXhXhXhXhXhXhXhXhXhXhXhXhXhXhXhXhXhXhXhXhXhXhXhXhXhXhXhX",
"hXhXhXhXhXhXhXhXhXhXhXhXhXhXhXhXhXhXaXaXaXaXaXyXaXaXaXaXaXaXaXaXaXaXaXhXhXhXhXhXhXhXhXhXhXhXhXhXhXhXhXhXhXhXhXhXhXhXhXhXhXhXhXhX",
"hXhXhXhXhXhXhXhXhXhXhXhXhXhXhXhXhXhXaXaXaXpXoX0.0XaXaXaXaXaXaXiXaXaXaXaXaXhXhXhXhXhXhXhXhXhXhXhXhXhXhXhXhXhXhXhXhXhXhXhXhXhXhXhX",
"hXhXhXhXhXhXhXhXhXhXhXhXhXhXhXhXhXaXaXaXaXwXB.w 9.yXaXaXaXyX8.j.pXaXaXaXaXhXhXhXhXhXhXhXhXhXhXhXhXhXhXhXhXhXhXhXhXhXhXhXhXhXhXhX",
"hXhXhXhXhXhXhXhXhXhXhXhXhXhXhXhXhXaXaXaXpXyX8.G 0 0.pXaXuX9.U s.8XaXaXaXaXaXhXhXhXhXhXhXhXhXhXhXhXhXhXhXhXhXhXhXhXhXhXhXhXhXhXhX",
"hXhXhXhXhXhXhXhXhXhXhXhXhXhXhXhXaXaXaXaXaXyXw.H b b R.yXi.Y ).>X9XaXaXaXaXaXhXhXhXhXhXhXhXhXhXhXhXhXhXhXhXhXhXhXhXhXhXhXhXhXhXhX",
"hXhXhXhXhXhXhXhXhXhXhXhXhXhXhXhXaXaXaXaXaX6Xe.P n M ( ' U f.tXtXqXaXaXaXaXaXaXhXhXhXhXhXhXhXhXhXhXhXhXhXhXhXhXhXhXhXhXhXhXhXhXhX",
"hXhXhXhXhXhXhXhXhXhXhXhXhXhXhXaXaXaXaXaXuXn.N N N ) B M $.`.dXrX<XpXaXaXaXaXaXhXhXhXhXhXhXhXhXhXhXhXhXhXhXhXhXhXhXhXhXhXhXhXhXhX",
"hXhXhXhXhXhXhXhXhXhXhXhXhXhXaXaXaXaXaXpXq.t d ` O.*.O.X.Z.>XtX:XM.%XwXaXaXaXaXaXaXaXaXaXaXaXaXaXaXhXhXhXhXhXhXhXhXhXhXhXhXhXhXhX",
"hXhXhXhXhXhXhXhXhXhXhXhXhXaXaXaXaXaXpXm.g `  ...O.*.O.X.s.~.$X~.[ [ W.yXaXaXaXaXaXaXaXaXaXaXaXaXaXaXaXhXhXhXhXhXhXhXhXhXhXhXhXhX",
"hXhXhXhXhXhXhXhXhXhXhXhXaXaXaXaXaXaXN.d } |  .*.>.>.*.O.-.i.C.i...I 4.@XaXaXaXaXaXaXaXaXaXaXaXaXaXaXaXaXhXhXhXhXhXhXhXhXhXhXhXhX",
"hXhXhXhXhXhXhXhXhXhXhXhXaXaXaXaXaXoX' _ $.-.t.y.t.2.<.>.<.,.;...+.&.J ) wXaXaXaXaXaXaXaXaXaXaXaXaXaXaXaXaXhXhXhXhXhXhXhXhXhXhXhX",
"hXhXhXhXhXhXhXhXhXhXhXaXaXaXaXaXaXm.{ s.T.L.I.K.A.u.<.>.=.>.*.*.*.*.o.a 0.pXaXaXaXaXaXaXaXaXaXaXaXaXaXaXaXaXhXhXhXhXhXhXhXhXhXhX",
"hXhXhXhXhXhXhXhXhXhXhXaXaXaXaXaXpXn.w./.=X*X#X`.Y.J.u.<.>.>.=.=.=.*.&.E A -XaXaXaXaXpX0X-X-X9XaXaXpXaXaXaXaXhXhXhXhXhXhXhXhXhXhX",
"hXhXhXhXhXhXhXhXhXhXaXaXaXaXaXaX8Xm.T._.V.$X,X,X`.I.K.d.2.>.>.>.=.:.*.T H H.pXpXuX(.H.V.a.a.a.M.P.;XaXaXaXaXaXhXhXhXhXhXhXhXhXhX",
"hXhXhXhXhXhXhXhXhXhXaXaXaXaXaXaX-X6.).~.h F.fXtX,X/.I.K.u.>.2.>.=.=.>.+.G 4.-X;XM.-.|  .%.%.&.;.-.a.H.uXaXaXaXhXhXhXhXhXhXhXhXhX",
"hXhXhXhXhXhXhXhXhXaXaXaXaXaXaXsXS.Z.*X!.  F.fXdX,X/.Y.I.J.t.>.>.=.=.>.+.G [ M._ G E *.*.%.*.*.*.*. .-.Z.<XaXaXaXhXhXhXhXhXhXhXhX",
"hXhXhXhXhXhXhXhXhXaXaXaXaXsX9XB.] ~.rX].l @XfXdX>X_.^.Y.J.t.>.>.=.>.>.+.G ` Z G E %.*.%.*.*.*.*.*.*.%.-.P.;XaXaXhXhXhXhXhXhXhXhX",
"hXhXhXhXhXhXhXhXhXaXaXaXaX%Xh . m.=XqXdXfXfXfXdX*X_.^.Y.K.y.>.>.=.>.:.P S C H H T *.2.J.K.K.h.y.*.*.*.%.@.!.pXaXaXhXhXhXhXhXhXhX",
"hXhXhXhXhXhXhXhXhXaXaXaXaX9Xl m.&X>XdXfXfXfXfXdX*X).^.Y.J.y.>.>.>.>.o.H 0 s S E *.f.).>XtXtX,X#Xd.=.*.*.| 8.$XaXaXhXhXhXhXhXhXhX",
"hXhXhXhXhXhXhXhXhXaXaXaXaXeXN.`.[.rXfXfXfXfXfXtX#X).^.Y.J.t.>.>.>.=.R S q p S T f.*XrXtXfXfXfXdX&XK.>.*.%.[ H.aXaXaXhXhXhXhXhXhX",
"hXhXhXhXhXhXhXhXhXaXaXaXaXaXW.~._.&XtXfXfXfXfXrX`.)./.Y.f.2.>.>.*.Y S w 5 y L r.`.,XdXfXdXdXfXdXtX_.2.*.&.U n.;XaXaXhXhXhXhXhXhX",
"hXhXhXhXhXhXhXhXhXaXaXaXaXaXuXP.U.`.:XtXfXfXdX,X`.).^.L.y.<.=.+.K H w p = y X.Y.:X>XtXtX!.Z.S.'.dX*Xh.=.&.J ] oXaXaXhXhXhXhXhXhX",
"hXhXhXhXhXhXhXhXhXaXaXaXaXaXaX9XZ.S.).*XrXdXqX#X_./.Y.f.>.%.T K S b 0 = % g w.[.,X,X:X0.3 y - -.rXrXI.>.o.F { R.aXaXhXhXhXhXhXhX",
"hXhXhXhXhXhXhXhXhXhXaXaXaXaXaXaX;Xw.w.Y._.#X`.).).I.g.,.T R H S n 9 - % - Z J.>X,X>XU.1 3 w.-.e.rX>XI.<.o.n ' D.aXaXhXhXhXhXhXhX",
"hXhXhXhXhXhXhXhXhXhXaXaXaXaXaXaXaX;Xm.4.w.a.C.C.C.e. .P K m p p q - = - s O.I.>X:X[.3.: [ ~.>XrXtX`.f.>.T a 7.Q.aXaXhXhXhXhXhXhX",
"hXhXhXhXhXhXhXhXhXhXhXaXaXaXaXaXaXaXeX(.0.4.4.p.p.,.T T L V i r 5 r + t P &.K.*X:X).3 i ` g.&X,X*XY.<.T H 7 ^ W.aXaXhXhXhXhXhXhX",
"hXhXhXhXhXhXhXhXhXhXhXhXaXaXaXaXaXaXaXaX0Xw.w.P.A.t.*.=.-.} Z L m 0 9 7 H %.t.).*X_.( 7 F | t.J.h.2.Y S v O j.%XsXaXhXhXhXhXhXhX",
"hXhXhXhXhXhXhXhXhXhXhXhXhXaXaXaXaXaXaXaX-X4.s.T.J.u.2.t.t.,.=.>.&.n v 9 9 Y 2.I./.[.0.+ D J I T R E H 0 + j W.aXaXaXhXhXhXhXhXhX",
"hXhXhXhXhXhXhXhXhXhXhXhXhXaXaXaXaXaXaXuXp.w.8.8.f.d.y.w.-.r.t.t.>.P S v q C >.h.^.).~.3 5 F H S n S 9 + # +XgXaXaXaXhXhXhXhXhXhX",
"hXhXhXhXhXhXhXhXhXhXhXhXhXaXaXaXaXaXsX8.` @.( [ y.y.1.} N { g.u.2.%.G b 9 p T >.I.).[.U.: + 8 5 8 6 O < +XaXaXaXaXaXhXhXhXhXhXhX",
"hXhXhXhXhXhXhXhXhXhXhXhXaXaXaXaXaXyXM.( ( A ( r.y.y.;.F 7 1 s.d.2.*.P b v 7 C o.y.^.^.`.U.d 3 4 4 W ^ %XaXaXaXaXaXaXhXhXhXhXhXhX",
"hXhXhXhXhXhXhXhXhXhXhXaXaXaXaXaXuX8.} , , ) $.y.y.,.I S - y y.f.2.*.T H 9 8 M T >.d.J.^.>X$X-X-XoX0XpXaXaXaXaXaXaXhXhXhXhXhXhXhX",
"hXhXhXhXhXhXhXhXhXhXaXaXaXaXaXuXV.} C % B _ ,.t.;.I H 7 - X.u.u.>.=.o.H v 8 p I :.<.y.K.`.tXaXaXaXaXaXaXaXaXaXaXaXhXhXhXhXhXhXhX",
"hXhXhXhXhXhXhXhXhXhXaXaXaXaXaX5X/ s 8 + ( _ | I P S q > A t.u.t.>.>.&.E v 5 r I &.>.2.f.^.,XtXaXaXaXaXaXaXaXaXaXhXhXhXhXhXhXhXhX",
"hXhXhXhXhXhXhXhXhXhXaXaXaXaXaXpXc.; O o ( ) g n q 6 % ( r.d.y.t.>.=.%.E b 8 - D Y &.<.y.L.&XtXuXaXaXaXaXaXaXaXhXhXhXhXhXhXhXhXhX",
"hXhXhXhXhXhXhXhXhXhXaXaXaXaXaXaXpXD.^ # g _ d y > 1 ) t.u.y.y.2.>.=.T K n r - D I %.:.t.A.`.tXgXaXaXaXaXaXaXhXhXhXhXhXhXhXhXhXhX",
"hXhXhXhXhXhXhXhXhXhXhXaXaXaXaXaXaXaXaXj.- | #.$.w.e.u.u.u.y.t.2.>.&.Y K n + > D P +.:.2.f.).tXgXaXaXaXaXaXhXhXhXhXhXhXhXhXhXhXhX",
"hXhXhXhXhXhXhXhXhXhXhXaXaXaXaXaXaXaXaXD.r J O.t.d.u.y.y.t.t.2.>.%.Y E H p = - n F  .;.<.u./.tXgXaXaXaXaXhXhXhXhXhXhXhXhXhXhXhXhX",
"hXhXhXhXhXhXhXhXhXhXhXhXaXaXaXaXaXpXaX%X+ J Y <.t.y.t.2.2.2.:.%.I E H 0 t % y a F ..;.>.u.).tXuXaXaXaXhXhXhXhXhXhXhXhXhXhXhXhXhX",
"hXhXhXhXhXhXhXhXhXhXhXhXaXaXaXaXaX5XaXwX2 M P I *.,.,.>.*.&.T Y E G b q > % p n J &.;.;.u._.tXuXaXaXaXhXhXhXhXhXhXhXhXhXhXhXhXhX",
"hXhXhXhXhXhXhXhXhXhXhXhXhXaXaXyXB.8.6.oXM.u F J P I I Y Y Y P P F F n : @ : a n m  ...,.A.&XdXgXaXaXaXhXhXhXhXhXhXhXhXhXhXhXhXhX",
"hXhXhXhXhXhXhXhXhXhXhXhXhXaXaXD.) t.e.8.0.A C F F F J P G J K F m u y % * r n a m Z #.e.T.,XgXpXaXaXhXhXhXhXhXhXhXhXhXhXhXhXhXhX",
"hXhXhXhXhXhXhXhXhXhXhXhXhXhXaXN.d :.2.t...` L K D M m C C M M u y & * * * : t s D ) $.4.V.qXaXaXaXaXhXhXhXhXhXhXhXhXhXhXhXhXhXhX",
"hXhXhXhXhXhXhXhXhXhXhXhXhXaXaXoX! u I &.&.#...| J g y y y ; ; > * < < * $ @ * y d d x 3.W.gXaXaXaXaXhXhXhXhXhXhXhXhXhXhXhXhXhXhX",
"hXhXhXhXhXhXhXhXhXhXhXhXhXaXaXyXc.# , ` ....#. .I A & % > % & # < 4 1 1 & # $ & x c 6.'.gXaXaXaXaXaXhXhXhXhXhXhXhXhXhXhXhXhXhXhX",
"hXhXhXhXhXhXhXhXhXhXhXhXhXaXaXaXwXG.l 4 N L I L C d * 4 ~ Q B B g g g : > ' m.n.m.@XeXaXaXaXaXaXaXhXhXhXhXhXhXhXhXhXhXhXhXhXhXhX",
"hXhXhXhXhXhXhXhXhXhXhXhXhXaXaXaX6X4Xb.W j < 2 2 f 1 # +XE.~ @. .| K s y = j.b.+XOX2X3XyXaXaXaXaXaXhXhXhXhXhXhXhXhXhXhXhXhXhXhXhX",
"hXhXhXhXhXhXhXhXhXhXhXhXhXaXaXaX6X4X|.G.l.! k k k k j.{./ ' X.K F s p = z l.v.{.}.1X4XiXaXaXaXaXhXhXhXhXhXhXhXhXhXhXhXhXhXhXhXhX",
"hXhXhXhXhXhXhXhXhXhXhXhXhXaXaXaXpX3XXX|.{.v.x.k.k.k.z.z./ x B i u f 2 z l.x.{..X1X3X7XpXaXaXaXhXhXhXhXhXhXhXhXhXhXhXhXhXhXhXhXhX",
"hXhXhXhXhXhXhXhXhXhXhXhXhXaXaXaXaX6X3X1X|.|. X.X{..X{.{.v.~ W W z ! j.c.}. X1X2X5X6XpXpXaXaXaXhXhXhXhXhXhXhXhXhXhXhXhXhXhXhXhXhX",
"hXhXhXhXhXhXhXhXhXhXhXhXhXhXaXaXaXaXaX6X7X5X3X4X2X2X2XOX|. X}.}.OXOX2X2X4X3X5X6XpXaXaXaXaXaXhXhXhXhXhXhXhXhXhXhXhXhXhXhXhXhXhXhX",
"hXhXhXhXhXhXhXhXhXhXhXhXhXhXhXaXaXaXaXaXaXaXpXpXpXpX6X6X7X7X8X7X6XiX6XiXiXpXpXaXaXaXaXaXaXhXhXhXhXhXhXhXhXhXhXhXhXhXhXhXhXhXhXhX",
"hXhXhXhXhXhXhXhXhXhXhXhXhXhXhXhXhXaXaXaXaXaXaXaXaXaXaXaXaXpXaXaXaXaXaXaXaXaXaXaXaXaXaXhXhXhXhXhXhXhXhXhXhXhXhXhXhXhXhXhXhXhXhXhX",
"hXhXhXhXhXhXhXhXhXhXhXhXhXhXhXhXhXhXhXhXaXaXaXaXaXaXaXaXaXaXaXaXaXaXaXaXaXaXaXaXhXhXhXhXhXhXhXhXhXhXhXhXhXhXhXhXhXhXhXhXhXhXhXhX",
"hXhXhXhXhXhXhXhXhXhXhXhXhXhXhXhXhXhXhXhXhXhXhXhXhXhXhXhXhXhXhXhXhXhXhXhXhXhXhXhXhXhXhXhXhXhXhXhXhXhXhXhXhXhXhXhXhXhXhXhXhXhXhXhX",
"hXhXhXhXhXhXhXhXhXhXhXhXhXhXhXhXhXhXhXhXhXhXhXhXhXhXhXhXhXhXhXhXhXhXhXhXhXhXhXhXhXhXhXhXhXhXhXhXhXhXhXhXhXhXhXhXhXhXhXhXhXhXhXhX",
"hXhXhXhXhXhXhXhXhXhXhXhXhXhXhXhXhXhXhXhXhXhXhXhXhXhXhXhXhXhXhXhXhXhXhXhXhXhXhXhXhXhXhXhXhXhXhXhXhXhXhXhXhXhXhXhXhXhXhXhXhXhXhXhX",
"hXhXhXhXhXhXhXhXhXhXhXhXhXhXhXhXhXhXhXhXhXhXhXhXhXhXhXhXhXhXhXhXhXhXhXhXhXhXhXhXhXhXhXhXhXhXhXhXhXhXhXhXhXhXhXhXhXhXhXhXhXhXhXhX"
};
