/* XPM */
static char *result[] = {
/* columns rows colors chars-per-pixel */
"64 64 225 2 ",
"   c #6B3921",
".  c #76442E",
"X  c #7C574B",
"o  c #9D551B",
"O  c #B15B0E",
"+  c #B96619",
"@  c #9D5E2B",
"#  c #A15C26",
"$  c #9B6234",
"%  c #AC6425",
"&  c #AA662B",
"*  c #A66229",
"=  c #B16523",
"-  c #BB6B23",
";  c #B46C2B",
":  c #B76B27",
">  c #BE722D",
",  c #BF7026",
"<  c #A56A39",
"1  c #B36E33",
"2  c #AD723D",
"3  c #BC7332",
"4  c #B7753B",
"5  c #C46E1B",
"6  c #C36A17",
"7  c #CC741E",
"8  c #C9721C",
"9  c #D4791E",
"0  c #DC7D1D",
"q  c #D3771C",
"w  c #E17B17",
"e  c #C26F23",
"r  c #C47223",
"t  c #C4742A",
"y  c #CC7826",
"u  c #D47B24",
"i  c #DB7E21",
"p  c #D47E2C",
"a  c #C47C3B",
"s  c #C77B34",
"d  c #D17F31",
"f  c #8C5D44",
"g  c #97725C",
"h  c #9F6C43",
"j  c #A67549",
"k  c #B77B45",
"l  c #AD7C52",
"z  c #DF801F",
"x  c #E4821E",
"c  c #DD8124",
"v  c #DC842C",
"b  c #D6802C",
"n  c #CD823B",
"m  c #DA8632",
"M  c #DE8C3C",
"N  c #D48437",
"B  c #E38524",
"V  c #E1862A",
"C  c #E4892D",
"Z  c #EB8D2D",
"A  c #E88925",
"S  c #E48B33",
"D  c #E98D31",
"F  c #E48E3B",
"G  c #ED9133",
"H  c #EA933B",
"J  c #E5923F",
"K  c #F1963A",
"L  c #F49A3D",
"P  c #F29637",
"I  c #EF912E",
"U  c #BB8555",
"Y  c #9E886D",
"T  c #A58969",
"R  c #A5937B",
"E  c #B59573",
"W  c #B28F6F",
"Q  c #C98546",
"!  c #D38943",
"~  c #D78D47",
"^  c #DC924B",
"/  c #DB9042",
"(  c #CC925A",
")  c #DD9C5D",
"_  c #D99555",
"`  c #C98D56",
"'  c #E29343",
"]  c #EA9643",
"[  c #EE9A45",
"{  c #EC9B4A",
"}  c #E5984C",
"|  c #F39D44",
" . c #F19E4A",
".. c #F89F46",
"X. c #E59D55",
"o. c #E99E53",
"O. c #FAA145",
"+. c #F4A04B",
"@. c #FCA44B",
"#. c #FFA84E",
"$. c #EDA255",
"%. c #E5A25E",
"&. c #EBA45D",
"*. c #F4A453",
"=. c #FBA752",
"-. c #FEAB54",
";. c #F4A759",
":. c #FEAD5B",
">. c #F5A95C",
",. c #FFB05F",
"<. c #CD9466",
"1. c #D99D63",
"2. c #D99E67",
"3. c #C7966B",
"4. c #DBA26B",
"5. c #DDA164",
"6. c #D9A879",
"7. c #D3A87A",
"8. c #E7A769",
"9. c #F4AE66",
"0. c #FEB264",
"q. c #FEB56B",
"w. c #FFB86E",
"e. c #E5AB72",
"r. c #E4AB76",
"t. c #E4B17D",
"y. c #ECB37C",
"u. c #EFB376",
"i. c #FFBB74",
"p. c #FEBD7C",
"a. c #F5B372",
"s. c #FFC07E",
"d. c #A29B89",
"f. c #AB9E8C",
"g. c #B8AA96",
"h. c #AAA28F",
"j. c #9EB6B6",
"k. c #9EB3AF",
"l. c #A2BBBC",
"z. c #A5BAB6",
"x. c #B3B4A9",
"c. c #C9A785",
"v. c #D4AE8C",
"b. c #DAB287",
"n. c #CCB398",
"m. c #D9B998",
"M. c #CDAE98",
"N. c #EAB585",
"B. c #E2B789",
"V. c #F8BD84",
"C. c #E2BB92",
"Z. c #CEBAA7",
"A. c #DCC099",
"S. c #FFC285",
"D. c #FFC68C",
"F. c #FCC68F",
"G. c #E9C096",
"H. c #FFC994",
"J. c #F3C599",
"K. c #FECC9B",
"L. c #F6C594",
"P. c #EEC38E",
"I. c #DAC5A7",
"U. c #CCC4B4",
"Y. c #D5CAB8",
"T. c #CBC0AD",
"R. c #E3C3A1",
"E. c #E9CBA8",
"W. c #F6CDA6",
"Q. c #FFD1A5",
"!. c #FFD5AC",
"~. c #E1CCBA",
"^. c #E8D5BC",
"/. c #FED6B2",
"(. c #FFD9B4",
"). c #FFDDBC",
"_. c #F1D8BF",
"`. c #FFE0BA",
"'. c #A3BFC2",
"]. c #A9C7C9",
"[. c #B6CBC7",
"{. c #AECED1",
"}. c #B3D1D3",
"|. c #BBDADC",
" X c #B7D7D8",
".X c #BFDDE0",
"XX c #DAD8CB",
"oX c #C1DADA",
"OX c #D2D4CA",
"+X c #E7D9C5",
"@X c #FCDDC1",
"#X c #F1D9C0",
"$X c #DDE2DB",
"%X c #FFE1C4",
"&X c #FFE5CA",
"*X c #FCE9C9",
"=X c #E7E6D9",
"-X c #FEE6D1",
";X c #FFEAD4",
":X c #FFECDC",
">X c #F2E9D7",
",X c #C1DFE0",
"<X c #C4E2E4",
"1X c #CCE9EA",
"2X c #C9E6E7",
"3X c #D5EBEB",
"4X c #DCF4F5",
"5X c #D9F2F4",
"6X c #D3EEF0",
"7X c #E6EBE2",
"8X c #E7EDE7",
"9X c #F7EDE2",
"0X c #E8F2EC",
"qX c #FFF2E4",
"wX c #FFF4EB",
"eX c #E5F5F3",
"rX c #ECF6F2",
"tX c #E0F7F8",
"yX c #E5FAFB",
"uX c #EAFEFF",
"iX c #E9F9F6",
"pX c #FEF9F4",
"aX c #FFFEFE",
"sX c #F5F9F6",
"dX c None",
/* pixels */
"dXdXdXdXdXdXdXdXdXdXdXdXdXdXdXdXdXdXdXdXdXdXdXdXdXdXdXdXdXdXdXdXdXdXdXdXdXdXdXdXdXdXdXdXdXdXdXdXdXdXdXdXdXdXdXdXdXdXdXdXdXdXdXdX",
"dXdXdXdXdXdXdXdXdXdXdXdXdXdXdXdXdXdXdXdXdXdXdXdXdXdXdXdXdXdXdXdXdXdXdXdXdXdXdXdXdXdXdXdXdXdXdXdXdXdXdXdXdXdXdXdXdXdXdXdXdXdXdXdX",
"dXdXdXdXdXdXdXdXdXdXdXdXdXdXdXdXdXdXdXdXdXdXdXdXdXdXdXdXdXdXdXdXdXdXdXdXdXdXdXdXdXdXdXdXdXdXdXdXdXdXdXdXdXdXdXdXdXdXdXdXdXdXdXdX",
"dXdXdXdXdXdXdXdXdXdXdXdXdXdXdXdXdXdXdXdXdXuXuXuXuXuXuXdXdXdXdXdXdXdXdXdXdXdXdXdXdXdXdXdXdXdXdXdXdXdXdXdXdXdXdXdXdXdXdXdXdXdXdXdX",
"dXdXdXdXdXdXdXdXdXdXdXdXdXdXdXdXdXdXdXdXuXuXuXuXuXuXuXuXuXdXdXdXdXdXdXdXdXdXdXdXdXdXdXdXdXdXdXdXdXdXdXdXdXdXdXdXdXdXdXdXdXdXdXdX",
"dXdXdXdXdXdXdXdXdXdXdXdXdXdXdXdXdXdXdXuXuXuXuXuXuXuXuXuXuXuXuXuXuXdXdXdXdXdXdXdXdXdXdXdXdXdXdXdXdXdXdXdXdXdXdXdXdXdXdXdXdXdXdXdX",
"dXdXdXdXdXdXdXdXdXdXdXdXdXdXdXdXdXdXuXuXuXuXuX0XuXuXuXuXuXuXuXuXuXuXuXdXdXdXdXdXdXdXdXdXdXdXdXdXdXdXdXdXdXdXdXdXdXdXdXdXdXdXdXdX",
"dXdXdXdXdXdXdXdXdXdXdXdXdXdXdXdXdXdXuXuXuXyXXX7.8XuXuXuXuXuXuXtXuXuXuXuXuXdXdXdXdXdXdXdXdXdXdXdXdXdXdXdXdXdXdXdXdXdXdXdXdXdXdXdX",
"dXdXdXdXdXdXdXdXdXdXdXdXdXdXdXdXdXuXuXuXuXeXm.0 5.0XuXuXuXeX2.g.yXuXuXuXuXdXdXdXdXdXdXdXdXdXdXdXdXdXdXdXdXdXdXdXdXdXdXdXdXdXdXdX",
"dXdXdXdXdXdXdXdXdXdXdXdXdXdXdXdXdXuXuXuXuX5X4.C 0 6.uXuX0X5.S y.3XuXuXuXuXuXdXdXdXdXdXdXdXdXdXdXdXdXdXdXdXdXdXdXdXdXdXdXdXdXdXdX",
"dXdXdXdXdXdXdXdXdXdXdXdXdXdXdXdXuXuXuXuXuXeXX.Z x x I.tXe.H /.;X7XuXuXuXuXuXdXdXdXdXdXdXdXdXdXdXdXdXdXdXdXdXdXdXdXdXdXdXdXdXdXdX",
"dXdXdXdXdXdXdXdXdXdXdXdXdXdXdXdXuXuXuXuXuXeX9.H v b Q ` H p.wXwX9XuXuXuXuXuXuXdXdXdXdXdXdXdXdXdXdXdXdXdXdXdXdXdXdXdXdXdXdXdXdXdX",
"dXdXdXdXdXdXdXdXdXdXdXdXdXdXdXuXuXuXuXuXiX7.a n n ! n b %.).aX9X>XuXuXuXuXuXuXdXdXdXdXdXdXdXdXdXdXdXdXdXdXdXdXdXdXdXdXdXdXdXdXdX",
"dXdXdXdXdXdXdXdXdXdXdXdXdXdXuXuXuXuXuXuX7.r n / [ @. .} N.;XqX-Xb.$XeXyXuXuXuXuXuXuXuXuXuXuXuXuXuXdXdXdXdXdXdXdXdXdXdXdXdXdXdXdX",
"dXdXdXdXdXdXdXdXdXdXdXdXdXuXuXuXuXuXyXv.d / {  ...@. .} y.W._.W._ 1.Y.eXuXuXuXuXuXuXuXuXuXuXuXuXuXuXuXdXdXdXdXdXdXdXdXdXdXdXdXdX",
"dXdXdXdXdXdXdXdXdXdXdXdXuXuXuXuXuXyXM.a ' ] [ +.-.-.=. .&.e.t.e.o.D ) +XuXuXuXuXuXuXuXuXuXuXuXuXuXuXuXuXdXdXdXdXdXdXdXdXdXdXdXdX",
"dXdXdXdXdXdXdXdXdXdXdXdXuXuXuXuXuXXX` ~ ) &.0.0.0.,.,.-.-.;.$.{ +.@.D Q eXuXuXuXuXuXuXuXuXuXuXuXuXuXuXuXuXdXdXdXdXdXdXdXdXdXdXdX",
"dXdXdXdXdXdXdXdXdXdXdXuXuXuXuXuXuXv._ y.L.F.H.F.V.q.,.-.-.#.#.#.@.#.L c 7.uXuXuXuXuXuXuXuXuXuXuXuXuXuXuXuXuXdXdXdXdXdXdXdXdXdXdX",
"dXdXdXdXdXdXdXdXdXdXdXuXuXuXuXuXtX7.e.!.*X&X@X).K.S.q.:.-.-.#.#.#.@.+.I N =XuXuXuXuXyX8X=X=X8XuXuXiXuXuXuXuXdXdXdXdXdXdXdXdXdXdX",
"dXdXdXdXdXdXdXdXdXdXuXuXuXuXuXuXeXv.C.(.C._.:X:X).H.D.i.,.-.-.#.-.@.@.K V A.uXuXeX^.G.m.t.b.t.b.R.=XuXuXuXuXuXdXdXdXdXdXdXdXdXdX",
"dXdXdXdXdXdXdXdXdXdXuXuXuXuXuXuX=X7./.W.f Z.aXwX:X!.H.D.w.,.,.-.@.#.-.O.Z 1.=X+Xb.%.] [ O.O.+. .&.r.I.rXuXuXuXdXdXdXdXdXdXdXdXdX",
"dXdXdXdXdXdXdXdXdXuXuXuXuXuXuXsXC.B.&XR.  Z.aXpX:X/.K.K.s.,.-.-.#.#.-.+.I _ b._ D I O.#.O.@.O.#.O. .$.b.>XuXuXuXdXdXdXdXdXdXdXdX",
"dXdXdXdXdXdXdXdXdXuXuXuXuXuX7Xn.( W.qX~.g +XaXpX-X(.Q.K.S.0.-.-.#.-.-.| I / M I I O.@.O.#.@.O.@.@.O.O.$.G.=XuXuXdXdXdXdXdXdXdXdX",
"dXdXdXdXdXdXdXdXdXuXuXuXuX$XX . v.-X9XpXaXaXaXpX&X(.Q.K.S.w.-.-.#.-.@.G c m A x L #.,.S.D.D.S.q.#.#.@.O.} E.iXuXuXdXdXdXdXdXdXdX",
"dXdXdXdXdXdXdXdXdXuXuXuXuX7Xg v.%X:XpXaXaXaXaXpX&X/.Q.K.S.q.-.-.-.-.| A 0 p A I @.p./.;XwXwX9X).i.#.@.@.[ 4.+XuXuXdXdXdXdXdXdXdX",
"dXdXdXdXdXdXdXdXdXuXuXuXuX8XM.).`.:XaXaXaXaXaXwX@X/.Q.K.S.0.-.-.-.-.G B 0 y B L V.%XqXwXaXaXaXwX%XS.:.@.O._ A.iXuXuXdXdXdXdXdXdX",
"dXdXdXdXdXdXdXdXdXuXuXuXuXuXY.W.(.%XwXaXaXaXaXqX)./.!.K.p.0.-.-.@.K B w r r F 9.).:XpXaXpXpXaXaXwX(.,.@.+.F 7.7XuXuXdXdXdXdXdXdX",
"dXdXdXdXdXdXdXdXdXuXuXuXuXuXrXG.J.).-XwXaXaXpX;X)./.Q.F.q.-.=.| D A x q = t } K.&X;XpXwXE.t.C.#XpX*Xs.#.O.S ( +XuXuXdXdXdXdXdXdX",
"dXdXdXdXdXdXdXdXdXuXuXuXuXuXuX7XB.C.!.&X9XpXqX@X(.!.K.i.-...L Z A x 9 + % d 8.).:X:X*X6.3 > r %.qX:XK.-.| C ( T.uXuXdXdXdXdXdXdX",
"dXdXdXdXdXdXdXdXdXdXuXuXuXuXuXuX=X8.8.W.(.@X@X/./.H.i.*.| P Z B c u + % - M S.-X:X;XJ.1 4 e.$.9.wX;XH.-.| c ` Z.uXuXdXdXdXdXdXdX",
"dXdXdXdXdXdXdXdXdXdXuXuXuXuXuXuXuX=Xb.1.8.t.y.B.N.9.[ P D v u u 7 - = , b [ K.-X;X`.<.: _ W.-XqXwX).s.-.K i W T.uXuXdXdXdXdXdXdX",
"dXdXdXdXdXdXdXdXdXdXdXuXuXuXuXuXuXuX0X^.6.1.1.r.r.*.[ K F d y r 8 r - r G #.S.&X-X/.4 y / u.%X:X&XK.:.L A 7 3.Y.uXuXdXdXdXdXdXdX",
"dXdXdXdXdXdXdXdXdXdXdXdXuXuXuXuXuXuXuXuX9X4.e.C.V.0.@.-.$.' M F v 0 9 7 V O.0.!.&X/.Q 7 S ] 0.S.s.,.P B 0 + f.=XiXuXdXdXdXdXdXdX",
"dXdXdXdXdXdXdXdXdXdXdXdXdXuXuXuXuXuXuXuX7X%.u.P.S.i.:.0.q.>.@.-.| c z 9 9 P ,.H./.(.6.+ V Z H L P I B z + $ U.iXuXuXdXdXdXdXdXdX",
"dXdXdXdXdXdXdXdXdXdXdXdXdXuXuXuXuXuXuX0Xr.%.2.8.p.i.a.&.%.9.0.0.,.G x z 7 C -.s.Q./.W.4 5 Z V c B z z + @ OXuXuXuXuXdXdXdXdXdXdX",
"dXdXdXdXdXdXdXdXdXdXdXdXdXuXuXuXuXuXeX6.^ X.U _ q.q.>.] N ` a.i.,.O.Z x 9 b L -.K./.`.J.: + 8 8 8 6 + $ OXuXuXuXuXuXdXdXdXdXdXdX",
"dXdXdXdXdXdXdXdXdXdXdXdXuXuXuXuXuXeXb.! Q ! ! 9.q.q.*.C 7 1 u.p.,.@.G V 9 8 v O.q.Q.Q.`.J.4 1 k 2 l E $XuXuXuXuXuXuXdXdXdXdXdXdX",
"dXdXdXdXdXdXdXdXdXdXdXuXuXuXuXuXrX4.' 3 t ! X.w.q.;.G B - 3 w.i.,.#.P A z 7 b L =.i.S.Q.-X#X=X=XXX8XyXuXuXuXuXuXuXdXdXdXdXdXdXdX",
"dXdXdXdXdXdXdXdXdXdXuXuXuXuXuXrXm.F m % a ^ ;.0.=.H B 7 = ] w.w.-.#.L A z r y H -.:.q.D.).pXuXuXuXuXuXuXuXuXuXuXuXdXdXdXdXdXdXdX",
"dXdXdXdXdXdXdXdXdXdXuXuXuXuXuX3XW p 8 + ! ^ ] K D B y - M 0.w.0.-.-.O.Z z 8 8 H +.-.,.i.Q.:XwXuXuXuXuXuXuXuXuXuXdXdXdXdXdXdXdXdX",
"dXdXdXdXdXdXdXdXdXdXuXuXuXuXuXuXx.; O o ! / d i 9 + = Q 0.q.q.0.-.-.O.I x 8 - C H @.-.q.F.@XwXiXuXuXuXuXuXuXuXdXdXdXdXdXdXdXdXdX",
"dXdXdXdXdXdXdXdXdXdXuXuXuXuXuXuXeXU.E $ a ^ s s + 1 _ 9.i.q.q.,.-.#.L Z c 5 - V H O.=.0.V.).wXsXuXuXuXuXuXuXdXdXdXdXdXdXdXdXdXdX",
"dXdXdXdXdXdXdXdXdXdXdXuXuXuXuXuXuXuXuXf.r J o.) 8.9.q.q.q.q.0.,.-.O.H I i - : V I  .=.,.i./.qXsXuXuXuXuXuXdXdXdXdXdXdXdXdXdXdXdX",
"dXdXdXdXdXdXdXdXdXdXdXuXuXuXuXuXuXuXuXZ.5 D  .0.i.i.w.q.0.0.,.-.+.H I A u = - c C  .=.>.i.!.wXsXuXuXuXuXdXdXdXdXdXdXdXdXdXdXdXdX",
"dXdXdXdXdXdXdXdXdXdXdXdXuXuXuXuXuXuXuX$X+ m [ :.0.0.0.0.:.:.=.| P I A 0 r = t i C  .*.-.q./.wXrXuXuXuXdXdXdXdXdXdXdXdXdXdXdXdXdX",
"dXdXdXdXdXdXdXdXdXdXdXdXuXuXuX0XP.J.*X+X= d G L =.:.:.=.=.@.| K I Z x u : = u c S +.*.=.w.(.wXrXuXuXuXdXdXdXdXdXdXdXdXdXdXdXdXdX",
"dXdXdXdXdXdXdXdXdXdXdXdXdXuXuX^.$.,.,.0.N : v Z K K K K K K G G C V v - # : i c v ] { >.V.%XwXuXuXuXuXdXdXdXdXdXdXdXdXdXdXdXdXdX",
"dXdXdXdXdXdXdXdXdXdXdXdXdXuXiXn.n { >.-.[ > t v Z Z D D D D D C v p t % * t c i v M o.9.L.:XsXuXuXuXdXdXdXdXdXdXdXdXdXdXdXdXdXdX",
"dXdXdXdXdXdXdXdXdXdXdXdXdXdXuX$Xk d J [ [ F ; t C v v v v C C D p p t & # 1 y p d ~ X.1.m.9XuXuXuXuXdXdXdXdXdXdXdXdXdXdXdXdXdXdX",
"dXdXdXdXdXdXdXdXdXdXdXdXdXuXuXuXY.k N J ] F > * > t t t t t p S P p F / & @ * t s a k <.~.iXuXuXuXuXdXdXdXdXdXdXdXdXdXdXdXdXdXdX",
"dXdXdXdXdXdXdXdXdXdXdXdXdXuXuXuXiXg.4 s b r : < < % & = * & y F [ ..F p s @ # * k U 7.^.uXuXuXuXuXuXdXdXdXdXdXdXdXdXdXdXdXdXdXdX",
"dXdXdXdXdXdXdXdXdXdXdXdXdXuXuXuXuX1Xg.l 2 j j R h.T l 2 Q } ] { $.{ F d 1 g c.7.v.#X8XuXuXuXuXuXuXdXdXdXdXdXdXdXdXdXdXdXdXdXdXdX",
"dXdXdXdXdXdXdXdXdXdXdXdXdXuXuXuX4X1X Xz.h.R x.z.l.l.E ) 9.,.*.$.{ ] d 1 h d.'.oXoX3X1XeXuXuXuXuXuXdXdXdXdXdXdXdXdXdXdXdXdXdXdXdX",
"dXdXdXdXdXdXdXdXdXdXdXdXdXuXuXuX4X2X.X{.z.k.k.z.l.z.U ,.-.[ { ] d n * < d.j.'.'.'.,X2XtXuXuXuXuXdXdXdXdXdXdXdXdXdXdXdXdXdXdXdXdX",
"dXdXdXdXdXdXdXdXdXdXdXdXdXuXuXuXyX1X.X X].'.'.j.j.j.T n s 3 > > j j g x.'.'.'. X,X,X5XyXuXuXuXdXdXdXdXdXdXdXdXdXdXdXdXdXdXdXdXdX",
"dXdXdXdXdXdXdXdXdXdXdXdXdXuXuXuXuX4X6X,X|. X}.{.].].z.R R Y Y R d.x.].'.}.oX,X,X5X4XyXiXuXuXuXdXdXdXdXdXdXdXdXdXdXdXdXdXdXdXdXdX",
"dXdXdXdXdXdXdXdXdXdXdXdXdXdXuXuXuXuXuX4X5X6X1X2X2X2X<XoX[.[. X|.,X,X,X,X1X1X6X4XyXuXuXuXuXuXdXdXdXdXdXdXdXdXdXdXdXdXdXdXdXdXdXdX",
"dXdXdXdXdXdXdXdXdXdXdXdXdXdXdXuXuXuXuXuXuXuXuXtX4X4X4X4X5X5X5X5X4X4X4XeXyXyXyXuXuXuXuXuXuXdXdXdXdXdXdXdXdXdXdXdXdXdXdXdXdXdXdXdX",
"dXdXdXdXdXdXdXdXdXdXdXdXdXdXdXdXdXuXuXuXuXuXuXuXuXuXuXuXiXuXuXuXuXuXuXuXuXuXuXuXuXuXuXdXdXdXdXdXdXdXdXdXdXdXdXdXdXdXdXdXdXdXdXdX",
"dXdXdXdXdXdXdXdXdXdXdXdXdXdXdXdXdXdXdXdXuXuXuXuXuXuXuXuXuXuXuXuXuXuXuXuXuXuXuXuXdXdXdXdXdXdXdXdXdXdXdXdXdXdXdXdXdXdXdXdXdXdXdXdX",
"dXdXdXdXdXdXdXdXdXdXdXdXdXdXdXdXdXdXdXdXdXdXdXdXdXdXdXdXdXdXdXdXdXdXdXdXdXdXdXdXdXdXdXdXdXdXdXdXdXdXdXdXdXdXdXdXdXdXdXdXdXdXdXdX",
"dXdXdXdXdXdXdXdXdXdXdXdXdXdXdXdXdXdXdXdXdXdXdXdXdXdXdXdXdXdXdXdXdXdXdXdXdXdXdXdXdXdXdXdXdXdXdXdXdXdXdXdXdXdXdXdXdXdXdXdXdXdXdXdX",
"dXdXdXdXdXdXdXdXdXdXdXdXdXdXdXdXdXdXdXdXdXdXdXdXdXdXdXdXdXdXdXdXdXdXdXdXdXdXdXdXdXdXdXdXdXdXdXdXdXdXdXdXdXdXdXdXdXdXdXdXdXdXdXdX",
"dXdXdXdXdXdXdXdXdXdXdXdXdXdXdXdXdXdXdXdXdXdXdXdXdXdXdXdXdXdXdXdXdXdXdXdXdXdXdXdXdXdXdXdXdXdXdXdXdXdXdXdXdXdXdXdXdXdXdXdXdXdXdXdX"
};
