/* XPM */
static char *result[] = {
/* columns rows colors chars-per-pixel */
"64 64 198 2 ",
"   c #516B6F",
".  c #446E78",
"X  c #446C74",
"o  c #4B757E",
"O  c #42717D",
"+  c #577477",
"@  c #637D7F",
"#  c #457683",
"$  c #497783",
"%  c #4B7A86",
"&  c #4B7D8C",
"*  c #457C8C",
"=  c #527C85",
"-  c #527E8A",
";  c #677F80",
":  c #54818C",
">  c #5C868F",
",  c #468193",
"<  c #4B8394",
"1  c #4C8799",
"2  c #4D899D",
"3  c #548593",
"4  c #5C8A97",
"5  c #508798",
"6  c #528B9D",
"7  c #598C9B",
"8  c #5C909E",
"9  c #6B898E",
"0  c #678990",
"q  c #6B8C93",
"w  c #608D99",
"e  c #62909D",
"r  c #6A919B",
"t  c #6F9095",
"y  c #7A949B",
"u  c #7F9A9F",
"i  c #74959F",
"p  c #4E8EA3",
"a  c #528EA2",
"s  c #4F91A7",
"d  c #4E92A9",
"f  c #5291A5",
"g  c #5C92A3",
"h  c #5395AB",
"j  c #5A96AA",
"k  c #5598AF",
"l  c #5B99AD",
"z  c #559AB2",
"x  c #5C9DB3",
"c  c #6394A3",
"v  c #6197A8",
"b  c #639AAB",
"n  c #6B9DAC",
"m  c #6B98A5",
"M  c #739AA6",
"N  c #7E9EA5",
"B  c #729FAD",
"V  c #799EA9",
"C  c #639DB1",
"Z  c #699FB1",
"A  c #5EA0B7",
"S  c #5EA2B9",
"D  c #73A1AF",
"F  c #63A1B6",
"G  c #6CA2B4",
"H  c #64A4BB",
"J  c #6BA6BB",
"K  c #67A8BE",
"L  c #6AA9BF",
"P  c #73A4B4",
"I  c #7CA5B2",
"U  c #73AABC",
"Y  c #7CABBB",
"T  c #76A8B8",
"R  c #6CACC2",
"E  c #72AEC2",
"W  c #7BAFC1",
"Q  c #74B1C6",
"!  c #7BB2C5",
"~  c #76B3C9",
"^  c #7AB6CB",
"/  c #7CB9CE",
"(  c #7EBBD0",
")  c #819EA3",
"_  c #84A1A5",
"`  c #8AA1A6",
"'  c #86A5AA",
"]  c #8AA5AB",
"[  c #8DA9AD",
"{  c #91ACAF",
"}  c #84AEBA",
"|  c #89AEBA",
" . c #81A7B1",
".. c #93ADB3",
"X. c #96AFB7",
"o. c #86B1BD",
"O. c #8BB1BD",
"+. c #96B0B2",
"@. c #9AB3B5",
"#. c #94B4BE",
"$. c #9CB6B9",
"%. c #9BB8B8",
"&. c #ACB7BC",
"*. c #A1BBBE",
"=. c #A6B7BD",
"-. c #84B4C4",
";. c #8CB6C3",
":. c #84BACC",
">. c #89BBCC",
",. c #89B8C8",
"<. c #91B5C2",
"1. c #93BAC6",
"2. c #9BBAC5",
"3. c #94BCC9",
"4. c #9BBECA",
"5. c #83BDD2",
"6. c #8ABFD0",
"7. c #A3BFC1",
"8. c #AEBEC5",
"9. c #95C0CE",
"0. c #9BC2CE",
"q. c #87C0D4",
"w. c #8BC2D5",
"e. c #91C5D6",
"r. c #9CC5D2",
"t. c #93C6D8",
"y. c #97C9DA",
"u. c #9BCADB",
"i. c #A5C3C5",
"p. c #A8C5C7",
"a. c #A6C3CC",
"s. c #ABC4CB",
"d. c #ABC9CD",
"f. c #B3C5CB",
"g. c #A6C6D1",
"h. c #A4C8D3",
"j. c #ACCCD4",
"k. c #A3CEDC",
"l. c #ACCED8",
"z. c #A9C7D1",
"x. c #B3CCD3",
"c. c #B9CDD4",
"v. c #A5D0DF",
"b. c #AFD1DA",
"n. c #B4D1D4",
"m. c #BCD0D4",
"M. c #B3D2DA",
"N. c #B7D8D9",
"B. c #BBDBDD",
"V. c #BAD5DD",
"C. c #ACD4E1",
"Z. c #B1D6E3",
"A. c #B8D7E1",
"S. c #B6D9E4",
"D. c #BBDBE5",
"F. c #BEDDE8",
"G. c #BFE0E2",
"H. c #C0CED1",
"J. c #C2D1D7",
"K. c #C2D5DC",
"L. c #C9D6DA",
"P. c #C2DBDE",
"I. c #CDDADD",
"U. c #D3DDDF",
"Y. c #C2DDE3",
"T. c #CADDE3",
"R. c #C2DFE9",
"E. c #D7DDE1",
"W. c #C4E2E5",
"Q. c #C5E1EA",
"!. c #CBE4EB",
"~. c #CCE9EB",
"^. c #CBE2E4",
"/. c #DAE0E3",
"(. c #D2E7ED",
"). c #DAE7EA",
"_. c #D3EBEE",
"`. c #DAEAED",
"'. c #D1E3E6",
"]. c #D5ECF1",
"[. c #DCEDF2",
"{. c #D6F0F1",
"}. c #DCF3F5",
"|. c #E2E6E9",
" X c #E4EAED",
".X c #E6E7E9",
"XX c #E2EEF3",
"oX c #E4F1F5",
"OX c #ECF3F6",
"+X c #E4F6F9",
"@X c #EDF6F8",
"#X c #E4F9FA",
"$X c #EBFBFC",
"%X c #F2F4F5",
"&X c #F2F7F8",
"*X c #F4FAFB",
"=X c #FDFEFE",
"-X c None",
/* pixels */
"-X-X-X-X-X-X-X-X-X-X-X-X-X-X-X-X-X-X-X-X-X-X-X-X-X-X-X-X-X-X-X-X-X-X-X-X-X-X-X-X-X-X-X-X-X-X-X-X-X-X-X-X-X-X-X-X-X-X-X-X-X-X-X-X",
"-X-X-X-X-X-X-X-X-X-X-X-X-X-X-X-X-X-X-X-X-X-X-X-X-X-X-X-X-X-X-X-X-X-X-X-X-X-X-X-X-X-X-X-X-X-X-X-X-X-X-X-X-X-X-X-X-X-X-X-X-X-X-X-X",
"-X-X-X-X-X-X-X-X-X-X-X-X-X-X-X-X-X-X-X-X-X-X-X-X-X-X-X-X-X-X-X-X-X-X-X-X-X-X-X-X-X-X-X-X-X-X-X-X-X-X-X-X-X-X-X-X-X-X-X-X-X-X-X-X",
"-X-X-X-X-X-X-X-X-X-X-X-X-X-X-X-X-X-X-X-X-X-X-X-X-X-X-X-X-X-X-X-X-X-X-X-X-X-X-X-X-X-X-X-X-X-X-X-X-X-X-X-X-X-X-X-X-X-X-X-X-X-X-X-X",
"-X-X-X-X-X-X-X-X-X-X-X-X-X-X-X-X-X-X-X-X-X-X-X-X-X-X-X-X-X-X-X-X-X-X-X-X-X-X-X-X-X-X-X-X-X-X-X-X-X-X-X-X-X-X-X-X-X-X-X-X-X-X-X-X",
"-X-X-X-X-X-X-X-X-X-X-X-X-X-X-X-X-X-X-X-X-X-X-X-X-X-X-X-X-X-X-X-X-X-X-X-X-X-X-X-X-X-X-X-X-X-X-X-X-X-X-X-X-X-X-X-X-X-X-X-X-X-X-X-X",
"-X-X-X-X-X-X-X-X-X-X-X-X-X-X-X-X-X-X-X-X-X-X-X-X-X-X-X-X-X-X-X-X-X-X-X-X-X-X-X-X-X-X-X-X-X-X-X-X-X-X-X-X-X-X-X-X-X-X-X-X-X-X-X-X",
"-X-X-X-X-X-X-X-X-X-X-X-X-X-X-X-X-X-X-X-X-X-X-X-X-X-X-X-X-X-X-X-X-X-X-X-X-X-X-X$X+X$X-X-X-X-X-X-X-X-X-X-X-X-X-X-X-X-X-X-X-X-X-X-X",
"-X-X-X-X-X-X-X-X-X-X-X-X-X-X-X-X-X-X-X-X-X-X-X-X-X-X-X-X-X-X-X$X@X$X-X-X-X-X-XXXs.|.@X-X-X-X-X-X-X-X-X-X-X-X-X-X-X-X-X-X-X-X-X-X",
"-X-X-X-X-X-X-X-X-X-X-X-X-X-X-X-X-X-X-X-X-X-X-X-X-X-X-X-X-X-X-X%X&.f.OX-X-X-X@X2.j 8. X-X-X-X-X-X-X-X-X-X-X-X-X-X-X-X-X-X-X-X-X-X",
"-X-X-X-X-X-X-X-X-X-X-X-X-X-X-X-X-X-X-X-X-X-X-X-X-X-X-X-X-X-X$X.X<.J 2.OX-X@Xs.l H |  X-X-X-X-X-X-X-X-X-X-X-X-X-X-X-X-X-X-X-X-X-X",
"-X-X-X-X-X-X-X-X-X-X-X-X-X-X-X-X-X-X-X-X-X-X-X-X-X-X-X-X-X-X$X|.(.S.U g.%XJ.x k F Y XX-X-X-X-X-X-X-X-X-X-X-X-X-X-X-X-X-X-X-X-X-X",
"-X-X-X-X-X-X-X-X-X-X-X-X-X-X-X-X-X-X-X-X-X-X-X-X-X-X-X-X-X-X&X XOXoXe.J X.B x j J :..X-X-X-X-X-X-X-X-X-X-X-X-X-X-X-X-X-X-X-X-X-X",
"-X-X-X-X-X-X-X-X-X-X-X-X-X-X-X-X-X-X-X-X-X-X-X-X-X-X-X-X-X-X$X|.@X*XY.W v g b g v P 8.OX-X-X-X-X-X-X-X-X-X-X-X-X-X-X-X-X-X-X-X-X",
"-X-X-X-X-X-X-X-X-X-X-X-X-X-X-X-X-X-X-X-X-X-X-X-X-X-X-X-X-X-X|.x.[.OX(.0.U E ! U n g 7 s.@X-X-X-X-X-X-X-X-X-X-X-X-X-X-X-X-X-X-X-X",
"-X-X-X-X-X-X-X-X-X-X-X-X-X-X-X-X-X-X-X-X-X-X-X-X-X-X-X-X-Xm.#.Y Y.).Y.g.W E ^ ~ E E F b f.$X-X-X-X-X-X-X-X-X-X-X-X-X-X-X-X-X-X-X",
"-X-X-X-X-X-X-X-X-X-X-X-X-X-X-X-X-X$X$X-X-X-X-X-X-X-X-X-XK.| J Y 4.h.3.-.W / ( ( ! E J G m f.@X-X-X-X-X-X-X-X-X-X-X-X-X-X-X-X-X-X",
"-X-X-X-X-X-X-X-X-X-X-X-X-X-X$X$X}._.^.!._.#X-X-X-X-X-XXX| J ~ ~ W :.:.:.5.5.5.w.6.5.W U n V E.-X-X-X-X-X-X-X-X-X-X-X-X-X-X-X-X-X",
"-X-X-X-X-X-X-X-X-X-X-X-X-X$X!.j.r.4.1.1.a.j.W.}.-X-X-Xs.j R ^ ~ ^ ^ ( 5.5.5.w.u.v.C.k.r.3.I =.OX-X-X-X-X-X-X-X-X-X-X-X-X-X-X-X-X",
"-X-X-X-X-X-X-X-X-X-X-X-X#Xb.3.! ^ ^ ~ ! W U -.0.!.-X].Z H ~ ^ / ( ( 5.( 5.t.v.Z.R.Q.!.!.S.3.X.%X-X-X-X-X-X-X-X-X-X-X-X-X-X-X-X-X",
"-X-X-X-X-X-X-X-X-X-X-X}.h.W Q ~ ^ ~ / ~ ^ ~ R C W D.c.x R ~ / ( ( 5.5.5.t.k.C.R.[.XX(.Y.R.l.2. X-X-X-X-X-X-X-X-X-X-X-X-X-X-X-X-X",
"-X-X-X-X-X-X-X-X-X-X].l.-.~ ^ / ( / / / ^ ^ Q S C ,.-.C Q / / ( 5.5.5.e.v.Z.F.[.+X*Xc.9 A.Y.X.E.-X-X-X-X-X-X-X-X-X-X-X-X-X-X-X-X",
"-X-X-X-X-X-X-X-X-X-XV.-.~ ^ / / ( t.t.y.t.( / R x x G R ~ ( ( ( ( 5.w.u.C.D.R.XX*X=XH.+ x.].4.c.%X-X-X-X-X-X-X-X-X-X-X-X-X-X-X-X",
"-X-X-X-X-X-X-X-X-X!.<.E ^ / ( 5.S.!.].].Q.C.( ~ x x C H ~ ( ( ( 5.5.w.C.S.D.!.XX*X=XJ.  f.XXM.| L.#X$X-X-X-X-X-X-X-X-X-X-X-X-X-X",
"-X-X-X-X-X-X-X-X$Xm.T ~ ^ ( t.S.}.*X*X*X@X[.S.6.R z j x R / ( / 5.5.w.C.Z.F.Q.}.*X=X=XXX%XOX`.<.+ 9 E.-X-X-X-X-X-X-X-X-X-X-X-X-X",
"-X-X-X-X-X-X-X-X{.<.J ~ / 6.F.oX*X=X=X=X*X@X[.Z.Q x a h x R 5.( ( 5.w.C.S.F.Q.].*X=X=X=X=X@X}.T.{ ; E.-X-X-X-X-X-X-X-X-X-X-X-X-X",
"-X-X-X-X-X-X-X-XT.' J ^ ( t.(.*X*X@XXXOX*X*XoX!.r.J a p z R ( 5.5.( t.C.Z.F.R.].&X=X=X=X=X=X@X!.!.@.E.-X-X-X-X-X-X-X-X-X-X-X-X-X",
"-X-X-X-X-X-X-X_.b.B H ~ 5.v.[.@Xx.| } a.XX@X[.[.S.Y 5 < k x R / 5.5.w.u.S.F.R.(.OX=X=X=X=X*X[.!.Y.f.%X-X-X-X-X-X-X-X-X-X-X-X-X-X",
"-X-X-X-X-X-X-X!.8.b C ~ 5.S.oXoXW g e 7 <.].[.oX!.,.j & p z x R ~ 5.5.y.C.F.Q.~.[.*X=X=X*XoX(.Y.x.|.-X-X-X-X-X-X-X-X-X-X-X-X-X-X",
"-X-X-X-X-X-X-XY.7.m x ~ 5.Z.[.oX,.,.,.e w M.[.oX[.k.Z & & d k x R ~ / 5.k.S.F.!.].@X=X%XXX!.S.a.T.-X-X-X-X-X-X-X-X-X-X-X-X-X-X-X",
"-X-X-X-X-X-X-X-X8.r h R 5.v.(.+XXX`.l.P 3 | (.[.[.C.E j & p d h z H R ~ 5.k.S.Q.!.`.].`.!.k.;.K.+X-X-X-X-X-X-X-X-X-X-X-X-X-X-X-X",
"-X-X-X-X-X-X-X-XT.M a C ~ w.D.[.@X`.4.J a w T.[.].v.^ C 1 * 1 s h h C H R ! t.C.l.l.l.h.3.| x.+X-X-X-X-X-X-X-X-X-X-X-X-X-X-X-X-X",
"-X-X-X-X-X-X-X-XT.y , h x ~ e.C.C.t.R C a m Q.].!.t.~ A 2 < 1 1 1 p j Z R R ! 3.1.| } } a.`.$X-X-X-X-X-X-X-X-X-X-X-X-X-X-X-X-X-X",
"-X-X-X-X-X-X-X-X[.8.% p k x R ~ / E Z x < ;.Q.Q.Z.q.R f 2 p s d j j C U ~ ^ 6.r.h.;.;.T.+X$X-X-X-X-X-X-X-X-X-X-X-X-X-X-X-X-X-X-X",
"-X-X-X-X-X-X-X-X-X).) % 2 h z x z l x s 5 b.Q.D.v.5.F 2 s f k K ! ^ / 6.6.5.t.k.l.4.} [.-X-X-X-X-X-X-X-X-X-X-X-X-X-X-X-X-X-X-X-X",
"-X-X-X-X-X-X-X-X-X-XI.y # 1 f d a h a & <.Q.F.Z.w.~ k s d k S ( 6.5.6.,.6.6.y.k.4.3.-.z.$X-X-X-X-X-X-X-X-X-X-X-X-X-X-X-X-X-X-X-X",
"-X-X-X-X-X-X-X-X-X-X-XK.N = & % - - & Y F.Q.G.C.^ L 2 s h S Q q.y.6.-.G E ,.y.6.T M -.Y s.$X-X-X-X-X-X-X-X-X-X-X-X-X-X-X-X-X-X-X",
"-X-X-X-X-X-X-X-X-X-X-XoX).x.7...' ] <.R.Q.Z.C.w.E l 2 f z S ~ q.y.3.w a Z ^ t.y.:.m B Z B x.$X-X-X-X-X-X-X-X-X-X-X-X-X-X-X-X-X-X",
"-X-X-X-X-X-X-X-X-X-X-X-X-X-X-X}.'.U.`.`.S.k.w.:.L h 2 d z R / q.y.6.a 5 x R 6.6.t.T v n 4 Z f.@X-X-X-X-X-X-X-X-X-X-X-X-X-X-X-X-X",
"-X-X-X-X-X-X-X-X-X-X-X-X-X-X-X-X$X=X*XR.C.e.q./ U a 2 h A R ( q.y.y.Z & a x E 5.6.:.Z Z & g U c.-X-X-X-X-X-X-X-X-X-X-X-X-X-X-X-X",
"-X-X-X-X-X-X-X-X-X-X-X-X-X-X-X-X%X%X[.D.y.5.5.Q H 5 1 h A ~ ( q.t.t.5.g < s x R E Q Z P 7 , l ] ).-X-X-X-X-X-X-X-X-X-X-X-X-X-X-X",
"-X-X-X-X-X-X-X-X-X-X-X-X-X-X-X-X%X$X].C.t.:.~ R A 5 2 h S ~ ( 5.6.y.y.! g & a k x C Z P 7 # 5 ) `.-X-X-X-X-X-X-X-X-X-X-X-X-X-X-X",
"-X-X-X-X-X-X-X-X-X-X-X-X-X-X-X-X%X@X!.v.5.:.Q H l < 1 h S R / 5.5.t.6.y.-.c & * p g n G 3 . ) /.$X-X-X-X-X-X-X-X-X-X-X-X-X-X-X-X",
"-X-X-X-X-X-X-X-X-X-X-X-X-X-X-X-X%X@XR.u.w./ Q H k , < h S R ^ 5.5.t.6.y.y.6.W Z n P G C 3 &.#X$X-X-X-X-X-X-X-X-X-X-X-X-X-X-X-X-X",
"-X-X-X-X-X-X-X-X-X-X-X-X-X-X-X-X%X+XR.y.5./ E C k < , s S S E ( 5.6.t.t.t.t.y.y.6.W R j 4 L.$X-X-X-X-X-X-X-X-X-X-X-X-X-X-X-X-X-X",
"-X-X-X-X-X-X-X-X-X-X-X-X-X-X-X-X%X@XF.t.5.:.Q x h 5 : 1 k S H L ( 5.5.5.5.e.t.t.5.! H a e `.-X-X-X-X-X-X-X-X-X-X-X-X-X-X-X-X-X-X",
"-X-X-X-X-X-X-X-X-X-X-X-X-X-X-X-X%X%XQ.y.:./ Q C h 6 : < s k S H R Q / 5.5.5.5.5.:.R C 1 M $X-X-X-X-X-X-X-X-X-X-X-X-X-X-X-X-X-X-X",
"-X-X-X-X-X-X-X-X-X-X-X-X-X-X-X-X%X%XT.u.^ ^ E x h 6 , , 2 d z S R R R Q ~ ~ ~ E R x f & ] -X-X-X-X-X-X-X-X-X-X-X-X-X-X-X-X-X-X-X",
"-X-X-X-X-X-X-X-X-X-X-X-X-X-X-X-X-X*X`.l.>.Q G j h h 5 $ < 6 k z A S H K K K K H x j < : f.-X-X-X-X-X-X-X-X-X-X-X-X-X-X-X-X-X-X-X",
"-X-X-X-X-X-X-X-X-X-X-X-X-X-X-X-X-X%X Xz.;.! J j j p 5 % O : 1 k S A z x x A F b 6 & : D O.m.-X-X-X-X-X-X-X-X-X-X-X-X-X-X-X-X-X-X",
"-X-X-X-X-X-X-X-X-X-X-X-X-X-X-X-X-X-X Xx.' B b v 7 < & $ o o . 4 K R L H l 8 : : X $ G ~ T 0.-X-X-X-X-X-X-X-X-X-X-X-X-X-X-X-X-X-X",
"-X-X-X-X-X-X-X-X-X-X-X-X-X-X-X-X-X-X-X|.z.V r 4 : $ o o 9 u q 3 b J ! :.! T n n : < k j 0 i.~.-X-X-X-X-X-X-X-X-X-X-X-X-X-X-X-X-X",
"-X-X-X-X-X-X-X-X-X-X-X-X-X-X-X-X-X-X-X-X-X[.n. .V D _ [ ` ) u q 6 k F J U Q Q ~ e O * : u j.G.~.-X-X-X-X-X-X-X-X-X-X-X-X-X-X-X-X",
"-X-X-X-X-X-X-X-X-X-X-X-X-X-X-X-X-X-X-X-X$X#X_.~.m.&.@.{ _ _ _ ) > 1 6 g j j j g t ..@.+.%.p.N.W.~.-X-X-X-X-X-X-X-X-X-X-X-X-X-X-X",
"-X-X-X-X-X-X-X-X-X-X-X-X-X-X-X-X-X-X-X-X-X#X~.G.n.7.%.@.+.[ ] [ ` 9 = o $ : : t =.$.$.%.*.d.B.G.Q.-X-X-X-X-X-X-X-X-X-X-X-X-X-X-X",
"-X-X-X-X-X-X-X-X-X-X-X-X-X-X-X-X-X-X-X-X-X-X{.~.G.n.i.*.%.@.+.+.%.%.@.@.%.@.+.+.@.$.$.i.d.N.G.G.-X-X-X-X-X-X-X-X-X-X-X-X-X-X-X-X",
"-X-X-X-X-X-X-X-X-X-X-X-X-X-X-X-X-X-X-X-X-X-X}.}.~.G.N.n.d.p.p.p.i.i.i.7.*.i.p.p.p.d.n.n.N.G.~.~.-X-X-X-X-X-X-X-X-X-X-X-X-X-X-X-X",
"-X-X-X-X-X-X-X-X-X-X-X-X-X-X-X-X-X-X-X-X-X-X-X-X}._.W.G.B.B.B.B.D.B.B.N.B.B.W.W.W.~.~.~.W.~.-X-X-X-X-X-X-X-X-X-X-X-X-X-X-X-X-X-X",
"-X-X-X-X-X-X-X-X-X-X-X-X-X-X-X-X-X-X-X-X-X-X-X-X-X-X-X{.{._.{.{.{.{.{.{.{.{._.{._.-X-X-X-X-X-X-X-X-X-X-X-X-X-X-X-X-X-X-X-X-X-X-X",
"-X-X-X-X-X-X-X-X-X-X-X-X-X-X-X-X-X-X-X-X-X-X-X-X-X-X-X-X-X-X-X-X-X-X-X-X-X-X-X-X-X-X-X-X-X-X-X-X-X-X-X-X-X-X-X-X-X-X-X-X-X-X-X-X",
"-X-X-X-X-X-X-X-X-X-X-X-X-X-X-X-X-X-X-X-X-X-X-X-X-X-X-X-X-X-X-X-X-X-X-X-X-X-X-X-X-X-X-X-X-X-X-X-X-X-X-X-X-X-X-X-X-X-X-X-X-X-X-X-X",
"-X-X-X-X-X-X-X-X-X-X-X-X-X-X-X-X-X-X-X-X-X-X-X-X-X-X-X-X-X-X-X-X-X-X-X-X-X-X-X-X-X-X-X-X-X-X-X-X-X-X-X-X-X-X-X-X-X-X-X-X-X-X-X-X",
"-X-X-X-X-X-X-X-X-X-X-X-X-X-X-X-X-X-X-X-X-X-X-X-X-X-X-X-X-X-X-X-X-X-X-X-X-X-X-X-X-X-X-X-X-X-X-X-X-X-X-X-X-X-X-X-X-X-X-X-X-X-X-X-X",
"-X-X-X-X-X-X-X-X-X-X-X-X-X-X-X-X-X-X-X-X-X-X-X-X-X-X-X-X-X-X-X-X-X-X-X-X-X-X-X-X-X-X-X-X-X-X-X-X-X-X-X-X-X-X-X-X-X-X-X-X-X-X-X-X"
};
