/* XPM */
static char *result[] = {
/* columns rows colors chars-per-pixel */
"64 64 248 2 ",
"   c #0A1F3F",
".  c #0D2741",
"X  c #142343",
"o  c #142B43",
"O  c #172D48",
"+  c #193246",
"@  c #1D344B",
"#  c #1E3A4B",
"$  c #223447",
"%  c #243D4D",
"&  c #293C53",
"*  c #433F43",
"=  c #26444E",
"-  c #3C474F",
";  c #2B4453",
":  c #294756",
">  c #2C4B55",
",  c #314955",
"<  c #334B59",
"1  c #364A59",
"2  c #2E5255",
"3  c #2D5A5A",
"4  c #34545B",
"5  c #38575A",
"6  c #3B535C",
"7  c #345B5C",
"8  c #2D6959",
"9  c #35625D",
"0  c #364E61",
"q  c #3C5463",
"w  c #385566",
"e  c #355D62",
"r  c #3D5D63",
"t  c #395975",
"y  c #2E6E67",
"u  c #356462",
"i  c #3C6363",
"p  c #3D6B64",
"a  c #386D66",
"s  c #3A7167",
"d  c #5D504A",
"f  c #495A5C",
"g  c #75524A",
"h  c #776A56",
"j  c #475A67",
"k  c #445C64",
"l  c #515D6A",
"z  c #436364",
"x  c #4C6366",
"c  c #436D65",
"v  c #456368",
"b  c #4B646A",
"n  c #456B69",
"m  c #4B6C6B",
"M  c #55696A",
"N  c #526C6E",
"B  c #44736A",
"V  c #47756A",
"C  c #4A7B6E",
"Z  c #52776E",
"A  c #4A6672",
"S  c #546E71",
"D  c #586B77",
"F  c #497673",
"G  c #4C7C72",
"H  c #547572",
"J  c #5B7572",
"K  c #547C72",
"L  c #5B7974",
"P  c #58727A",
"I  c #557B7A",
"U  c #5C7C7A",
"Y  c #6A7373",
"T  c #637876",
"R  c #63767A",
"E  c #617C7A",
"W  c #BE3330",
"Q  c #D01911",
"!  c #CC241E",
"~  c #DA2D2A",
"^  c #C93635",
"/  c #A94E35",
"(  c #8A653D",
")  c #EB6D1B",
"_  c #CA7832",
"`  c #E57627",
"'  c #AC504D",
"]  c #A27451",
"[  c #95716B",
"{  c #C65752",
"}  c #E34243",
"|  c #E35559",
" . c #D96969",
".. c #E86C70",
"X. c #4B836E",
"o. c #4F896E",
"O. c #4C8573",
"+. c #538373",
"@. c #598275",
"#. c #558876",
"$. c #5C847B",
"%. c #5C8A7B",
"&. c #5C937B",
"*. c #59957C",
"=. c #7C8963",
"-. c #64827B",
";. c #69847D",
":. c #638B7D",
">. c #62937D",
",. c #67957D",
"<. c #F1842B",
"1. c #EA8E3A",
"2. c #908769",
"3. c #948E76",
"4. c #AC9268",
"5. c #D89757",
"6. c #DAA657",
"7. c #CFB06D",
"8. c #E7A661",
"9. c #395E9F",
"0. c #52758F",
"q. c #667A85",
"w. c #6E788B",
"e. c #4E72AA",
"r. c #567CB5",
"t. c #5E9380",
"y. c #658583",
"u. c #648B82",
"i. c #6B8A83",
"p. c #6B8788",
"a. c #758D88",
"s. c #659182",
"d. c #6B9284",
"f. c #649B84",
"g. c #6C9B85",
"h. c #69978A",
"j. c #6D9C8B",
"k. c #729286",
"l. c #719A85",
"z. c #73938B",
"x. c #79968A",
"c. c #739B8B",
"v. c #7C9C8E",
"b. c #778D94",
"n. c #6D9893",
"m. c #779A92",
"M. c #7C9D94",
"N. c #67A484",
"B. c #6CA384",
"V. c #73A48C",
"C. c #77A78C",
"Z. c #7BA493",
"A. c #7BAB93",
"S. c #79A598",
"D. c #7BB492",
"F. c #5A85BA",
"G. c #7294B6",
"H. c #648AC2",
"J. c #7598C6",
"K. c #7FA7CC",
"L. c #8B8A8F",
"P. c #84978A",
"I. c #839A99",
"U. c #83A395",
"Y. c #83AB96",
"T. c #87A79A",
"R. c #8BA59A",
"E. c #82AB9B",
"W. c #8DAA98",
"Q. c #8BAC9D",
"!. c #83BA96",
"~. c #84B299",
"^. c #8BB69C",
"/. c #8BBC9D",
"(. c #B7B785",
"). c #899BA5",
"_. c #819EBA",
"`. c #8AA3A3",
"'. c #84ACA1",
"]. c #8CACA5",
"[. c #98ABA6",
"{. c #93ADAD",
"}. c #8DB3A2",
"|. c #89B7A6",
" X c #8CBBA1",
".X c #94BBA4",
"XX c #97B6AA",
"oX c #8AACB2",
"OX c #94A4B0",
"+X c #9BB5B4",
"@X c #9AB8B6",
"#X c #ACB4B2",
"$X c #A3B9B5",
"%X c #A4BCBB",
"&X c #EC9193",
"*X c #CFB085",
"=X c #EF9EA5",
"-X c #8CC6AE",
";X c #97C5A8",
":X c #9CC3AB",
">X c #9AC8B5",
",X c #A3C7AE",
"<X c #A3CBB3",
"1X c #ABCCB9",
"2X c #B1C6B8",
"3X c #A8D2B7",
"4X c #B4D5BC",
"5X c #F4D194",
"6X c #E9D4B1",
"7X c #9CB4C1",
"8X c #8BABD2",
"9X c #A9BAC8",
"0X c #ADC6C7",
"qX c #B6CAC9",
"wX c #B3CBCD",
"eX c #B7D4C7",
"rX c #B6CFD3",
"tX c #B9CED8",
"yX c #BBD3D4",
"uX c #BAD4D4",
"iX c #B9CDE4",
"pX c #B7D3E4",
"aX c #C2D1C3",
"sX c #C5DAD5",
"dX c #C4DBDD",
"fX c #CDDDDD",
"gX c #CEE6D7",
"hX c #CBE4D9",
"jX c #C6D9E6",
"kX c #D5DEE7",
"lX c #CCE3E4",
"zX c #CDE5EB",
"xX c #D2E5E6",
"cX c #D3EAE4",
"vX c #D1E7E9",
"bX c #D5EBEC",
"nX c #D9EEEF",
"mX c #DCF1EA",
"MX c #D6E8F4",
"NX c #DAEEF2",
"BX c #DDF2F4",
"VX c #DEF3F9",
"CX c #E4EBEE",
"ZX c #E1F6F6",
"AX c #E3F6FA",
"SX c #EAF7F8",
"DX c #E6FAFC",
"FX c #EAFEFF",
/* pixels */
"FXFXFXFXFXFXFXFXFXFXFXFXFXFXFXFXFXFXFXFXFXFXFXFXFXFXFXFXFXFXFXFXFXFXFXFXFXFXFXFXFXFXFXFXFXFXFXFXFXFXFXFXFXFXFXFXFXFXFXFXFXFXFXFX",
"FXFXFXFXFXFXFXFXFXFXFXFXFXFXFXFXFXFXFXFXFXFXFXFXFXFXFXFXFXFXFXSXcXSXFXFXFXFXFXFXFXFXFXFXFXFXFXFXFXFXFXFXFXFXFXFXFXFXFXFXFXFXFXFX",
"FXFXFXFXFXFXFXFXFXFXFXFXFXFXFXFXFXFXFXFXFXFXFXFXFXFXFXFXFXFXFXmXeXZXFXFXFXFXFXFXFXFXFXFXFXFXFXFXFXFXFXFXFXFXFXFXFXFXFXFXFXFXFXFX",
"FXFXFXFXFXFXFXFXFXFXFXFXFXFXFXFXFXFXFXFXFXFXFXFXFXFXFXFXFXFXFXcX/.cXFXFXFXFXFXFXFXFXFXFXFXFXFXFXFXFXFXFXFXFXFXFXFXFXFXFXFXFXFXFX",
"FXFXFXFXFXFXFXFXFXFXFXFXFXFXFXFXFXFXFXFXFXFXFXFXFXFXFXFXFXFXfXaXg.:XfXSXFXFXFXFXFXFXFXFXFXFXFXFXFXFXFXFXFXFXFXFXFXFXFXFXFXFXFXFX",
"FXFXFXFXFXFXFXFXFXFXFXFXFXFXFXFXFXFXFXFXFXFXFXFXFXFXFXFXFXZXP.d.C.A.m yXFXFXFXFXFXFXFXFXFXFXFXFXFXFXFXFXFXFXFXFXFXFXFXFXFXFXFXFX",
"FXFXFXFXFXFXFXFXFXFXFXFXFXFXFXFXFXFXFXFXFXFXFXFXFXFXFXFXFXcX2X-.^.U.= qXFXFXFXFXFXFXFXFXFXFXFXFXFXFXFXFXFXFXFXFXFXFXFXFXFXFXFXFX",
"FXFXFXFXFXFXFXFXFXFXFXFXFXFXFXFXFXFXFXFXFXFXFXFXFXFXFXSXbX2XG &.f.6 r ^.yXSXFXFXFXFXFXFXFXFXFXFXFXFXFXFXFXFXFXFXFXFXFXFXFXFXFXFX",
"FXFXFXFXFXFXFXFXFXFXFXFXFXFXFXFXFXFXFXFXFXFXFXFXFXFXSX0XV.I.$.#.c @ < %.@XAXDXFXFXFXFXFXFXFXFXFXFXFXFXFXFXFXFXFXFXFXFXFXFXFXFXFX",
"FXFXFXFXFXFXFXFXFXFXFXFXFXFXFXFXFXFXFXFXFXFXFXFXFXSXAX%XY.N 4 m.u.; @ 2 w.kXDXFXFXFXFXFXFXFXFXFXFXFXFXFXFXFXFXFXFXFXFXFXFXFXFXFX",
"FXFXFXFXFXFXFXFXFXFXFXFXFXFXFXFXFXFXFXFXFXFXFXFXFXSX#XD -.-.z L -., % @ @ P MXFXFXFXFXFXFXFXFXFXFXFXFXFXFXFXFXFXFXFXFXFXFXFXFXFX",
"FXFXFXFXFXFXFXFXFXFXFXFXFXFXFXFXFXFXFXFXFXFXFXFXFXMX&   + ; R c.+.7 : # @ > 7XBXFXFXFXFXFXFXFXFXFXFXFXFXFXFXFXFXFXFXFXFXFXFXFXFX",
"FXFXFXFXFXFXFXFXFXFXFXFXFXFXFXFXFXFXFXFXFXFXFXFXFXkXL.& @ X l ;.5 9 B i 4 n F `.VXFXFXFXFXFXFXFXFXFXFXFXFXFXFXFXFXFXFXFXFXFXFXFX",
"FXFXFXFXFXFXFXFXFXFXFXFXFXFXFXFXFXFXFXFXFXFXFXDXxXR j & O & m I R q.8 s X.u 3 @XDXFXFXFXFXFXFXFXFXFXFXFXFXFXFXFXFXFXFXFXFXFXFXFX",
"FXFXFXFXFXFXFXFXFXFXFXFXFXFXFXFXFXFXFXFXFXFXFXDXuXU.D < q a.m.G.pXpX0.s F c c tXDXFXFXFXFXFXFXFXFXFXFXFXFXFXFXFXFXFXFXFXFXFXFXFX",
"FXFXFXFXFXFXFXFXFXFXFXFXFXFXFXFXFXFXFXFXFXFXFXFXyX@X}.H r l.S.e.r.H.0.s u u f.oXtXVXFXFXFXFXFXFXFXFXFXFXFXFXFXFXFXFXFXFXFXFXFXFX",
"FXFXFXFXFXFXFXFXFXFXFXFXFXFXFXFXFXFXFXFXFXFXSXbXb.M.{.Z.L k.A.0.H.K.A 5 , x p 5 d.vXAXFXFXFXFXFXFXFXFXFXFXFXFXFXFXFXFXFXFXFXFXFX",
"FXFXFXFXFXFXFXFXFXFXFXFXFXFXFXFXFXFXFXFXFXSX%XI.q > y.U.^.k.-.6 I I R k q l = z {.yXvXFXFXFXFXFXFXFXFXFXFXFXFXFXFXFXFXFXFXFXFXFX",
"FXFXFXFXFXFXFXFXFXFXFXFXFXFXFXFXFXFXFXFXDXqXi.n = 6 m v.T 6 j 6 7 p U q o X q c l.;XwXDXFXFXFXFXFXFXFXFXFXFXFXFXFXFXFXFXFXFXFXFX",
"FXFXFXFXFXFXFXFXFXFXFXFXFXFXFXFXFXFXFXFXFXMXU v L E z M H < 6 k 0 > O.K k ; m u.j.^.tXVXFXFXFXFXFXFXFXFXFXFXFXFXFXFXFXFXFXFXFXFX",
"FXFXFXFXFXFXFXFXFXFXFXFXFXFXFXFXFXFXFXDXBXlXz.z H I 2.4.3.k o + ; = m V.}.u.c.A.@.m.OXjXSXFXFXFXFXFXFXFXFXFXFXFXFXFXFXFXFXFXFXFX",
"FXFXFXFXFXFXFXFXFXFXFXFXFXFXFXFXFXFXFXVX1XQ.c.u.K h 1.5X8.h D E U 6 K A./.d.C..X;X,.I.ZXFXFXFXFXFXFXFXFXFXFXFXFXFXFXFXFXFXFXFXFX",
"FXFXFXFXFXFXFXFXFXFXFXFXFXFXFXFXFXFXFXFXzX@Xj.u.s.2.) ` <.7.>XY.-.L c.~.v.Z :.Y.m.[.jXSXFXFXFXFXFXFXFXFXFXFXFXFXFXFXFXFXFXFXFXFX",
"FXFXFXFXFXFXFXFXFXFXFXFXFXFXFXFXFXFXFXFXFXzXp.Z g.x / 1.5.U.S A ; v S.d.N m 9 z u.P A wXAXFXFXFXFXFXFXFXFXFXFXFXFXFXFXFXFXFXFXFX",
"FXFXFXFXFXFXFXFXFXFXFXFXFXFXFXFXFXFXDXVXDXiXb.I ; b f f ; k S b E ;X;.z m m m K n 4 4 XXAXDXFXFXFXFXFXFXFXFXFXFXFXFXFXFXFXFXFXFX",
"FXFXFXFXFXFXFXFXFXFXFXFXFXFXFXFXFXFXDXMX9Xw.& u.S , ).m.: ;.m.z.0X3X.Xm.:.K l.m r i C uXFXFXFXFXFXFXFXFXFXFXFXFXFXFXFXFXFXFXFXFX",
"FXFXFXFXFXFXFXFXFXFXFXFXFXFXFXFXFXDXFXFX9X, , 6 f M [.W.-.c.m.i.l.k..X}.s.D.V.%.B p n.kXAXDXFXFXFXFXFXFXFXFXFXFXFXFXFXFXFXFXFXFX",
"FXFXFXFXFXFXFXFXFXFXFXFXFXFXFXFXFXFXDXBXrXx.k.v.d.k.c.P.R.P.M.Z.z.d.a.( d X.B.*.*.O.p.rXdXAXFXFXFXFXFXFXFXFXFXFXFXFXFXFXFXFXFXFX",
"FXFXFXFXFXFXFXFXFXFXFXFXFXFXFXFXDXDXFXeX,X<X,X3X].Z.U.U.I.U.U.R.M.L. .&X&Xd u.f.f.+.a S.SXFXFXFXFXFXFXFXFXFXFXFXFXFXFXFXFXFXFXFX",
"FXFXFXFXFXFXFXFXFXFXFXFXFXFXFXFXMX9XI.Z.<X3X4X4X,X}.P.R.Q.U.Y.U.oX' } &X..W L -.%.X.y.jXSXFXFXFXFXFXFXFXFXFXFXFXFXFXFXFXFXFXFXFX",
"FXFXFXFXFXFXFXFXFXFXFXFXFXFXFXFXpXz.9 c..X,X$XsX1X}.k.R.W.2XW.R.oX{ Q ! ~ ^ M $.%.#.U p.).jXCXFXFXFXFXFXFXFXFXFXFXFXFXFXFXFXFXFX",
"FXFXFXFXFXFXFXFXFXFXFXFXFXFXFXFXvX>X;.R.^.Z., I.eX[.a.R.[.CXL.z.|.[ ~ } | 4.'.C.>.*.y 8 m D 9XSXFXFXFXFXFXFXFXFXFXFXFXFXFXFXFXFX",
"FXFXFXFXFXFXFXFXFXFXFXFXFXFXFXAXDXbXeXXXd.U = - #X$XM.b R P.l x m.n.Y [ [ S.Q.C.K @.C k.k $ ).VXSXFXFXFXFXFXFXFXFXFXFXFXFXFXFXFX",
"FXFXFXFXFXFXFXFXFXFXFXFXFXFXDXAXFXFXBX.X Xn w G.9X{.E l 1 T J f m i.$.A.-X~.^.V.@.#.+.9 # S nXDXDXFXFXFXFXFXFXFXFXFXFXFXFXFXFXFX",
"FXFXFXFXFXFXFXFXFXFXFXFXFXFXFXDXDXbXfXT.q q G.pXCX8XA P j R R b M T.Q.3X<X<XY.z.C.K X.a 3 j.VXFXDXFXFXFXFXFXFXFXFXFXFXFXFXFXFXFX",
"FXFXFXFXFXFXFXFXFXFXFXFXFXFXFXMX0XoXp.R % t e.r.J.F.0.- < b D T ;.J U.P.:X<XQ.Y.:.I :.+.B >.hXFXFXFXFXFXFXFXFXFXFXFXFXFXFXFXFXFX",
"FXFXFXFXFXFXFXFXFXFXFXFXFXFXFXjXd.Z m > J '.r.9.F.J.0.k k R m.y.S v y.U .X:XZ.L J ;.p.~.&.#.rXAXFXFXFXFXFXFXFXFXFXFXFXFXFXFXFXFX",
"FXFXFXFXFXFXFXFXFXFXFXFXFXFXDXAXuXy.B C C.,X@X8X_.b.x S y.;.x.k 6 b b U 5 J Y.c.c.E a.~.#.n.oXsXDXFXFXFXFXFXFXFXFXFXFXFXFXFXFXFX",
"FXFXFXFXFXFXFXFXFXFXFXFXFXFXDXFXBX].>.l.A.Q.:XE f eX[.J p.i.;.k f 6 b l ; b d.-.6 6 k g.%.G P.[.qXFXFXFXFXFXFXFXFXFXFXFXFXFXFXFX",
"FXFXFXFXFXFXFXFXFXFXFXFXFXFXAXAX1Xf.@.d.Y.c.K $.,X4X,XU.c.R J z < : q.).P $.m 6 , 6 H >./.C.,X1X%XAXFXFXFXFXFXFXFXFXFXFXFXFXFXFX",
"FXFXFXFXFXFXFXFXFXFXFXFXDXMX>XS.P < 1 & k a.q.k.Y.v.1X<XA.N k < + A 8XjXG.P -.U S K E.<X;X;X!./.BXFXFXFXFXFXFXFXFXFXFXFXFXFXFXFX",
"FXFXFXFXFXFXFXFXFXFXFXFXVX{.%.m.A . O O O $ > k k z c.}.l.U.z.f R 0.9.r.r.b $.;.u.u.>.c.:.m.V.U.xXFXFXFXFXFXFXFXFXFXFXFXFXFXFXFX",
"FXFXFXFXFXFXFXFXFXFXFXFXvXj.K & < O O O @ @ # = > I %.g.l.c.c.;.D D F.J.0.j a.N S $.c V K G p K +XVXFXFXFXFXFXFXFXFXFXFXFXFXFXFX",
"FXFXFXFXFXFXFXFXFXFXFXbXb.u.I X   X * d o # = = k v.g.g.Z. X,XXXL.2Xa.j + k R k < k C @.u.#.n s X.'.AXFXFXFXFXFXFXFXFXFXFXFXFXFX",
"FXFXFXFXFXFXFXFXFXFXDX#Xc n %.H P [ 8.5Xg + = < x.<X X^.:X,X.X4X4XeXeXJ 6 z ; q @ @ K $.H %.N.~.V..XVXFXFXFXFXFXFXFXFXFXFXFXFXFX",
"FXFXFXFXFXFXFXFXFXSXBXm.k $.%.g.-X6.<.1.1.= > n W.,X XC.B.>.j. X<X1X3XXX;.k m ; & @ r r X r D./.3XbXAXFXFXFXFXFXFXFXFXFXFXFXFXFX",
"FXFXFXFXFXFXFXFXFXFXlXZ.+.l.E.^.S.( ) 1.4.4 e x.3X^.f.y y -.-.I C.!.;XZ.-.m e X X k #.F > u =.4.cXFXFXDXFXFXFXFXFXFXFXFXFXFXFXFX",
"FXFXFXFXFXFXFXFXFXFXMXT.C c.^..X.Xc.(.3.=.U U.^.-Xh.9 X.h { [ A %.E./.>.%.m 2 6 0 %.p 7 X.2.8.5X6XAXDXFXFXFXFXFXFXFXFXFXFXFXFXFX",
"FXFXFXFXFXFXFXFXFXFXFXAXwXS.^.^.,X^.h.F sXgX^.#.M.M.a h | 6X=X] N.<XV.o.p X.,.B.C p c X.c _ ` 8.1.aXVXAXDXFXFXFXFXFXFXFXFXFXFXFX",
"FXFXFXFXFXFXFXFXFXDXFXFXVX,X.X.X,.n V %.2X}.G $.:.n u / ~ ..| ^ U.~.D.V.o.N.N.N.+.n p 9 7 4.) <.6.-XjXAXFXFXFXFXFXFXFXFXFXFXFXFX",
"FXFXFXFXFXFXFXFXFXNXyXuX@XE.L -.c c c K c.R.,.K i p y ' Q ! ~  .CXx.c.s.#.V.C.D.!.C.K c 3 9 *X*XL m U.MXDXFXFXFXFXFXFXFXFXFXFXFX",
"FXFXFXFXFXFXFXFXFXDXjX#.*.g.B c V :.$.C Z $.Z.c.p C %.P.{ | ..L.[.,.S.g.U >XQ.Y./.!./.l.Z C u.%.i 3 Z.tXdXDXFXFXFXFXFXFXFXFXFXFX",
"FXFXFXFXFXFXFXFXFXFXSXXXX.f.+.p 9 u.t.G X.d.D.V.*.o.g./.A.Y T $.E L d.C.N u.Z.n l.~.g.a.x.F i B ,.g.#.>.~.nXFXFXFXFXFXFXFXFXFXFX",
"FXFXFXFXFXFXFXFXFXFXZXkXQ.Z x p a 3 u c C *.f.o.e 3 C %.u.q.H L E -.:.B.%.$.c.K $.N m > = 2 > 2 4 J Z E.cXSXSXFXFXFXFXFXFXFXFXFX",
"FXFXFXFXFXFXFXFXFXFXnX).Y D 6 7 p B u s u #.s # + x x F %.m v S %.&.%.B.N.&.V.:.m @ k 4 , ; # # @ + > 0XFXFXFXFXFXFXFXFXFXFXFXFX",
"FXFXFXFXFXFXSXFXFXZXSX9XP 7 2 7 e 7 e i : 5 # O ; kXa.= u p i % = G 4 &.,.%.z U U 5 4 r i : @ $ @ + j fXAXZXDXDXFXFXFXFXFXFXFXFX",
"FXFXFXFXDXZXnXbXbXbXbXlXyX[.D 6 ; O O O @ @ @ < %.E : + 2 &.f.v . @ X $.Z # . O & : > > > P b.P D [.fXnXnXnXnXBXBXZXFXFXFXFXFXFX",
"FXFXFXDXZXnXbXbXcXbXvXlXdXyX0XqX).0 ; @ X @ % v f.*.u = C *.&.f.y.A o 0 p 4 M k % % < b `.lXdXuXfXxXlXvXlXcXbXnXBXVXZXFXFXFXFXFX",
"FXFXFXDXZXBXbXbXbXbXxXlXlXjXsXrXwX%X|.L.q.Z c.T.E.B.u.a.T.+XV.S.`.).b.N x.$X`.).I.).{.0XyXyXyXjXjXxXlXlXvXbXbXnXBXZXFXFXFXFXFXFX",
"FXFXFXFXFXZXZXnXnXnXbXnXbXvXvXxXlXdXuXuXwX0X+X{.{.XX{.`.`.{.@X{.{.{.{.[.%X%X+X+X%X@X%X0XqXrXsXlXcXbXnXnXBXBXZXZXFXDXFXFXFXFXFXFX",
"FXFXFXFXFXFXFXDXDXDXDXZXDXZXZXBXnXcXlXuXyXuXuXyXyXrXrXwXwXwXwXwX0XwX0XwXwXwXwXyXrXrXuXsXhXvXnXVXDXDXDXDXFXFXFXFXFXFXFXFXFXFXFXFX",
"FXFXFXFXFXFXFXFXFXFXFXFXFXFXFXFXDXDXBXnXbXbXlXlXlXsXdXdXpXhXhXuXhXdXdXdXjXdXdXlXlXnXBXZXDXDXFXFXFXFXFXFXFXFXFXFXFXFXFXFXFXFXFXFX",
"FXFXFXFXFXFXFXFXFXFXFXFXFXFXFXFXFXFXFXDXZXZXVXBXBXcXbXbXvXcXvXvXzXzXcXbXbXnXnXBXZXFXFXFXFXFXFXFXFXFXFXFXFXFXFXFXFXFXFXFXFXFXFXFX",
"FXFXFXFXFXFXFXFXFXFXFXFXFXFXFXFXFXFXFXFXFXFXFXFXDXDXDXZXZXZXBXBXDXVXZXVXDXDXDXFXFXFXFXFXFXFXFXFXFXFXFXFXFXFXFXFXFXFXFXFXFXFXFXFX"
};
