/* XPM */
static char *_6b4ea511b5c490b88c6d5a847d3ba5fhDjG64mK10ad2hOi[] = {
/* columns rows colors chars-per-pixel */
"64 64 93 2 ",
"   c #03647C",
".  c #04687D",
"X  c #036780",
"o  c #026A84",
"O  c #026E8B",
"+  c #037587",
"@  c #01718E",
"#  c #03798E",
"$  c #007494",
"%  c #027D91",
"&  c #007798",
"*  c #037C99",
"=  c #038496",
"-  c #038897",
";  c #028398",
":  c #038C9D",
">  c #028FA4",
",  c #0888A0",
"<  c #0395AC",
"1  c #0580BC",
"2  c #088CBD",
"3  c #0B9CB3",
"4  c #0A96BB",
"5  c #0AA0AF",
"6  c #02A4BC",
"7  c #0990C4",
"8  c #0991CB",
"9  c #0D9ECE",
"0  c #068ED7",
"q  c #0995D5",
"w  c #0C9ED3",
"e  c #0690D9",
"r  c #01A6C2",
"t  c #0DA2D1",
"y  c #12ADD3",
"u  c #15B1D4",
"i  c #1CB4D6",
"p  c #21B6D7",
"a  c #24B8D7",
"s  c #2CBBD9",
"d  c #32BED9",
"f  c #37C1D9",
"g  c #3EC4DA",
"h  c #43C5DD",
"j  c #4AC7DD",
"k  c #4BC9DD",
"l  c #55CCDE",
"z  c #5CCFDE",
"x  c #62D1DF",
"c  c #63D3E0",
"v  c #6FD4E0",
"b  c #74D6E2",
"n  c #77DAE2",
"m  c #7BDAE2",
"M  c #86DDE4",
"N  c #8DDEE6",
"B  c #95E4EC",
"V  c #9CEAF1",
"C  c #A0EBF2",
"Z  c #ABEAF4",
"A  c #AEF4F6",
"S  c #B3F5F6",
"D  c #B9F6F7",
"F  c #B5F6F8",
"G  c #B9F0F8",
"H  c #B9F7F9",
"J  c #BEF6F9",
"K  c #BEF7F9",
"L  c #BDF7FA",
"P  c #BFF8FA",
"I  c #C3F6F9",
"U  c #C2F7F9",
"Y  c #C5F7F9",
"T  c #C1F8F9",
"R  c #C6F9FB",
"E  c #C7F9FB",
"W  c #CAF9FA",
"Q  c #C9FAFB",
"!  c #CEFAFB",
"~  c #CEFBFC",
"^  c #CFFBFC",
"/  c #CFFBFD",
"(  c #D2FBFC",
")  c #D2FBFD",
"_  c #D3FCFE",
"`  c #D4FCFD",
"'  c #D4FDFE",
"]  c #D7FCFE",
"[  c #DAFDFE",
"{  c #DFFEFF",
"}  c #E2FEFF",
"|  c #E6FEFF",
" . c #EAFEFF",
/* pixels */
" . . . . . . . . . . . . .| _ ) ~ ~ A A A A A A R i 8 . . @ @ $ $ & & & & & & & & & & & & & & & & & & & & & & & & & & & & & & & ",
" . . . . . . . . . . . . . .| ' _ ~ Q A A A A A F a t .   @ $ $ & & & & & & & & & & & & & & & & & & & & & & & & & & & & & & & & ",
" . . . . . . . . . . . . . . . ._ _ _ I A A A A S f y .   O $ $ & & & & & & & & & & & & & & & & & & & & & & & & & & & & & & & & ",
" . . . . . . . . . . . . . . . .' _ ~ ' S A A A A k t X   @ $ & & & & & & & & & & & & & & & & & & & & & & & & & & & & & & & & & ",
" . . . . . . . . . . . . . . . . ._ ~ ) Y A A A A g t     $ $ & & & & & & & & & & & & & & & & & & & & & & & & & & & & & & & & & ",
" . . . . . . . . . . . . . . . . .' ' ~ ) A A A L i 1 X   $ $ & & & & & & & & & & & & & & & & & & & & & & & & & & & & & & & & & ",
" . . . . . . . . . . . . . . . . .| _ _ _ R A S N u &   O $ $ & & & & & & & & & & & & & & & & & & & & & & & & & & & & & & & & & ",
" . . . . . . . . . . . . . . . . .| _ ~ ) R A S s u .   $ $ $ & & & & & & & & & & & & & & & & & & & & & & & & & & & & & & & & & ",
" . . . . . . . . . . . . . . . . . ._ ^ ^ Q A S u s +   @ O $ $ $ $ & & & & & & & & & & & & & & & & & & & & & & & & & & & & & & ",
" . . . . . . . . . . . . . . . . . .' _ _ R A A h y q     $ $ $ & & & & & & & & & & & & & & & & & & & & & & & & & & & & & & & & ",
" . . . . . . . . . . . . . . . . . ._ _ _ I A A S s t #   o $ $ $ $ & & & & & & & & & & & & & & & & & & & & & & & & & & & & & & ",
" . . . . . . . . . . . . . . . . .} _ ) Q S A A A j y %   $ $ $ $ & & & & & & & & & & & & & & & & & & & & & & & & & & & & & & & ",
" . . . . . . . . . . . . . . . .| _ ^ Q A A A A S s y o   $ O $ $ & & & & & & & & & & & & & & & & & & & & & & & & & & & & & & & ",
" . . . . . . . . . . . . . . .| _ ^ ^ T R P Z z s y q     $ O $ $ $ & & & & & & & & & & & & & & & & & & & & & & & & & & & & & & ",
" . . . . . . . . . . . . . . .{ _ _ [ Q ^ Q b u y y e     $ @ $ $ & & & & & & & & & & & & & & & & & & & & & & & & & & & & & & & ",
" . . . . . . . . . . . . . . .| _ _ { R ^ ^ S G Z i t @   $ @ @ & $ & $ & & $ & & & & & & & & & & & & & & & & & & & & & & & & & ",
" . . . . . . . . . . . . . . . .' ) _ T ^ ^ L S P h y :   O $ $ @ $ $ $ $ & & & & & & & & & & & & & & & & & & & & & & & & & & & ",
" . . . . . . . . . . . . . . . .} ) ) ^ ^ ^ R A S B y 6 @ . @ @ $ $ $ $ & & & & & & & & & & & & & & & & & & & & & & & & & & & & ",
" . . . . . . . . . . . . . . . . .| ' ) ~ _ ^ A A M y 6 $ o $ $ $ $ $ & & & & & & & & & & & & & & & & & & & & & & & & & & & & & ",
" . . . . . . . . . . . . . . . . . .| [ _ _ P A A b t $   O $ @ $ $ & & & & & & & & & & & & & & & & & & & & & & & & & & & & & & ",
" . . . . . . . . . . . . . . .{ ' ' ) ) _ R A A A n 0 O   @ $ $ $ & & & & & & & & & & & & & & & & & & & & & & & & & & & & & & & ",
" . . . . . . . . . . . . . .{ _ ) ) ~ ~ ~ F A A A d 7   X $ $ $ $ & & & & & & & & & & & & & & & & & & & & & & & & & & & & & & & ",
" . . . . . . . . . . . . . .[ ) ` ` D F A A A A Z i 3 X o $ & $ & & & $ & & & & & & & & & & & & & & & & & & & & & & & & & & & & ",
" . . . . . . . . . . . . . .[ ) ) ` ~ F A A A A S u 8 X @ @ $ & $ $ & & & & & & & & & & & & & & & & & & & & & & & & & & & & & & ",
" . . . . . . . . . . . . . .} _ ) ) ~ ) R L A A A d y @   O $ $ & & $ $ & $ & & & & & & & & & & & & & & & & & & & & & & & & & & ",
" . . . . . . . . . . . . . . . .} } _ ) ) ~ S A A n y 6     $ @ $ $ $ $ $ & & & & & & & & & & & & & & & & & & & & & & & & & & & ",
" . . . . . . . . . . . . . . . . . .{ _ ) ~ F A A V y 4 X   $ @ @ $ $ $ $ & & & & & & & & & & & & & & & & & & & & & & & & & & & ",
" . . . . . . . . . . . . . . . . .} [ _ ) _ S A A B y 8 O   X $ @ $ @ $ $ $ $ & & & & & & & & & & * & & & & & & & & & & & & & & ",
" . . . . . . . . . . . . . . . .[ _ _ ) _ _ L A A V y 8 $     @ $ @ $ $ $ & $ & & & & & & & & & & & & & & & & & & & & & & & & & ",
" . . . . . . . . . . . . . . .' ) _ ^ R S A A A A B y 5 X   O O @ $ $ $ $ & & & & & & & & & & & & & & & & & & & & & & & & & & & ",
" . . . . . . . . . . . . .} ) ) ~ R S A A A A A T s y 4     $ @ $ $ $ $ $ & & $ & & & & & & & & & & & & & & & & & & & & & & & & ",
" . . . . . . . . . . . . .' ) ) T A A A A A V m l y y <   o O $ $ @ $ $ & $ & & & & & & & & & & & & & & & & & & & & & & & & & & ",
" . . . . . . . . . . . . .' ) R A A S m s u y y u u ,   X $ @ @ $ $ $ $ & $ & & & & & & & & & & & & & & & & & & & & & & & & & & ",
" . . . . . . . . . . . . .[ ) ) Q S A A A B x a u u < o O @ @ $ $ $ $ $ & & & & & & & & & & & & & & & & & & & & & & & & & & & & ",
" . . . . . . . . . . . . .| ' ( _ ) T R P A A L Z i t @ X $ $ $ $ $ $ & $ & & & & & & & & & & & & & & & & & & & & & & & & & & & ",
" . . . . . . . . . . . . . . .[ _ ) _ _ ~ P A A L h y + X X @ $ $ & & & & & & & & & & & & & & & & & & & & & & & & & & & & & & & ",
" . . . . . . . . . . . . . . . .{ _ ~ _ ^ _ S A S b y %     $ $ & & & & & & & & & & & & & & & & & & & & & & & & & & & & & & & & ",
" . . . . . . . . . . . . . . . . .} _ ) ) ) _ A S b y : . o $ $ $ $ & & & & & & & & & & & & & & & & & & & & & & & & & & & & & & ",
" . . . . . . . . . . . . . . . . . . .' ' ) Q S S p y <   o $ $ $ & & $ & & & & & & & & & & & & & & & & & & & & & & & & & & & & ",
" . . . . . . . . . . . . . . . . . .' _ ) ` G A x y y $ X $ @ O $ & & & & & & & & & & & & & & & & & & & & & & & & & & & & & & & ",
" . . . . . . . . . . . . . . . . .} ) _ ) L A V a u 2   $ $ $ $ $ & & & & & & & & & & & & & & & & & & & & & & & & & & & & & & & ",
" . . . . . . . . . . . . . . . . .{ ) ) T A A l y y <     O O $ & $ & $ & & & & & & & & & & & & & & & & & & & & & & & & & & & & ",
" . . . . . . . . . . . . . . . . .| ) ) _ S S V p y 9     O $ $ $ $ $ $ & & & & & & & & & & & & & & & & & & & & & & & & & & & & ",
" . . . . . . . . . . . . . . . . . .} [ } Q S A S a y > X   $ O $ $ $ $ $ $ & & & & & & & & & & & & & & & & & & & & & & & & & & ",
" . . . . . . . . . . . . . . . . . . . .[ _ Q A A b y 6 X   $ @ $ @ @ $ $ $ & & & & & & & & & & & & & & & & & & & & & & & & & & ",
" . . . . . . . . . . . . . . . . . . .| _ _ T A A f y 6 o   @ @ $ $ $ $ $ $ & & & & & & & & & & & & & & & & & & & & & & & & & & ",
" . . . . . . . . . . . . . . . . . .| ' ) ' S A M u t , O   @ $ @ $ $ $ $ & & $ & & & & & & & & & & & & & & & & & & & & & & & & ",
" . . . . . . . . . . . . . . . . .{ _ ) ) ' S A h y 3 &   o $ $ $ $ & & $ & & & & & & & & & & & & & & & & & & & & & & & & & & & ",
" . . . . . . . . . . . . . . . .[ _ ) _ ~ Y S A d y 6 O X @ @ $ $ & & & & & & & & & & & & & & & & & & & & & & & & & & & & & & & ",
" . . . . . . . . . . . . . . .| _ _ ) D A A A F i u -   O @ @ $ $ & $ & & & & & & & & & & & & & & & & & & & & & & & & & & & & & ",
" . . . . . . . . . . . . . . .} _ _ D A S S M f y u =   $ O @ $ $ & & & & & & & & & & & & & & & & & & & & & & & & & & & & & & & ",
" . . . . . . . . . . . . . . .{ _ _ S A A A g y y u =   O @ $ $ $ $ $ & & & & & & & & & & & & & & & & & & & & & & & & & & & & & ",
" . . . . . . . . . . . . . . .} ) _ ) S A S A V u u ; X O O @ $ & $ & & & & & & & & & & & & & & & & & & & & & & & & & & & & & & ",
" . . . . . . . . . . . . . . .| ) ) _ _ ~ S A A M u r .   $ @ $ $ $ $ & & & & & & & & & & & & & & & & & & & & & & & & & & & & & ",
" . . . . . . . . . . . . . . . .| ' ) ) _ } S S S u 8 X   o @ @ $ $ & & & & & & & & & & & & & & & & & & & & & & & & & & & & & & ",
" . . . . . . . . . . . . . . . . . .} ' ' { S A L i w       $ @ & $ & & & & & & & & & & & & & & & & & & & & & & & & & & & & & & ",
" . . . . . . . . . . . . . . . . . . .| [ Q A A L p w o     O $ $ $ $ & & & & & & & & & & & & & & & & & & & & & & & & & & & & & ",
" . . . . . . . . . . . . . . . . . . ._ ) ~ A A L a 9 o     $ @ $ & & & & & & & & & & & & & & & & & & & & & & & & & & & & & & & ",
" . . . . . . . . . . . . . . . . . .[ ) ) I A A L i w O   . @ @ $ & $ $ & $ & & & & & & & & & & & & & & & & & & & & & & & & & & ",
" . . . . . . . . . . . . . . . . .[ ) ) R A A A S u 7 O   O $ $ & & & & & & & & & & & & & & & & & & & & & & & & & & & & & & & & ",
" . . . . . . . . . . . . . . . .| ) ) ) A A F A V i 6 X   $ $ $ & & & & & & & & & & & & & & & & & & & & & & & & & & & & & & & & ",
" . . . . . . . . . . . . . . . .[ ) ' L A A A A x u : . o $ $ $ & & & & & & & & & & & & & & & & & & & & & & & & & & & & & & & & ",
" . . . . . . . . . . . . . . .| ` ) ) A A S A A j u # . @ @ $ & & & & & & & & & & & & & & & & & & & & & & & & & & & & & & & & & ",
" . . . . . . . . . . . . . . .| ' _ [ S A A A T s p o X $ $ & & & & & & & & & & & & & & & & & & & & & & & & & & & & & & & & & & "
};
