/* XPM */
static char *f8342049354d4b6a82236e4ea80c095eNcYlbsxfhJNgoWww[] = {
/* columns rows colors chars-per-pixel */
"64 64 95 2 ",
"   c #03657C",
".  c #04687D",
"X  c #036780",
"o  c #036A84",
"O  c #026D8A",
"+  c #01718E",
"@  c #03788C",
"#  c #007595",
"$  c #047A92",
"%  c #007798",
"&  c #027A98",
"*  c #087F9C",
"=  c #038897",
"-  c #028398",
";  c #038D9D",
":  c #028FA4",
">  c #0989A7",
",  c #0A8DAD",
"<  c #0195AB",
"1  c #0889B9",
"2  c #0B91B2",
"3  c #0A9BB3",
"4  c #019FB8",
"5  c #0D9ABC",
"6  c #02A4BB",
"7  c #0891CB",
"8  c #0D9ECE",
"9  c #0995D5",
"0  c #0C9ED3",
"q  c #0690D9",
"w  c #01A6C2",
"e  c #0EA1C3",
"r  c #0FA6CA",
"t  c #10A9CE",
"y  c #0DA1D1",
"u  c #12ADD3",
"i  c #15B1D4",
"p  c #1DB4D6",
"a  c #21B6D7",
"s  c #24B8D7",
"d  c #20B7D8",
"f  c #27BAD8",
"g  c #2CBBD9",
"h  c #31BED8",
"j  c #37C1D9",
"k  c #3DC4DB",
"l  c #43C5DC",
"z  c #4AC7DD",
"x  c #4BC9DD",
"c  c #56CDDD",
"v  c #5CCFDE",
"b  c #5CD3E4",
"n  c #66D4E2",
"m  c #6FD4E0",
"M  c #6FD9E6",
"N  c #73D6E1",
"B  c #84DDE5",
"V  c #8DDEE6",
"C  c #89E0E6",
"Z  c #8EE3EB",
"A  c #96E6ED",
"S  c #9CEAF1",
"D  c #A1EEF2",
"F  c #ABEBF3",
"G  c #A7F1F4",
"H  c #AEF4F6",
"J  c #B3F5F6",
"K  c #B9F6F7",
"L  c #B5F6F8",
"P  c #B9F4F8",
"I  c #BEF6F9",
"U  c #BDF7FA",
"Y  c #BEF8F9",
"T  c #C3F6F9",
"R  c #C5F7F9",
"E  c #C1F8F9",
"W  c #C7F9FA",
"Q  c #C7FAFB",
"!  c #CAF9FA",
"~  c #CEFBFB",
"^  c #CBFAFC",
"/  c #CFFAFC",
"(  c #CFFBFD",
")  c #D0FBFC",
"_  c #D0FBFD",
"`  c #D4FBFD",
"'  c #D2FCFE",
"]  c #D6FDFE",
"[  c #D8FBFE",
"{  c #DAFDFE",
"}  c #DEFCFE",
"|  c #DFFEFF",
" . c #E1FEFF",
".. c #E7FEFF",
"X. c #EAFEFF",
/* pixels */
"% % % % % % % % % % % % % % % % % % % % % % % % % % % % % % % % # + O X X 7 d / H H H H H H ( ( ' ' ..X.X.X.X.X.X.X.X.X.X.X.X.X.",
"% % % % % % % % % % % % % % % % % % % % % % % % % % % % % % % % # + O     y a L G H H H H ! ( ' ' ..X.X.X.X.X.X.X.X.X.X.X.X.X.X.",
"% % % % % % % % % % % % % % % % % % % % % % % % % % % % % % % % % + +   X u h L H H J H E ' ( ' X.X.X.X.X.X.X.X.X.X.X.X.X.X.X.X.",
"% % % % % % % % % % % % % % % % % % % % % % % % % % % % % % % % % # + X X u z H H H H H ' ( ' { X.X.X.X.X.X.X.X.X.X.X.X.X.X.X.X.",
"% % % % % % % % % % % % % % % % % % % % % % % % % % % % % % % % # # + X   9 k H H H H W ' ' ' ..X.X.X.X.X.X.X.X.X.X.X.X.X.X.X.X.",
"% % % % % % % % % % % % % % % % % % % % % % % % % % % % % % % % % # # X X * p U H H H ( / / ] X.X.X.X.X.X.X.X.X.X.X.X.X.X.X.X.X.",
"% % % % % % % % % % % % % % % % % % % % % % % % % % % % % % % % % # + O   * i V J J W ' / ' ..X.X.X.X.X.X.X.X.X.X.X.X.X.X.X.X.X.",
"% % % % % % % % % % % % % % % % % % % % % % % % % % % % % % % % % % # #   o i f J H ! ( ' ' X.X.X.X.X.X.X.X.X.X.X.X.X.X.X.X.X.X.",
"% % % % % % % % % % % % % % % % % % % % % % % % % % % % % % # % # # # O   + f i J H W ~ ) ] X.X.X.X.X.X.X.X.X.X.X.X.X.X.X.X.X.X.",
"% % % % % % % % % % % % % % % % % % % % % % % % % % % % % % % % # # # X . 9 i k J H W ) ) ] X.X.X.X.X.X.X.X.X.X.X.X.X.X.X.X.X.X.",
"% % % % % % % % % % % % % % % % % % % % % % % % % % % % % % # # # O o   @ t g J H H T ' ) ] X.X.X.X.X.X.X.X.X.X.X.X.X.X.X.X.X.X.",
"% % % % % % % % % % % % % % % % % % % % % % % % % % % % % % % # # # O   & u z H H H J ! ) '  .X.X.X.X.X.X.X.X.X.X.X.X.X.X.X.X.X.",
"% % % % % % % % % % % % % % % % % % % % % % % % % % % % % # # # # + #   O y g K G H H H ^ ) ' ..X.X.X.X.X.X.X.X.X.X.X.X.X.X.X.X.",
"% % % % % % % % % % % % % % % % % % % % % % % % % % % % % % % # # + O     q u g v F E W E / ) ' ..X.X.X.X.X.X.X.X.X.X.X.X.X.X.X.",
"% % % % % % % % % % % % % % % % % % % % % % % % % % % % % % # # # + # X   q u u i N ! / ^ { ' ' | X.X.X.X.X.X.X.X.X.X.X.X.X.X.X.",
"% % % % % % % % % % % % % % % % % % % % % % % % % % # % % # # # # + #   + y a F P J ~ / W | ' ' ..X. .| ..X.X.X.X.X.X.X.X.X.....",
"% % % % % % % % % % % % % % % % % % % % % % % % % % % # # # # + + # O   : u l U H Y / / E ' ) ] ..| ' ' ] ..X.X.X.X.X.X...| ) | ",
"% % % % % % % % % % % % % % % % % % % % % % % % % % % # # # + + # # o O 6 u A H H ! ] [ ) ` )  .{ ' ] ] ] ) { X.X.X.X.{ ` ) ) | ",
"% % % % % % % % % % % % % % % % % % % % % % % % % % % % # % # # O # X % 6 t C H E ' ' { ' { ....` ~ K J ` { ]  .X.X.] ) ` / ) | ",
"% % % % % % % % % % % % % % % % % % % % % % % % % % % % % # # # # # O   % t N L ( ' / [ ....' | ) K H J J ` ) ` ..` ) ] ` ! H T ",
"% % % % % % % % % % % % % % % % % % % % % % % % % % % % % % # # + X o u i k D Q ' E ' ..{ ' ( ' ) J H H H ~ ) ] { ' ) ! J H H H ",
"% % % % % % % % % % % % % % % % % % % % % % % % % % % % % % % # + X * u p Z G W E E Y / ] / ' { R H J J H J  .| ! / E H H J H H ",
"% % % % % % % % % % % % % % % % % % % % % % & % % % % % % % % O #   2 u p G H U F U Y H / T J H H H C k H H J J H H H H H H H H ",
"% % % % % % % % % % % % % % % % % % % % % % % % % % % % # % % + #   5 u t M G A C c S H H H H H H J j u S J H J H H H H H H H U ",
"% % % % % % % % % % % % % % % % % % % % % % & % % % % # % # # # O   , u u u b n d u s L H H V k h p u u p B P U U U U J S m x h ",
"% % % % % % % % % % % % % % % % % % % % % % & % % % % # # # # O # o $ e t u u t u u u f N h i u u i i u u u u p a p p i u i i p ",
"% % % % % % % % % % % % % % % % % % % % % % % % % % # # % # + + O O X > 5 5 r 2 1 < 8 u u u u 3 w = - - = w 7 0 y y 0 7 6 ; @ o ",
"% % % % % % % % % % % % % % % % % % % % % % % % # % # # # # + # # O o   o + + o       > 4 w ; % o     X     X   o o O O o     o ",
"% % % % % % % % % % % % % % % % % % % % % % % % % # # # # + + # # O + O + O # # #     X   o O   o O O + O X             X o + % ",
"% % % % % % % % % % % % % % % % % % % % % % % % % % % # # # + # # # + # + + + # # # o X       o O # O + + + o       X O % # + + ",
"% % % % % % % % % % % % % % % % % % % % % % % % # % % # % # # % O # # O + O # + O + # # O # + # + O # # O O + # + # # O # + % % ",
"% % % % % % % % % % % % % % % % % % % % % % % % % % % # # # + % % # + # # # # + # # + + + + # # % # # # # # # O # O O # # % % % ",
"% % & % % % % % % % % % % % % % % & % % % % % % % % % % # % # % # % % + # # # # # # # + # + # # # # # # # # # # # # % % % % % % ",
"% % % % % % % % % % % % % % % % % % % % % % % % % % # # % # & & % % % # % # % # % # # # O # # # % % % # # # # # # % # % % % % % ",
"% % % % % % % % % % % % % % % % % % % % % % % % % % % % # & # # % % % % % % % % % # # # # # # # % % % # % # % % % # % % % % % % ",
"% % % % % % % % % % % % % % % % % % % % % % % % % % # % & # % # % % # % % % # % % # # # # + # # % % % % # % % % % % # % % % % % ",
"% % % % % % % % % % % % % % % % % % % % % % % % % % % % # & % % # # # % % % % % % % % # # # % % % % % % % % % # % % # % % % % % ",
"% % % % % % % % % % % % % % % % % % % % % % % % % % % % % # # & & % % % # & % % % % % # # # % # % % % % % % % % % % % % # % % % ",
"% % % % % % % % % % % % % % % % % % % % % % % % % % % % # % % # % % % % % % % % % % & # # # % % % % % % % % % % % % % % % % % % ",
"% % % % % % % % % % % % % % % % % % % % % % % % % % % % % % % % % % % % % % % % % % % % % % % % % % % % % % % % % % % % % % % % ",
"% % % % % % % % % % % % % % % % % % % % % % % % % % % % % % % % % % % % % % % % % % % % % % # % % % % % % % % % % % % % % % % % ",
"% % % % % % % % % % % % % % % % % % % % % % % % % % % % % % % % % % % % % % % % % % % % % % % % % % % % % % % % % % % % % % % % ",
"% % % % % % % % % % % % % % % % % % % % % % % % % % % # % % % % % % % % % % % % % % % % % % % % % % % % % % % % % % % % % % % % ",
"% % % % % % % % % % % % % % % % % % % % % % % % % % % # % % % # % % % % % % % % % % % % % & % % % % % % % % % % % % % % % % % % ",
"% % % % % % % % % % % % % % % % % % % % % % % % % % # # % % % % % % % % % % % % % % % % % % % % % % % % % % % % % % % % % % % % ",
"% % % % % % % % % % % % % % % % % % % % % % % % % % # # % % % % % % % % % % % % % % % % % % % % % % % % % % % % % % % % % % % % ",
"% % % % % % % % % % % % % % % % % % % % % % % # # % % # % % % % % % % % % % % % % % % % % % % % % % % % % % % % % % % % % % % % ",
"% % % % % % % % % % % % % % % % % % % % % % % & % % % # % % % % % % % % % % % % % % % % % % % % % % % % % % % % % % % % % % % % ",
"% % % % % % % % % % % % % % % % % % % % % % % % % % % % # % % % % % % % % % % % % % % % % % % % % % % % % % % % % % % % % % % % ",
"% % % % % % % % % % % % % % % % % % % % % % % % % % % % % % % % % % % % % % % % % % % % % % % % % % % % % % % % % % % % % % % % ",
"% % % % % % % % % % % % % % % % % % % % % % % % % % % % % % % % % % % % % % % % % % % % % % % % % % % % % % % % % % % % % % % % ",
"% % % % % % % % % % % % % % % % % % % % % % % % % % % % % % % % % % % % % % % % % % % % % % % % % % % % % % % % % % % % % % % % ",
"% % % % % % % % % % % % % % % % % % % % % % % % % % % % % % % % % % % % % % % % % % % % % % % % % % % % % % % % % % % % % % % % ",
"% % % % % % % % % % % % % % % % % % % % % % % % % % % % % % % % % % % % % % % % % % % % % % % % % % % % % % % % % % % % % % % % ",
"% % % % % % % % & % % % % % % % % % % % % % % % % % % % % % % % % % % % % % % % % % % % % % % % % % % % % % % % % % % % % % % % ",
"% % % % % % % % % % % % % % % % % % % % % % % % % % % # % % % % % % % % % % % % % % % % % % % % % % % % % % % % % % % % % % % % ",
"% % % % % % % % % % % % % % % % % % % % % % % % % % % % % % % % % % % % % % % % % % % % % % % % % % % % % % % % % % % % % % % % ",
"% % % % % % % % % % % % % % % % % % % % % % % % % % % % % % % % % % % % % % % % % % % % % % % % % % % % % % % % % % % % % % % % ",
"% % % % % % % % % % % % % % % % % % % % % % % % % % % % % % % % % % % % % % % % % % % % % % % % % % % % % % % % % % % % % % % % ",
"% % % % % % % % % % % % % % % % % % % % % % % % % % # % % % % % % % % % % % % % % % % % % % % % % % % % % % % % % % % % % % % % ",
"% % % % % % % % % % % % % % % % % % % % % % % % % % % % % % % % % % % % % % % % % % % % % % % % % % % % % % % % % % % % % % % % ",
"% % % % % % % % % % % % % % % % % % % % % % % % % % % % % % % % % % % % % % % % % % % % % % % % % % % % % % % % % % % % % % % % ",
"% % % % % % % % % % % % % % % % % % % % % % % % % % % % % % % % % % % % % % % % % % % % % % % % % % % % % % % % % % % % % % % % ",
"% % % % % % % % % % % % % % % % % % % % % % % % % % % % % % % % % % % % % % % % % % % % % % % % % % % % % % % % % % % % % % % % "
};
