/* XPM */
static char *_3222525772a46f68cfb1cf052e6bb26aut689DkA3V7eiMu[] = {
/* columns rows colors chars-per-pixel */
"64 64 72 1 ",
"  c #03647C",
". c #036780",
"X c #026A84",
"o c #026E8B",
"O c #037587",
"+ c #01718E",
"@ c #03798E",
"# c #007494",
"$ c #027D91",
"% c #007798",
"& c #037C99",
"* c #038496",
"= c #038897",
"- c #028398",
"; c #038C9D",
": c #028FA4",
"> c #0888A0",
", c #0395AC",
"< c #0580BC",
"1 c #088CBD",
"2 c #0B9CB3",
"3 c #0A96BB",
"4 c #019FB8",
"5 c #0AA0AF",
"6 c #02A4BC",
"7 c #0990C4",
"8 c #0991CB",
"9 c #0D9ECE",
"0 c #0995D5",
"q c #0C9ED3",
"w c #0690D9",
"e c #01A6C2",
"r c #0DA2D1",
"t c #12ADD3",
"y c #15B1D4",
"u c #1CB4D6",
"i c #21B6D7",
"p c #24B8D7",
"a c #27BAD8",
"s c #2CBBD9",
"d c #32BED9",
"f c #37C1D9",
"g c #3EC4DA",
"h c #43C5DD",
"j c #4AC7DD",
"k c #4BC9DD",
"l c #55CCDE",
"z c #5CCFDE",
"x c #62D1DF",
"c c #74D6E2",
"v c #77DAE2",
"b c #7BDAE2",
"n c #86DDE4",
"m c #8DDEE6",
"M c #89E0E6",
"N c #95E4EC",
"B c #9CEAF1",
"V c #A0EBF2",
"C c #ABEAF4",
"Z c #AEF4F6",
"A c #B3F5F6",
"S c #B9F6F7",
"D c #B5F6F8",
"F c #BBF6F9",
"G c #BEF8F9",
"H c #C4F7F9",
"J c #C4F9FA",
"K c #CDFAFC",
"L c #D2FCFE",
"P c #DCFDFE",
"I c #E4FEFF",
"U c #EAFEFF",
/* pixels */
"UUUUUUUUUUUUUUUUUUUUUUUUUUUUUUUUUUUUUUUUUUUUUUUUUUUUUUUUUUUUUUUU",
"UUUUUUUUUUUUUUUUUUUUUUUUUUUUUUUUUUUUUUUUUUUUUUUUUUUUUUUUUUUUUUUU",
"UUUUUUUUUUUUUUUUUUUUUUUUUUUUUUUUUUUUUUUUUUUUUUUUUUUUUUUUUUUUUUUU",
"UUUUUUUUUUUUUUUUUUUUUUUUUUUUUUUUUUUUUUUUUUUUUUUUUUUUUUUUUUUUUUUU",
"UUUUUUUUUUUUUUUUUUUUUUUUUUUUUUUUUUUUUUUUUUUUUUUUUUUUUUUUUUUUUUUU",
"UUUUUUUUUUUUUUUUUUUUUUUUUUUUUUUUUUUUUUUUUUUUUUUUUUUUUUUUUUUUUUUU",
"UUUUUUUUUUUUUUUUUUUUUUUUUUUUUUUUUUUUUUUUUUUUUUUUUUUUUUUUUUUUUUUU",
"UUUUUUUUUUUUUUUUUUUUUUUUUUUUUUUUUUUUUUUUUUUUUUUUUUUUUUUUUUUUUUUU",
"UUUUUUUUUUUUUUUUUUUUUUUUUUUUUUUUUUUUUUUUUUUUUUUUUUUUUUUUUUUUUUUU",
"UUUUUUUUUUUUUUUUUUUUUUUUUUUUUUUUUUUUUUUUUUUUUUUUUUUUUUUUUUUUUUUU",
"UUUUUUUUUUUUUUUUUUUUUUUUUUUUUUUUUUUUUUUUUUUUUUUUUUUUUUUUUUUUUUUU",
"UUUUUUUUUUUUUUUUUUUUUUUUUUUUUUUUUUUUUUUUUUUUUUUUUUUUUUUUUUUUUUUU",
"UUUUUUUUUUUUUUUUUUUUUUUUUUUUUUUUUUUUUUUUUUUUUUUUUUUUUUUUUUUUUUUU",
"IUUUUUUUUUUUUUUUUUUUUUUUUUUUUUILLPIUUUUUUUUUUUUUUUUUUUUUUUUUUUUU",
"LIUUUUUUUUUUUUUUUUUUUPPPIUUUUILLKLLUUUUUUUUUUUUUUUUUUUUUUUUUUUUU",
"LLUUUUUUUUUUUUPIUUUUPLLLLUUUUPLKKLLPUUUUUUUUUUUUUIIPIUUUUUUUUUIU",
"LLLPIUUUUUUUILLLLIUULLLLLIUUPLKJZKLLPUUUUUUUUUUUPLLLLLIUUUUUIPLL",
"KLKLLPIUUUUILLLLLLIULLPLLPUILLKZZALKLIUUIPIUUUUILLLLLLLUUUUPLLLL",
"ZKLKLLLLLLLLLKPILLLILLDKLLPPLKZZZZJLLLUPLLLIUUILLLFDLLLPUUPLLLLP",
"ZZHLLKLKLKLLKJJJJKLPLKDSLKLLLJZZbZJLLLLLLLKPUILLLSZZDLLPULLLLSZA",
"ZZZZJLLKLKLKZJKLLKLLLKAZJLLLLDCAsZGKLLLLLJLIPLLLKZZZZKLLPKLKAZZZ",
"ZAZZZZJKJJJAZHKKKKKLJDZZGKKLLZZZtBZJLLLLSZAKLLLLJZAZZSIPKKHZZAZZ",
"ZZZZZZZZZZZZZCcDGJKJZZZZZADDSZZBtxZZDKKDZAZAKJAZAZMgZZDDZZZZZZZZ",
"ZZZZZZASAZZZZztSAAZZZZZZZZZZZAZbtpSZZZZZBlBZZZZZZAfyBAZZZZZZZZZG",
"KDZZZGmathAZDstCGZZZZZZZZZZZZAGlyyCGAAAxptpDACMgduttunDGSSGABcjs",
"upfkgutusysjsttuhNMcvdtudbBNVmatyyuhccittttacdyttyytttyuiiuyttuu",
"8ttt9<& o0trt0wrttttw728tttytttt>,rttttt1,9tttt2e=--=e8q9rq76;$X",
"   ..     @*o  o;56#X   #e38823, .#O$;,@   :4e;#X  .. ..XXoo.. .",
".   ..o#+        ##  .X#. .+#.. .o..   X+. . Xo .X++o.      .X##",
"+++++####+X+#o##o.XX###oo      X#o#..XX##+o.   X#+++oo.   .o%++#",
"++####%###++#+++##o#+#%####. o#++##o####++###+#++o##++o#++#++###",
"###%#%%%#########o####%%#o++o++++######o+#++++#########++#+##%%%",
"%%%%%%%%%%######+###%%%##++++++###%%%##%#%#################%%%%%",
"%%%%%%%%#%#%%#%##+#%%%%####+######%#%%#%#####o#%%%#%###%#%#%%%%%",
"%%%%%#%%%%%%%%%%##%%%%%%%##########%%%%%%%##+###%%%%%#%%##%%%%%%",
"%%%%%%%%%%%%%%%####%%%%%%%#########%%#%%%###+###%%%%%%%%%%%%%%%%",
"%%%%%%%%%%%%%%%%##%%%%%#####%###%#%#%%%%%%%####%%%%%%%%#%%#%%%%%",
"%%%%%%%%%%%%%%%%#%%%%%%%%%##%#%%%%%%%%%%%%&###%%%%%%%%%%%%%%%%%%",
"%%%%%%%%%%%%%%%%%%%%%%%%%%%%%%%%#%%%%%%%%%%%%%%%%%%%%%%%%%%%%%%%",
"%%%%%%%%%%%%%%%%%%%%%%%%%#%%%%%%%%%%%%%%%%%%%#%#%%%%%%%%%%%%%%%%",
"%%%%%%%%%%%%%%%%%%%%%%%%%%%%%%%%%%%%%%%%%%%%%%%%%%%%%%%%%%%%%%%%",
"%%%%%%%%%%%%%%%%%%%%%%%%%%%%%%%%%%%%%%%%%%%%%%%%%%%%%%%%%%%%%%%%",
"%%%%%%%%%%%%%%%%%%%%%%%%%%%%%%%%%%%%%%%%%%%%%%%%%%%%%%%%%%%%%%%%",
"%%%%%%%%%%%%%%%%%%%%%%%%%%%%%%%%%%%%%%%%%%%%%%%%%%%%%%%%%%%%%%%%",
"%%%%%%%%%%%%%%%%%%%%%%%%%%%%%%%%%%%%%%%%%%%%%%%%%%%%%%%%%%%%%%%%",
"%%%%%%%%%%%%%%%%%%%%%%%%%%%%%%%%%%%%%%%%%%%%%%%%%%%%%%%%%%%%%%%%",
"%%%%%%%%%%%%%%%%%%%%%%%%%%%%%%%%%%%%%%%%%%%%%%%%%%%%%%%%%%%%%%%%",
"%%%%%%%%%%%%%%%%%%%%%%%%%%%%%%%%%%%%%%%%%%%%%%%%%%%%%%%%%%%%%%%%",
"%%%%%%%%%%%%%%%%%%%%%%%%%%%%%%%%%%%%%%%%%%%%%%%%%%%%%%%%%%%%%%%%",
"%%%%%%%%%%%%%%%%%%%%%%%%%%%%%%%%%%%%%%%%%%%%%%%%%%%%%%%%%%%%%%%%",
"%%%%%%%%%%%%%%%%%%%%%%%%%%%%%%%%%%%%%%%%%%%%%%%%%%%%%%%%%%%%%%%%",
"%%%%%%%%%%%%%%%%%%%%%%%%%%%%%%%%%%%%%%%%%%%%%%%%%%%%%%%%%%%%%%%%",
"%%%%%%%%%%%%%%%%%%%%%%%%%%%%%%%%%%%%%%%%%%%%%%%%%%%%%%%%%%%%%%%%",
"%%%%%%%%%%%%%%%%%%%%%%%%%%%%%%%%%%%%%%%%%%%%%%%%%%%%%%%%%%%%%%%%",
"%%%%%%%%%%%%%%%%%%%%%%%%%%%%%%%%%%%%%%%%%%%%%%%%%%%%%%%%%%%%%%%%",
"%%%%%%%%%%%%%%%%%%%%%%%%%%%%%%%%%%%%%%%%%%%%%%%%%%%%%%%%%%%%%%%%",
"%%%%%%%%%%%%%%%%%%%%%%%%%%%%%%%%%%%%%%%%%%%%%%%%%%%%%%%%%%%%%%%%",
"%%%%%%%%%%%%%%%%%%%%%%%%%%%%%%%%%%%%%%%%%%%%%%%%%%%%%%%%%%%%%%%%",
"%%%%%%%%%%%%%%%%%%%%%%%%%%%%%%%%%%%%%%%%%%%%%%%%%%%%%%%%%%%%%%%%",
"%%%%%%%%%%%%%%%%%%%%%%%%%%%%%%%%%%%%%%%%%%%%%%%%%%%%%%%%%%%%%%%%",
"%%%%%%%%%%%%%%%%%%%%%%%%%%%%%%%%%%%%%%%%%%%%%%%%%%%%%%%%%%%%%%%%",
"%%%%%%%%%%%%%%%%%%%%%%%%%%%%%%%%%%%%%%%%%%%%%%%%%%%%%%%%%%%%%%%%",
"%%%%%%%%%%%%%%%%%%%%%%%%%%%%%%%%%%%%%%%%%%%%%%%%%%%%%%%%%%%%%%%%",
"%%%%%%%%%%%%%%%%%%%%%%%%%%%%%%%%%%%%%%%%%%%%%%%%%%%%%%%%%%%%%%%%"
};
