/* XPM */
static char *_d572c2b681c4ded8b3699df392f415cj4RxR7AF2w5NC8R7[] = {
/* columns rows colors chars-per-pixel */
"64 64 99 2 ",
"   c #03647C",
".  c #04687D",
"X  c #036780",
"o  c #026A84",
"O  c #026E8B",
"+  c #037587",
"@  c #01718E",
"#  c #03798E",
"$  c #007494",
"%  c #027D91",
"&  c #007798",
"*  c #037C99",
"=  c #038496",
"-  c #038897",
";  c #028398",
":  c #038C9D",
">  c #03909E",
",  c #028FA4",
"<  c #0888A0",
"1  c #0395AC",
"2  c #0580BC",
"3  c #088CBD",
"4  c #0B9CB3",
"5  c #0A96BB",
"6  c #019FB8",
"7  c #02A4BC",
"8  c #0990C4",
"9  c #0991CB",
"0  c #0D9ECE",
"q  c #0995D5",
"w  c #0C9ED3",
"e  c #0690D9",
"r  c #01A6C2",
"t  c #0DA2D1",
"y  c #12ADD3",
"u  c #15B1D4",
"i  c #1CB4D6",
"p  c #21B6D7",
"a  c #24B8D7",
"s  c #27BAD8",
"d  c #2CBBD9",
"f  c #32BED9",
"g  c #37C1D9",
"h  c #3DC3DA",
"j  c #3EC3DA",
"k  c #3FC4DB",
"l  c #43C5DC",
"z  c #42C5DD",
"x  c #4AC7DD",
"c  c #4AC8DD",
"v  c #4BC9DD",
"b  c #53CADF",
"n  c #56CDDD",
"m  c #5CCFDE",
"M  c #63D3E0",
"N  c #73D7E0",
"B  c #74D6E2",
"V  c #75D6E4",
"C  c #77D7E4",
"Z  c #77DAE2",
"A  c #7ADAE1",
"S  c #7CDAE3",
"D  c #84DCE3",
"F  c #8ADFE5",
"G  c #8FDDE7",
"H  c #89E0E6",
"J  c #92E0E9",
"K  c #96E6ED",
"L  c #97E6ED",
"P  c #9BE9F0",
"I  c #9CEAF1",
"U  c #9FEBF1",
"Y  c #A8EAF3",
"T  c #AAEAF4",
"R  c #AEEBF4",
"E  c #AEF2F6",
"W  c #AEF3F6",
"Q  c #ACF4F5",
"!  c #AEF4F5",
"~  c #AFF4F6",
"^  c #B0F3F6",
"/  c #B1F5F6",
"(  c #B4F4F6",
")  c #B4F5F8",
"_  c #B5F5F8",
"`  c #B5F6F8",
"'  c #BAF6F8",
"]  c #BCF6F8",
"[  c #BEF6F9",
"{  c #BDF7FA",
"}  c #BEF8F9",
"|  c #C4F7F9",
" . c #C4F9FA",
".. c #CCFAFC",
"X. c #CDFAFC",
"o. c #D2FCFE",
"O. c #DCFDFE",
"+. c #E4FEFF",
"@. c #EAFEFF",
/* pixels */
"& & & & & & & & & & & & & & & & & & & & & & & & & & & & & & & & & & & & & & & & & & & & & & & & & & & & & & & & & & & & & & & & ",
"& & & & & & & & & & & & & & & & & & & & & & & & & & & & & & & & & & & & & & & & & & & & & & & & & & & & & & & & & & & & & & & & ",
"& & & & & & & & & & & & & & & & & & & & & & & & & & & & & & & & & & & & & & & & & & & & & & & & & & & & & & & & & & & & & & & & ",
"& & & & & & & & & & & & & & & & & & & & & & & & & * & & & & & & & & & & & & & & & & & & & & & & & & & & & & & & & & & & & & & & ",
"& & & & & & & & & & & & & & & & & & & & & & & & & & & & & & & & & & & & & & & & & & & & & & & & & & & & & & & & & & & & & & & & ",
"& & & & & & & & & & & & & & & & & & & & & & & & & & & & & & & & & & & & & & & & & & & & & & & & & & & & & & & & & & & & & & & & ",
"& & & & & & & & & & & & & & & & & & & & & & & & & & & & & & & & & & & & & & & & & & & & & & & & & & & & & & & & & & & & & & & & ",
"& & & & & & & & & & & & & & & & & & & & & & & & & & & & & & & & & & & & & & & & & & & & & & & & & & & & & & & & & * & & & & & & ",
"& & & & & & & & & & & & & & & & & & & & & & & & & & & & & & & & & & & & & & & & & & & & & & & & & & & & & & & & & & & & & & & & ",
"& & & & & & & & & & & & & & & & & & & & & & & & & & & & & & & & & & & & & & & & & & & & & & & & & & & & & & & & & & & & & & & & ",
"& & & & & & & & & & & & & & & & & & & & & & & & & & & & & & & & & & & & & & & & & & & & & & & & & & & & & & & & & & & & & & & & ",
"& & & & & & & & & & & & & & & & & & & & & & & & & & & & & & & & & & & & & & & & & & & & & & & & & & & & & & & & & & & & & & & & ",
"& & & & & & & & & & & & & & & & & & & & & & & & & & & & & & & & & & & & & & & & & & & & & & & & & & & & & & & & & & & & & & & & ",
"& & & & & & & & & & & & & & & & & & & & & & & & & & & & & & & & & & & & & & & & & & & & & & & & & & & & & & & & & & & & & & & & ",
"& & & & & & & & & & & & & & & & & & & & & & & & & & & & & & & & & & & & & & & & & & & & & & & & & & & & & & & & & & & & & & & & ",
"& & & & & & & & & & & & & & & & & & & & & & & & & & & & & & & & & & & & & & & & & & & & * & & & & & & & & & & & & & & & & & & & ",
"& & & & & & & & & & & & & & & & & & & & & & & & & & & & & & & & & & & & & & & & & & & & & & & & & & & & & & & & & & & & & & & & ",
"& & & & & & & & & & & & & & & & & & & & & & & & & & & & & & & & & & & & & & & & & & & & & & & & & & & & & & & & & & & & & & * & ",
"& & & & & & & & & & & & & & & & & & & & & & & & & & & & & & & & & & & & & & & & & & & & & & & & & & & & & & & & & & & & & & & & ",
"& & & & & & & & & & & & & & & & & & & & & & & & & & & & & & & & & & & & & & & & & & & & & & & & & & & & & & & & & & & & & & & & ",
"& & & & & & & & & & & & & & & & & & & & & & & & & & & & & & & & & & & & & & & & & & & & & & & & & & & & & & & & & & & & & & & & ",
"& & & & & & & & & & & & & & & & & & & & & & & & & & & & & & & & & & & & & & & & & & & & & & & & & & & & & & & & & & & & & & & & ",
"& & & & & & & & & & & & & & & & & & & & & & & & $ & & & & & & & & & & & & & & & & & & & & & & & & & & & & & & & & & & & & & & & ",
"& & & & & & & & & & & & & & & & & & & & & & & & & & & & & & & & & & & & & & & & & & & & & & & & & & & & & & & & & & & & & & & & ",
"& & & & & & & & & & & & & & & & & & & & & & & & & & & $ & & & & & & & & & & & & & & & & & & & $ & & & & & & & & & & & & & & & & ",
"& & & & & & & & & & & & & & & & & & & & & & & & $ & $ & & $ $ & & & & & & & & & & & & & $ $ & & & & & & & & & & & & & & & & & & ",
"& & & & & & & & & & & & & & & $ & & & & & & & & & & $ & & & $ & & & & & & & & & & & & $ $ $ & & & & & & & & & & & & & & & & & & ",
"& & & & & & & & & & & & & & & & $ $ & & & & & & & $ $ $ $ $ $ & $ $ & & $ & & & & & & $ $ $ & & & & & & & & & & & & $ & & & & & ",
"& & & & & & & & & & & & & & & & $ & $ & & & & & & $ $ $ $ $ $ $ $ $ & $ & & & & $ & $ $ $ $ $ & $ & & & & & & & & & & & & & & & ",
"& & & & & & & & & & & & & & & & $ $ & & & & & & $ $ $ $ $ $ $ $ $ $ $ & & & & & & & $ $ @ $ $ $ & & $ & & & & $ $ & & & & & & & ",
"& & & & & & & & & & $ & $ & & $ $ $ $ & & & & $ & $ $ O $ $ $ $ & $ & & & & $ & & $ $ $ @ @ $ & $ & & & $ $ $ & $ & % & & & & & ",
"& & & & & & & & & & $ $ $ $ $ $ O $ O $ & & & $ & @ O $ O $ O $ $ $ $ $ & & $ $ $ $ $ $ @ $ @ & $ $ $ $ $ $ $ $ $ $ $ $ & & & & ",
"$ $ $ & & & * $ & $ $ $ & $ $ $ O $ $ @ $ & & & & O $ @ O @ @ $ $ $ $ $ $ $ $ @ $ @ O @ @ @ @ $ $ $ $ $ $ $ O O $ O O $ $ & & & ",
"$ $ O $ $ & & $ $ $ O $ @ $ O O $ $ O $ $ $ & $ $ $ @ o   O $ @ @ @ @ @ $ $ $ @ $ @ $ $ @ $ $ @ @ @ $ $ O $ $ $ O $ $ $ $ O & & ",
"O $ O $ O $ $ $ @ $ X O & @ $ $ O o X O $ $ $ O O             o $ @ $ X X X o $ $ @ O X       X @ @ O @ O $ o       X O $ $ O $ ",
"        X X O $ O           X     O $       o $       O &       X O X X X X   o O     X X O O   X o $ O O                 o O & ",
"                    # = O     O , 7 6 $ O       $ 7 5 9 9 4 5 1   o $ + # < 1 $       , 6 7 > & o X     X     X o o o O o     X ",
"9 y y y 0 2 ; . O q t y y q e t y y y y e 8 4 9 y y y y y y y y < , t y y y y y 3 1 0 y y y y 4 7 ; ; ; - r q w t t t 9 7 : # O ",
"p p f x j y u u d u d v d u y i l L D B Z f u y f A U K Y J d y u u i z C C p y y y y s B f u y y y u u y y u i p p y u u u u p ",
"..` ! ( ! | G s u j / Q ` d y Y ] / Q Q ! / / ! / Q Q ! Q / } b y u R ' ( / ( M s y s _ ! ! F j f i y y i D ` { ] } ] / U B v d ",
"! ! Q ! ^ ^ ) ) ( / Q Q Q m u ` ( ! / / ! ! ! Q ! ! ! Q Q / Q Z y s ' ! / ! ! ! P n U ! Q Q / ! / ` f y Y ! ! ( ^ Q Q / ! ! ! ] ",
"! E ! Q Q Q ! ! Q / Q Q Q R A ( [ ....| ! ! ! Q ! ( ( ( } Q Q Y y M ! ! ` o...' ! ! ! ! .. ./ ! / Q F j Q Q ( ( / Q Q / ! ! Q Q ",
"! ! ! ! ! !  ..... .| ( / | ......o...o. .` ! ! } ....o.o./ Q Q y P ! | o.o.o.o.} Q ( ..o.o.o.O.| ! / ! Q / +.O.....] Q ! ` / ! ",
"Q ! ! )  .o.o.....o.o...!  .........o.o.o.../ !  .o.o.o.o.( Q / d Q | ....o.o.o.o.| o.+.O.o.o.o.o.! ` / Q ..o.o.O.o.o...! ! ! ! ",
"Q Q | o.o.o...o.o.o...o. .|  . .| o.o.O.o...` ' o...o.o.o. .! / S Q  .o.o.o.O.o.o.o.o.O.@.+.o.o.o.] ! ! ( o.o.o.+.O.o.o.o.' ! ` ",
"/ ....o.o...o.o.o.o.o.o.o.o.O.+.o.o.o.+.o...] ..o.o.O.O.o...! / / Q | o.o.o.@.o.o.o.o.+.@.@.+.o.o.o.' / o.o.o.+.@.@.o.o.o.o.o.o.",
"..o...o.o.O.+.@.@.@.@.+.o.o.o.o.o.o.+.@.o.o.o.o.o.O.@.+.o.o. .Q ! / o...o.+.@.@.O.O.+.@.@.@.@.O.o.o.o.o.o.o.o.@.@.@.@.O.o.o.o.o.",
"..o.o.O.+.@.@.@.@.@.@.@.+.o.o.o.o.+.@.@.o.o.o.o.o.+.@.@.O.o.o.| ! ..o.o.O.@.@.@.@.@.@.@.@.@.@.@.O.o.o.o.o.o.+.@.@.@.@.@.+.O.o.O.",
"o.o.@.@.@.@.@.@.@.@.@.@.@.+.O.+.@.@.@.@.+.o.o.o.o.@.@.@.@.O.o.....o.o.O.@.@.@.@.@.@.@.@.@.@.@.@.@.+.+.O.+.+.@.@.@.@.@.@.@.@.+.@.",
"o.+.@.@.@.@.@.@.@.@.@.@.@.@.@.@.@.@.@.@.@.O.O.O.+.@.@.@.@.+.o.o.o.o.o.@.@.@.@.@.@.@.@.@.@.@.@.@.@.@.@.@.@.@.@.@.@.@.@.@.@.@.@.@.",
"@.@.@.@.@.@.@.@.@.@.@.@.@.@.@.@.@.@.@.@.@.@.@.@.@.@.@.@.@.@.+.o.o.o.+.@.@.@.@.@.@.@.@.@.@.@.@.@.@.@.@.@.@.@.@.@.@.@.@.@.@.@.@.@.",
"@.@.@.@.@.@.@.@.@.@.@.@.@.@.@.@.@.@.@.@.@.@.@.@.@.@.@.@.@.@.@.@.@.@.@.@.@.@.@.@.@.@.@.@.@.@.@.@.@.@.@.@.@.@.@.@.@.@.@.@.@.@.@.@.",
"@.@.@.@.@.@.@.@.@.@.@.@.@.@.@.@.@.@.@.@.@.@.@.@.@.@.@.@.@.@.@.@.@.@.@.@.@.@.@.@.@.@.@.@.@.@.@.@.@.@.@.@.@.@.@.@.@.@.@.@.@.@.@.@.",
"@.@.@.@.@.@.@.@.@.@.@.@.@.@.@.@.@.@.@.@.@.@.@.@.@.@.@.@.@.@.@.@.@.@.@.@.@.@.@.@.@.@.@.@.@.@.@.@.@.@.@.@.@.@.@.@.@.@.@.@.@.@.@.@.",
"@.@.@.@.@.@.@.@.@.@.@.@.@.@.@.@.@.@.@.@.@.@.@.@.@.@.@.@.@.@.@.@.@.@.@.@.@.@.@.@.@.@.@.@.@.@.@.@.@.@.@.@.@.@.@.@.@.@.@.@.@.@.@.@.",
"@.@.@.@.@.@.@.@.@.@.@.@.@.@.@.@.@.@.@.@.@.@.@.@.@.@.@.@.@.@.@.@.@.@.@.@.@.@.@.@.@.@.@.@.@.@.@.@.@.@.@.@.@.@.@.@.@.@.@.@.@.@.@.@.",
"@.@.@.@.@.@.@.@.@.@.@.@.@.@.@.@.@.@.@.@.@.@.@.@.@.@.@.@.@.@.@.@.@.@.@.@.@.@.@.@.@.@.@.@.@.@.@.@.@.@.@.@.@.@.@.@.@.@.@.@.@.@.@.@.",
"@.@.@.@.@.@.@.@.@.@.@.@.@.@.@.@.@.@.@.@.@.@.@.@.@.@.@.@.@.@.@.@.@.@.@.@.@.@.@.@.@.@.@.@.@.@.@.@.@.@.@.@.@.@.@.@.@.@.@.@.@.@.@.@.",
"@.@.@.@.@.@.@.@.@.@.@.@.@.@.@.@.@.@.@.@.@.@.@.@.@.@.@.@.@.@.@.@.@.@.@.@.@.@.@.@.@.@.@.@.@.@.@.@.@.@.@.@.@.@.@.@.@.@.@.@.@.@.@.@.",
"@.@.@.@.@.@.@.@.@.@.@.@.@.@.@.@.@.@.@.@.@.@.@.@.@.@.@.@.@.@.@.@.@.@.@.@.@.@.@.@.@.@.@.@.@.@.@.@.@.@.@.@.@.@.@.@.@.@.@.@.@.@.@.@.",
"@.@.@.@.@.@.@.@.@.@.@.@.@.@.@.@.@.@.@.@.@.@.@.@.@.@.@.@.@.@.@.@.@.@.@.@.@.@.@.@.@.@.@.@.@.@.@.@.@.@.@.@.@.@.@.@.@.@.@.@.@.@.@.@.",
"@.@.@.@.@.@.@.@.@.@.@.@.@.@.@.@.@.@.@.@.@.@.@.@.@.@.@.@.@.@.@.@.@.@.@.@.@.@.@.@.@.@.@.@.@.@.@.@.@.@.@.@.@.@.@.@.@.@.@.@.@.@.@.@.",
"@.@.@.@.@.@.@.@.@.@.@.@.@.@.@.@.@.@.@.@.@.@.@.@.@.@.@.@.@.@.@.@.@.@.@.@.@.@.@.@.@.@.@.@.@.@.@.@.@.@.@.@.@.@.@.@.@.@.@.@.@.@.@.@.",
"@.@.@.@.@.@.@.@.@.@.@.@.@.@.@.@.@.@.@.@.@.@.@.@.@.@.@.@.@.@.@.@.@.@.@.@.@.@.@.@.@.@.@.@.@.@.@.@.@.@.@.@.@.@.@.@.@.@.@.@.@.@.@.@."
};
