/* XPM */
static char *result[] = {
/* columns rows colors chars-per-pixel */
"64 64 77 1 ",
"  c #03657C",
". c #04687D",
"X c #036780",
"o c #036A84",
"O c #026D8A",
"+ c #01718E",
"@ c #03788C",
"# c #007595",
"$ c #047A92",
"% c #007798",
"& c #027A98",
"* c #087F9C",
"= c #038897",
"- c #028398",
"; c #038D9D",
": c #028FA4",
"> c #0989A7",
", c #0A8DAD",
"< c #0195AB",
"1 c #078FB2",
"2 c #0580BC",
"3 c #0B91B2",
"4 c #0A9BB3",
"5 c #019FB8",
"6 c #0D9ABC",
"7 c #02A4BB",
"8 c #0E9FC2",
"9 c #0891CB",
"0 c #0D9ECE",
"q c #0995D5",
"w c #0C9ED3",
"e c #0690D9",
"r c #01A6C2",
"t c #0FA6CA",
"y c #10A9CE",
"u c #0DA1D1",
"i c #12ADD3",
"p c #15B1D4",
"a c #1DB4D6",
"s c #21B6D7",
"d c #20B7D8",
"f c #27BAD8",
"g c #2CBBD9",
"h c #31BED8",
"j c #37C1D9",
"k c #3DC4DB",
"l c #43C5DC",
"z c #4AC7DD",
"x c #4BC9DD",
"c c #56CDDD",
"v c #5CCFDE",
"b c #5CD3E4",
"n c #66D4E2",
"m c #6FD4E0",
"M c #73D6E1",
"N c #84DDE5",
"B c #8DDEE6",
"V c #89E0E6",
"C c #8EE3EB",
"Z c #96E6ED",
"A c #9CEAF1",
"S c #A1EEF2",
"D c #ABEBF3",
"F c #A7F1F4",
"G c #AEF4F6",
"H c #B3F5F6",
"J c #B9F6F7",
"K c #B5F6F8",
"L c #BDF6F9",
"P c #BFF8F9",
"I c #C4F7F9",
"U c #C4F9FA",
"Y c #CCFAFC",
"T c #D2FCFE",
"R c #DBFDFE",
"E c #E5FEFF",
"W c #EAFEFF",
/* pixels */
"WWWWWWWWWWWWWETTYYGGGGGGYa9.XO+#%%%%%%%%%%%%%%%%%%%%%%%%%%%%%%%%",
"WWWWWWWWWWWWWWWTTTYGGGGGKdi X++%%%%%%%%%%%%%%%%%%%%%%%%%%%%%%%%%",
"WWWWWWWWWWWWWWWWTTTUGGGGGju. O+#%%%%%%%%%%%%%%%%%%%%%%%%%%%%%%%%",
"WWWWWWWWWWWWWWWWTTTTHGGGGxiXX+#%%%%%%%%%%%%%%%%%%%%%%%%%%%%%%%%%",
"WWWWWWWWWWWWWWWWETYTIGGGGkwoo##%%%%%%%%%%%%%%%%%%%%%%%%%%%%%%%%%",
"WWWWWWWWWWWWWWWWWRTYYGGGJa*XX##%%%%%%%%%%%%%%%%%%%%%%%%%%%%%%%%%",
"WWWWWWWWWWWWWWWWWETTTUGHBi- O+%%%%%%%%%%%%%%%%%%%%%%%%%%%%%%%%%%",
"WWWWWWWWWWWWWWWWWWTYTYGKgpX ###%%%%%%%%%%%%%%%%%%%%%%%%%%%%%%%%%",
"WWWWWWWWWWWWWWWWWWTTYYGHpgO #O#%%#%%%%%%%%%%%%%%%%%%%%%%%%%%%%%%",
"WWWWWWWWWWWWWWWWWWTTTUGGkpq  ####%%%%%%%%%%%%%%%%%%%%%%%%%%%%%%%",
"WWWWWWWWWWWWWWWWWWTYTUGGHgi@ o#O##%%%%%%%%%%%%%%%%%%%%%%%%%%%%%%",
"WWWWWWWWWWWWWWWWWETTYHGGGzy& O#%#%%%%%%%%%%%%%%%%%%%%%%%%%%%%%%%",
"WWWWWWWWWWWWWWWWETTYGGGGHgyO #O##%%%%%%%%%%%%%%%%%%%%%%%%%%%%%%%",
"WWWWWWWWWWWWWWWETTYUIPDvgiq  #O###%%%%%%%%%%%%%%%%%%%%%%%%%%%%%%",
"WWWWWWWWWWWWWWWRTTRYTYMiipe X#O####%%%%%%%%%%%%%%%%%%%%%%%%%%%%%",
"WEWWWWWWWWWWREWETYEIYYJLSau+ O####%#%#%%%%%%%%%%%%%%%%%%%%%%%%%%",
"RTRWWWWWWWETTTRWRTTUYTPGPli; O#O+###%%%%%%%%%%%%%%%%%%%%%%%%%%%%",
"RTTTRWWWWRTTRTTRETTYRTUGGZi7+X#+#+#%%%%%%%%%%%%%%%%%%%%%%%%%%%%%",
"RTTTTRWWETRTKJTTEERTRTTUHNi7#o###+%#%%%%%%%%%%%%%%%%%%%%%%%%%%%%",
"IGYTTTTETTTKGGJTRTEERTTYKMu% O#+#%%#%%%%%%%%%%%%%%%%%%%%%%%%%%%%",
"GGGHUTTRTTYGGGGTYTTRETITYSkppoX#+%%%%%%%%%%%%%%%%%%%%%%%%%%%%%%%",
"GGHGGIYUREJGGHGURTTTYPUUUFCap*X++%%%%%%%%%%%%%%%%%%%%%%%%%%%%%%%",
"GGGGGGGGHKGGkBGGGHUYHJJDPGSsi3 #+%%%%%%%%%%%%%%%%%%%%%%%%%%%%%%%",
"PGGGGGGGHGGAijGGGGGGGAcNZDMiy6X++#%%%%%%%%%%%%%%%%%%%%%%%%%%%%%%",
"gxmAJLPPLKNaiiajkVGGKsifnbiiy,X++###%#%%%%%%%%%%%%%%%%%%%%%%%%%%",
"appppaasaiiiippipphMgiiiiiiy8#X#+####%%%%%%%%%%%%%%%%%%%%%%%%%%%",
"O@;79wuuw9r=--=74yiii0<21t86>XO+#+##%#%%%%%%%%%%%%%%%%%%%%%%%%%%",
".  oOOooXX    XX%;r5:  XX@+oXO++#+#####%%%%%%%%%%%%%%%%%%%%%%%%%",
"#+OX      XOO+OX OO X X###OOO#+##+###%%%%%%%%%%%%%%%%%%%%%%%%%%%",
"+#O#OX   o#O#O#Oo    o##O#+#+++##+#####%%%%%%%%%%%%%%%%%%%%%%%%%",
"%####+#O#++O#O++#++##+++##OO++#+#####%%%%%%%%%%%%%%%%%%%%%%%%%%%",
"%%###OO#O#########++++#+O####+########%#%%%%%%%%%%%%%%%%%%%%%%%%",
"%%%%%%############++#########%%%#%%#%%%%%%%%%%%%%%%%%%%%%%%%%%%%",
"%%%%%###%###%##%%##+####%###%%%%#%#%%%%%%%%%%%%%%%%%%%%%%%%%%%%%",
"%%%%#%%#%%#%%#%###++###%%#%%%$%##%%%%%%%%%%%%%%%%%%%%%%%%%%%%%%%",
"%%%%%%#%%#%%%%%%%#####$%%%#%%####%#%%#%%%%%%%%%%%%%%%%%%%%%%%%%%",
"%%%%%%%%%%%%%%%%#####%%%%%%%$%%$%#%##%%%%%%%%%%%%%%%%%%%%%%%%%%%",
"%%%%#%%%%%%%%%%%%###%%%%%%%%%%%%%%%%%%%%%%%%%%%%%%%%%%%%%%%%%%%%",
"%%%%%%%%%%%%%%%%%%%%%%%%%%%%%%%%#%%#%%%%%%%%%%%%%%%%%%%%%%%%%%%%",
"%%%%%%%%%%%%%%%%%#%%%%%%%%%%%%%%%%%%%%%%%%%%%%%%%%%%%%%%%%%%%%%%",
"%%%%%%%%%%%%%%%%%%%%%%%%%%%%%%%%%%%%%%%%%%%%%%%%%%%%%%%%%%%%%%%%",
"%%%%%%%%%%%%%%%%%%%%%%%%%%%%%%%%%%%%%%%%%%%%%%%%%%%%%%%%%%%%%%%%",
"%%%%%%%%%%%%%%%%%%%%%%%%%%%%%%%%%%%%%%%%%%%%%%%%%%%%%%%%%%%%%%%%",
"%%%%%%%%%%%%%%%%%%%%%%%%%%%%%%%%%%%%##%%%%%%%%%%%%%%%%%%%%%%%%%%",
"%%%%%%%%%%%%%%%%%%%%%%%%%%%%%%%%%%%####%%%%%%%%%%%%%%%%%%%%%%%%%",
"%%%%%%%%%%%%%%%%%%%%%%%%%%%%%%%%%#%%###%%%%%%%%%%%%%%%%%%%%%%%%%",
"%%%%%%%%%%%%%%%%%%%%%%%%%%%%%%%%%%%%#%%%%%%%%%%%%%%%%%%%%%%%%%%%",
"%%%%%%%%%%%%%%%%%%%%%%%%%%%%%%%%%%#%%%%#%%%%%%%%%%%%%%%%%&%%%%%%",
"%%%%%%%%%%%%%%%%%%%%%%%%%%%%%%%%%%%%%%#%%%%%%%%%%%%%%%%%%%%%%%%%",
"%%%%%%%%%%%%%%%%%%%%%%%%%%%%%%%%%%%%%%%%%%%%%%%%%%%%%%%%%%%%%%%%",
"%%%%%%%%%%%%%%%%%%%%%%%%%%%%%%%%%%%%%%%%%%%%%%%%%%%%%%%%%%%%%%%%",
"%%%%%%%%%%%%%%%%%%%%%%%%%%%%%%%%%%%%%%%%%%%%%%%%%%%%%%%%%%%%%%%%",
"%%%%%%%%%%%%%%%%%%%%%%%%%%%%%%%%%%%%%%%%%%%%%%%%%%%%%%%%%%%%%%%%",
"%%%%%%%%%%%%%%%%%%%%%%%%%%%%%%%%%%%%%%%%%%%%%%%%%%%%%%%%%%%%%%%%",
"%%%%%%%%%%%%%%%%%%%%%%%%%%%%%%%%%%%%%%%%%%%%%%%%%%%%%%%%%%%%%%%%",
"%%%%%%%%%%%%%%%%%%%%%%%%%%%%%%%%%%%%%%%&%%%%%%%%%%%%%%%%%%%%%%%%",
"%%%%%%%%%%%%%%%%%%%%%%%%%%%%%%%%%%%%%#%%%%%%%%%%%%%%%%%%%%%%%%%%",
"%%%%%%%%%%%%%%%%%%%%%%%%%%%%%%%%%%%%%%%%%%%%%%%%%%%%%%%%%%%%%%%%",
"%%%%%%%%%%%%%%%%%%%%%%%%%%%%%%%%%%%%%%%%%%%%%%%%%%%%%%%%%%%%%%%%",
"%%%%%%%%%%%%%%%%%%%%%%%%%%%%%%%%%%%%%%%%%%%%%%%%%%%%%%%%%%%%&%%%",
"%%%%%%%%%%%%%%%%%%%%%%%%%%%%%%%%%%%%%%%%%%%%%%%%%%%%%%%%%%%%%%%%",
"%%%%%%%%%%%%%%%%%%%%%%%%%%%%%%%%%%%%%%%%%%%%%%%%%%%%%%%%%%%%%%%%",
"%%%%%%%%%%%%%%%%%%%%%%%%%%%%%%%%%%%%%%%%%%%%%%%%%%%%%%%%%%%%%%%%",
"%%%%%%%%%%%%%%%%%%%%%%%%%%%%%%%%%%%%%%%%%%%%%%%%%%%%%%%%%%%%%%%%"
};
