/* XPM */
static char *result[] = {
/* columns rows colors chars-per-pixel */
"64 64 74 1 ",
"  c #03657C",
". c #04687D",
"X c #036780",
"o c #036A84",
"O c #026D8A",
"+ c #01718E",
"@ c #03788C",
"# c #007595",
"$ c #047A92",
"% c #007798",
"& c #027A98",
"* c #087F9C",
"= c #038897",
"- c #028398",
"; c #038D9D",
": c #028FA4",
"> c #0A8DAD",
", c #0195AB",
"< c #0889B9",
"1 c #0B91B2",
"2 c #0A9BB3",
"3 c #019FB8",
"4 c #0D9ABC",
"5 c #02A4BB",
"6 c #0E9FC2",
"7 c #0891CB",
"8 c #0D9ECE",
"9 c #0995D5",
"0 c #0C9ED3",
"q c #0690D9",
"w c #01A6C2",
"e c #0EA1C3",
"r c #0FA6CA",
"t c #10A9CE",
"y c #0DA1D1",
"u c #12ADD3",
"i c #15B1D4",
"p c #1DB4D6",
"a c #21B6D7",
"s c #24B8D7",
"d c #27BAD8",
"f c #2CBBD9",
"g c #31BED8",
"h c #37C1D9",
"j c #3DC4DB",
"k c #43C5DC",
"l c #4AC7DD",
"z c #56CDDD",
"x c #5CCFDE",
"c c #66D4E2",
"v c #6FD4E0",
"b c #6FD9E6",
"n c #73D6E1",
"m c #84DDE5",
"M c #8DDEE6",
"N c #89E0E6",
"B c #96E6ED",
"V c #9CEAF1",
"C c #A1EEF2",
"Z c #ABEBF3",
"A c #A7F1F4",
"S c #AEF4F6",
"D c #B3F5F6",
"F c #B9F6F7",
"G c #B5F6F8",
"H c #BDF6F9",
"J c #BFF8F9",
"K c #C4F7F9",
"L c #C4F9FA",
"P c #CCFAFC",
"I c #D2FCFE",
"U c #DBFDFE",
"Y c #E5FEFF",
"T c #EAFEFF",
/* pixels */
"%%%%%%%%%%%%%%%%%%%%%%%%%%%%%%%%%%%%%%%%%%%%%%%%%%%%%%%%%%%%%%%%",
"%%%%%%%%%%%%%%%%%%%%%%%%%%%%%%%%%%%%%%%%%%%%%%%%%%%%%%%%%%%%%%%%",
"%%%%%%%%%%%%%%%%%%%%%%%%%%%%%%%%%%%%%%%%%%%%%%%%%%%%%%%%%%%%%%%%",
"%%%%%%%%%%%%%%%%%%%%%%%%%%%%%%%%%%%%%%%%%%%%%%%%%%%%%%%%%%%%%%%%",
"%%%%%%%%%%%%%%%%%%%%%%%%%%%%%%%%%%%%%%%%%%%%%%%%%%%%%%%%%%%%%%%%",
"%%%%%%%%%%%%%%%%%%%%%%%%%%%%%%%%%%%%%%%%%%%%%%%%%%%%%%%%%%%%%%%%",
"%%%%%%%%%%%%%%%%%%%%%%%%%%%%%%%%%%%%%%%%%%%%%%%%%%%%%%%%%%%%%%%%",
"%%%%%%%%%%%%%%%%%%%%%%%%%%%%%%%%%%%%%%%%%%%%%%%%%%%%%%%%%%%%%%%%",
"%%%%%%%%%%%%%%%%%%%%%%%%%%%%%%%%%%%%%%%%%%%%%%%%%%%%%%%%%%%%%%%%",
"%%%%%%%%%%%%%%%%%%%%%%%%%%%%%%%%%%%%#%%%%%%%%%%%%%%%%%%%%%%%%%%%",
"%%%%%%%%%%%%%%%%%%%%%%%%%%%%%%%%%%%%%%%%%%%%%%%%%%%%%%%%%%%%%%%%",
"%%%%%%%%%%%%%%%%%%%%%%%%%%%%%%%%%%%%%%%%%%%%%%%%%%%%%%%%%%%%%%%%",
"%%%%%%%%%%%%%%%%%%%%%%%%%%%%%%%%%%%%%%%%%%%%%%%%%%%%%%%%%%%%%%%%",
"%%%%%%%%%%%%%%%%%%%%%%%%%%%%%%%%%%%%%%%%%%%%%%%%%%%%%%%%%%%%%%%%",
"%%%%%%%%%%%%%%%%%%%%%%%%%%%%%%%%%%%%%%%%%%%%%%%%%%%%%%%%%%%%%%%%",
"%%%%%%%%%%%%%%%%%%%%%%%%%%%%%%%%%%%%%%%%%%%%%%%%%%%%%%%%%%%%%%%%",
"%%%%%%%%%%%%%%%%%%%%%%%%%%%%%%%%%%%%%%%%%%%%%%%%%%%%%%%%%%%%%%%%",
"%%%%%%%%%%%%%%%%%%%%%%%%%%%%%%%%%%%%##%&%%%%%%%%%%%%%%%%%%%%%%%%",
"%%%%%%%%%%%%%%%%%%%%%%%%%%%%%%%%#&%###%#%%%%%%%%%%%%%%%%%%%%%%%%",
"%%%%%%%%%%%%%%%%%%%%%%%%%%%%%%%%%%%%###%%%%%%%%%%%%%%%%%%%%%%%%%",
"%%%%%%%%%%%%%%%%%%%%%%%%%%%%%%%%#%%%%#&%%%%%%%%%%%%%%%%%%%%%%%%%",
"%%%%%%%%%%%%%%%%%%%%%%%%%%%%%%%%%%&#&%%%%%%%%%%%%%%%%%%%%%%%%%%%",
"%%%%%%%%%%%%%%%%%%%%%%%%%%%%%%%%%%%%%%%%%%%%%%%%%%%%%%%%%%%%%%%%",
"%%%%%%%%%%%%%%%%%%%%%%%%%%%%%%%%%%%%%%%%%%%%%%%%%%%%%%%%%%%%%%%%",
"%%%%%%%%%%%%%%%%%%%%%%%%%%%%%%%%#&%%%%%%%%%%%%%%%%%%%%%%%%%%%%%%",
"%%%%%%%%%%%%%%%%%%%%%%%%%%%%%%%%#%#%%%%%%%%%%%%%%%%%%%%%%%%%%%%%",
"%%%&%%%%%%%%%%%%%####%%%%%%%%#%%%&%#%%%%%%%%%%%%%%%%%%%%%%%%%%%%",
"%%%&#%%%%%%%%%%######%%%%%%%%%##%##&%%%%%%%%%%%%%%%%%%%%%%%%%%%%",
"%%%%%%&%%#%%%%%%%#####%%%%%%#%%##%#&%%%%%%%%%%%%%%%%%%%%%%%%%%%%",
"%%%%%%##%%##%#%####+###%%#%%#%%##%%#%#%%%%%%%%%%%%%%%%%%%%%%%%%%",
"%%%%%#%######%%####+####%%#%%%%%&##%%%%%%%%%%%%%%%%%%%%%%%%%%%%%",
"%%%%%##############++#####+####%%&&###%%%%%%%%%%%%%%%%%%%%%%%%%%",
"%#%%##O#O#####%##+#O#O###O###+#&#####&%#%%%%%%%%%%%%%%%%%%%%%%%%",
"%##+OO#+#+++##O###+###OOO#O#+#++###%##%%%%%%%%%%%%%%%%%%%%%%%%%%",
"#+##OXX  o#OOO+OX    o#####O++#++######&%%%%%%%%%%%%%%%%%%%%%%%%",
"#OoX      Xo++OX OoXX  ##+OOO#++#++###%%%%%%%%%%%%%%%%%%%%%%%%%%",
"X  ooooo X X   o#:53:   X++o o++######%%%%%%%%%%%%%%%%%%%%%%%%%%",
"o&;570yy07w---=w2uuuu0,<<r64>XO#OO##%#%%%%%%%%%%%%%%%%%%%%%%%%%%",
"piiipppapiuiiiuuuignfuuuuuire$X######%%#%%%%%%%%%%%%%%%%%%%%%%%%",
"glvVDHHHHGmpuupgjMZSGsudcxiit> OO##%#%#%%%%%%%%%%%%%%%%%%%%%%%%%",
"HSSSSSSSSSSVihDSGSSSSCzmBAbuu4 ##%%%%%%%%%%%%%%%%%%%%%%%%%%%%%%%",
"SSSSSSSSDDSSjNSDSDLPSGHZHACpu1 +O%%%%%%%%%%%%%%%%%%%%%%%%%%%%%%%",
"SGSDALLPUYDSDDSKUIIIPLLLPABau-X#+%%%%%%%%%%%%%%%%%%%%%%%%%%%%%%%",
"SSSSPIIUUIISSSSPPIIUYPLIPVjuuoX##%%%%%%%%%%%%%%%%%%%%%%%%%%%%%%%",
"KSPIIIUYUIIDDSFIUUYYUPIPDnt% O###%#%%%%%%%%%%%%%%%%%%%%%%%%%%%%%",
"UIIIIUYYUIUIDFIIYYUIUIILDmu3%oOO#+##%%%%%%%%%%%%%%%%%%%%%%%%%%%%",
"UIIIUTTTTUIIUIIUUIIPUULSSBu5#X+#O####%%%%%%%%%%%%%%%%%%%%%%%%%%%",
"UIUYTTTTTTYIIIUYUIIJPPJGHku; O###+###%%%%%%%%%%%%%%%%%%%%%%%%%%%",
"TYTTTTTTTTTTUYTYIIULPPDFZpy+ #OO##%%%%%%%%%%%%%%%%%%%%%%%%%%%%%%",
"TTTTTTTTTTTTTTTUIIUPIPviuuq  ####%%%%%%%%%%%%%%%%%%%%%%%%%%%%%%%",
"TTTTTTTTTTTTTTTYIPPLLLZxfiq. O+##%%%%%%%%%%%%%%%%%%%%%%%%%%%%%%%",
"TTTTTTTTTTTTTTTTYUPPDSSSGftO %+%##%%%%%%%%%%%%%%%%%%%%%%%%%%%%%%",
"TTTTTTTTTTTTTTTTTUIIPDSSSlu$ +O%#%%%%%%%%%%%%%%%%%%%%%%%%%%%%%%%",
"TTTTTTTTTTTTTTTTTTUPIHSSSft@ o#+%#%%%%%%%%%%%%%%%%%%%%%%%%%%%%%%",
"TTTTTTTTTTTTTTTTTTUIPLSSju9  #+%#%%%%%%%%%%%%%%%%%%%%%%%%%%%%%%%",
"TTTTTTTTTTTTTTTTTTIPIPSGif+ +#%#%#%%%%%%%%%%%%%%%%%%%%%%%%%%%%%%",
"TTTTTTTTTTTTTTTTTTIIPPSFspXX###%#%%%%%%%%%%%%%%%%%%%%%%%%%%%%%%%",
"TTTTTTTTTTTTTTTTTYIPILSDMu&XO#%%#%%%%%%%%%%%%%%%%%%%%%%%%%%%%%%%",
"TTTTTTTTTTTTTTTTTUIPISSSKp*OX##%%%#%%%%%%%%%%%%%%%%%%%%%%%%%%%%%",
"TTTTTTTTTTTTTTTTYIIIKSSSZj8XX+##%%%%%%%%%%%%%%%%%%%%%%%%%%%%%%%%",
"TTTTTTTTTTTTTTTTUIPIDSSSDlyo ++#%%%%%%%%%%%%%%%%%%%%%%%%%%%%%%%%",
"TTTTTTTTTTTTTTTTIPIKSSSSShuX +##%%%%%%%%%%%%%%%%%%%%%%%%%%%%%%%%",
"TTTTTTTTTTTTTTTIIIPSSSSSGau  +##%%%%%%%%%%%%%%%%%%%%%%%%%%%%%%%%",
"TTTTTTTTTTTTTYIIIPSASSSSPp7 X++#%%%%%%%%%%%%%%%%%%%%%%%%%%%%%%%%"
};
