/* XPM */
static char *d476c2b6540c43ffd28b7fd56486504bNBT9u9Q5LaldsYp1[] = {
/* columns rows colors chars-per-pixel */
"64 64 98 2 ",
"   c #03657C",
".  c #04687D",
"X  c #036780",
"o  c #036A84",
"O  c #026D8A",
"+  c #01718E",
"@  c #03788C",
"#  c #007595",
"$  c #047A92",
"%  c #007798",
"&  c #027A98",
"*  c #087F9C",
"=  c #028398",
"-  c #038D9D",
";  c #03909E",
":  c #028FA4",
">  c #0989A7",
",  c #0A8DAD",
"<  c #0195AB",
"1  c #0889B9",
"2  c #0B91B2",
"3  c #0A9BB3",
"4  c #019FB8",
"5  c #0D9ABC",
"6  c #02A4BB",
"7  c #0E9FC2",
"8  c #0891CB",
"9  c #0D9ECE",
"0  c #0995D5",
"q  c #0C9ED3",
"w  c #0690D9",
"e  c #01A6C2",
"r  c #0EA1C3",
"t  c #0FA6CA",
"y  c #10A9CE",
"u  c #0DA1D1",
"i  c #12ADD3",
"p  c #15B1D4",
"a  c #1DB4D6",
"s  c #21B6D7",
"d  c #20B7D8",
"f  c #27BAD8",
"g  c #2CBBD9",
"h  c #31BED8",
"j  c #37C1D9",
"k  c #3DC4DB",
"l  c #43C5DC",
"z  c #4AC7DD",
"x  c #4BC9DD",
"c  c #56CDDD",
"v  c #5CCFDE",
"b  c #5CD3E4",
"n  c #66D4E2",
"m  c #6FD4E0",
"M  c #6FD9E6",
"N  c #73D6E1",
"B  c #84DDE5",
"V  c #8DDEE6",
"C  c #89E0E6",
"Z  c #96E6ED",
"A  c #9CEAF1",
"S  c #A1EEF2",
"D  c #ABEBF3",
"F  c #A7F1F4",
"G  c #AEF4F6",
"H  c #B1F5F6",
"J  c #B4F4F6",
"K  c #B6F6F7",
"L  c #B9F6F7",
"P  c #B4F5F8",
"I  c #B5F6F8",
"U  c #B9F6F8",
"Y  c #BAF6F9",
"T  c #BDF6F9",
"R  c #BFF6F9",
"E  c #BEF8F9",
"W  c #C4F6F9",
"Q  c #C5F7F9",
"!  c #C3F9FA",
"~  c #CBF9FB",
"^  c #C9FAFB",
"/  c #CAFAFB",
"(  c #CEFBFB",
")  c #CBFAFC",
"_  c #CEFBFD",
"`  c #D0FBFC",
"'  c #D3FBFC",
"]  c #D2FBFD",
"[  c #D2FCFE",
"{  c #D7FCFE",
"}  c #D7FDFE",
"|  c #D8FBFE",
" . c #DBFDFE",
".. c #DDFDFE",
"X. c #DEFCFE",
"o. c #E3FEFF",
"O. c #E5FEFF",
"+. c #EAFEFF",
/* pixels */
"% % % % % % % % % % % % % % % % % % % % % % % % % % % % % % % % % % % % % % % % % % % % % % % % % % % % % % % % % % % % % % % % ",
"% % % % % % % % % % % % % % % % % % % % % % % % % % % % % % % % % % % % % % % % % % % % % % % % % % % % % % % % % % % % % % % % ",
"% % % % % % % % % % % % % % % % % % % % % % % % % % % % % % % % % % % % % % % % % % % % % % % % % % % % % % % % % % % % % % % % ",
"% % % % % % % % % % % % % % % % % % % % % % % % % % % % % % % % % % % % % % % % % % % % % % % % % % % % % % % % % % % % % % % % ",
"% % % % % % % % % % % % % % % % % % % % % % % % % % % % % % % % % % % % % % % % % % % % % % % % % % % % % % % % % % % % % % % % ",
"% % % % % % % % % % % % % % % % % % % % % % % % % % # % % % % % % % % % % % % % % % % % % % % % % % % % & % % % % % % % % % % % ",
"% % % % % % % % % % % % % % % % % % % % % % % % % % % % % % % % % % % % % % % % % % % % % % % % % % % % % % % % % % % % % % % % ",
"% % % % % % % % % % % % % % % % % % % % % % % % % % % % % % % % % % % % % % % % % % % % % % % % % % % % % % % % % % % % % % % % ",
"% % % % % % % % % % % % % % % % % % % % % % % % % % % # % % % % % % % % % % % % % % % % % % % % % % % % % % % % % % % % % % % % ",
"% % % % % % % % % % % % % % % % % % % % % % % % % % % % % % % % % % % % % % % % % % % % % % % % % % % % % % % % % % % % % % % % ",
"% % % % % % % % % % % % % % % % % % % % % % % % % % % % % % % % % & % % % % % % % % % % % % % % % % % % % % % % % % % % % % % % ",
"% % % % % % % % % % % % % % % % % % % % % % % % % % % % % % % % % % % % % % % % % % % % % % % % % % % % % % % % % % % % % % % % ",
"% % % % % % % % % % % % % % % % % % % % % % % % % % % % % % % % % % % % % % % % % % % % % % % % % % % % % % % % % % % % % % % % ",
"% % % % % % % % % % % % % % % % % % % % % % % % % % % % % % % % % % % % % % % % % % % % % % % % % % % % % % % % % % % % % % % % ",
"% % % % % % % % % % % % % % % % % % % % % % % % % % % % % % % % % % % % % % % % % % % % % % % % % % % & % % % % % % % % % % % % ",
"% % % % % % % % % % % % % % % % % % % % % % % % % % % % % # % % % % % % % % % % % % % % % % % % % % % % % % % % % % % % % % % % ",
"% % % % % % % % % % % % % % % % % % % % % % % % % % # % % % % % % % % % % % % % % % % % % % % % % % % % % % % % % % % % % % % % ",
"% % % % % % % % % % % % % % % % % % % % % % & & % & % # % % % % % % % % % % % % % % % % % % % % % % % % % % % % % % % % % % % % ",
"% % % % % % % % % % % % % % % % % % % % % % & % % # # # # % # % % % % % % % % % % % % % % % % % % % % % % % % % % % % % % % % % ",
"% % % % % % % % % % % % % % % % % % % % % % % % & # # # % % & % % % % % % % % % % % % % % % % % % % % % % % % % % % % % % % % % ",
"% % % % % % % % % % % % % % % % % % % % % % % % % % # # # % % % % % % % % % % % % % % % % % % % % % % % % % % % % % % % % % % % ",
"% % % % % % % % % % % % % % % % % % % % % % % % % % % # & % % % % % % % % % % % % % % % % % % % % % % % % % % % % % % % % % % % ",
"% % % % % % % % % % % % % % % % % % % % % % % % % % % % % % # % % % % % % % % % % % % % % % % % % % % % % % % % % % % % % % % % ",
"% % % % % % % % % % % % % % % % % % % % % % % % % % % % % % % % % % % % % % % % % % % % % % % % % % % % % % % % % % % % % % % % ",
"% % % % % % % % % % % % % % % % % % % % % % % % % % % % % % % & % % % % % % % % % % % % % % % # % % % % % % % % % % % % % % % % ",
"% % % % % % % % % % % % % % % % % % % % % % % % % % % % % # % # % % % % % % % % % % % % # # % % # % % % % % % % % % % % % % % % ",
"% % % % % % % % % % % % % % % % % % % % % % % % % % % % # & # % # % % % % % % % % % % # # # % % % % % % % % % % % % # # % % % % ",
"% % % % % % % % % % % % % % % % % % % % % % % % % % % % # % & % # % # % # % % % % % # # # # # % % % % % % % # % % % % % % % % % ",
"% % % % % % % % % % % % % % % % % % % % % % % % % % % % % # % # % # % % % % # % % % # # # # # # % % % % % % # % % % % % % % % % ",
"% % % % % % % % % % % % % % % % % % % % % % % % % % # % # % & # % % % % % % % % % # # # # # # # # % # % % % % % # # % % % % % % ",
"% % % % % % % % % % % % % % % % % % % % % % % % % % % % & % # # % % # # % # # % # # # # O # # # # % % # # # # # # % $ % % % % % ",
"% % % % % % % % % % % % % % % % % & % % % % % % % % % # # # & % % % # # # # # # # # # # O # # % # # # # # # # # # # # % % % % % ",
"% % % % % % % % % % % % % % % % % % % % % % % % % % # # # # # % % # + # # # # + # # O + + + + # # # # + # # + + # + + # # # % % ",
"% % % % % % % % % % % % % % % % % % % % % % % % # # # # # # # # + + # + + + + + O # # # + # # + + + + # + + + # + + + + # + # % ",
"% % % % % % % % % % % % % % % % % % % % % % % % % % # # # # # + # + + + + + # # # O O .       X # + + + O + X .   X X O # # # + ",
"% % % % % % % % % % % % % % % % % % % % % % % % % % # # # # # + # O # + O O + # #     X X O O   X O + + O X             X o + # ",
"% % % % % % % % % % % % % % % % % % % % % % % % % # # # # # # # O # o . o O O X X .   : 4 6 ; % X X X . X   X X o O O o o X   X ",
"% % % % % % % % % % % % % % % % % % % % % % % % % # # % # # + + # O X > 7 7 t 1 1 < q i i i y 3 e = = = = e 8 q q t q 8 5 - # O ",
"% % % % % % % % % % % % % % % % % % % % % % % % % % % # # # # # O X $ r t i i i i i i f N h p i i i i p i i a a s s a p p p p a ",
"% % % % % % % % % % % % % % % % % % % % % % # % % % # % # # # O # X , y i i b n f i d P G G V k h a i i a B P T T T L P A m x g ",
"% % % % % % % % % % % % % % % % % % % % % % % % % % % # # % # # +   5 i i M F Z B c A H G G G G G K j i A G G G G G G G G G G Y ",
"% % % % % % % % % % % % % % % % % % % % % % % % % % % % % % # # # . 2 i a S G T D Y Y H ^ ! H G G H C k G G K K G G G G G G G G ",
"% % % % % % % % % % % % % % % % % % % % % % % % % % % % % % % O # X * i d Z S ~ ! ! E _ [ ] ]  .W G H G G Y o...~ ~ W G G H G G ",
"% % % % % % % % % % % % % % % % % % % % % % % % % % % % % % % # # X X i i k S ~ ] ! [ O. .[ ] ] [ G G G G ~ ] }  ._ [ ~ H G G H ",
"% % % % % % % % % % % % % % % % % % % % % % % % % % % % # # # # + # O . % y N K _ [ ]  .O.O.} ..[ L G G K } ] } o.} ] ] [ ~ G T ",
"% % % % % % % % % % % % % % % % % % % % % % % % % % % % % # # # O # o # 4 i B H E _ ]  .] { O.O. .] L K ] } ] ..+.+.} ] } ] ` ..",
"% % % % % % % % % % % % % % % % % % % % % % % % % % % % # # # + # # X O 6 i Z G G ~ } } _ ] [ o...[ ] } ] ]  .+.+.+.+. .} ] ` ..",
"% % % % % % % % % % % % % % % % % % % % % % % % % % % # # # # # + # O   - i l W H E _ _ ! ] ] } +...] ] { O.+.+.+.+.+.+.O. . ...",
"% % % % % % % % % % % % % % % % % % % % % % % % % % % % # % # # # O #   + u a D H I ( [ Q ..[ [ O.+.o...+.+.+.+.+.+.+.+.+.+.O.+.",
"% % % % % % % % % % % % % % % % % % % % % % % % % % % % % % # # # # O . . w i i i N ~ _ ~  .[ [ ..+.+.+.+.+.+.+.+.+.+.+.+.+.+.+.",
"% % % % % % % % % % % % % % % % % % % % % % % % % % % # % # # % % + O . . 0 i f v D ! Q ! ( [ [ O.+.+.+.+.+.+.+.+.+.+.+.+.+.+.+.",
"% % % % % % % % % % % % % % % % % % % % % % % % % % % % % % % # % O # . + u g K G G G H ~ [ [ O.+.+.+.+.+.+.+.+.+.+.+.+.+.+.+.+.",
"% % % % % % % % % % % % % % % % % % % % % % % % % % % % % % % # % O #   $ i z G G G H ^ ' [ o.+.+.+.+.+.+.+.+.+.+.+.+.+.+.+.+.+.",
"% % % % % % % % % % % % % % % % % % % % % % % % % % % % % % # # + # X   @ y f H G G W [ _ [ +.+.+.+.+.+.+.+.+.+.+.+.+.+.+.+.+.+.",
"% % % % % % % % % % % % % % % % % % % % % % % % % % % % % % % % % + #   . 0 p k G G Q ' [ } +.+.+.+.+.+.+.+.+.+.+.+.+.+.+.+.+.+.",
"% % % % % % % % % % % % % % % % % % % % % % % % % % % % % % # % % # # O . + g p H G ~ _ ~ } +.+.+.+.+.+.+.+.+.+.+.+.+.+.+.+.+.+.",
"% % % % % % % % % % % % % % % % % % % % % % % % % % % % % % # % % # # #     p g K G ~ [ ( [ +.+.+.+.+.+.+.+.+.+.+.+.+.+.+.+.+.+.",
"% % % % % % % % % % % % % % % % % % % % % % % % % % % % % % % % % % # O   & i V H G ! [ [ [ O.+.+.+.+.+.+.+.+.+.+.+.+.+.+.+.+.+.",
"% % % % % % % % % % % % % % % % % % % % % % % % % % % % % % % % % % # X O * a W G G G [ [ [ } +.+.+.+.+.+.+.+.+.+.+.+.+.+.+.+.+.",
"% % % % % % % % % % % % % % % % % % % % % % % % % % % % % % % % # # O . X 9 k G G G G Q [ ( [ O.+.+.+.+.+.+.+.+.+.+.+.+.+.+.+.+.",
"% % % % % % % % % % % % % % % % % % % % % % % % % % % % % % % % # # O   o u z P G G G G [ ~ [  .+.+.+.+.+.+.+.+.+.+.+.+.+.+.+.+.",
"% % % % % % % % % % % % % % % % % % % % % % % % % % % % % % % % # # +   X u j H G G G G Q [ [ [ +.+.+.+.+.+.+.+.+.+.+.+.+.+.+.+.",
"% % % % % % % % % % % % % % % % % % % % % % % % % % % % % % % % # + +     i d P G G G G G ~ [ [ } O.+.+.+.+.+.+.+.+.+.+.+.+.+.+.",
"% % % % % % % % % % % % % % % % % % % % % % % % % % % % % % % % # + O .   0 a _ G G G G G G ~ _ [ [ O.+.+.+.+.+.+.+.+.+.+.+.+.+."
};
