/* XPM */
static char *_59f975685e54d398156c5b46ad0e504Zl36h8So0NHIaxgg[] = {
/* columns rows colors chars-per-pixel */
"64 64 93 2 ",
"   c #03647C",
".  c #04687D",
"X  c #036780",
"o  c #026A84",
"O  c #026E8B",
"+  c #037587",
"@  c #01718E",
"#  c #03798E",
"$  c #007494",
"%  c #027D91",
"&  c #007798",
"*  c #037C99",
"=  c #038897",
"-  c #028398",
";  c #038C9D",
":  c #028FA4",
">  c #0395AC",
",  c #0580BC",
"<  c #088CBD",
"1  c #0B9CB3",
"2  c #0A96BB",
"3  c #02A4BC",
"4  c #0990C4",
"5  c #0991CB",
"6  c #0D9ECE",
"7  c #068ED7",
"8  c #0995D5",
"9  c #0C9ED3",
"0  c #0690D9",
"q  c #01A6C2",
"w  c #0DA2D1",
"e  c #12ADD3",
"r  c #15B1D4",
"t  c #1CB4D6",
"y  c #21B6D7",
"u  c #24B8D7",
"i  c #27BAD8",
"p  c #2CBBD9",
"a  c #32BED9",
"s  c #37C1D9",
"d  c #3EC4DA",
"f  c #43C5DD",
"g  c #4AC7DD",
"h  c #4BC9DD",
"j  c #55CCDE",
"k  c #5CCFDE",
"l  c #62D1DF",
"z  c #63D3E0",
"x  c #6FD4E0",
"c  c #74D6E2",
"v  c #77DAE2",
"b  c #7BDAE2",
"n  c #86DDE4",
"m  c #8DDEE6",
"M  c #95E4EC",
"N  c #9CEAF1",
"B  c #A0EBF2",
"V  c #ABEAF4",
"C  c #AEF4F6",
"Z  c #B3F5F6",
"A  c #B8F5F6",
"S  c #B9F6F7",
"D  c #B5F6F8",
"F  c #B9F0F8",
"G  c #B8F6F8",
"H  c #BCF6F9",
"J  c #BEF6F9",
"K  c #BDF7FA",
"L  c #BEF8F9",
"P  c #BFF8FA",
"I  c #C2F6F9",
"U  c #C3F6F9",
"Y  c #C6F7F9",
"T  c #C1F8F9",
"R  c #C7F9FB",
"E  c #C7FAFB",
"W  c #CAF9FA",
"Q  c #CAFAFB",
"!  c #CEFAFB",
"~  c #CCFAFC",
"^  c #CCFBFC",
"/  c #CFFBFC",
"(  c #D0FBFC",
")  c #D0FBFD",
"_  c #D2FBFC",
"`  c #D4FCFD",
"'  c #D4FDFE",
"]  c #DAFDFE",
"[  c #DBFEFF",
"{  c #DFFEFF",
"}  c #E1FEFF",
"|  c #E7FEFF",
" . c #EAFEFF",
/* pixels */
"& & & & & & & & & & & & & & & & & & & & & & & & & & & & & & & & $ O O X   5 t ~ C C C C C C _ _ ^ _  . . . . . . . . . . . . . .",
"& & & & & & & & & & & & & & & & & & & & & & & & & & & & & & & & $ $ O     e u D C C C C C E ^ _ '  . . . . . . . . . . . . . . .",
"& & & & & & & & & & & & & & & & & & & & & & & & & & & & & & & & & O O     w s C C C C C U _ ^ ^  . . . . . . . . . . . . . . . .",
"& & & & & & & & & & & & & & & & & & & & & & & & & & & & & & & & & $ $   o e h C C C C Z ^ _ _ {  . . . . . . . . . . . . . . . .",
"& & & & & & & & & & & & & & & & & & & & & & & & & & & & & & & & & $ $ .   6 d C C C C E ( ( ( |  . . . . . . . . . . . . . . . .",
"& & & & & & & & & & & & & & & & & & & & & & & & & & & & & & & & & & $   X , t K C C C ( ( ~ [  . . . . . . . . . . . . . . . . .",
"& & & & & & & & & & & & & & & & & & & & & & & & & & & & & & & & & $ $ O   * e m Z C E ' ( (  . . . . . . . . . . . . . . . . . .",
"& & & & & & & & & & & & & & & & & & & & & & & & & & & & & & & $ & & $ $   . r p D Z E ( ( '  . . . . . . . . . . . . . . . . . .",
"& & & & & & & & & & & & & & & & & & & & & & & & & & & & & & & $ $ & O $   O i r Z C W ( ( '  . . . . . . . . . . . . . . . . . .",
"& & & & & & & & & & & & & & & & & & & & & & & & & & & & & & $ & $ @ $     8 r d C C E ( ^ {  . . . . . . . . . . . . . . . . . .",
"& & & & & & & & & & & & & & & & & & & & & & & & & & & & & & $ & $ O o   # e p Z C C U ( ( '  . . . . . . . . . . . . . . . . . .",
"& & & & & & & & & & & & & & & & & & & & & & & & & & & & & & & $ $ $ O   % e h C C C Z ~ ( ^ }  . . . . . . . . . . . . . . . . .",
"& & & & & & & & & & & & & & & & & & & & & & & & & & & & & & & $ & @ $   o w p S C C C C ^ ( '  . . . . . . . . . . . . . . . . .",
"& & & & & & & & & & & & & & & & & & & & & & & & & & & & & & $ & $ @ $   . 8 e p k V T W T ^ ( '  . . . . . . . . . . . . . . . .",
"& & & & & & & & & & & & & & & & & & & & & & & & & & & & & $ $ $ $ @ $   X 0 e e e c E ( ^ [ ^ ( {  . . . . . . . . . . . . . . .",
"& & & & & & & & & & & & & & & & & & & & & & & & & & & & & & $ & $ @ @   @ w y V F Z ~ ^ W { ( ' }  . . . . . . . . . . . . . . .",
"& & & & & & & & & & & & & & & & & & & & & & & & & & & & $ $ $ @ $ $ O   ; e f P D P ( ( Y ( ( `  . . . . . . . . . . . . . . . .",
"& & & & & & & & & & & & & & & & & & & & & & & & & & & $ $ $ @ @ @ $   $ 3 e M C C R ( ~ ~ ` ` }  . . . . . . . . . . . . . . . .",
"& & & & & & & & & & & & & & & & & & & & & & & & & & & & & $ $ $ @ $ X & 3 e n C C R ( ( ( [ |  . . . . . . . . . . . . . . . . .",
"& & & & & & & & & & & & & & & & & & & & & & & & & & & & & & & $ @ $ o   $ e c C C R ( ` [ }  . . . . . . . . . . . . . . . . . .",
"& & & & & & & & & & & & & & & & & & & & & & & & & & & & & & & & & @ $   O 7 v C C C R ( ( ` ( ` }  . . . . . . . . . . . . . . .",
"& & & & & & & & & & & & & & & & & & & & & & & & & & & & & & & & $ $ $     4 a C C C G R ( ( ` ( ^ {  . . . . . . . . . . . . . .",
"& & & & & & & & & & & & & & & & & & & & & & & & & & & & & $ & & & & $ o   1 e C C C C D Z A [ ` _ [  . . . . . . . . . . . . . .",
"& & & & & & & & & & & & & & & & & & & & & & & & & & & & $ & $ & $ $ O $   5 t C C C C C G ~ ` ' _ {  . . . . . . . . . . . . . .",
"& & & & & & & & & & & & & & & & & & & & & & & & & & & & & $ & & $ $ O X $ e a C C C K R ( ( ( ( ^ }  . . . . . . . . . . . . . .",
"& & & & & & & & & & & & & & & & & & & & & & & & & & $ $ $ $ $ @ O $     3 e b C C D ~ ~ ( ' [ }  . . . . . . . . . . . . . . . .",
"& & & & & & & & & & & & & & & & & & & & * & & & & & & $ $ $ $ @ $ $   X 2 e N C C G ( ( ( {  . . . . . . . . . . . . . . . . . .",
"& & & & & & & & & & & & & & & & & & & & & & & & & & $ $ $ $ @ $ @ X   O 5 e M C C D ` ( ` [ |  . . . . . . . . . . . . . . . . .",
"& & & & & & & & & & & & & & & & & & & & & & & & & & $ $ $ $ @ @ O     & 5 e B C C G ( ` ' ( ( }  . . . . . . . . . . . . . . . .",
"& & & & & & & & & & * & & & & & & & & & & & & & & $ & $ $ $ $ @ @ O   X 1 e M C C C C D R ( ( ( { |  . . . . . . . . . . . . . .",
"& & & & & & & & & & & & & & & & & & & & & & & & & & $ $ $ $ $ $ @ $     2 e i U C C C C C C R ~ ( ' }  . . . . . . . . . . . . .",
"& & & & & & & & & & & & & & & & & & & & & & & & & $ & $ $ $ $ @ $ O X   > e e j b N C C C D C R ( ( (  . . . . . . . . . . . . .",
"& & & & & & & & & & & & & & & & & & & & & & & & & & & $ $ $ $ $ $ O $ X   ; r r e e r i b C C C W ( '  . . . . . . . . . . . . .",
"& & & & & & & & & & & & & & & & & & & & & & & & & & & & $ $ $ $ $ @ @ O X > r r i z N C D C D ~ ~ ` `  . . . . . . . . . . . . .",
"& & & & & & & & & & & & & & & & & & & & & & & & & & & $ $ $ $ $ $ @ $ X $ w t V D C C U E U ( ( ` `  . . . . . . . . . . . . . .",
"& & & & & & & & & & & & & & & & & & & & & & & & & & & & & & & & & @ X X + w f U C C U ( ~ ( ( ' {  . . . . . . . . . . . . . . .",
"& & & & & & & & & & & & & & & & & & & & & & & & & & & & & & & & & @     % e c Z C Z ' ( ( ( ( }  . . . . . . . . . . . . . . . .",
"& & & & & & & & & & & & & & & & & & & & & & & & & & & & & & $ & $ & o   ; e b Z Z ~ ( ` ' ' }  . . . . . . . . . . . . . . . . .",
"& & & & & & & & & & & & & & & & & & & & & & & & & & & & & $ & $ $ $ o   > e y Z C R ` ( [  . . . . . . . . . . . . . . . . . . .",
"& & & & & & & & & & & & & & & & & & & & & & & & & & & & & & & $ @ @ $ o $ e e z C K ( ' ( '  . . . . . . . . . . . . . . . . . .",
"& & & & & & & & & & & & & & & & & & & & & & & & & & & & & & $ & $ $ O $   < e u N C K ( ( ( }  . . . . . . . . . . . . . . . . .",
"& & & & & & & & & & & & & & & & & & & & & & & & & & & & & & $ $ $ O $     > e e j C C U _ ' }  . . . . . . . . . . . . . . . . .",
"& & & & & & & & & & & & & & & & & & & & & & & & & & & & & $ $ $ O $ o     9 e u N C Z ( ~ ( |  . . . . . . . . . . . . . . . . .",
"& & & & & & & & & & & & & & & & & & & & & & & & & & $ $ $ $ $ @ $ &     : e i Z C Z ~ | [ }  . . . . . . . . . . . . . . . . . .",
"& & & & & & & & & & & & & & & & & & & & & & & & & & $ $ $ @ @ @ O $     1 e c C C W ' {  . . . . . . . . . . . . . . . . . . . .",
"& & & & & & & & & & & & & & & & & & & & & & & & & $ $ $ $ $ $ @ O $   O 3 e a C C E ( ' |  . . . . . . . . . . . . . . . . . . .",
"& & & & & & & & & & & & & & & & & & & & & & & & & & & $ $ $ $ $ $ $   O ; e e m C Z ( ( ( |  . . . . . . . . . . . . . . . . . .",
"& & & & & & & & & & & & & & & & & & & & & & & & & & $ & & $ $ & $ $ X   & 1 e d C C [ ( ( ' {  . . . . . . . . . . . . . . . . .",
"& & & & & & & & & & & & & & & & & & & & & & & & & & & & & & $ $ $ $ @   X q e a Z C Y ( ( ` ( {  . . . . . . . . . . . . . . . .",
"& & & & & & & & & & & & & & & & & & & & & & & & & & & & & & & $ $ O $ O . = r t Z C C C G ` ( ` |  . . . . . . . . . . . . . . .",
"& & & & & & & & & & & & & & & & & & & & & & & & & & & & & & & $ $ @ O @   - r e a m Z C D D ` ( }  . . . . . . . . . . . . . . .",
"& & & & & & & & & & & & & & & & & & & & & & & & & & & & & & $ $ $ $ $ @   - e e e d C C C D ( ` {  . . . . . . . . . . . . . . .",
"& & & & & & & & & & & & & & & & & & & & & & & & & & & & & & & $ $ @ O O X = e t N C C C D ( ` ( }  . . . . . . . . . . . . . . .",
"& & & & & & & & & & & & & & & & & & & & & & & & & & & & & $ $ $ $ O O     q r n Z C Z ( ` ` ( ` |  . . . . . . . . . . . . . . .",
"& & & & & & & & & & & & & & & & & & & & & & & & & & & & & & $ $ @ $ o     5 r D Z Z | ( ( ( ` |  . . . . . . . . . . . . . . . .",
"& & & & & & & & & & & & & & & & & & & & & & & & & & & & & & $ $ @ $     o 9 t K C Z { ` ` {  . . . . . . . . . . . . . . . . . .",
"& & & & & & & & & & & & & & & & & & & & & & & & & & & & & & $ $ @ @     X 6 u K C C W } |  . . . . . . . . . . . . . . . . . . .",
"& & & & & & & & & & & & & & & & & & & & & & & & & & & & & $ & $ @ @ X   O 9 y K C C W ~ `  . . . . . . . . . . . . . . . . . . .",
"& & & & & & & & & & & & & & & & & & & & & & & & & & & & $ & $ & $ @ X   o 9 t K C C Y ( ( [  . . . . . . . . . . . . . . . . . .",
"& & & & & & & & & & & & & & & & & & & & & & & & & & $ & & & & & $ @ O   o 4 t D C C C W ( ( [  . . . . . . . . . . . . . . . . .",
"& & & & & & & & & & & & & & & & & & & & & & & & & & $ & & & & & & @ &   o 3 e N C C C C ` ( ( |  . . . . . . . . . . . . . . . .",
"& & & & & & & & & & & & & & & & & & & & & & & & & & & & & & & & & $ @ o o ; t l C C Z C P ` ( [  . . . . . . . . . . . . . . . .",
"& & & & & & & & & & & & & & & & & & & & & & & & & & & & & & & & & $ @ @   $ r g C C C C C ~ ( ` |  . . . . . . . . . . . . . . .",
"& & & & & & & & & & & & & & & & & & & & & & & & & & & & & & & & & & $ $ . O t a K C C Z Z [ ` ` |  . . . . . . . . . . . . . . ."
};
