/* XPM */
static char *result[] = {
/* columns rows colors chars-per-pixel */
"192 64 71 1 ",
"  c #D79600",
". c #D89700",
"X c #DB9C00",
"o c #DEA200",
"O c #E1A500",
"+ c #E5AC00",
"@ c #E7B000",
"# c #E8B200",
"$ c #DB9E2B",
"% c #DDA32B",
"& c #E0A72B",
"* c #E2AB2B",
"= c #E6B12B",
"- c #EAB62B",
"; c #EAB82B",
": c #DDA544",
"> c #DFA944",
", c #DFAE58",
"< c #E2AD44",
"1 c #E5B344",
"2 c #E8B744",
"3 c #EABB44",
"4 c #E0AE58",
"5 c #E4B358",
"6 c #E6B858",
"7 c #EABE58",
"8 c #E3B66B",
"9 c #E5BA6B",
"0 c #E8BE6B",
"q c #E6BD7C",
"w c #ECC258",
"e c #EDC56B",
"r c #EEC86B",
"t c #E7C07C",
"y c #E9C37C",
"u c #EECB7C",
"i c #E7C28B",
"p c #E9C68B",
"a c #EDCC8B",
"s c #F0CF8B",
"d c #F0D08B",
"f c #EBCB9A",
"g c #EED19A",
"h c #F2D69A",
"j c #EDD2A8",
"k c #F0D6A8",
"l c #F3DAA8",
"z c #EFD7B6",
"x c #EFD8B6",
"c c #F1DAB6",
"v c #F5E0B6",
"b c #F2DFC3",
"n c #F5E3C3",
"m c #F5E6D0",
"M c #F6E8D0",
"N c #F8EBD0",
"B c #F7EBDC",
"V c #F9EEDC",
"C c #FAF0DC",
"Z c #CEEFF1",
"A c #D3F1F2",
"S c #DDF4F5",
"D c #FAF3E8",
"F c #E2F6F7",
"G c #E6F7F8",
"H c #E8F7F8",
"J c #EAF8F9",
"K c #FDF9F4",
"L c #F4FBFC",
"P c #FFFFFF",
"I c None",
/* pixels */
"IIIIIIIIIIIIIIIIIIIIIIIIIIIIIIIIIIIIIIIIIIIIIIIIIIIIIIIIIIIIIIIIIIIIIIIIIIIIIIIIIIIIIIIIIIIIIIIIIIIIIIIIIIIIIIIIIIIIIIIIIIIIIIIIIIIIIIIIIIIIIIIIIIIIIIIIIIIIIIIIIIIIIIIIIIIIIIIIIIIIIIIIIIIIIIII",
"IIIIIIIIIIIIIIIIIIIIIIIIIIIIIIIIIIIIIIIIIIIIIIIIIIIIIIIIIIIIIIIIIIIIIIIIIIIIIIIIIIIIIIIIIIIIIIIIIIIIIIIIIIIIIIIIIIIIIIIIIIIIIIIIIIIIIIIIIIIIIIIIIIIIIIIIIIIIIIIIIIIIIIIIIIIIIIIIIIIIIIIIIIIIIIII",
"IIIIIIIIIIIIIIIIIIIIIIIIIIIIIIIIIIIIIIIIIIIIIIIIIIIIIIIIIIIIIIIIIIIIIIIIIIIIIIIIIIIIIIIIIIIIIIIIIIIIIIIIIIIIIIIIIIIIIIIIIIIIIIIIIIIIIIIIIIIIIIIIIIIIIIIIIIIIIIIIIIIIIIIIIIIIIIIIIIIIIIIIIIIIIIII",
"IIIIIIIIIIIIIIIIIIIIIIIIIIIIIIIIIIIIIIIIIIIIIIIIIIIIIIIIIIIIIIIIIIIIIIIIIIIIIIIIIIIIIIIIIIIIIIIIIIIIIIIIIIIIIIIIIIIIIIIIIIIIIIIIIIIIIIIIIIIIIIIIIIIIIIIIIIIIIIIIIIIIIIIIIIIIIIIIIIIIIIIIIIIIIIII",
"IIIIIIIIIIIIIIIIIIIIIIIIIIIIIIIIIIIIIIIIIIIIIIIIIIIIIIIIIIIIIIIIIIIIIIIIIIIIIIIIIIIIIIIIIIIIIIIIIIIIIIIIIIIIIIIIIIIIIIIIIIIIIIIIIIIIIIIIIIIIIIIIIIIIIIIIIIIIIIIIIIIIIIIIIIIIIIIIIIIIIIIIIIIIIIII",
"IIIIIIIIIIIIIIIIIIIIIIIIIIIIIIIIIIIIIIIIIIIIIIIIIIIIIIIIIIIIIIIIIIIIIIIIIIIIIIIIIIIIIIIIIIIIIIIIIIIIIIIIIIIIIIIIIIIIIIIIIIIIIIIIIIIIIIIIIIIIIIIIIIIIIIIIIIIIIIIIIIIIIIIIIIIIIIIIIIIIIIIIIIIIIIII",
"IIIIIIIIIIIIIIIIIIIIIIIIIIIIIIIIIIIIIIIIIIIIIIIIIIIIIIIIIIIIIIIIIIIIIIIIIIIIIIIIIIIIIIIIIIIIIIIIIIIIIIIIIIIIIIIIIIIIIIIIIIIIIIIIIIIIIIIIIIIIIIIIIIIIIIIIIIIIIIIIIIIIIIIIIIIIIIIIIIIIIIIIIIIIIIII",
"IIIIIIIIIIIIIIIIIIIIIIIIIIIIIIIIIIIIIIIIIIIIIIIIIIIIIIIIIIIIIIIIIIIIIIIIIIIIIIIIIIIIIIIIIIIIIIIIIIIIIIIIIIIIIIIIIIIIIIIIIIIIIIIIIIIIIIIIIIIIIIIIIIIIIIIIIIIIIIIIIIIIIIIIIIIIIIIIIIIIIIIIIIIIIIII",
"IIIIIIIIIIIIIIIIIIIIIIIIIIIIIIIIIIIIIIIIIIIIIIIIIIIIIIIIIIIIIIIIIIIIIIIIIIIIIIIIIIIIIIIIIIIIIIIIIIIIIIIIIIIIIIIIIIIIIIIIIIIIIIIIIIIIIIIIIIIIIIIIIIIIIIIIIIIIIIIIIIIIIIIIIIIIIIIIIIIIIIIIIIIIIIII",
"IIIIIPPPPPPPPPPPPPPIIIIIIIIIIPPPPPPPPPPPIIIIIIIIIIIIIIIIIIIIIIIIIIIIIIIIIIIIIIIIIIIIIIIIIIIIIIIPPPPPPPPPPPPPPIPPPPPPPPPPPPPPPPPPPPPIIIPPPPPPPPPPPIIIIIIIIIIIIIIIIIIIIIIIIIIIIIIIPPPPPPPPIIIIIIII",
"IIIIPPPPPPPPPPPPPPPPIIIIIIIIPPPPPPPPPPPPPIIIIIIIIIIIIIIIIIIIIIIIIIIIIIIIIIIIIIIIIIIIIIIIIIIIIIPPPPPPPPPPPPPPPPPPPPPPPPPPPPPPPPPPPPPPIPPPPPPPPPPPPPIIIIIIIIIIIIIIIIIIIIIIIIIIIIIPPPPPPPPPPIIIIIII",
"IIIPPPPPPPPPPPPPPPPPPIIIIIIPPPPPPPPPPPPPPPIIIIIIIIIIIIIIIIIIIIIIIIIIIIIIIIIIIIIIIIIIIIIIIIIIIPPPPPPPPPPPPPPPPPPPPPPPPPPPPPPPPPPPPPPPPPPPPPPPPPPPPPPIIIIIIIIIIIIIIIIIIIIIIIIIIIPPPPPPPPPPPPIIIIII",
"IIIPPPPPPPPPPPPPPPPPPIIIIIIPPPPPPPPPPPPPPPIIIIIIIIIIIIIIIIIIIIIIIIIIIIIIIIIIIIIIIIIIIIIIIIIIIPPPPPPPPPPPPPPPPPPPPPPPPPPPPPPPPPPPPPPPPPPPPPPPPPPPPPPIIIIIIIIIIIIIIIIIIIIIIIIIIIPPPPPPPPPPPPIIIIII",
"IIIPPPPXXXXXXXXX 8PPPPIIIIIPPPcXoXXXX iPPPPIIIIIIIIIIIIIIIIIIIIIIIIIIIIIIIIIIIIIIIIIIIIIIIIIIPPPPXXoXXXXXX zPPPjXXXXXXXXXXXXXXXX iPPPPPmXXXXXX iPPPPIIIIIIIIIIIIIIIIIIIIIIIIIPPPPqXX. jPPPIIIIII",
"IIIPPPPOOOOOOOOOX8PPPPIIIIIPPPcoOOOOXXiPPPPIIIIIIIIIIIIIIIIIIIIIIIIIIIIIIIIIIIIIIIIIIIIIIIIIIPPPPoOOOOOOooXzPPPjOOOOO+OOOOOOOOOoXiPPPPPmOOOOOoXiPPPPPPIIIIIIIIIIIIIIIIIIIIIIIPPPPaOOoXjPPPIIIIII",
"IIIPPPPPl@###@@OqPPPPIIIIIIPPPPDw@+OaDPPPPIIIIIIIIIIIIIIIIIIIIIIIIIIIIIIIIIIIIIIIIIIIIIIIIIIIPPPPPN2#@#@O0DPPPPPNw###+OkPPPKw++ojPPPPPPPPk#@+ocPPPPPPPPIIIIIIIIIIIIIIIIIIIIIIPPPPa#@OXxPPPIIIIII",
"IIIPPPPPPDw###+ODPPPPIIIIIIPPPPPh#+cPPPPPPIIIIIIIIIIIIIIIIIIIIIIIIIIIIIIIIIIIIIIIIIIIIIIIIIIIPPPPPPD;###OVPPPPPPPK;##+1PPPPPk++cPPPPPPPPPP-@+kPPPPPPPPPPIIIIIIIIIIIIIIIIIIIIIIPPPk##+obPPPIIIIII",
"IIIIPPPPPPK3##+OmPPPPIIIIIIIPPPP2+kPPPPPPIIIIIIIIIIIIIIIIIIIIIIIIIIIIIIIIIIIIIIIIIIIIIIIIIIIIIPPPPPPl##+oVPPPPPPPPv##+&PPPPPh+yPPPPPIPPPPPe+9PPPPPPPPPPPPIIIIIIIIIIIIIIIIIIIIIPPPl##+omPPPIIIIII",
"IIIIIPPPPPPC##+O,PPPPPIIIIIPPPPkO9PPPPPPIIIIIIIIIIIIIIIIIIIIIIIIIIIIIIIIIIIIIIIIIIIIIIIIIIIIIIIPPPPPK;#+ojPPPPPPPPK;#OXbPPPP2oVPPPPIIIPPPP*OnPPPPK8X8KPPPIIIIIIIIIIIIIIIIIIIIIPPPk##+oBPPPIIIIII",
"IIIIIIIPPPPPl#+OXjPPPPIIIIPPPPK*oDPPPPIIIIIIIIIIIIIIIIIIIIIIIIIIIIIIIIIIIIIIIIIIIIIIIIIIIIIIIIIIIPPPPd#+o8PPPPIPPPPd#+oqPPPVo9PPPPIIIIPPPNO<PPPPPpoX fPPPPIIIIIIIIIIIIIIIIIIIIPPPv##OXDPPPIIIIII",
"IIIIIIIIPPPPPw#+o.BPPPPIIIPPPPaofPPPPIIIIIIIIIIIIIIIIIIIIIIIIIIIIIIIIIIIIIIIIIIIIIIIIIIIIIIIIIIIIIPPPN#+OXDPPPIIPPPN#+O%KPPfocPPPPIIIPPPPaojPPPPP6+OX8PPPPIIIIIIIIIIIIIIIIIIIIPPPn##+XPPPPIIIIII",
"IIIIIIIIIPPPPD#@OX,PPPPPIPPPPVO%KPPPPIIIIIIIIIIIIIIIIIIIIIIIIIIIIIIIIIIIIIIIIIIIIIIIIIIIIIIIIIIIIIPPPP3@OXjPPPPIPPPP3#OXcPP*%KPPPIIIIPPPK*XDPPPPPs#+ofPPPPIIIIIIIIIIIIIIIIIIIIPPPN#@OXPPPPIIIIII",
"IIIIIIIIIIPPPPl##OXjPPPPIPPPP6OjPPPPIIIIIIIIIIIIIIIIIIIIIIIIIIIIIIIIIIIIIIIIIIIIIIIIIIIIIIIIIIIIIIPPPPl#+o:PPPPIPPPPl#+oqPnopPPPPIIIPPPPcOtPPPPPPKeO9KPPPIIIIIIIIIIIIIIIIIIIIIPPPN#@O>PPPPIIIIII",
"IIIIIIIIIIPPPPPw#+o.BPPPPPPPcO<PPPPIIIIIIIIIIIIIIIIIIIIIIIIIIIIIIIIIIIIIIIIIIIIIIIIIIIIIIIIIIIIIIIIPPPD#+OXmPPPPIPPPD#+OXKaomPPPIIIIPPPP0onPPPPPPPPPPPPPPIIIIIIIIIIIIIIIIIIIIIPPPD##O>PPPPIIIIII",
"IIIIIIIIIIIPPPPC##OX,PPPPPPK*omPPPPIIIIIIIIIIIIIIIIIIIIIIIIIIIIIIIIIIIIIIIIIIIIIIIIIIIIIIIIIIIIIIIIPPPPw#+XqPPPPIPPPPr++Ok*<PPPPIIIIPPPDO%PPPPIPPPPPPPPPIIIIIIIIIIIIIIIIIIIIIIPPPD@@O9PPPPIIIIII",
"IIIIIIIIIIIIPPPPh#@OXjPPPPPgO9PPPPIIIIIIIIIIIIIIIIIIIIIIIIIIIIIIIIIIIIIIIIIIIIIIIIIIIIIIIIIIIIIIIIIPPPPl#+OXKPPPIPPPPv##@OojPPPPIIIPPPPjOjPPPPIIPPPPPPPIIIIIIIIIIIIIIIIIIIIIIIPPPK@@o9PPPPIIIIII",
"IIIIIIIIIIIIPPPPP3#+o.BPPPDOoDPPPPIIIIIIIIIIIPPPPPPPPIIIIIIPPPPPPPPIIIPPPPPPPPIIIIIIIIIIIIIIIIIIIIIIPPPK##OXjPPPPIPPPK;##+oKPPPIIIIPPPP1XDPPPIIPPPPPPPPIIPPPPPPPPIPPPPPPPPIIIIPPPP@+opPPPPIIIIII",
"IIIIIIIIIIIIIPPPPC##OX4PPP0OfPPPPIIIIIIIIIIPPPPPPPPPPPPIIIPPPPPPPPPPIPPPPPPPPPPIIIIIIIIIIIIIIIIIIIIIPPPPu#+O,PPPPIPPPPd#@O5PPPPIIIPPPPMo9PPPPIPPPPPPPPPPPPPPPPPPPPPPPPPPPPPIIIPPPP@+ofPPPPIIIIII",
"IIIIIIIIIIIIIIPPPPh#+OXjPnO*KPPPPIIIIIIIIPPPPPPPPPPPPPPPPPPPPPPPPPPPPPPPPPPPPPPPIIIIIIIIIIIIIIIIIIIIPPPPn#@OXBPPPIIPPPN##OXDPPPIIIPPPPyocPPPPPPPPPPPPPPPPPPPPPPPPPPPPPPPPPPPPIPPPP3+ojPPPIIIIIII",
"IIIIIIIIIIIIIIPPPPK3#+OXV1ojPPPPIIIIIIIIPPPPPPPPPPPPPPPPPPPPPPPPPPPPPPPPPPPPPPPPIIIIIIIIIIIIIIIIIIIIIPPPP-#OXfPPPPIPPPP3#OXjPPPPIIPPPKO%PPPPIPPPPPPPPPPPPPPPPPPPPPPPPPPPPPPPPIPPPP2+ojPPPIIIIIII",
"IIIIIIIIIIIIIIIPPPPN##+OOO<PPPPIIIIIIIIPPPPPPnpXX.X8jPPPPPPP8XX. 8PPPPP8XXX.8PPPPIIIIIIIIIIIIIIIIIIIIPPPPh#+o$PPPPIPPPPh#@o:PPPPIPPPPkofPPPPPPPP8XXX 8PPPP9XX  8PPmjXXX fKPPPPPPPP7+oxPPPIIIIIII",
"IIIIIIIIIIIIIIIIPPPPd##++OmPPPPIIIIIIIIPPPPD5ooOoooXX$mPPPPP0O+OX8PPPPP9OOoX8PPPPIIIIIIIIIIIIIIIIIIIIIPPPC##OXbPPPPPPPPw#@OXmPPPPPPPP6oBPPPIIPPPcOOoX8PPPP9OOoo9PtXOOOooX:PPPPPPPPe+onPPPIIIIIII",
"IIIIIIIIIIIIIIIIPPPPK3##+9PPPPIIIIIIIIPPPPD1OOaDPPPkOXXbPPPPPk@+o8PPPPPPh@+o8PPPPIIIIIIIIIIIIIIIIIIIIIPPPPw#+XqPPPPPPPV@##+XqPPPPPPPVo9PPPPIIPPPPN++O8PPPPPv++O66ogKPKe+oXbPPPPPPPuOXmPPPIIIIIII",
"IIIIIIIIIIIIIIIIIPPPPr#@OcPPPPIIIIIIIIPPPP6OOhPPPPPPNOX$DPPPPPw+O8PPPPPPPw@O8PPPPIIIIIIIIIIIIIIIIIIIIIPPPPl#+OXKPPPPPPa####OXKPPPPPPgocPPPPIIPPPPP3#O8PPPPPPw#@OomPPPPK+OXfPPPPPPPa+oDPPPIIIIIII",
"IIIIIIIIIIIIIIIIIPPPPe#+oxPPPIIIIIIIIPPPPc++*KPPPPPPPeOXiPPPPPr+O8PPPPPPPe+O8PPPPIIIIIIIIIIIIIIIIIIIIIIPPPK##OXjPPPPPK=#l##OXjPPPPPP*%KPPPIIIIPPPPe+O8PPPPPPr@@ocPPPPPPe+oqPPPPPPPa+XDPPPIIIIIII",
"IIIIIIIIIIIIIIIIIPPPPe#+ocPPPIIIIIIIIPPPP2+OtPPPPPPPPk+O.DPPPPe+O8PPPPPPPe+O8PPPPIIIIIIIIIIIIIIIIIIIIIIPPPPu#+O4PPPPPc+2Pw#+o4PPPPPnopPPPPIIIIPPPPe+O8PPPPPPr@+6PPPPPPPd+o4PPPPPPPlOXPPPPIIIIIII",
"IIIIIIIIIIIIIIIIIPPPPe#+ozPPPIIIIIIIIPPPn++OjPPPIIPPPC@OXjPPPPe+O9PPPPPPPe+O8PPPPIIIIIIIIIIIIIIIIIIIIIIPPPPn#+OXBPPPP0OkPl#@OXVPPPPtomPPPIIIIIPPPPr+O8PPPPPPr@O9PPPPPPPd+O>PPPPPPPkOXPPPPIIIIIII",
"IIIIIIIIIIIIIIIIIPPPPr#OozPPPIIIIIIIPPPPh++OnPPPIIPPPK@+X8PPPPe+o9PPPPPPPe+o8PPPPIIIIIIIIIIIIIIIIIIIIIIIPPPP;#OXfPPPDooKPK##OXiPPPKo5PPPPIIIIIPPPPe+o9PPPPPPe#o9PPPPPPPd@O>PPPPPPPkO>PPPPIIIIIII",
"IIIIIIIIIIIIIIIIIPPPPe#+ozPPPIIIIIIIPPPPu#+XBPPPIIPPPP#+O%PPPPe+o8PPPPPPPe@O8PPPPIIIIIIIIIIIIIIIIIIIIIIIPPPPh#+O$PPPkOtPPPu#+o%KPPkojPPPPIIIIIPPPPe+O8PPPPPPe+o9PPPPPPPd+O>PPPPPPPvO4PPPPIIIIIII",
"IIIIIIIIIIIIIIIIIPPPPe@+ozPPPIIIIIIIPPPPe++XDPPPIIPPPP#+OXPPPPe+o8PPPPPPPr+o8PPPPIIIIIIIIIIIIIIIIIIIIIIIIPPPN##OXbPP1omPPPn##OXzPP1XKPPPIIIIIIPPPPr+o8PPPPPPr+o8PPPPPPPd@O>PPPPPPPcO9PPPPIIIIIII",
"IIIIIIIIIIIIIIIIIPPPPe#+ozPPPIIIIIIIPPPPe#+XDPPPIIPPPP@@OXPPPPe@O9PPPPPPPe+o9PPPPIIIIIIIIIIIIIIIIIIIIIIIIPPPP3#+oqPMo<PPPPP;#+o9PmoaPPPPIIIIIIPPPPe+O8PPPPPPe+o9PPPPPPPs+O<PPPPPPPNoqPPPPIIIIIII",
"IIIIIIIIIIIIIIIIIPPPPe@+ocPPPIIIIIIIPPPPe@+XVPPPIIPPPP@@O%PPPPe+o9PPPPPPPe+O8PPPPIIIIIIIIIIIIIIIIIIIIIIIIPPPPl#+OoKaojPPPPPh#+OXDaXmPPPPIIIIIIPPPPe+O8PPPPPPr+O9PPPPPPPs#O<PPPPPPPDjbPPPIIIIIIII",
"IIIIIIIIIIIIIIIIIPPPPe#+ozPPPIIIIIIIPPPPh@+XmPPPIIPPPK##O5PPPPe+o9PPPPPPPe+O9PPPPIIIIIIIIIIIIIIIIIIIIIIIIIPPPD#@+Ok=XDPPPPPC##+Oh*<PPPPIIIIIIIPPPPe+O8PPPPPPe+O8PPPPPPPd+O>PPPPPPPPPPPPPPIIIIIII",
"IIIIIIIIIIIIIIIIIPPPPe#+ozPPPIIIIIIIIPPPn#+XjPPPIIPPPV@+OfPPPPe+o9PPPPPPPe+O8PPPPIIIIIIIIIIIIIIIIIIIIIIIIIPPPPe#@+OOtPPPPPPPw##+OojPPPPIIIIIIIPPPPe+O8PPPPPPe+o9PPPPPPPd+O>PPPPPPPPPPPPPPIIIIIII",
"IIIIIIIIIIIIIIIIIPPPPe#+ozPPPPIIIIIIIPPPK-+oqPPPPPPPPk@+omPPPPe+o8PPPPPPPe+O8PPPPIIIIIIIIIIIIIIIIIIIIIIIIIPPPPv##@+onPPPPPPPl###+oKPPPIIIIIIIIPPPPe+O8PPPPPPe+O8PPPPPPPs+O<PPPPPPPf.,BPPPPIIIIII",
"IIIIIIIIIIIIIIIIPPPPPw#+ojPPPPPIIIIIIPPPPh+O$KPPPPPPPw+O9PPPPPd+O4PPPPPPn+@O8PPPPPIIIIIIIIIIIIIIIIIIIIIIIIIPPPK;##+<PPPPIPPPK##@OtPPPPIIIIIIIIPPPPe@o9PPPPPPe+O8PPPPPPPd@O>PPPPPPcOoX:PPPPIIIIII",
"IIIIIIIIIIIIIIIPPPPPD@#+O8PPPPPPIIIIIIPPPKwOXfPPPPPPn++*DPPPPPl@OXDPPPPB=@+O%PPPPPIIIIIIIIIIIIIIIIIIIIIIIIIPPPPd#+OjPPPPIPPPPu#+ObPPPPIIIIIIIPPPPP2+O5PPPPPPw+O%PPPPPPPu@OXPPPPPPy++o.DPPPIIIIII",
"IIIIIIIIIIIIIIIPPPPK7##@OXjPPPPPIIIIIIPPPPD7oXiDPPKkO+*VPPPPPPV++o5DPKjOww#+XjPPPPPIIIIIIIIIIIIIIIIIIIIIIIIIPPPN#+oDPPPIIPPPPn#+<PPPPIIIIIIIIPPPPV@@OXDPPPPD@@OobPPPPPK-#OXmPPPPPu#@OXDPPPIIIIII",
"IIIIIIIIIIIIIIIPPPkO@###+OX DPPPIIIIIIIPPPPPaoXXXooOOeDPPPPPPPPe++oXXXOuKe#+OX:PPPPIIIIIIIIIIIIIIIIIIIIIIIIIPPPP2O0PPPPIIIPPPP=OjPPPLIIIIIIIIPPPc+##+o$zPPc=##+oXjPPPc2##+o.jPPPPv##O<PPPPIIIIII",
"IIIIIIIIIIIIIIIPPPkO+###+OXXDPPPIIIIIIIPPPPPPDk*OOOgMPPPPPLLPPPKl+OOogmPPe++OX:PPPPIIIIIIIIIIIIIIIIIIIIIIIIIPPPPkOnPPPLIIIPPPPgoDPPPJIIIIIIIPPPP0+@++oX8PP0++@+OX:PPP0++@+OX PPPPPhO6DPPPPIIIIII",
"IIIIIIIIIIIIIIIPPPPPPPPPPPPPPPPPIIIIIIIIPPPPPPPPPPPPPPPPPPISPPPPPPPPPPPPPPPPPPPPPPPIIIIIIIIIIIIIIIIIIIIIIIIILPPPPPPPPPIIIILPPPPPPPPLAIIIIIIIIPPPPPPPPPPPPPPPPPPPPPPPPPPPPPPPPPPPPPPPPPPPPIIIIIII",
"IIIIIIIIIIIIIIIPPPPPPPPPPPPPPPPPIIIIIIIIIJPPPPPPPPPPPPPPJIIZHPPPPPPPPPPPPPPPPPPPPPIIIIIIIIIIIIIIIIIIIIIIIIIIILPPPPPPPLIIIIALPPPPPPPJZIIIIIIIIPPPPPPPPPPPPPPPPPPPPPPPPPPPPPPPPPPPPPPPPPPPLIIIIIII",
"IIIIIIIIIIIIIIIIPPPPPPPPPPPPPPPIIIIIIIIIIISHLPPPPPPPPPJSZIIZZGLPPPPPPPPPPPPPPPPPPLIIIIIIIIIIIIIIIIIIIIIIIIIIISLPPPPPLAIIIIZSLPPPPPLZZIIIIIIIIPPPPPPPPPPPPPPPPPPPPPPPPPPPPPPPPPPLLPPPPPPJZIIIIIII",
"IIIIIIIIIIIIIIIIILLPPPPPPPPPLLIIIIIIIIIIIIZZZFLPPPPLGZZZZIIZZZZJLPPPPLGSHLPPPPLJFIIIIIIIIIIIIIIIIIIIIIIIIIIIIZZJLPLHZZIIIIIZAJLPLJZZZIIIIIIIIIGJLPPPPPPLJHLPPPPPPLJFHLPPPPPPPLHZAJLPLJSZZIIIIIII",
"IIIIIIIIIIIIIIIIIIZZZZZZZZZZAIIIIIIIIIIIIIIZZZZZZZZZZZZZIIIIZZZZZZZZZZZZZZZZZZAZZIIIIIIIIIIIIIIIIIIIIIIIIIIIIZZZZZZZZZIIIIIZZZZZZZZZZIIIIIIIIIIZZZZZZZZZZZZZZZZZZZZZZZZZZZZZZZZZZZZZZZZZIIIIIIII",
"IIIIIIIIIIIIIIIIIIZZZZZZZZZZIIIIIIIIIIIIIIIIZZZZZZZZZZZIIIIIIZZZZZZZZZZZZZZZZZZZIIIIIIIIIIIIIIIIIIIIIIIIIIIIIIZZZZZZZIIIIIIIZZZZZZZZIIIIIIIIIIIIZZZZZZZZZZZZZZZZZZZZZZZZZZZZZZZZZZZZZZZIIIIIIIII",
"IIIIIIIIIIIIIIIIIIIIZZZZZZZIIIIIIIIIIIIIIIIIIZZZZZZZZIIIIIIIIIZZZZZIIIIIZZZZZZIIIIIIIIIIIIIIIIIIIIIIIIIIIIIIIIIZZZZZIIIIIIIIIZZZZZIIIIIIIIIIIIIIIIZZZZZZZZZZZZZZZZZZZZZZZZZIIIIIIZZZZZIIIIIIIIII",
"IIIIIIIIIIIIIIIIIIIIIIIIIIIIIIIIIIIIIIIIIIIIIIIIIIIIIIIIIIIIIIIIIIIIIIIIIIIIIIIIIIIIIIIIIIIIIIIIIIIIIIIIIIIIIIIIIIIIIIIIIIIIIIIIIIIIIIIIIIIIIIIIIIIIIIIIIIIIIIIIIIIIIIIIIIIIIIIIIIIIIIIIIIIIIIII",
"IIIIIIIIIIIIIIIIIIIIIIIIIIIIIIIIIIIIIIIIIIIIIIIIIIIIIIIIIIIIIIIIIIIIIIIIIIIIIIIIIIIIIIIIIIIIIIIIIIIIIIIIIIIIIIIIIIIIIIIIIIIIIIIIIIIIIIIIIIIIIIIIIIIIIIIIIIIIIIIIIIIIIIIIIIIIIIIIIIIIIIIIIIIIIIII",
"IIIIIIIIIIIIIIIIIIIIIIIIIIIIIIIIIIIIIIIIIIIIIIIIIIIIIIIIIIIIIIIIIIIIIIIIIIIIIIIIIIIIIIIIIIIIIIIIIIIIIIIIIIIIIIIIIIIIIIIIIIIIIIIIIIIIIIIIIIIIIIIIIIIIIIIIIIIIIIIIIIIIIIIIIIIIIIIIIIIIIIIIIIIIIIII",
"IIIIIIIIIIIIIIIIIIIIIIIIIIIIIIIIIIIIIIIIIIIIIIIIIIIIIIIIIIIIIIIIIIIIIIIIIIIIIIIIIIIIIIIIIIIIIIIIIIIIIIIIIIIIIIIIIIIIIIIIIIIIIIIIIIIIIIIIIIIIIIIIIIIIIIIIIIIIIIIIIIIIIIIIIIIIIIIIIIIIIIIIIIIIIIII",
"IIIIIIIIIIIIIIIIIIIIIIIIIIIIIIIIIIIIIIIIIIIIIIIIIIIIIIIIIIIIIIIIIIIIIIIIIIIIIIIIIIIIIIIIIIIIIIIIIIIIIIIIIIIIIIIIIIIIIIIIIIIIIIIIIIIIIIIIIIIIIIIIIIIIIIIIIIIIIIIIIIIIIIIIIIIIIIIIIIIIIIIIIIIIIIII",
"IIIIIIIIIIIIIIIIIIIIIIIIIIIIIIIIIIIIIIIIIIIIIIIIIIIIIIIIIIIIIIIIIIIIIIIIIIIIIIIIIIIIIIIIIIIIIIIIIIIIIIIIIIIIIIIIIIIIIIIIIIIIIIIIIIIIIIIIIIIIIIIIIIIIIIIIIIIIIIIIIIIIIIIIIIIIIIIIIIIIIIIIIIIIIIII",
"IIIIIIIIIIIIIIIIIIIIIIIIIIIIIIIIIIIIIIIIIIIIIIIIIIIIIIIIIIIIIIIIIIIIIIIIIIIIIIIIIIIIIIIIIIIIIIIIIIIIIIIIIIIIIIIIIIIIIIIIIIIIIIIIIIIIIIIIIIIIIIIIIIIIIIIIIIIIIIIIIIIIIIIIIIIIIIIIIIIIIIIIIIIIIIII"
};
